<svg xmlns="http://www.w3.org/2000/svg" width="20" height="20" viewBox="0 0 20 20">
  <g id="balance" transform="translate(-11.2 165.737)" opacity="0.8">
    <g id="Group_1763" data-name="Group 1763" transform="translate(11.2 -165.738)">
      <path id="Path_2317" data-name="Path 2317" d="M14.157,118.29a.489.489,0,0,1,.428-.447h6.175v-.965c0-.778.882-.778.882,0v.965h6.175a.489.489,0,0,1,.428.447l2.072,8.5H31.2c0,5.976-6.768,5.975-6.768,0h.885l1.892-7.76H21.641v14.015c1.658.363,3.009,2.655,4.721,3.252H16.038c1.712-.6,3.063-2.889,4.721-3.252V119.027H15.191l1.892,7.76h.884c0,5.976-6.768,5.975-6.768,0h.885Zm15.233,8.5-1.573-6.453-1.573,6.453Zm-13.232,0-1.573-6.453-1.573,6.453Z" transform="translate(-11.2 -116.295)" fill="#6dd179"/>
    </g>
  </g>
</svg>
