<svg width="223" height="160" viewBox="0 0 223 160" fill="none" xmlns="http://www.w3.org/2000/svg">
<g clip-path="url(#clip0_1211_2)">
<path d="M219.593 35.6859C221.076 35.6859 222.277 34.4842 222.277 33.0019C222.277 31.5195 221.076 30.3179 219.593 30.3179C218.111 30.3179 216.909 31.5195 216.909 33.0019C216.909 34.4842 218.111 35.6859 219.593 35.6859Z" fill="#E6E6E6"/>
<path d="M206.008 35.6859C207.491 35.6859 208.692 34.4842 208.692 33.0019C208.692 31.5195 207.491 30.3179 206.008 30.3179C204.526 30.3179 203.324 31.5195 203.324 33.0019C203.324 34.4842 204.526 35.6859 206.008 35.6859Z" fill="#E6E6E6"/>
<path d="M192.422 35.6859C193.905 35.6859 195.106 34.4842 195.106 33.0019C195.106 31.5195 193.905 30.3179 192.422 30.3179C190.94 30.3179 189.738 31.5195 189.738 33.0019C189.738 34.4842 190.94 35.6859 192.422 35.6859Z" fill="#E6E6E6"/>
<path d="M178.837 35.6859C180.32 35.6859 181.521 34.4842 181.521 33.0019C181.521 31.5195 180.32 30.3179 178.837 30.3179C177.355 30.3179 176.153 31.5195 176.153 33.0019C176.153 34.4842 177.355 35.6859 178.837 35.6859Z" fill="#E6E6E6"/>
<path d="M165.252 35.6859C166.735 35.6859 167.936 34.4842 167.936 33.0019C167.936 31.5195 166.735 30.3179 165.252 30.3179C163.77 30.3179 162.568 31.5195 162.568 33.0019C162.568 34.4842 163.77 35.6859 165.252 35.6859Z" fill="#E6E6E6"/>
<path d="M151.667 35.6859C153.15 35.6859 154.351 34.4842 154.351 33.0019C154.351 31.5195 153.15 30.3179 151.667 30.3179C150.185 30.3179 148.983 31.5195 148.983 33.0019C148.983 34.4842 150.185 35.6859 151.667 35.6859Z" fill="#E6E6E6"/>
<path d="M138.081 35.6859C139.564 35.6859 140.765 34.4842 140.765 33.0019C140.765 31.5195 139.564 30.3179 138.081 30.3179C136.599 30.3179 135.397 31.5195 135.397 33.0019C135.397 34.4842 136.599 35.6859 138.081 35.6859Z" fill="#E6E6E6"/>
<path d="M124.497 35.6859C125.979 35.6859 127.181 34.4842 127.181 33.0019C127.181 31.5195 125.979 30.3179 124.497 30.3179C123.014 30.3179 121.812 31.5195 121.812 33.0019C121.812 34.4842 123.014 35.6859 124.497 35.6859Z" fill="#E6E6E6"/>
<path d="M110.911 35.6859C112.393 35.6859 113.595 34.4842 113.595 33.0019C113.595 31.5195 112.393 30.3179 110.911 30.3179C109.428 30.3179 108.227 31.5195 108.227 33.0019C108.227 34.4842 109.428 35.6859 110.911 35.6859Z" fill="#E6E6E6"/>
<path d="M97.3246 35.6859C98.807 35.6859 100.009 34.4842 100.009 33.0019C100.009 31.5195 98.807 30.3179 97.3246 30.3179C95.8423 30.3179 94.6406 31.5195 94.6406 33.0019C94.6406 34.4842 95.8423 35.6859 97.3246 35.6859Z" fill="#E6E6E6"/>
<path d="M219.593 49.4412C221.076 49.4412 222.277 48.2396 222.277 46.7572C222.277 45.2749 221.076 44.0732 219.593 44.0732C218.111 44.0732 216.909 45.2749 216.909 46.7572C216.909 48.2396 218.111 49.4412 219.593 49.4412Z" fill="#E6E6E6"/>
<path d="M206.008 49.4412C207.491 49.4412 208.692 48.2396 208.692 46.7572C208.692 45.2749 207.491 44.0732 206.008 44.0732C204.526 44.0732 203.324 45.2749 203.324 46.7572C203.324 48.2396 204.526 49.4412 206.008 49.4412Z" fill="#E6E6E6"/>
<path d="M192.422 49.4412C193.905 49.4412 195.106 48.2396 195.106 46.7572C195.106 45.2749 193.905 44.0732 192.422 44.0732C190.94 44.0732 189.738 45.2749 189.738 46.7572C189.738 48.2396 190.94 49.4412 192.422 49.4412Z" fill="#E6E6E6"/>
<path d="M178.837 49.4412C180.32 49.4412 181.521 48.2396 181.521 46.7572C181.521 45.2749 180.32 44.0732 178.837 44.0732C177.355 44.0732 176.153 45.2749 176.153 46.7572C176.153 48.2396 177.355 49.4412 178.837 49.4412Z" fill="#6DD179"/>
<path d="M165.252 49.4412C166.735 49.4412 167.936 48.2396 167.936 46.7572C167.936 45.2749 166.735 44.0732 165.252 44.0732C163.77 44.0732 162.568 45.2749 162.568 46.7572C162.568 48.2396 163.77 49.4412 165.252 49.4412Z" fill="#E6E6E6"/>
<path d="M151.667 49.4412C153.15 49.4412 154.351 48.2396 154.351 46.7572C154.351 45.2749 153.15 44.0732 151.667 44.0732C150.185 44.0732 148.983 45.2749 148.983 46.7572C148.983 48.2396 150.185 49.4412 151.667 49.4412Z" fill="#E6E6E6"/>
<path d="M138.081 49.4412C139.564 49.4412 140.765 48.2396 140.765 46.7572C140.765 45.2749 139.564 44.0732 138.081 44.0732C136.599 44.0732 135.397 45.2749 135.397 46.7572C135.397 48.2396 136.599 49.4412 138.081 49.4412Z" fill="#E6E6E6"/>
<path d="M124.497 49.4412C125.979 49.4412 127.181 48.2396 127.181 46.7572C127.181 45.2749 125.979 44.0732 124.497 44.0732C123.014 44.0732 121.812 45.2749 121.812 46.7572C121.812 48.2396 123.014 49.4412 124.497 49.4412Z" fill="#E6E6E6"/>
<path d="M110.911 49.4412C112.393 49.4412 113.595 48.2396 113.595 46.7572C113.595 45.2749 112.393 44.0732 110.911 44.0732C109.428 44.0732 108.227 45.2749 108.227 46.7572C108.227 48.2396 109.428 49.4412 110.911 49.4412Z" fill="#E6E6E6"/>
<path d="M97.3246 49.4412C98.807 49.4412 100.009 48.2396 100.009 46.7572C100.009 45.2749 98.807 44.0732 97.3246 44.0732C95.8423 44.0732 94.6406 45.2749 94.6406 46.7572C94.6406 48.2396 95.8423 49.4412 97.3246 49.4412Z" fill="#E6E6E6"/>
<path d="M219.593 63.1971C221.076 63.1971 222.277 61.9954 222.277 60.5131C222.277 59.0308 221.076 57.8291 219.593 57.8291C218.111 57.8291 216.909 59.0308 216.909 60.5131C216.909 61.9954 218.111 63.1971 219.593 63.1971Z" fill="#E6E6E6"/>
<path d="M206.008 63.1971C207.491 63.1971 208.692 61.9954 208.692 60.5131C208.692 59.0308 207.491 57.8291 206.008 57.8291C204.526 57.8291 203.324 59.0308 203.324 60.5131C203.324 61.9954 204.526 63.1971 206.008 63.1971Z" fill="#E6E6E6"/>
<path d="M192.422 63.1971C193.905 63.1971 195.106 61.9954 195.106 60.5131C195.106 59.0308 193.905 57.8291 192.422 57.8291C190.94 57.8291 189.738 59.0308 189.738 60.5131C189.738 61.9954 190.94 63.1971 192.422 63.1971Z" fill="#E6E6E6"/>
<path d="M178.837 63.1971C180.32 63.1971 181.521 61.9954 181.521 60.5131C181.521 59.0308 180.32 57.8291 178.837 57.8291C177.355 57.8291 176.153 59.0308 176.153 60.5131C176.153 61.9954 177.355 63.1971 178.837 63.1971Z" fill="#E6E6E6"/>
<path d="M165.252 63.1971C166.735 63.1971 167.936 61.9954 167.936 60.5131C167.936 59.0308 166.735 57.8291 165.252 57.8291C163.77 57.8291 162.568 59.0308 162.568 60.5131C162.568 61.9954 163.77 63.1971 165.252 63.1971Z" fill="#E6E6E6"/>
<path d="M151.667 63.1971C153.15 63.1971 154.351 61.9954 154.351 60.5131C154.351 59.0308 153.15 57.8291 151.667 57.8291C150.185 57.8291 148.983 59.0308 148.983 60.5131C148.983 61.9954 150.185 63.1971 151.667 63.1971Z" fill="#E6E6E6"/>
<path d="M138.081 63.1971C139.564 63.1971 140.765 61.9954 140.765 60.5131C140.765 59.0308 139.564 57.8291 138.081 57.8291C136.599 57.8291 135.397 59.0308 135.397 60.5131C135.397 61.9954 136.599 63.1971 138.081 63.1971Z" fill="#E6E6E6"/>
<path d="M124.497 63.1971C125.979 63.1971 127.181 61.9954 127.181 60.5131C127.181 59.0308 125.979 57.8291 124.497 57.8291C123.014 57.8291 121.812 59.0308 121.812 60.5131C121.812 61.9954 123.014 63.1971 124.497 63.1971Z" fill="#E6E6E6"/>
<path d="M110.911 63.1971C112.393 63.1971 113.595 61.9954 113.595 60.5131C113.595 59.0308 112.393 57.8291 110.911 57.8291C109.428 57.8291 108.227 59.0308 108.227 60.5131C108.227 61.9954 109.428 63.1971 110.911 63.1971Z" fill="#E6E6E6"/>
<path d="M97.3246 63.1971C98.807 63.1971 100.009 61.9954 100.009 60.5131C100.009 59.0308 98.807 57.8291 97.3246 57.8291C95.8423 57.8291 94.6406 59.0308 94.6406 60.5131C94.6406 61.9954 95.8423 63.1971 97.3246 63.1971Z" fill="#E6E6E6"/>
<path d="M219.593 76.953C221.076 76.953 222.277 75.7513 222.277 74.269C222.277 72.7866 221.076 71.585 219.593 71.585C218.111 71.585 216.909 72.7866 216.909 74.269C216.909 75.7513 218.111 76.953 219.593 76.953Z" fill="#E6E6E6"/>
<path d="M206.008 76.953C207.491 76.953 208.692 75.7513 208.692 74.269C208.692 72.7866 207.491 71.585 206.008 71.585C204.526 71.585 203.324 72.7866 203.324 74.269C203.324 75.7513 204.526 76.953 206.008 76.953Z" fill="#E6E6E6"/>
<path d="M192.422 76.953C193.905 76.953 195.106 75.7513 195.106 74.269C195.106 72.7866 193.905 71.585 192.422 71.585C190.94 71.585 189.738 72.7866 189.738 74.269C189.738 75.7513 190.94 76.953 192.422 76.953Z" fill="#E6E6E6"/>
<path d="M178.837 76.953C180.32 76.953 181.521 75.7513 181.521 74.269C181.521 72.7866 180.32 71.585 178.837 71.585C177.355 71.585 176.153 72.7866 176.153 74.269C176.153 75.7513 177.355 76.953 178.837 76.953Z" fill="#E6E6E6"/>
<path d="M165.252 76.953C166.735 76.953 167.936 75.7513 167.936 74.269C167.936 72.7866 166.735 71.585 165.252 71.585C163.77 71.585 162.568 72.7866 162.568 74.269C162.568 75.7513 163.77 76.953 165.252 76.953Z" fill="#E6E6E6"/>
<path d="M151.667 76.953C153.15 76.953 154.351 75.7513 154.351 74.269C154.351 72.7866 153.15 71.585 151.667 71.585C150.185 71.585 148.983 72.7866 148.983 74.269C148.983 75.7513 150.185 76.953 151.667 76.953Z" fill="#E6E6E6"/>
<path d="M138.081 76.953C139.564 76.953 140.765 75.7513 140.765 74.269C140.765 72.7866 139.564 71.585 138.081 71.585C136.599 71.585 135.397 72.7866 135.397 74.269C135.397 75.7513 136.599 76.953 138.081 76.953Z" fill="#E6E6E6"/>
<path d="M124.497 76.953C125.979 76.953 127.181 75.7513 127.181 74.269C127.181 72.7866 125.979 71.585 124.497 71.585C123.014 71.585 121.812 72.7866 121.812 74.269C121.812 75.7513 123.014 76.953 124.497 76.953Z" fill="#E6E6E6"/>
<path d="M110.911 76.953C112.393 76.953 113.595 75.7513 113.595 74.269C113.595 72.7866 112.393 71.585 110.911 71.585C109.428 71.585 108.227 72.7866 108.227 74.269C108.227 75.7513 109.428 76.953 110.911 76.953Z" fill="#E6E6E6"/>
<path d="M97.3246 76.953C98.807 76.953 100.009 75.7513 100.009 74.269C100.009 72.7866 98.807 71.585 97.3246 71.585C95.8423 71.585 94.6406 72.7866 94.6406 74.269C94.6406 75.7513 95.8423 76.953 97.3246 76.953Z" fill="#E6E6E6"/>
<path d="M219.593 90.7078C221.076 90.7078 222.277 89.5062 222.277 88.0238C222.277 86.5415 221.076 85.3398 219.593 85.3398C218.111 85.3398 216.909 86.5415 216.909 88.0238C216.909 89.5062 218.111 90.7078 219.593 90.7078Z" fill="#E6E6E6"/>
<path d="M206.008 90.7078C207.491 90.7078 208.692 89.5062 208.692 88.0238C208.692 86.5415 207.491 85.3398 206.008 85.3398C204.526 85.3398 203.324 86.5415 203.324 88.0238C203.324 89.5062 204.526 90.7078 206.008 90.7078Z" fill="#6DD179"/>
<path d="M192.422 90.7078C193.905 90.7078 195.106 89.5062 195.106 88.0238C195.106 86.5415 193.905 85.3398 192.422 85.3398C190.94 85.3398 189.738 86.5415 189.738 88.0238C189.738 89.5062 190.94 90.7078 192.422 90.7078Z" fill="#E6E6E6"/>
<path d="M178.837 90.7078C180.32 90.7078 181.521 89.5062 181.521 88.0238C181.521 86.5415 180.32 85.3398 178.837 85.3398C177.355 85.3398 176.153 86.5415 176.153 88.0238C176.153 89.5062 177.355 90.7078 178.837 90.7078Z" fill="#E6E6E6"/>
<path d="M165.252 90.7078C166.735 90.7078 167.936 89.5062 167.936 88.0238C167.936 86.5415 166.735 85.3398 165.252 85.3398C163.77 85.3398 162.568 86.5415 162.568 88.0238C162.568 89.5062 163.77 90.7078 165.252 90.7078Z" fill="#E6E6E6"/>
<path d="M151.667 90.7078C153.15 90.7078 154.351 89.5062 154.351 88.0238C154.351 86.5415 153.15 85.3398 151.667 85.3398C150.185 85.3398 148.983 86.5415 148.983 88.0238C148.983 89.5062 150.185 90.7078 151.667 90.7078Z" fill="#E6E6E6"/>
<path d="M138.081 90.7078C139.564 90.7078 140.765 89.5062 140.765 88.0238C140.765 86.5415 139.564 85.3398 138.081 85.3398C136.599 85.3398 135.397 86.5415 135.397 88.0238C135.397 89.5062 136.599 90.7078 138.081 90.7078Z" fill="#E6E6E6"/>
<path d="M124.497 90.7078C125.979 90.7078 127.181 89.5062 127.181 88.0238C127.181 86.5415 125.979 85.3398 124.497 85.3398C123.014 85.3398 121.812 86.5415 121.812 88.0238C121.812 89.5062 123.014 90.7078 124.497 90.7078Z" fill="#E6E6E6"/>
<path d="M110.911 90.7078C112.393 90.7078 113.595 89.5062 113.595 88.0238C113.595 86.5415 112.393 85.3398 110.911 85.3398C109.428 85.3398 108.227 86.5415 108.227 88.0238C108.227 89.5062 109.428 90.7078 110.911 90.7078Z" fill="#E6E6E6"/>
<path d="M97.3246 90.7078C98.807 90.7078 100.009 89.5062 100.009 88.0238C100.009 86.5415 98.807 85.3398 97.3246 85.3398C95.8423 85.3398 94.6406 86.5415 94.6406 88.0238C94.6406 89.5062 95.8423 90.7078 97.3246 90.7078Z" fill="#E6E6E6"/>
<path d="M219.593 104.464C221.076 104.464 222.277 103.263 222.277 101.78C222.277 100.298 221.076 99.0962 219.593 99.0962C218.111 99.0962 216.909 100.298 216.909 101.78C216.909 103.263 218.111 104.464 219.593 104.464Z" fill="#E6E6E6"/>
<path d="M206.008 104.464C207.491 104.464 208.692 103.263 208.692 101.78C208.692 100.298 207.491 99.0962 206.008 99.0962C204.526 99.0962 203.324 100.298 203.324 101.78C203.324 103.263 204.526 104.464 206.008 104.464Z" fill="#E6E6E6"/>
<path d="M192.422 104.464C193.905 104.464 195.106 103.263 195.106 101.78C195.106 100.298 193.905 99.0962 192.422 99.0962C190.94 99.0962 189.738 100.298 189.738 101.78C189.738 103.263 190.94 104.464 192.422 104.464Z" fill="#E6E6E6"/>
<path d="M178.837 104.464C180.32 104.464 181.521 103.263 181.521 101.78C181.521 100.298 180.32 99.0962 178.837 99.0962C177.355 99.0962 176.153 100.298 176.153 101.78C176.153 103.263 177.355 104.464 178.837 104.464Z" fill="#E6E6E6"/>
<path d="M165.252 104.464C166.735 104.464 167.936 103.263 167.936 101.78C167.936 100.298 166.735 99.0962 165.252 99.0962C163.77 99.0962 162.568 100.298 162.568 101.78C162.568 103.263 163.77 104.464 165.252 104.464Z" fill="#E6E6E6"/>
<path d="M151.667 104.464C153.15 104.464 154.351 103.263 154.351 101.78C154.351 100.298 153.15 99.0962 151.667 99.0962C150.185 99.0962 148.983 100.298 148.983 101.78C148.983 103.263 150.185 104.464 151.667 104.464Z" fill="#E6E6E6"/>
<path d="M138.081 104.464C139.564 104.464 140.765 103.263 140.765 101.78C140.765 100.298 139.564 99.0962 138.081 99.0962C136.599 99.0962 135.397 100.298 135.397 101.78C135.397 103.263 136.599 104.464 138.081 104.464Z" fill="#E6E6E6"/>
<path d="M124.497 104.464C125.979 104.464 127.181 103.263 127.181 101.78C127.181 100.298 125.979 99.0962 124.497 99.0962C123.014 99.0962 121.812 100.298 121.812 101.78C121.812 103.263 123.014 104.464 124.497 104.464Z" fill="#E6E6E6"/>
<path d="M110.911 104.464C112.393 104.464 113.595 103.263 113.595 101.78C113.595 100.298 112.393 99.0962 110.911 99.0962C109.428 99.0962 108.227 100.298 108.227 101.78C108.227 103.263 109.428 104.464 110.911 104.464Z" fill="#E6E6E6"/>
<path d="M97.3246 104.464C98.807 104.464 100.009 103.263 100.009 101.78C100.009 100.298 98.807 99.0962 97.3246 99.0962C95.8423 99.0962 94.6406 100.298 94.6406 101.78C94.6406 103.263 95.8423 104.464 97.3246 104.464Z" fill="#E6E6E6"/>
<path d="M219.593 118.22C221.076 118.22 222.277 117.018 222.277 115.536C222.277 114.054 221.076 112.852 219.593 112.852C218.111 112.852 216.909 114.054 216.909 115.536C216.909 117.018 218.111 118.22 219.593 118.22Z" fill="#E6E6E6"/>
<path d="M206.008 118.22C207.491 118.22 208.692 117.018 208.692 115.536C208.692 114.054 207.491 112.852 206.008 112.852C204.526 112.852 203.324 114.054 203.324 115.536C203.324 117.018 204.526 118.22 206.008 118.22Z" fill="#E6E6E6"/>
<path d="M192.422 118.22C193.905 118.22 195.106 117.018 195.106 115.536C195.106 114.054 193.905 112.852 192.422 112.852C190.94 112.852 189.738 114.054 189.738 115.536C189.738 117.018 190.94 118.22 192.422 118.22Z" fill="#6DD179"/>
<path d="M178.837 118.22C180.32 118.22 181.521 117.018 181.521 115.536C181.521 114.054 180.32 112.852 178.837 112.852C177.355 112.852 176.153 114.054 176.153 115.536C176.153 117.018 177.355 118.22 178.837 118.22Z" fill="#E6E6E6"/>
<path d="M165.252 118.22C166.735 118.22 167.936 117.018 167.936 115.536C167.936 114.054 166.735 112.852 165.252 112.852C163.77 112.852 162.568 114.054 162.568 115.536C162.568 117.018 163.77 118.22 165.252 118.22Z" fill="#E6E6E6"/>
<path d="M151.667 118.22C153.15 118.22 154.351 117.018 154.351 115.536C154.351 114.054 153.15 112.852 151.667 112.852C150.185 112.852 148.983 114.054 148.983 115.536C148.983 117.018 150.185 118.22 151.667 118.22Z" fill="#E6E6E6"/>
<path d="M138.081 118.22C139.564 118.22 140.765 117.018 140.765 115.536C140.765 114.054 139.564 112.852 138.081 112.852C136.599 112.852 135.397 114.054 135.397 115.536C135.397 117.018 136.599 118.22 138.081 118.22Z" fill="#E6E6E6"/>
<path d="M124.497 118.22C125.979 118.22 127.181 117.018 127.181 115.536C127.181 114.054 125.979 112.852 124.497 112.852C123.014 112.852 121.812 114.054 121.812 115.536C121.812 117.018 123.014 118.22 124.497 118.22Z" fill="#E6E6E6"/>
<path d="M110.911 118.22C112.393 118.22 113.595 117.018 113.595 115.536C113.595 114.054 112.393 112.852 110.911 112.852C109.428 112.852 108.227 114.054 108.227 115.536C108.227 117.018 109.428 118.22 110.911 118.22Z" fill="#E6E6E6"/>
<path d="M97.3246 118.22C98.807 118.22 100.009 117.018 100.009 115.536C100.009 114.054 98.807 112.852 97.3246 112.852C95.8423 112.852 94.6406 114.054 94.6406 115.536C94.6406 117.018 95.8423 118.22 97.3246 118.22Z" fill="#E6E6E6"/>
<path d="M219.593 131.976C221.076 131.976 222.277 130.774 222.277 129.292C222.277 127.81 221.076 126.608 219.593 126.608C218.111 126.608 216.909 127.81 216.909 129.292C216.909 130.774 218.111 131.976 219.593 131.976Z" fill="#E6E6E6"/>
<path d="M206.008 131.976C207.491 131.976 208.692 130.774 208.692 129.292C208.692 127.81 207.491 126.608 206.008 126.608C204.526 126.608 203.324 127.81 203.324 129.292C203.324 130.774 204.526 131.976 206.008 131.976Z" fill="#E6E6E6"/>
<path d="M192.422 131.976C193.905 131.976 195.106 130.774 195.106 129.292C195.106 127.81 193.905 126.608 192.422 126.608C190.94 126.608 189.738 127.81 189.738 129.292C189.738 130.774 190.94 131.976 192.422 131.976Z" fill="#E6E6E6"/>
<path d="M178.837 131.976C180.32 131.976 181.521 130.774 181.521 129.292C181.521 127.81 180.32 126.608 178.837 126.608C177.355 126.608 176.153 127.81 176.153 129.292C176.153 130.774 177.355 131.976 178.837 131.976Z" fill="#E6E6E6"/>
<path d="M165.252 131.976C166.735 131.976 167.936 130.774 167.936 129.292C167.936 127.81 166.735 126.608 165.252 126.608C163.77 126.608 162.568 127.81 162.568 129.292C162.568 130.774 163.77 131.976 165.252 131.976Z" fill="#E6E6E6"/>
<path d="M151.667 131.976C153.15 131.976 154.351 130.774 154.351 129.292C154.351 127.81 153.15 126.608 151.667 126.608C150.185 126.608 148.983 127.81 148.983 129.292C148.983 130.774 150.185 131.976 151.667 131.976Z" fill="#E6E6E6"/>
<path d="M138.081 131.976C139.564 131.976 140.765 130.774 140.765 129.292C140.765 127.81 139.564 126.608 138.081 126.608C136.599 126.608 135.397 127.81 135.397 129.292C135.397 130.774 136.599 131.976 138.081 131.976Z" fill="#E6E6E6"/>
<path d="M124.497 131.976C125.979 131.976 127.181 130.774 127.181 129.292C127.181 127.81 125.979 126.608 124.497 126.608C123.014 126.608 121.812 127.81 121.812 129.292C121.812 130.774 123.014 131.976 124.497 131.976Z" fill="#E6E6E6"/>
<path d="M110.911 131.976C112.393 131.976 113.595 130.774 113.595 129.292C113.595 127.81 112.393 126.608 110.911 126.608C109.428 126.608 108.227 127.81 108.227 129.292C108.227 130.774 109.428 131.976 110.911 131.976Z" fill="#E6E6E6"/>
<path d="M97.3246 131.976C98.807 131.976 100.009 130.774 100.009 129.292C100.009 127.81 98.807 126.608 97.3246 126.608C95.8423 126.608 94.6406 127.81 94.6406 129.292C94.6406 130.774 95.8423 131.976 97.3246 131.976Z" fill="#E6E6E6"/>
<path d="M219.593 145.732C221.076 145.732 222.277 144.531 222.277 143.048C222.277 141.566 221.076 140.364 219.593 140.364C218.111 140.364 216.909 141.566 216.909 143.048C216.909 144.531 218.111 145.732 219.593 145.732Z" fill="#E6E6E6"/>
<path d="M206.008 145.732C207.491 145.732 208.692 144.531 208.692 143.048C208.692 141.566 207.491 140.364 206.008 140.364C204.526 140.364 203.324 141.566 203.324 143.048C203.324 144.531 204.526 145.732 206.008 145.732Z" fill="#E6E6E6"/>
<path d="M192.422 145.732C193.905 145.732 195.106 144.531 195.106 143.048C195.106 141.566 193.905 140.364 192.422 140.364C190.94 140.364 189.738 141.566 189.738 143.048C189.738 144.531 190.94 145.732 192.422 145.732Z" fill="#E6E6E6"/>
<path d="M178.837 145.732C180.32 145.732 181.521 144.531 181.521 143.048C181.521 141.566 180.32 140.364 178.837 140.364C177.355 140.364 176.153 141.566 176.153 143.048C176.153 144.531 177.355 145.732 178.837 145.732Z" fill="#E6E6E6"/>
<path d="M165.252 145.732C166.735 145.732 167.936 144.531 167.936 143.048C167.936 141.566 166.735 140.364 165.252 140.364C163.77 140.364 162.568 141.566 162.568 143.048C162.568 144.531 163.77 145.732 165.252 145.732Z" fill="#E6E6E6"/>
<path d="M151.667 145.732C153.15 145.732 154.351 144.531 154.351 143.048C154.351 141.566 153.15 140.364 151.667 140.364C150.185 140.364 148.983 141.566 148.983 143.048C148.983 144.531 150.185 145.732 151.667 145.732Z" fill="#E6E6E6"/>
<path d="M138.081 145.732C139.564 145.732 140.765 144.531 140.765 143.048C140.765 141.566 139.564 140.364 138.081 140.364C136.599 140.364 135.397 141.566 135.397 143.048C135.397 144.531 136.599 145.732 138.081 145.732Z" fill="#E6E6E6"/>
<path d="M124.497 145.732C125.979 145.732 127.181 144.531 127.181 143.048C127.181 141.566 125.979 140.364 124.497 140.364C123.014 140.364 121.812 141.566 121.812 143.048C121.812 144.531 123.014 145.732 124.497 145.732Z" fill="#E6E6E6"/>
<path d="M110.911 145.732C112.393 145.732 113.595 144.531 113.595 143.048C113.595 141.566 112.393 140.364 110.911 140.364C109.428 140.364 108.227 141.566 108.227 143.048C108.227 144.531 109.428 145.732 110.911 145.732Z" fill="#E6E6E6"/>
<path d="M97.3246 145.732C98.807 145.732 100.009 144.531 100.009 143.048C100.009 141.566 98.807 140.364 97.3246 140.364C95.8423 140.364 94.6406 141.566 94.6406 143.048C94.6406 144.531 95.8423 145.732 97.3246 145.732Z" fill="#E6E6E6"/>
<path d="M219.593 159.487C221.076 159.487 222.277 158.285 222.277 156.803C222.277 155.321 221.076 154.119 219.593 154.119C218.111 154.119 216.909 155.321 216.909 156.803C216.909 158.285 218.111 159.487 219.593 159.487Z" fill="#E6E6E6"/>
<path d="M206.008 159.487C207.491 159.487 208.692 158.285 208.692 156.803C208.692 155.321 207.491 154.119 206.008 154.119C204.526 154.119 203.324 155.321 203.324 156.803C203.324 158.285 204.526 159.487 206.008 159.487Z" fill="#E6E6E6"/>
<path d="M192.422 159.487C193.905 159.487 195.106 158.285 195.106 156.803C195.106 155.321 193.905 154.119 192.422 154.119C190.94 154.119 189.738 155.321 189.738 156.803C189.738 158.285 190.94 159.487 192.422 159.487Z" fill="#E6E6E6"/>
<path d="M178.837 159.487C180.32 159.487 181.521 158.285 181.521 156.803C181.521 155.321 180.32 154.119 178.837 154.119C177.355 154.119 176.153 155.321 176.153 156.803C176.153 158.285 177.355 159.487 178.837 159.487Z" fill="#E6E6E6"/>
<path d="M165.252 159.487C166.735 159.487 167.936 158.285 167.936 156.803C167.936 155.321 166.735 154.119 165.252 154.119C163.77 154.119 162.568 155.321 162.568 156.803C162.568 158.285 163.77 159.487 165.252 159.487Z" fill="#E6E6E6"/>
<path d="M151.667 159.487C153.15 159.487 154.351 158.285 154.351 156.803C154.351 155.321 153.15 154.119 151.667 154.119C150.185 154.119 148.983 155.321 148.983 156.803C148.983 158.285 150.185 159.487 151.667 159.487Z" fill="#E6E6E6"/>
<path d="M138.081 159.487C139.564 159.487 140.765 158.285 140.765 156.803C140.765 155.321 139.564 154.119 138.081 154.119C136.599 154.119 135.397 155.321 135.397 156.803C135.397 158.285 136.599 159.487 138.081 159.487Z" fill="#E6E6E6"/>
<path d="M124.497 159.487C125.979 159.487 127.181 158.285 127.181 156.803C127.181 155.321 125.979 154.119 124.497 154.119C123.014 154.119 121.812 155.321 121.812 156.803C121.812 158.285 123.014 159.487 124.497 159.487Z" fill="#E6E6E6"/>
<path d="M110.911 159.487C112.393 159.487 113.595 158.285 113.595 156.803C113.595 155.321 112.393 154.119 110.911 154.119C109.428 154.119 108.227 155.321 108.227 156.803C108.227 158.285 109.428 159.487 110.911 159.487Z" fill="#E6E6E6"/>
<path d="M97.3246 159.487C98.807 159.487 100.009 158.285 100.009 156.803C100.009 155.321 98.807 154.119 97.3246 154.119C95.8423 154.119 94.6406 155.321 94.6406 156.803C94.6406 158.285 95.8423 159.487 97.3246 159.487Z" fill="#E6E6E6"/>
<path d="M147.892 141.398H70.3039C65.9739 141.392 62.4659 137.198 62.4609 132.033V9.36501C62.4609 4.19601 65.9749 0.006 70.3039 0H147.895C152.225 0.006 155.733 4.20001 155.738 9.36501V132.035C155.73 137.203 152.221 141.392 147.892 141.398Z" fill="#DEE9E3"/>
<path d="M142.438 133.592H75.755C71.911 133.587 68.795 129.867 68.791 125.277V16.1192C68.791 11.5292 71.911 7.8092 75.755 7.8042H142.438C146.282 7.8092 149.398 11.5292 149.402 16.1192V125.277C149.4 129.867 146.282 133.587 142.438 133.592Z" fill="white"/>
<path d="M130.658 104.666H87.6403C87.2682 104.666 86.9113 104.518 86.6482 104.255C86.3851 103.992 86.2373 103.635 86.2373 103.263C86.2373 102.891 86.3851 102.534 86.6482 102.271C86.9113 102.008 87.2682 101.86 87.6403 101.86H130.658C131.03 101.86 131.387 102.008 131.65 102.271C131.914 102.534 132.061 102.891 132.061 103.263C132.061 103.635 131.914 103.992 131.65 104.255C131.387 104.518 131.03 104.666 130.658 104.666Z" fill="#E4E4E4"/>
<path d="M130.658 110.21H87.6403C87.2682 110.21 86.9113 110.062 86.6482 109.799C86.3851 109.536 86.2373 109.179 86.2373 108.807C86.2373 108.435 86.3851 108.078 86.6482 107.815C86.9113 107.552 87.2682 107.404 87.6403 107.404H130.658C131.03 107.404 131.387 107.552 131.65 107.815C131.914 108.078 132.061 108.435 132.061 108.807C132.061 109.179 131.914 109.536 131.65 109.799C131.387 110.062 131.03 110.21 130.658 110.21Z" fill="#E4E4E4"/>
<path d="M106.287 115.754H87.6403C87.2682 115.754 86.9113 115.606 86.6482 115.343C86.3851 115.08 86.2373 114.723 86.2373 114.351C86.2373 113.979 86.3851 113.622 86.6482 113.359C86.9113 113.096 87.2682 112.948 87.6403 112.948H106.287C106.659 112.948 107.016 113.096 107.279 113.359C107.542 113.622 107.69 113.979 107.69 114.351C107.69 114.723 107.542 115.08 107.279 115.343C107.016 115.606 106.659 115.754 106.287 115.754V115.754Z" fill="#E4E4E4"/>
<path d="M72.913 28.4252L45.823 7.05524H27.623V6.74023H45.949L73.135 28.1862L72.913 28.4252Z" fill="#2F2E41"/>
<path d="M27.6231 11.7452C30.2249 11.7452 32.3341 9.63606 32.3341 7.03424C32.3341 4.43243 30.2249 2.32324 27.6231 2.32324C25.0213 2.32324 22.9121 4.43243 22.9121 7.03424C22.9121 9.63606 25.0213 11.7452 27.6231 11.7452Z" fill="#6DD179"/>
<path d="M44.421 22.8822H1.40202C1.02992 22.8822 0.673071 22.7343 0.409958 22.4712C0.146844 22.2081 -0.000976562 21.8513 -0.000976562 21.4792C-0.000976562 21.1071 0.146844 20.7502 0.409958 20.4871C0.673071 20.224 1.02992 20.0762 1.40202 20.0762H44.42C44.7921 20.0762 45.149 20.224 45.4121 20.4871C45.6752 20.7502 45.823 21.1071 45.823 21.4792C45.823 21.8513 45.6752 22.2081 45.4121 22.4712C45.149 22.7343 44.7921 22.8822 44.42 22.8822H44.421Z" fill="#6DD179"/>
<path d="M44.421 28.4261H1.40202C1.02992 28.4261 0.673071 28.2783 0.409958 28.0152C0.146844 27.7521 -0.000976562 27.3952 -0.000976562 27.0231C-0.000976562 26.651 0.146844 26.2941 0.409958 26.031C0.673071 25.7679 1.02992 25.6201 1.40202 25.6201H44.42C44.7921 25.6201 45.149 25.7679 45.4121 26.031C45.6752 26.2941 45.823 26.651 45.823 27.0231C45.823 27.3952 45.6752 27.7521 45.4121 28.0152C45.149 28.2783 44.7921 28.4261 44.42 28.4261H44.421Z" fill="#6DD179"/>
<path d="M20.05 33.9691H1.40202C1.02992 33.9691 0.673071 33.8213 0.409958 33.5582C0.146844 33.2951 -0.000976562 32.9382 -0.000976562 32.5661C-0.000976562 32.194 0.146844 31.8371 0.409958 31.574C0.673071 31.3109 1.02992 31.1631 1.40202 31.1631H20.049C20.4211 31.1631 20.778 31.3109 21.0411 31.574C21.3042 31.8371 21.452 32.194 21.452 32.5661C21.452 32.9382 21.3042 33.2951 21.0411 33.5582C20.778 33.8213 20.4211 33.9691 20.049 33.9691H20.05Z" fill="#6DD179"/>
<path d="M101.368 33.1398C102.1 33.3438 102.676 33.7158 103.096 34.2558C103.516 34.7838 103.726 35.4558 103.726 36.2718C103.726 37.3638 103.312 38.2038 102.484 38.7918C101.668 39.3798 100.474 39.6738 98.902 39.6738H92.89V27.0738H98.542C99.982 27.0738 101.092 27.3618 101.872 27.9378C102.664 28.5138 103.06 29.3118 103.06 30.3318C103.06 30.9918 102.904 31.5618 102.592 32.0418C102.292 32.5218 101.884 32.8878 101.368 33.1398ZM94.69 28.5318V32.5638H98.38C99.304 32.5638 100.012 32.3958 100.504 32.0598C101.008 31.7118 101.26 31.2078 101.26 30.5478C101.26 29.8878 101.008 29.3898 100.504 29.0538C100.012 28.7058 99.304 28.5318 98.38 28.5318H94.69ZM98.83 38.2158C99.85 38.2158 100.618 38.0478 101.134 37.7118C101.65 37.3758 101.908 36.8478 101.908 36.1278C101.908 34.7238 100.882 34.0218 98.83 34.0218H94.69V38.2158H98.83ZM118.195 39.6738L118.177 30.4938L113.623 38.1438H112.795L108.241 30.5478V39.6738H106.513V27.0738H107.989L113.245 35.9298L118.429 27.0738H119.905L119.923 39.6738H118.195ZM123.704 27.0738H125.504V39.6738H123.704V27.0738Z" fill="#6DD179"/>
</g>
<defs>
<clipPath id="clip0_1211_2">
<rect width="222.276" height="159.487" fill="white"/>
</clipPath>
</defs>
</svg>
