<svg xmlns="http://www.w3.org/2000/svg" width="258.661" height="187.945" viewBox="0 0 258.661 187.945">
  <g id="Group_2124" data-name="Group 2124" transform="translate(0 -6)">
    <path id="Path_3148" data-name="Path 3148" d="M140.265,469.336h3.993l1.9-15.4h-5.894Z" transform="translate(-87.281 -280.189)" fill="#ffb6b6"/>
    <path id="Path_3149" data-name="Path 3149" d="M395.188,685.071h1.124l4.388-1.785,2.352,1.784h0a5.012,5.012,0,0,1,5.012,5.011v.163H395.188Z" transform="translate(-343.223 -497.228)" fill="#2f2e41"/>
    <path id="Path_3150" data-name="Path 3150" d="M189.378,469.336h3.993l1.9-15.4h-5.894Z" transform="translate(-117.842 -280.189)" fill="#ffb6b6"/>
    <path id="Path_3151" data-name="Path 3151" d="M444.3,685.071h1.124l4.388-1.785,2.352,1.784h0a5.012,5.012,0,0,1,5.012,5.011v.163H444.3Z" transform="translate(-373.784 -497.228)" fill="#2f2e41"/>
    <path id="Path_3152" data-name="Path 3152" d="M403.763,468.318l-31.374.818.546,15.278s-.546,4.092.546,5.184,1.637,1.091,1.091,3,2.337,5.029,1.987,5.379a14.117,14.117,0,0,0-1.169,2.26l2.728,15.551s1.91,27.009,2.455,27.555,1.091,0,.546,1.364-1.091.818-.546,1.364a20.109,20.109,0,0,1,1.364,1.637h6.6s.5-2.728.5-3,.546-1.91.546-2.183-.482-.755-.482-.755a8.976,8.976,0,0,1-.336-1.7c0-.546-1.637-21.553-1.637-21.553l3.274-27.282,7.912,26.736s0,23.463.546,24.008.546.273.273,1.364-1.364.818-.546,1.637,1.091-.546.818.818l-.273,1.364,8.185.117s1.091-2.3.546-3.118-.513-.6.153-1.934.939-1.612.666-1.885-.273-1.724-.273-1.724l-1.364-26.1s-.273-27.555-.273-28.373a2.721,2.721,0,0,1,.227-1.227V481.8l-1.045-3.937Z" transform="translate(-329.036 -363.461)" fill="#2f2e41"/>
    <path id="Path_3153" data-name="Path 3153" d="M518.566,304.009a3.047,3.047,0,0,1-4.385,1.61l-13.619,11.41-.74-5.577,13.32-10.2a3.063,3.063,0,0,1,5.424,2.755Z" transform="translate(-408.332 -258.654)" fill="#ffb6b6"/>
    <circle id="Ellipse_464" data-name="Ellipse 464" cx="8.457" cy="8.457" r="8.457" transform="translate(41.724 33.148)" fill="#ffb6b6"/>
    <path id="Path_3154" data-name="Path 3154" d="M381.064,273.91c-.787-1.877-4.162-2.991-9.5-2.823s-6.275,6.535-6.275,6.535c-2.941,2.741,1.807,11.3,2.631,10.12s2.207-.065,2.207-.065l-1.318-7.414a5.335,5.335,0,0,0,4.2.271l-2.169-1.16,5.393.671-2.224-1.711.162-.055a7.9,7.9,0,0,0,2.818.64,3.081,3.081,0,0,0,2.814-1.57,2.32,2.32,0,0,0,.2-.9,4.693,4.693,0,0,1,2.384,2.339,28.86,28.86,0,0,0-1.322-4.882Z" transform="translate(-324.026 -240.721)" fill="#2f2e41"/>
    <path id="Path_3155" data-name="Path 3155" d="M374.627,321.084a33.715,33.715,0,0,0-6.044.755c-5.424.914-2.176,6.068-2.176,6.068s.246-.125-.419,0a15,15,0,0,0-2.931,2.085l-4.053,3.6c-6.108,4.794-4.741,12.273-4.741,12.273l8.907,8.964-3.9,17.984s1.658,2.671.8,3.868,7.555.854,7.555.854c5.806,2.588,26.26.4,26.26.4-.283-.74-3.022-6.478-3.022-6.478,1.19-2.055.057-5.024.057-5.024s-1.182-14.044-1.938-15.986,1.934-12.462,3.7-12.348,13.187-5.711,13.187-5.711-.287-.457,3.483-2A18.476,18.476,0,0,0,415.2,326.7l1.549-3.094c-.744.287-3.256-4.45-3.256-4.45l-1.1.418-.635-.183s-4.952,1.409-5.965,2.436-1.352.74-2.266.971-1.027.873-1.314.8-.8.8-1.2.684-1.258.344-1.828.457-4.624,1.828-4.624,1.828c-2.508-1.269-9.307-.755-9.307-.755s-2.225-1.311-2.856,0a2.15,2.15,0,0,1-1.938,1.258l-2.712-1.16C377.6,326.485,374.642,320.488,374.627,321.084Z" transform="translate(-317.675 -270.643)" fill="#ccc"/>
    <path id="Path_3156" data-name="Path 3156" d="M368.9,478.1a3.047,3.047,0,0,1,.68-4.622l-3.843-15.105,5.253,2.013,2.92,14.264a3.063,3.063,0,0,1-5.011,3.45Z" transform="translate(-324.896 -357.271)" fill="#ffb6b6"/>
    <path id="Path_3157" data-name="Path 3157" d="M353.847,382.261l-.475,6.032s-.59,6.627-.435,7.852.442,8.709.442,8.709l5,9.893,5.666-1.511-.339-4.641.339,4.263.755-3.777-1.889-6.422,1.133-2.266-.571-7.608Z" transform="translate(-316.915 -309.911)" fill="#ccc"/>
    <path id="Path_3158" data-name="Path 3158" d="M709.127,316l1.871.4a10.77,10.77,0,0,1,.291-2.323,6.972,6.972,0,0,0,1.053,2.61l10.729,2.291,10.3-10.87c.016-5.435-3-9.565-8.414-9.565-.326,0-.664.016-1.006.047a11.445,11.445,0,0,0-13.1,9C707.013,311.363,708.4,313.583,709.127,316Z" transform="translate(-538.046 -257.747)" fill="#2f2e41"/>
    <path id="Path_3159" data-name="Path 3159" d="M429.487,460H425.6l-1.851-15.011h5.744Z" transform="translate(-263.68 -274.621)" fill="#ffb6b6"/>
    <path id="Path_3160" data-name="Path 3160" d="M678.956,685.1h-2.761l-.493-2.607-1.262,2.607h-7.324a1.646,1.646,0,0,1-.935-3l5.849-4.039v-2.636l6.152.367Z" transform="translate(-511.408 -492.334)" fill="#2f2e41"/>
    <path id="Path_3161" data-name="Path 3161" d="M539.215,452l-3.385,1.92-9.018-12.142,5-2.834Z" transform="translate(-327.815 -270.863)" fill="#ffb6b6"/>
    <path id="Path_3162" data-name="Path 3162" d="M809.911,672.3l-2.4,1.363-1.715-2.024.189,2.891-6.37,3.614a1.646,1.646,0,0,1-2.295-2.149l3.094-6.4-1.3-2.292,5.532-2.717Z" transform="translate(-593.351 -485.588)" fill="#2f2e41"/>
    <path id="Path_3163" data-name="Path 3163" d="M651.921,351.838a3.447,3.447,0,0,1,2.778,4.5l5.955,5.154-2.25,4.383-8.308-7.4a3.465,3.465,0,0,1,1.824-6.636Z" transform="translate(-500.499 -290.955)" fill="#ffb6b6"/>
    <path id="Path_3164" data-name="Path 3164" d="M665.55,376.475l-3.983-6.337L666,365.61l3.145,3.827,3.9,1.738,5.347,3.258c1.063-1.251,9.256-10.664,12.912-7.954a3.68,3.68,0,0,1,1.585,2.638c.258,2.52-2,5.083-2.086,5.178l-4.829,6.515c-.15.409-1.748,4.628-4.242,5.763a2.836,2.836,0,0,1-2.28.074c-6.607-2.576-11.059-5.481-13.046-8.49A7.633,7.633,0,0,1,665.55,376.475Z" transform="translate(-508.981 -299.55)" fill="#2f2e41"/>
    <path id="Path_3165" data-name="Path 3165" d="M695.279,429.384s-11.443,18.227-9.37,20.3a11.067,11.067,0,0,0,5.3,2.617l7.139-9.251Z" transform="translate(-523.972 -339.234)" fill="#2f2e41"/>
    <path id="Path_3166" data-name="Path 3166" d="M718.95,363.484l-5.393,3.648a13.911,13.911,0,0,0-5.42,15.87l1.518,4.615Z" transform="translate(-537.525 -298.227)" fill="#2f2e41"/>
    <path id="Path_3167" data-name="Path 3167" d="M452.795,263.366l.721,2.511,2.46,30.284,12.292,22.908-5.867,4.19-16.761-21.79-6.629-21.636-10.412,47.9-7.822-.559,5.432-66.407,10.309-18.692Z" transform="translate(-261.834 -148.355)" fill="#2f2e41"/>
    <path id="Path_3168" data-name="Path 3168" d="M710.826,365.912l-7.506,6.134a10.222,10.222,0,0,0-3.393,5.226h0a10.221,10.221,0,0,0-.359,2.861l.224,13.32-6.882,18.393s18.658,7.048,21.145.829S710.826,365.912,710.826,365.912Z" transform="translate(-528.484 -299.738)" fill="#ccc"/>
    <path id="Path_3169" data-name="Path 3169" d="M710.618,396.189l-1.244-4.975.3-12.38c.024-.719,3.858-11.915,8.69-23.806l4.157-4.157,2.241-1.458,4.933,4.554s-.627,12.464-.424,25.224c.056,3.53-.564,7.653-.829,10.78l2.267,10.071v5.606l-.147.03c-.147.03-2.419-.04-11.739-.04C711.1,405.636,716.244,400.161,710.618,396.189Z" transform="translate(-538.729 -289.47)" fill="#2f2e41"/>
    <path id="Path_3170" data-name="Path 3170" d="M489.259,194.141l1.134,7.072-7.671,3.164Z" transform="translate(-300.379 -118.53)" opacity="0.2"/>
    <circle id="Ellipse_465" data-name="Ellipse 465" cx="7.51" cy="7.51" r="7.51" transform="translate(173.642 43.595)" fill="#ffb6b6"/>
    <path id="Path_3171" data-name="Path 3171" d="M740.533,426.9h0a13.8,13.8,0,0,1-16.56,3.347l-1.635-.809Z" transform="translate(-546.796 -337.686)" opacity="0.2"/>
    <path id="Path_3172" data-name="Path 3172" d="M699.851,419.076a3.446,3.446,0,0,1,5.282.16l7.583-2.129,2.418,4.293-10.751,2.856a3.465,3.465,0,0,1-4.532-5.179Z" transform="translate(-532.248 -331.594)" fill="#ffb6b6"/>
    <path id="Path_3173" data-name="Path 3173" d="M729.738,389.435l-7.482-.168-1.338-6.191,4.927-.515,3.6-2.293,5.665-2.667c-.458-1.577-3.8-13.6.479-15.158a3.681,3.681,0,0,1,3.075.131c2.245,1.173,3.139,4.47,3.171,4.594l2.775,7.62c.259.351,2.9,4.009,2.471,6.715a2.835,2.835,0,0,1-1.194,1.943c-5.791,4.094-10.669,6.208-14.274,6.208A7.634,7.634,0,0,1,729.738,389.435Z" transform="translate(-545.912 -297.408)" fill="#2f2e41"/>
    <path id="Path_3174" data-name="Path 3174" d="M713.349,302.049c.6.782,2.672,1.474,5.132,2.032,0-.051,0-.1,0-.153a10.774,10.774,0,0,1,.291-2.323,6.974,6.974,0,0,0,1.053,2.609c.039.059.079.118.122.177,2.11.417,4.343.739,6.091.955-1.2,4.331-5.812,7.883-5.313,10.516l13.507,2.759a10.589,10.589,0,0,1,.259-3.262,7.021,7.021,0,0,0,1.957,3.714l1.147.236.342-1.686c2.963-7.117-1.167-14.4-7.934-18.172a8.226,8.226,0,0,0-5.211-3.5l-1.686-.346a8.265,8.265,0,0,0-9.754,6.441Z" transform="translate(-541.202 -255.884)" fill="#2f2e41"/>
    <path id="Path_3175" data-name="Path 3175" d="M264.255,667.531l-.182-4.092a13.214,13.214,0,0,0-6.164-1.56c2.96,2.42,2.59,7.086,4.6,10.341a7.949,7.949,0,0,0,5.829,3.673l2.477,1.517a13.319,13.319,0,0,0-2.807-10.793,12.864,12.864,0,0,0-2.364-2.2C265.048,665.984,264.255,667.531,264.255,667.531Z" transform="translate(-257.799 -483.907)" fill="#6dd179"/>
    <path id="Path_3176" data-name="Path 3176" d="M258.068,701.765H515.829a.45.45,0,1,0,0-.9H258.068a.45.45,0,1,0,0,.9Z" transform="translate(-257.618 -508.166)" fill="#cacaca"/>
    <line id="Line_424" data-name="Line 424" y2="181.945" transform="translate(110.655 9)" fill="none" stroke="#3f3d56" stroke-linecap="round" stroke-width="6"/>
    <path id="Path_3177" data-name="Path 3177" d="M5.5,11.845S8.249,5.076,0,0Z" transform="matrix(0.848, -0.53, 0.53, 0.848, 229.663, 182.966)" fill="#575757"/>
    <path id="Path_3178" data-name="Path 3178" d="M5.5,0S8.249,6.768,0,11.845Z" transform="translate(249.18 190.743) rotate(-171)" fill="#575757"/>
    <path id="Path_3179" data-name="Path 3179" d="M0,7.136S1.251-.061,10.937,0Z" transform="translate(244.837 182.606) rotate(-9)" fill="#575757"/>
    <path id="Path_3180" data-name="Path 3180" d="M0,0S1.251,7.2,10.937,7.136Z" transform="translate(243.353 189.549) rotate(-171)" fill="#575757"/>
  </g>
</svg>
