<svg xmlns="http://www.w3.org/2000/svg" width="175.602" height="143.747" viewBox="0 0 175.602 143.747">
  <g id="Group_2256" data-name="Group 2256" transform="translate(0 11.074)">
    <rect id="Rectangle_2867" data-name="Rectangle 2867" width="99" height="123" rx="10" transform="translate(15.318 -11.074)" fill="#fff"/>
    <path id="Path_2429" data-name="Path 2429" d="M484.282,572.538a7.949,7.949,0,1,1-15.884,0c0-.1,0-.207.006-.31a7.949,7.949,0,1,1,15.88.31Z" transform="translate(-411.902 -480.615)" fill="#6dd179"/>
    <path id="Path_2431" data-name="Path 2431" d="M482.7,592.732l-2.287-3.05.542-.407,1.864,2.485,7.337-6,.429.524Z" transform="translate(-421.058 -497.126)" fill="#fff"/>
    <rect id="Rectangle_256" data-name="Rectangle 256" width="175.602" height="0.476" transform="translate(0 132.197)" fill="#e6e6e6"/>
    <g id="Group_24" data-name="Group 24" transform="translate(110.788)">
      <path id="Path_552" data-name="Path 552" d="M701.467,376.619a3.383,3.383,0,0,1,.473.264l15.023-6.412.536-3.957,6-.037-.355,9.077L703.318,380.8a3.569,3.569,0,0,1-.15.4,3.428,3.428,0,1,1-1.7-4.583Z" transform="translate(-696.635 -330.006)" fill="#ffb7b7"/>
      <path id="Path_553" data-name="Path 553" d="M799.339,704.129h-4.106l-1.953-15.839h6.06Z" transform="translate(-770.29 -575.269)" fill="#ffb7b7"/>
      <path id="Path_554" data-name="Path 554" d="M773.185,749.937H781.1v4.985H768.2a4.986,4.986,0,0,1,4.986-4.986h0Z" transform="translate(-751.176 -622.251)" fill="#2f2e41"/>
      <path id="Path_555" data-name="Path 555" d="M861.595,699.5l-4.086.4-3.5-15.571,6.031-.593Z" transform="translate(-816.576 -571.799)" fill="#ffb7b7"/>
      <path id="Path_556" data-name="Path 556" d="M841.539,745.506l7.88-.776.489,4.961-12.841,1.265a4.985,4.985,0,0,1,4.472-5.45Z" transform="translate(-803.643 -618.283)" fill="#2f2e41"/>
      <circle id="Ellipse_84" data-name="Ellipse 84" cx="8.226" cy="8.226" r="8.226" transform="translate(21.965 3.255)" fill="#ffb7b7"/>
      <path id="Path_557" data-name="Path 557" d="M763.276,555.924a1.5,1.5,0,0,1-1.479-1.239c-2.124-11.8-9.073-50.375-9.239-51.444a.472.472,0,0,1-.005-.074v-2.877a.5.5,0,0,1,.094-.292l.918-1.284a.5.5,0,0,1,.383-.209c5.233-.245,22.369-.964,23.2.07h0c.831,1.038.536,4.189.469,4.81l0,.065,7.7,49.235a1.511,1.511,0,0,1-1.245,1.72l-4.808.792a1.515,1.515,0,0,1-1.683-1.036c-1.487-4.752-6.474-20.739-8.2-26.925a.167.167,0,0,0-.328.048c.086,5.9.295,20.941.368,26.138l.008.56a1.513,1.513,0,0,1-1.371,1.519l-4.637.42A1.393,1.393,0,0,1,763.276,555.924Z" transform="translate(-739.252 -430.267)" fill="#2f2e41"/>
      <path id="Path_99" data-name="Path 99" d="M765.105,307.156a6.876,6.876,0,0,0-2.788,4.02,38.077,38.077,0,0,0-1.636,9.1l-.521,9.244-6.449,24.508c5.59,4.73,8.814,3.654,16.339-.214s8.384,1.29,8.384,1.29l1.5-20.853,2.15-22.787a10.109,10.109,0,0,0-1.628-1.565,16.633,16.633,0,0,0-14.216-3.015Z" transform="translate(-740.134 -284.213)" fill="#ccc"/>
      <path id="Path_558" data-name="Path 558" d="M777.639,392.59a3.528,3.528,0,0,1,.5.235L793,385.389l.246-4.028,6.127-.422.328,9.182-19.85,6.565a3.517,3.517,0,1,1-2.208-4.1Z" transform="translate(-754.763 -341.028)" fill="#ffb7b7"/>
      <path id="Path_101" data-name="Path 101" d="M847.384,326.712c3.654,1.29,4.3,15.265,4.3,15.265-4.3-2.365-9.459,1.5-9.459,1.5s-1.075-3.655-2.365-8.384a8.216,8.216,0,0,1,1.72-7.739S843.729,325.421,847.384,326.712Z" transform="translate(-805.538 -299.362)" fill="#ccc"/>
      <path id="Path_102" data-name="Path 102" d="M804.582,226.813c-1.025-.82-2.423.67-2.423.67l-.82-7.378s-5.124.614-8.4-.205-3.792,2.973-3.792,2.973a26.31,26.31,0,0,1-.1-4.613c.205-1.845,2.87-3.69,7.585-4.92s7.175,4.1,7.175,4.1C807.08,219.08,805.608,227.634,804.582,226.813Z" transform="translate(-767.015 -213.157)" fill="#2f2e41"/>
    </g>
    <path id="Path_4514" data-name="Path 4514" d="M389.651,258.709a.739.739,0,0,0,0,1.478h53.964a.739.739,0,1,0,0-1.478Z" transform="translate(-351.323 -247.873)" fill="#ccc"/>
    <path id="Path_4515" data-name="Path 4515" d="M389.647,277.351a.739.739,0,1,0,0,1.478H423.76a.739.739,0,0,0,0-1.478Z" transform="translate(-351.318 -262.081)" fill="#ccc"/>
    <path id="Path_2429-2" data-name="Path 2429" d="M596.116,224.365a3.111,3.111,0,1,1-6.217,0c0-.041,0-.081,0-.121a3.111,3.111,0,1,1,6.215.121Z" transform="translate(-504.5 -219.18)" fill="#6dd179"/>
    <path id="Path_2431-2" data-name="Path 2431" d="M595.5,232.269l-.9-1.194.212-.159.729.973,2.872-2.349.168.205Z" transform="translate(-508.084 -225.642)" fill="#fff"/>
    <path id="Path_4516" data-name="Path 4516" d="M389.651,372.709a.739.739,0,0,0,0,1.478h53.964a.739.739,0,1,0,0-1.478Z" transform="translate(-351.323 -334.756)" fill="#ccc"/>
    <path id="Path_4517" data-name="Path 4517" d="M389.647,391.351a.739.739,0,1,0,0,1.478H423.76a.739.739,0,0,0,0-1.478Z" transform="translate(-351.318 -348.964)" fill="#ccc"/>
    <path id="Path_2429-3" data-name="Path 2429" d="M595.116,338.365a3.111,3.111,0,1,1-6.217,0c0-.041,0-.081,0-.121a3.111,3.111,0,1,1,6.215.121Z" transform="translate(-503.738 -306.062)" fill="#6dd179"/>
    <path id="Path_2431-3" data-name="Path 2431" d="M594.5,346.269l-.9-1.194.212-.159.729.973,2.872-2.349.168.205Z" transform="translate(-507.322 -312.525)" fill="#fff"/>
    <path id="Path_4518" data-name="Path 4518" d="M389.651,486.709a.739.739,0,0,0,0,1.478h53.964a.739.739,0,1,0,0-1.478Z" transform="translate(-351.323 -421.638)" fill="#ccc"/>
    <path id="Path_4519" data-name="Path 4519" d="M389.647,505.352a.739.739,0,1,0,0,1.478H423.76a.739.739,0,0,0,0-1.478Z" transform="translate(-351.318 -435.846)" fill="#ccc"/>
    <path id="Path_2429-4" data-name="Path 2429" d="M595.116,452.365a3.111,3.111,0,1,1-6.217,0c0-.041,0-.081,0-.121a3.111,3.111,0,1,1,6.215.121Z" transform="translate(-503.738 -392.945)" fill="#6dd179"/>
    <path id="Path_2431-4" data-name="Path 2431" d="M594.5,460.269l-.9-1.194.212-.159.729.973,2.872-2.349.168.205Z" transform="translate(-507.322 -399.407)" fill="#fff"/>
  </g>
</svg>
