<svg xmlns="http://www.w3.org/2000/svg" width="20" height="20" viewBox="0 0 20 20">
  <g id="dinner" transform="translate(-18.411 -10.454)">
    <path id="Icon_metro-spoon-fork" data-name="Icon metro-spoon-fork" d="M7.979,1.928c-2.455,0-4.444,2.338-4.444,5.221a5.121,5.121,0,0,0,3.419,5.081l-.736,8.208a1.385,1.385,0,0,0,1.391,1.489H8.35A1.385,1.385,0,0,0,9.74,20.439L9,12.231a5.121,5.121,0,0,0,3.419-5.081C12.424,4.266,10.434,1.928,7.979,1.928Zm14.555,0-.851,7.459h-.926l-.223-7.459H19.522l-.617,7.459h-.926l-.945-7.459h-.907v9.7a.743.743,0,0,0,.741.746H18.8l-.727,8.068a1.385,1.385,0,0,0,1.391,1.489H20.2a1.385,1.385,0,0,0,1.391-1.489l-.727-8.068h1.929a.743.743,0,0,0,.741-.746v-9.7Z" transform="translate(14.877 8.526)" fill="#6dd179"/>
  </g>
</svg>
