<svg xmlns="http://www.w3.org/2000/svg" width="12" height="16.017" viewBox="0 0 12 16.017">
  <path id="eating" d="M6,.475c.023.147.464,2.953.464,4.025A3.553,3.553,0,0,1,4.154,7.769L4.68,15.25a.674.674,0,0,1-.667.75h-1.6c-.4,0-.627-.359-.607-.791l.5-7.441A3.553,3.553,0,0,1,0,4.5C0,3.425.441.622.464.475a.583.583,0,0,1,1.151,0V4.922c.038.106.77.1.8,0,.04-.791.316-4.35.319-4.431A.55.55,0,0,1,3.823.509c.006.084.149,3.622.19,4.412.026.1.8.106.833,0V.509A.583.583,0,0,1,6,.475Zm4.261,8.947L9.712,15.25a.722.722,0,0,0,.75.75h.845A.721.721,0,0,0,12,15.25V.75A.723.723,0,0,0,11.308,0C8.928,0,5.743,5.6,10.258,9.422Z" transform="translate(0 0.017)" fill="#6dd179"/>
</svg>
