<svg xmlns="http://www.w3.org/2000/svg" width="35.813" height="45" viewBox="0 0 35.813 45">
  <g id="noun_Running_4303081" transform="translate(-19.284 -12.686)">
    <path id="Path_2284" data-name="Path 2284" d="M55.413,21.129a5.213,5.213,0,1,1-.859-7.319A5.221,5.221,0,0,1,55.413,21.129Z" transform="translate(-8.151)" fill="#ff2929" fill-rule="evenodd"/>
    <path id="Path_2285" data-name="Path 2285" d="M29.75,29.361a2.26,2.26,0,0,0-1.632.7l-4.833,5.026a2.263,2.263,0,1,0,3.263,3.133l4.158-4.326,3.985.011-4.532,8.089a2.674,2.674,0,0,0,1.092,3.648c3.528,1.921,6.454,2.973,9.931,4.571l2.98,10.6a2.654,2.654,0,0,0,5.109-1.442L45.952,47.592A2.649,2.649,0,0,0,44.509,45.9L39.4,43.553l3.085-6.36,2.687,3.118a2.262,2.262,0,0,0,2.589.61l6.8-2.839c3.006-1.066,1.131-5.561-1.74-4.173l-5.29,2.208L43.4,31.3a2.293,2.293,0,0,0-.881-.62l-2.847-1.137a2.26,2.26,0,0,0-.833-.16Z" transform="translate(-0.993 -5.067)" fill="#ff2929"/>
    <path id="Path_2286" data-name="Path 2286" d="M30.63,55.331l-1.181,2.436-8.136,2.277c-3.538.877-2.052,6.193,1.424,5.1l9.289-2.592a2.652,2.652,0,0,0,1.679-1.4l1.748-3.607Z" transform="translate(0 -12.959)" fill="#ff2929"/>
  </g>
</svg>
