<svg xmlns="http://www.w3.org/2000/svg" width="269.481" height="207.227" viewBox="0 0 269.481 207.227">
  <g id="F-diet" transform="translate(0 0)">
    <ellipse id="Ellipse_510" data-name="Ellipse 510" cx="48.864" cy="3.679" rx="48.864" ry="3.679" transform="translate(171.754 199.869)" fill="#e6e6e6"/>
    <path id="Path_3553" data-name="Path 3553" d="M267.844,323.216a6.912,6.912,0,0,0-6.918-6.807H226.184a6.931,6.931,0,0,0-6.912,6.7,6.763,6.763,0,0,0,2.624,5.435,1.513,1.513,0,0,1,.6,1.385,6.733,6.733,0,0,0-.06.9v24.031a6.736,6.736,0,0,0,6.736,6.736H257.72a6.736,6.736,0,0,0,6.736-6.736V330.826a6.779,6.779,0,0,0-.046-.79,1.461,1.461,0,0,1,.615-1.348A6.767,6.767,0,0,0,267.844,323.216Z" transform="translate(-218.074 -266.142)" fill="#3f3d56"/>
    <path id="Path_3554" data-name="Path 3554" d="M268.552,324.765a5.389,5.389,0,0,0-5.393-4.679H228.386a5.4,5.4,0,0,0-5.311,4.184A5.318,5.318,0,0,0,225.616,330a1.463,1.463,0,0,1,.685,1.656,5.215,5.215,0,0,0-.185,1.383v24.029a5.27,5.27,0,0,0,4.292,5.178,5.333,5.333,0,0,0,.977.091h28.549a5.209,5.209,0,0,0,1.426-.2,5.268,5.268,0,0,0,3.841-5.07V333.034a5.247,5.247,0,0,0-.163-1.3,1.5,1.5,0,0,1-.045-.358,1.465,1.465,0,0,1,.777-1.292l0,0a5.307,5.307,0,0,0,2.781-5.318Z" transform="translate(-220.286 -268.35)" fill="#6dd179"/>
    <path id="Path_3555" data-name="Path 3555" d="M269.954,335.336v-2.259h-3.841v-12.99h-2.259v12.99H251.767v-12.99h-2.259v12.99H237.421v-12.99h-2.259v12.99H230.87v2.259h4.292v6.778H230.87v2.259h4.292v6.778H230.87v2.259h4.292v8.833a5.334,5.334,0,0,0,.976.09h1.283V353.41h12.087v8.924h2.259V353.41h12.087v8.924h.834a5.211,5.211,0,0,0,1.426-.2V353.41h3.841v-2.259h-3.841v-6.778h3.841v-2.259h-3.841v-6.778Zm-32.532,0h12.087v6.778H237.421Zm0,15.814v-6.778h12.087v6.778Zm26.433,0H251.767v-6.778h12.087Zm0-9.037H251.767v-6.778h12.087Z" transform="translate(-225.04 -268.351)" opacity="0.2"/>
    <path id="Path_3556" data-name="Path 3556" d="M267.924,190.527a24.128,24.128,0,1,1-48.256,0Z" transform="translate(-218.312 -190.527)" fill="#6dd179"/>
    <path id="Path_3557" data-name="Path 3557" d="M240.332,199.535c0,.631-.224,1.142-.5,1.142s-.5-.511-.5-1.142a1.861,1.861,0,0,1,.5-1.142,1.861,1.861,0,0,1,.5,1.142Z" transform="translate(-230.124 -195.252)" fill="#3f3d56"/>
    <path id="Path_3558" data-name="Path 3558" d="M303.614,209.546c0,.631-.224,1.142-.5,1.142s-.5-.511-.5-1.142a.68.68,0,1,1,1,0Z" transform="translate(-268.136 -201.265)" fill="#3f3d56"/>
    <path id="Path_3559" data-name="Path 3559" d="M257.135,203.825c0,.631-.224,1.142-.5,1.142s-.5-.511-.5-1.142a1.862,1.862,0,0,1,.5-1.142A1.861,1.861,0,0,1,257.135,203.825Z" transform="translate(-240.217 -197.829)" fill="#3f3d56"/>
    <path id="Path_3560" data-name="Path 3560" d="M282.163,226.35c0,.631-.224,1.142-.5,1.142s-.5-.511-.5-1.142a.68.68,0,1,1,1,0Z" transform="translate(-255.251 -211.359)" fill="#3f3d56"/>
    <path id="Path_3561" data-name="Path 3561" d="M255.348,223.49c0,.631-.224,1.142-.5,1.142s-.5-.511-.5-1.142a1.862,1.862,0,0,1,.5-1.142A1.861,1.861,0,0,1,255.348,223.49Z" transform="translate(-239.144 -209.641)" fill="#3f3d56"/>
    <path id="Path_3562" data-name="Path 3562" d="M317.915,196.675c0,.631-.224,1.142-.5,1.142s-.5-.511-.5-1.142a.68.68,0,1,1,1,0Z" transform="translate(-276.727 -193.534)" fill="#3f3d56"/>
    <path id="Path_3563" data-name="Path 3563" d="M295.034,232.07c0,.631-.224,1.142-.5,1.142s-.5-.511-.5-1.142a.68.68,0,1,1,1,0Z" transform="translate(-262.982 -214.795)" fill="#3f3d56"/>
    <path id="Path_3564" data-name="Path 3564" d="M241.756,216.012a25.513,25.513,0,0,1-25.484-25.484h2.713a22.772,22.772,0,0,0,45.543,0h2.713A25.513,25.513,0,0,1,241.756,216.012Z" transform="translate(-216.272 -190.527)" fill="#3f3d56"/>
    <rect id="Rectangle_2475" data-name="Rectangle 2475" width="7.986" height="7.986" transform="translate(76.198 8.749)" fill="#3f3d56"/>
    <rect id="Rectangle_2476" data-name="Rectangle 2476" width="64.291" height="0.799" transform="translate(98.161 12.343)" fill="#3f3d56"/>
    <rect id="Rectangle_2477" data-name="Rectangle 2477" width="7.986" height="7.986" transform="translate(76.198 68.866)" fill="#3f3d56"/>
    <rect id="Rectangle_2478" data-name="Rectangle 2478" width="64.291" height="0.799" transform="translate(98.161 72.46)" fill="#3f3d56"/>
    <rect id="Rectangle_2479" data-name="Rectangle 2479" width="7.986" height="7.986" transform="translate(76.198 128.566)" fill="#3f3d56"/>
    <rect id="Rectangle_2480" data-name="Rectangle 2480" width="64.291" height="0.799" transform="translate(98.161 132.159)" fill="#3f3d56"/>
    <path id="Path_3565" data-name="Path 3565" d="M783.2,321.937,773,329.978l-21.617-7.6s-7.35-8.267-11.506-2.11c-1.423,2.109,7.9,6,8.78,6.367,2.2.905,23.264,12.462,25.328,10.946s13.678-9.185,13.678-9.185Z" transform="translate(-567.682 -267.092)" fill="#fbbebe"/>
    <path id="Path_3566" data-name="Path 3566" d="M896.208,247.882c-9.669-3.613-18.867-5.322-26.324,0V230.7a13.162,13.162,0,0,1,13.162-13.162h0A13.162,13.162,0,0,1,896.208,230.7Z" transform="translate(-645.864 -206.755)" fill="#2f2e41"/>
    <path id="Path_3567" data-name="Path 3567" d="M825.94,384.609l-.79,5.531s-1.975,5.926,0,16.987l-31.8,86.713,23.505,6.716,11.654-47.406L844.9,417l-1.58,41.085-8.3,43.85,24.493-.988,7.137-75.19a66.6,66.6,0,0,0-5.968-34.671c-1.98-4.2-4.109-7.519-6.04-8C848.852,381.647,825.94,384.609,825.94,384.609Z" transform="translate(-599.89 -305.957)" fill="#2f2e41"/>
    <path id="Path_3568" data-name="Path 3568" d="M775.791,659.546l-8.1,8.691s-15.6,8.1-4.543,9.086,14.814-3.358,14.814-3.358,13.827-.988,13.629-2.963-1.185-8.493-1.185-8.493Z" transform="translate(-579.37 -472.257)" fill="#2f2e41"/>
    <path id="Path_3569" data-name="Path 3569" d="M909.973,663.309v6.123a16.561,16.561,0,0,1,0,3.16c-.2.593-3.16,7.9,6.716,6.321s5.926-7.7,5.926-7.7l-2.37-8.888Z" transform="translate(-669.603 -473.923)" fill="#2f2e41"/>
    <circle id="Ellipse_511" data-name="Ellipse 511" cx="9.926" cy="9.926" r="9.926" transform="translate(227.136 16.136)" fill="#fbbebe"/>
    <path id="Path_3570" data-name="Path 3570" d="M898.634,267.778s-1.383,13.036,0,15.407-14.024-2.37-14.024-2.37,3.358-8.888,2.173-12.444S898.634,267.778,898.634,267.778Z" transform="translate(-654.709 -236.235)" fill="#fbbebe"/>
    <path id="Path_3571" data-name="Path 3571" d="M871.164,318.588l3.16,8.691-29.431,3.358s-3.16-.593-3.16-3.16-3.358-11.654-3.358-11.654-8.224-6.666-12.174-8.443c-1.432-.644.71-.378,1.915-3.112.362-.822.794-1.689,1.266-2.568.385-.721.8-1.452,1.225-2.173.516-.879,1.047-1.744,1.562-2.568,1.56-2.491,2.984-4.585,3.441-5.432,1.383-2.568,14.382-2.8,14.382-2.8,3.717,2.339,14.457,2.8,14.457,2.8s7.387,3.091,10.465,5.432C875.136,297.127,871.164,318.588,871.164,318.588Z" transform="translate(-619.338 -249.516)" fill="#ccc"/>
    <path id="Path_3572" data-name="Path 3572" d="M893.314,221.572v-.236l-.28.016a13.172,13.172,0,0,0-11.32-2.262,13.115,13.115,0,0,1,5.052,2.61l-9.514.529-4.016,8.923h2.718l2.19-4.016v4.016h9.191l.625-3.123,1.735,3.123H891.5c.011.223.028.444.028.669L889.744,249l8.477-3.569V231.821A13.135,13.135,0,0,0,893.314,221.572Z" transform="translate(-647.877 -207.425)" fill="#2f2e41"/>
    <path id="Path_3573" data-name="Path 3573" d="M944.052,339.758l-.593,15.6-1.58,30.221s2.173,13.036-3.358,12.839-1.383-15.407-1.383-15.407l-1.58-23.9,1.58-16.789Z" transform="translate(-685.313 -280.167)" fill="#fbbebe"/>
    <path id="Path_3574" data-name="Path 3574" d="M937.907,321.808c0,1.778-9.975,1.284-9.975,1.284L922.7,295.735s7.387,3.091,10.465,5.432a9.274,9.274,0,0,1,1.752,2.568c.235.634.458,1.369.67,2.173s.4,1.665.589,2.568A105.06,105.06,0,0,1,937.907,321.808Z" transform="translate(-677.588 -253.723)" fill="#ccc"/>
    <path id="Path_3575" data-name="Path 3575" d="M242.309,509.341l-15.119-1.565a4.8,4.8,0,1,0-8.264,2.582,4.8,4.8,0,1,0,8.211,2.22l15.172-1.395Z" transform="translate(-217.093 -377.795)" fill="#ccc"/>
    <path id="Path_3576" data-name="Path 3576" d="M280.939,517.32a9.838,9.838,0,0,0,12.241-8.867q.013-.254.013-.512t-.013-.512a9.838,9.838,0,0,0-12.241-8.867l-20.164,4.958a4.421,4.421,0,1,0,0,8.841Z" transform="translate(-240.349 -375.382)" fill="#6dd179"/>
  </g>
</svg>
