<svg xmlns="http://www.w3.org/2000/svg" width="278.01" height="203.334" viewBox="0 0 278.01 203.334">
  <g id="FIrmware-updating" transform="translate(0.01 0.019)">
    <path id="Path_2752" data-name="Path 2752" d="M63.3,476c4.584,19.593,14.288,36.529,29.624,44.739C124.8,537.8,196.674,529,250.319,518.89c27.107-5.092,48.975-14.671,67.116-35.446Z" transform="translate(-60.178 -362.484)" fill="#6dd179" opacity="0.1"/>
    <path id="Path_2753" data-name="Path 2753" d="M353.939,67.347H325.722a2.546,2.546,0,0,1,0-5.088H330.6a2.546,2.546,0,0,1,0-5.088h-3.483a2.546,2.546,0,0,1,0-5.088h14.727a37.731,37.731,0,0,0-11.487-3.3c-40.157-5.381-54.494-1.822-59.552,1.848a55.1,55.1,0,0,1-20.64,9.437C225.388,65.4,179.052,71.813,137.055,58.01c-20.873-6.865-36.388,4.732-45.685,24.1H358.837a47.115,47.115,0,0,0-3.314-15.379A2.367,2.367,0,0,1,353.939,67.347Z" transform="translate(-80.836 -46.05)" fill="#6dd179" opacity="0.1"/>
    <path id="Path_2754" data-name="Path 2754" d="M52.074,321.15a129.667,129.667,0,0,0,1.141,34.182l258.425,9.451c7.194-8.275,12.973-26.483,17.695-36.379Zm102.21,24.385H149.2a2.544,2.544,0,0,1,0,5.088H119.761a2.544,2.544,0,1,1,0-5.088h5.088a2.544,2.544,0,1,1,0-5.088h-3.633a2.544,2.544,0,1,1,0-5.088h29.434a2.544,2.544,0,1,1,0,5.088h3.633a2.544,2.544,0,1,1,0,5.088Z" transform="translate(-51.45 -248.523)" fill="#6dd179" opacity="0.1"/>
    <path id="Path_2755" data-name="Path 2755" d="M330.544,190.205H60.48A116.618,116.618,0,0,0,54,219.339H326.607a124.846,124.846,0,0,0,3.937-18.571A37.519,37.519,0,0,0,330.544,190.205ZM108.991,205.827h-4.885a2.546,2.546,0,0,1,0,5.088H75.848a2.546,2.546,0,0,1,0-5.088h4.885a2.546,2.546,0,0,1,0-5.088H77.244a2.546,2.546,0,0,1,0-5.088H105.5a2.546,2.546,0,0,1,0,5.088h3.488a2.546,2.546,0,0,1,0,5.088Z" transform="translate(-53.334 -147.102)" fill="#6dd179" opacity="0.096"/>
    <g id="Group_2073" data-name="Group 2073" transform="translate(171.137 104.995)" opacity="0.1">
      <path id="Path_2756" data-name="Path 2756" d="M729,543.018s8.17-20.135,23.426-27.6a32.925,32.925,0,0,0,14.952-14.5,55.384,55.384,0,0,0,3.746-9.416" transform="translate(-727.062 -479.448)" fill="none" stroke="#535461" stroke-width="2"/>
      <path id="Path_2757" data-name="Path 2757" d="M883.411,457.187c-1.591,2-9.821,4.925-9.821,4.925s.991-8.691,2.581-10.676a4.635,4.635,0,0,1,7.243,5.759Z" transform="translate(-829.764 -449.901)" fill="#6dd179"/>
      <path id="Path_2758" data-name="Path 2758" d="M870.976,507.827c-2.422.814-10.916-1.211-10.916-1.211s5.548-6.744,7.97-7.558a4.635,4.635,0,0,1,2.946,8.769Z" transform="translate(-820.153 -484.706)" fill="#6dd179"/>
      <path id="Path_2759" data-name="Path 2759" d="M823.273,571.952c-2.5-.519-8.813-6.556-8.813-6.556s8.193-3.022,10.7-2.5a4.635,4.635,0,0,1-1.883,9.056Z" transform="translate(-787.764 -530.116)" fill="#6dd179"/>
      <path id="Path_2760" data-name="Path 2760" d="M769.865,611.519c-2.552-.09-9.8-4.971-9.8-4.971s7.567-4.354,10.12-4.273a4.635,4.635,0,1,1-.324,9.245Z" transform="translate(-749.131 -558.129)" fill="#6dd179"/>
      <path id="Path_2761" data-name="Path 2761" d="M832.737,493.921c.327,2.535,5.858,9.291,5.858,9.291s3.642-7.938,3.317-10.473a4.635,4.635,0,0,0-9.175,1.182Z" transform="translate(-800.74 -477.669)" fill="#6dd179"/>
      <path id="Path_2762" data-name="Path 2762" d="M772.328,536.619c1.069,2.318,8.37,7.112,8.37,7.112s1.1-8.665.032-10.983a4.635,4.635,0,1,0-8.4,3.873Z" transform="translate(-757.441 -506.638)" fill="#6dd179"/>
      <path id="Path_2763" data-name="Path 2763" d="M722.4,593.754c.661,2.468,7.049,8.425,7.049,8.425s2.549-8.352,1.886-10.821a4.635,4.635,0,0,0-8.935,2.4Z" transform="translate(-722.312 -548.145)" fill="#6dd179"/>
      <path id="Path_2764" data-name="Path 2764" d="M883.411,457.187c-1.591,2-9.821,4.925-9.821,4.925s.991-8.691,2.581-10.676a4.635,4.635,0,0,1,7.243,5.759Z" transform="translate(-829.764 -449.901)"/>
      <path id="Path_2765" data-name="Path 2765" d="M870.976,507.827c-2.422.814-10.916-1.211-10.916-1.211s5.548-6.744,7.97-7.558a4.635,4.635,0,0,1,2.946,8.769Z" transform="translate(-820.153 -484.706)"/>
      <path id="Path_2766" data-name="Path 2766" d="M823.273,571.952c-2.5-.519-8.813-6.556-8.813-6.556s8.193-3.022,10.7-2.5a4.635,4.635,0,0,1-1.883,9.056Z" transform="translate(-787.764 -530.116)"/>
      <path id="Path_2767" data-name="Path 2767" d="M769.865,611.519c-2.552-.09-9.8-4.971-9.8-4.971s7.567-4.354,10.12-4.273a4.635,4.635,0,1,1-.324,9.245Z" transform="translate(-749.131 -558.129)"/>
      <path id="Path_2768" data-name="Path 2768" d="M832.737,493.921c.327,2.535,5.858,9.291,5.858,9.291s3.642-7.938,3.317-10.473a4.635,4.635,0,0,0-9.175,1.182Z" transform="translate(-800.74 -477.669)"/>
      <path id="Path_2769" data-name="Path 2769" d="M772.328,536.619c1.069,2.318,8.37,7.112,8.37,7.112s1.1-8.665.032-10.983a4.635,4.635,0,1,0-8.4,3.873Z" transform="translate(-757.441 -506.638)"/>
      <path id="Path_2770" data-name="Path 2770" d="M722.4,593.754c.661,2.468,7.049,8.425,7.049,8.425s2.549-8.352,1.886-10.821a4.635,4.635,0,0,0-8.935,2.4Z" transform="translate(-722.312 -548.145)"/>
    </g>
    <g id="Group_2074" data-name="Group 2074" transform="translate(166.034 67.823)" opacity="0.1">
      <path id="Path_2771" data-name="Path 2771" d="M709,408.76s.94-19.783,11.8-30.818a30.01,30.01,0,0,0,8.45-16.992,50.467,50.467,0,0,0,.378-9.221" transform="translate(-701.412 -338.851)" fill="none" stroke="#535461" stroke-width="2"/>
      <path id="Path_2772" data-name="Path 2772" d="M790.271,308.841c-.763,2.2-6.958,7.2-6.958,7.2s-1.769-7.761-1.006-9.96a4.225,4.225,0,1,1,7.964,2.762Z" transform="translate(-755.222 -302.957)"/>
      <path id="Path_2773" data-name="Path 2773" d="M794.694,358.493c-1.848,1.431-9.754,2.26-9.754,2.26s2.733-7.478,4.568-8.909a4.225,4.225,0,1,1,5.186,6.649Z" transform="translate(-757.3 -338.15)"/>
      <path id="Path_2774" data-name="Path 2774" d="M766.789,435c-2.308.309-9.559-2.973-9.559-2.973s6.134-5.075,8.45-5.384A4.225,4.225,0,1,1,766.8,435Z" transform="translate(-736.907 -393.92)"/>
      <path id="Path_2775" data-name="Path 2775" d="M730.876,490.266c-2.223.694-9.926-1.32-9.926-1.32s5.186-6.039,7.409-6.733a4.225,4.225,0,0,1,2.516,8.048Z" transform="translate(-710.207 -434.79)"/>
      <path id="Path_2776" data-name="Path 2776" d="M751.766,362.829c1.056,2.081,7.848,6.218,7.848,6.218s.731-7.922-.314-10.008a4.225,4.225,0,0,0-7.534,3.789Z" transform="translate(-732.637 -342.692)"/>
      <path id="Path_2777" data-name="Path 2777" d="M709.887,424.1c1.621,1.671,9.347,3.586,9.347,3.586s-1.671-7.782-3.293-9.453a4.225,4.225,0,0,0-6.055,5.87Z" transform="translate(-701.32 -386.987)"/>
      <path id="Path_2778" data-name="Path 2778" d="M680.832,493.643c1.32,1.922,8.608,5.115,8.608,5.115s-.333-7.953-1.648-9.876a4.225,4.225,0,0,0-6.958,4.753Z" transform="translate(-680.265 -438.618)"/>
    </g>
    <path id="Path_2779" data-name="Path 2779" d="M351.19,792c10.383,3.491,23.049,1.368,34.829,1.613a12.005,12.005,0,0,1,4.613.737,10.529,10.529,0,0,1,2.817,2.416c3.3,3.113,10.063,4.114,15.975,3.586s11.333-2.276,16.9-3.607c9.643-2.3,20.668-3.348,30.179-.84a7.86,7.86,0,0,0,2.728.4c2.086-.206,2.707-1.875,4.164-2.828,2.641-1.722,8.352-1.254,9.506-3.523.679-1.32-.882-2.693-2.58-3.6-6.5-3.475-15.8-4.048-24.309-3.512s-16.873,2.015-25.426,2.02c-10.655,0-20.95-2.268-31.5-3.2-7.309-.644-15.286-.565-22.138,1.32C359.539,785.05,357.9,789.655,351.19,792Z" transform="translate(-272.05 -597.169)" fill="#6dd179" opacity="0.1"/>
    <path id="Path_2835" data-name="Path 2835" d="M17.061,3h47.8c5.28,0,9.561,6.017,9.561,13.44V123.956c0,7.423-4.28,13.44-9.561,13.44h-47.8c-5.28,0-9.561-6.017-9.561-13.44V16.44C7.5,9.017,11.78,3,17.061,3Z" transform="translate(96.7 54.227)" fill="none" stroke="#000" stroke-linecap="round" stroke-linejoin="round" stroke-width="3"/>
    <path id="Path_2944" data-name="Path 2944" d="M17.061,3h47.8c5.28,0,9.561,6.017,9.561,13.44V123.956c0,7.423-4.28,13.44-9.561,13.44h-47.8c-5.28,0-9.561-6.017-9.561-13.44V16.44C7.5,9.017,11.78,3,17.061,3Z" transform="translate(96.7 54.227)" fill="#6dd179" stroke="#000" stroke-linecap="round" stroke-linejoin="round" stroke-width="3"/>
    <path id="Path_2836" data-name="Path 2836" d="M18,27h0" transform="translate(119.662 149.826)" fill="none" stroke="#000" stroke-linecap="round" stroke-linejoin="round" stroke-width="3"/>
    <g id="updating" transform="translate(-803.398 -363.74)">
      <path id="Icon_material-system-update" data-name="Icon material-system-update" d="M18.052,1.508,9.259,1.5A1.725,1.725,0,0,0,7.5,3.179V18.287a1.725,1.725,0,0,0,1.759,1.679h8.793a1.725,1.725,0,0,0,1.759-1.679V3.179a1.718,1.718,0,0,0-1.759-1.67Zm0,15.1H9.259V4.857h8.793Zm-.879-5.036H14.535v-4.2H12.776v4.2H10.138l3.517,3.357Z" transform="translate(927.35 456.579)" fill="#fff"/>
      <g id="Icon_ionic-ios-sync" data-name="Icon ionic-ios-sync" transform="translate(917 447)">
        <path id="Path_60" data-name="Path 60" d="M46.867,24.152a1.349,1.349,0,0,0-1.916,0l-1.3,1.3A20.514,20.514,0,0,0,37.137,8.984a20.355,20.355,0,0,0-28.289.629A20.548,20.548,0,0,0,5.5,14.083a1.432,1.432,0,0,0-.12,1.108,1.411,1.411,0,0,0,.718.848,1.429,1.429,0,0,0,.639.15A1.411,1.411,0,0,0,7.97,15.46a17.512,17.512,0,0,1,27.76-3.892A17.6,17.6,0,0,1,40.76,25.958l-1.886-1.846a1.325,1.325,0,0,0-1.866.01,1.325,1.325,0,0,0,0,1.876l4.271,4.281a.988.988,0,0,0,1.4,0l4.2-4.211A1.364,1.364,0,0,0,46.867,24.152Z" transform="translate(0.629 -3.586)" fill="#fff"/>
        <path id="Path_61" data-name="Path 61" d="M42.3,27.909a1.429,1.429,0,0,0-.639-.15,1.411,1.411,0,0,0-1.237.728,17.536,17.536,0,0,1-27.77,3.9A17.7,17.7,0,0,1,7.63,18.03l1.836,1.846a1.277,1.277,0,0,0,1.8,0l.13-.13a1.271,1.271,0,0,0,0-1.786L7.111,13.67a.988.988,0,0,0-1.4,0L1.523,17.891a1.355,1.355,0,1,0,1.916,1.916l1.3-1.307a20.765,20.765,0,0,0,.9,7.634A20.364,20.364,0,0,0,25.073,40.392a20.405,20.405,0,0,0,7.674-1.5,20.155,20.155,0,0,0,6.746-4.5,20.376,20.376,0,0,0,3.413-4.53,1.4,1.4,0,0,0-.609-1.956Z" transform="translate(-1.127 0.52)" fill="#fff"/>
      </g>
    </g>
  </g>
</svg>
