<svg id="FM-info" xmlns="http://www.w3.org/2000/svg" width="236.029" height="218.252" viewBox="0 0 236.029 218.252">
  <path id="Path_3532" data-name="Path 3532" d="M493.064,307.574H285.246a6.33,6.33,0,0,1-6.323-6.323V184.072H499.387V301.252A6.33,6.33,0,0,1,493.064,307.574Z" transform="translate(-278.481 -176.945)" fill="#e6e6e6"/>
  <path id="Path_3533" data-name="Path 3533" d="M503.041,314.952H311.763a3.261,3.261,0,0,1-3.257-3.257V218.912a3.261,3.261,0,0,1,3.257-3.257H503.041a3.261,3.261,0,0,1,3.257,3.257V311.7A3.261,3.261,0,0,1,503.041,314.952Z" transform="translate(-296.728 -196.425)" fill="#fff"/>
  <path id="Path_3534" data-name="Path 3534" d="M499.117,176.87H277.769v-5.076a6.33,6.33,0,0,1,6.323-6.323h208.7a6.33,6.33,0,0,1,6.323,6.323Z" transform="translate(-277.769 -165.471)" fill="#6dd179"/>
  <path id="Path_3535" data-name="Path 3535" d="M375.036,335.568H340.991a3.261,3.261,0,0,1-3.257-3.257V309.93a3.261,3.261,0,0,1,3.257-3.257h34.045a3.261,3.261,0,0,1,3.257,3.257v22.381A3.261,3.261,0,0,1,375.036,335.568Z" transform="translate(-314.756 -252.566)" fill="#e6e6e6"/>
  <path id="Path_3536" data-name="Path 3536" d="M614.66,310.3H507.093a1.812,1.812,0,0,1,0-3.623H614.66a1.812,1.812,0,1,1,0,3.623Z" transform="translate(-418.101 -252.566)" fill="#e6e6e6"/>
  <path id="Path_3537" data-name="Path 3537" d="M614.66,344.117H507.093a1.812,1.812,0,0,1,0-3.623H614.66a1.812,1.812,0,1,1,0,3.623Z" transform="translate(-418.101 -273.427)" fill="#e6e6e6"/>
  <path id="Path_3538" data-name="Path 3538" d="M614.66,377.938H507.093a1.812,1.812,0,0,1,0-3.623H614.66a1.812,1.812,0,1,1,0,3.623Z" transform="translate(-418.101 -294.288)" fill="#e6e6e6"/>
  <path id="Path_3539" data-name="Path 3539" d="M408.389,527.143h-4.7l-2.235-18.12h6.933Z" transform="translate(-247.623 -313.971)" fill="#ffb8b8"/>
  <path id="Path_3540" data-name="Path 3540" d="M389.349,552.808h9.06v5.7H383.644A5.7,5.7,0,0,1,389.349,552.808Z" transform="translate(-236.636 -340.978)" fill="#2f2e41"/>
  <path id="Path_3541" data-name="Path 3541" d="M459.389,527.143h-4.7l-2.235-18.12h6.933Z" transform="translate(-279.08 -313.971)" fill="#ffb8b8"/>
  <path id="Path_3542" data-name="Path 3542" d="M440.349,552.808h9.06v5.7H434.644a5.7,5.7,0,0,1,5.7-5.7Z" transform="translate(-268.093 -340.978)" fill="#2f2e41"/>
  <path id="Path_3543" data-name="Path 3543" d="M703.381,584.307H698.6a1.735,1.735,0,0,1-1.718-1.582l-4.053-48.818a.575.575,0,0,0-1.143-.02l-5.82,48.9a1.725,1.725,0,0,1-1.712,1.52H678.28a1.726,1.726,0,0,1-1.724-1.715c-.013-3.072-.034-6.165-.055-9.26-.186-27.56-.379-56.057,5.376-67.222l.052-.1,20.766-.355.052.114c6.283,13.73,4.376,44.4,2.532,74.064l-.177,2.858A1.727,1.727,0,0,1,703.381,584.307Z" transform="translate(-523.67 -375.299)" fill="#2f2e41"/>
  <circle id="Ellipse_508" data-name="Ellipse 508" cx="9.412" cy="9.412" r="9.412" transform="translate(160.461 74.838)" fill="#ffb8b8"/>
  <path id="Path_3544" data-name="Path 3544" d="M684.471,453.441l.259-10.791-1.867-8.419a13.571,13.571,0,0,1,3.018-11.924,13.365,13.365,0,0,1,11.2-4.642h0l.408.034a13.421,13.421,0,0,1,9.247,4.946,13.576,13.576,0,0,1,2.975,10.183l-2.259,19.741Z" transform="translate(-527.429 -321.002)" fill="#ccc"/>
  <path id="Path_3545" data-name="Path 3545" d="M656.628,531.734a3.853,3.853,0,0,0,.2-5.905l5.3-12.626-6.993,1.313-3.96,11.789a3.874,3.874,0,0,0,5.452,5.429Z" transform="translate(-507.581 -379.956)" fill="#ffb8b8"/>
  <path id="Path_3546" data-name="Path 3546" d="M763.934,535.228a3.853,3.853,0,0,1,.134-5.907L759.5,516.414l6.907,1.709,3.283,12a3.874,3.874,0,0,1-5.752,5.11Z" transform="translate(-574.903 -381.937)" fill="#ffb8b8"/>
  <path id="Path_3547" data-name="Path 3547" d="M659.663,473.871a1.725,1.725,0,0,1-.7-.151l-4.031-1.806a1.722,1.722,0,0,1-.937-2.1l6.762-21.006,2.613-15.826a4.25,4.25,0,1,1,8.331,1.661l-3.972,16.972-6.412,21.035a1.723,1.723,0,0,1-1.65,1.221Z" transform="translate(-509.774 -328.28)" fill="#ccc"/>
  <path id="Path_3548" data-name="Path 3548" d="M749.74,473.872a1.723,1.723,0,0,1-1.65-1.221l-6.409-21.023-3.975-16.984a4.25,4.25,0,1,1,8.331-1.661l2.62,15.853,6.756,20.978a1.722,1.722,0,0,1-.937,2.1l-4.031,1.806A1.725,1.725,0,0,1,749.74,473.872Z" transform="translate(-561.394 -328.281)" fill="#ccc"/>
  <path id="Path_3549" data-name="Path 3549" d="M697.827,357.277a5.559,5.559,0,0,0-7.088,2.925,9.172,9.172,0,0,0-.094,5.243,22.521,22.521,0,0,1,.823,5.243,5.136,5.136,0,0,1-2.392,4.475,15.87,15.87,0,0,1-3.058.837,2.833,2.833,0,0,0-2.217,2.026c-.222,1.588,1.7,2.8,1.692,4.4-.014,1.7-2.137,2.708-2.412,4.385A2.91,2.91,0,0,0,684.2,389.4a7.628,7.628,0,0,0,2.638,1.277,45.526,45.526,0,0,0,22.706,1.294,9.109,9.109,0,0,0,4.213-1.7,3.588,3.588,0,0,0,1.163-4.1c-1.005-2.063-4.2-2.181-5.31-4.189-.667-1.2-.36-2.683-.22-4.052.363-3.537,1.2-7.669.321-11.114-.794-3.113-2.518-7.135-4.982-9.2-1.768-1.479-5.143-.805-7.4-.349Z" transform="translate(-527.76 -283.431)" fill="#2f2e41"/>
  <path id="Path_3550" data-name="Path 3550" d="M773.346,733.686H570.81a.579.579,0,1,1,0-1.157H773.346a.579.579,0,0,1,0,1.157Z" transform="translate(-546.974 -515.434)" fill="#ccc"/>
  <path id="Path_3551" data-name="Path 3551" d="M856.1,681.788c-5.525,7.4-17,8.179-17,8.179s-2.511-11.219,3.014-18.618,17-8.179,17-8.179S861.63,674.388,856.1,681.788Z" transform="translate(-623.659 -472.457)" fill="rgba(109,209,121,0.1)"/>
  <path id="Path_3552" data-name="Path 3552" d="M807.115,699.241c3.646,4.883,11.215,5.4,11.215,5.4s1.657-7.4-1.989-12.286-11.215-5.4-11.215-5.4S803.469,694.358,807.115,699.241Z" transform="translate(-602.817 -487.128)" fill="rgba(109,209,121,0.1)"/>
  <g id="man_standing" data-name="man standing" transform="translate(53.059 70.526)">
    <path id="Path_3682" data-name="Path 3682" d="M576.507,478.208H581.1l2.185-17.714h-6.778Z" transform="translate(-549.922 -335.288)" fill="#ffb8b8"/>
    <path id="Path_3683" data-name="Path 3683" d="M567.552,504.28h-8.857v5.577h14.433A5.576,5.576,0,0,0,567.552,504.28Z" transform="translate(-533.094 -362.671)" fill="#2f2e41"/>
    <path id="Path_3684" data-name="Path 3684" d="M637.507,478.208H642.1l2.185-17.714h-6.778Z" transform="translate(-633.771 -335.288)" fill="#ffb8b8"/>
    <path id="Path_3685" data-name="Path 3685" d="M628.551,504.28h-8.857v5.577h14.433A5.576,5.576,0,0,0,628.551,504.28Z" transform="translate(-616.943 -362.671)" fill="#2f2e41"/>
    <path id="Path_3686" data-name="Path 3686" d="M721.226,446.853a4.024,4.024,0,0,0-1.689-5.935l-15.611-43.028-7.682,4.192L714.068,443.2a4.046,4.046,0,0,0,7.158,3.651Z" transform="translate(-671.603 -367.28)" fill="#ffb8b8"/>
    <path id="Path_3687" data-name="Path 3687" d="M804.613,464.049a4.024,4.024,0,0,0,1.084-6.075l4.836-45.516-8.742.4-2.01,44.771a4.046,4.046,0,0,0,4.832,6.42Z" transform="translate(-798.532 -376.391)" fill="#ffb8b8"/>
    <ellipse id="Ellipse_544" data-name="Ellipse 544" cx="9.2" cy="9.2" rx="9.2" ry="9.2" transform="translate(10.827 4.24)" fill="#ffb8b8"/>
    <path id="Path_3688" data-name="Path 3688" d="M743.033,436.947H770.77l-.033-.216c-.05-.323-4.943-32.379-1.334-42.866a4.425,4.425,0,0,0-2.274-5.463h0c-5.159-2.429-15.061-5.421-23.419,1.839A10.576,10.576,0,0,0,740.166,399Z" transform="translate(-736.893 -359.64)" fill="#ccc"/>
    <path id="Path_3689" data-name="Path 3689" d="M724.7,414.225l12.488-2.533-5.853-13.871a5.243,5.243,0,0,0-10.153,2.621Z" transform="translate(-696.155 -364.776)" fill="#ccc"/>
    <path id="Path_3690" data-name="Path 3690" d="M807.176,420.549l.751-17.209c.569-3.235-1.283-6.293-4.131-6.793s-5.631,1.746-6.2,5l-2.822,16.08Z" transform="translate(-794.62 -366.397)" fill="#ccc"/>
    <path id="Path_3691" data-name="Path 3691" d="M740.455,517.049c-4.463,17-4.95,38.609-3.746,62.182l5.993-.749,10.863-44.951,5.993,45.7,6.743-.375c2.014-24.734,3.976-45.968.749-59.934Z" transform="translate(-733.393 -441.803)" fill="#2f2e41"/>
    <path id="Path_3692" data-name="Path 3692" d="M752.013,336.723a2.972,2.972,0,0,0,5.128-1.651,3.013,3.013,0,0,0,0-.583c-.115-1.106-.755-2.111-.6-3.279a1.719,1.719,0,0,1,.315-.8c1.368-1.831,4.578.819,5.869-.839.792-1.017-.139-2.617.469-3.754.8-1.5,3.176-.76,4.665-1.581,1.657-.914,1.558-3.456.467-5a7.868,7.868,0,0,0-5.965-3.037,16,16,0,0,0-6.74,1.315,13.469,13.469,0,0,0-6.368,4.415,10.78,10.78,0,0,0-1.09,9.178C748.713,332.961,750.611,335.23,752.013,336.723Z" transform="translate(-738.048 -316.173)" fill="#2f2e41"/>
  </g>
</svg>
