<svg xmlns="http://www.w3.org/2000/svg" width="180" height="164.367" viewBox="0 0 180 164.367">
  <g id="FM-login" transform="translate(-94.449 -172.395)">
    <path id="Path_133" data-name="Path 133" d="M832.418,556.592a64.661,64.661,0,0,0,14.109,11.383c.12.074.241.143.363.214l8.441-7.471c-.089-.082-.187-.175-.293-.276-6.29-5.972-37.514-47.729-39.594-57.9C815.588,503.391,813.567,536.612,832.418,556.592Z" transform="translate(-688.47 -234.675)" fill="#edd8d8"/>
    <path id="Path_134" data-name="Path 134" d="M858.876,669.259c.16.038.322.074.485.106l6.333-5.605-.434-.151c-2.717-.962-10.81-3.867-18.863-7.175-8.654-3.556-17.266-7.574-19.118-10.148C827.676,646.884,839.915,665.019,858.876,669.259Z" transform="translate(-702.448 -334.517)" fill="#edd8d8"/>
    <path id="Path_3077" data-name="Path 3077" d="M622.107,228.938h.9V204.233a14.3,14.3,0,0,1,14.3-14.3H689.65a14.3,14.3,0,0,1,14.3,14.3V339.769a14.3,14.3,0,0,1-14.3,14.3H637.307a14.3,14.3,0,0,1-14.3-14.3V246.524h-.9Z" transform="translate(-478.042 -17.538)"/>
    <path id="Path_3078" data-name="Path 3078" d="M635.027,212.794V348.133a10.676,10.676,0,0,0,10.68,10.676H698.3a10.676,10.676,0,0,0,10.676-10.677V212.794A10.676,10.676,0,0,0,698.3,202.118h-6.382a5.076,5.076,0,0,1-4.7,6.988H657.235a5.07,5.07,0,0,1-4.7-6.988h-6.829A10.676,10.676,0,0,0,635.027,212.794Z" transform="translate(-487.016 -26.001)" fill="#fff"/>
    <path id="Path_3079" data-name="Path 3079" d="M665.282,450.006h46.229a3.058,3.058,0,0,0,3.054-3.054v-1.52a3.058,3.058,0,0,0-3.054-3.054H665.282a3.058,3.058,0,0,0-3.054,3.054v1.52A3.058,3.058,0,0,0,665.282,450.006Z" transform="translate(-500.911 -192.884)" fill="#f0f0f0"/>
    <path id="Path_3080" data-name="Path 3080" d="M665.282,492.913h46.229a3.058,3.058,0,0,0,3.054-3.054v-1.52a3.058,3.058,0,0,0-3.054-3.054H665.282a3.058,3.058,0,0,0-3.054,3.054v1.52a3.058,3.058,0,0,0,3.054,3.054Z" transform="translate(-500.911 -222.687)" fill="#f0f0f0"/>
    <path id="Path_3081" data-name="Path 3081" d="M672.506,439.715h46.229a3.21,3.21,0,0,0,3.207-3.207v-1.52a3.211,3.211,0,0,0-3.207-3.207H672.506a3.21,3.21,0,0,0-3.207,3.207v1.52A3.211,3.211,0,0,0,672.506,439.715Zm46.229-7.323a2.6,2.6,0,0,1,2.6,2.6v1.52a2.6,2.6,0,0,1-2.6,2.6H672.506a2.6,2.6,0,0,1-2.6-2.6v-1.52a2.6,2.6,0,0,1,2.6-2.6Z" transform="translate(-510.448 -185.524)" fill="#3f3d56"/>
    <path id="Path_3082" data-name="Path 3082" d="M672.506,482.622h46.229a3.21,3.21,0,0,0,3.207-3.207V477.9a3.21,3.21,0,0,0-3.207-3.207H672.506A3.21,3.21,0,0,0,669.3,477.9v1.52a3.211,3.211,0,0,0,3.207,3.207Zm46.229-7.323a2.6,2.6,0,0,1,2.6,2.6v1.52a2.6,2.6,0,0,1-2.6,2.6H672.506a2.6,2.6,0,0,1-2.6-2.6V477.9a2.6,2.6,0,0,1,2.6-2.6Z" transform="translate(-510.448 -215.327)" fill="#3f3d56"/>
    <path id="Path_3083" data-name="Path 3083" d="M747.28,212.794v29.438a31.622,31.622,0,0,0,39.667-30.564q0-1.3-.1-2.563H769.488a5.07,5.07,0,0,1-4.7-6.988H757.96A10.676,10.676,0,0,0,747.28,212.794Z" transform="translate(-599.27 -26.001)" fill="#fabbbb"/>
    <path id="Path_3084" data-name="Path 3084" d="M635.027,655.684c0,.62.023,1.233.073,1.839h15.825A10.676,10.676,0,0,0,661.6,646.845V632.37a23.539,23.539,0,0,0-26.575,23.314Z" transform="translate(-439.641 -324.715)" fill="#fabbbb"/>
    <path id="Path_3096" data-name="Path 3096" d="M246.254,726.746H425.746c.14,0,.254-.182.254-.406s-.114-.406-.254-.406H246.254c-.14,0-.254.182-.254.406S246.114,726.746,246.254,726.746Z" transform="translate(-151.551 -389.983)" fill="#3f3d56"/>
    <path id="Path_3097" data-name="Path 3097" d="M701.879,544.654h21.947a3.058,3.058,0,0,0,3.054-3.054v-1.52a3.058,3.058,0,0,0-3.054-3.054H701.879a3.058,3.058,0,0,0-3.054,3.054v1.52a3.058,3.058,0,0,0,3.054,3.054Z" transform="translate(-524.404 -258.626)" fill="#fabbbb"/>
    <path id="Path_3098" data-name="Path 3098" d="M709.1,534.364h21.947a3.211,3.211,0,0,0,3.207-3.207v-1.52a3.21,3.21,0,0,0-3.207-3.207H709.1a3.21,3.21,0,0,0-3.207,3.207v1.52A3.211,3.211,0,0,0,709.1,534.364Zm21.947-7.323a2.6,2.6,0,0,1,2.6,2.6v1.52a2.6,2.6,0,0,1-2.6,2.6H709.1a2.6,2.6,0,0,1-2.6-2.6v-1.52a2.6,2.6,0,0,1,2.6-2.6Z" transform="translate(-533.941 -251.266)" fill="#3f3d56"/>
  </g>
</svg>
