<svg id="FM-question" xmlns="http://www.w3.org/2000/svg" width="283.65" height="199.895" viewBox="0 0 283.65 199.895">
  <circle id="Ellipse_523" data-name="Ellipse 523" cx="15.447" cy="15.447" r="15.447" transform="translate(129.419 168.576)" fill="#6dd179"/>
  <path id="Path_3603" data-name="Path 3603" d="M496.941,382.12c8.642-2.6,17.829-5.3,24.683-11.472,6.124-5.513,10.259-13.932,7.722-22.2-2.532-8.251-10.116-13.754-17.946-16.49a73.624,73.624,0,0,0-13.732-3.09c-5.049-.735-10.12-1.338-15.189-1.918q-30.786-3.521-61.8-4.3c-10.2-.257-20.4-.251-30.61-.1-9.114.132-18.712.129-27.167-3.744-6.575-3.012-12.542-8.492-14.374-15.694-2.115-8.313,1.786-16.778,7.381-22.8a59.766,59.766,0,0,1,9.952-8.3c3.858-2.664,7.85-5.14,11.928-7.451a166.105,166.105,0,0,1,25.107-11.575c4.28-1.556,8.624-2.9,13.005-4.138a111.279,111.279,0,0,0,10.986-3.518c6.912-2.755,13.486-7.421,15.244-15.072,1.666-7.251-1.143-15.122-6.066-20.508-5.7-6.232-14.285-8.963-22.519-9.405-9.244-.5-18.276,1.817-26.964,4.754-9.267,3.132-18.335,6.733-27.8,9.269a187.033,187.033,0,0,1-28.61,5.318,77.608,77.608,0,0,1-14.358.687c-3.987-.323-7.953-1.5-10.892-4.325a10.772,10.772,0,0,1-3.5-9.279c.094-.639,1.065-.367.971.268-.628,4.283,2.283,8.23,5.871,10.252,4.147,2.337,9.192,2.34,13.809,2.073a180.609,180.609,0,0,0,29.724-4.3,238.873,238.873,0,0,0,28.109-8.677c8.783-3.181,17.763-6.285,27.147-6.974,8.142-.6,16.707.588,23.8,4.843a26.329,26.329,0,0,1,12.279,17.132,19.858,19.858,0,0,1-5.843,18.912c-5.481,5.053-13,7.213-20,9.2a183.232,183.232,0,0,0-25.989,9.3,163.148,163.148,0,0,0-24.447,13.744c-7.471,5.105-14.843,11.529-17.206,20.636a19.011,19.011,0,0,0,.944,12.749,23.3,23.3,0,0,0,7.476,8.872c7.5,5.516,16.943,6.648,26,6.761,10.169.126,20.338-.217,30.51-.05q31.1.51,62.064,3.785,7.76.821,15.5,1.816A140.15,140.15,0,0,1,506,329.363c8.114,1.883,16.009,5.5,21.053,12.384a19.583,19.583,0,0,1,1.668,21.413c-3.873,7.62-11.127,12.466-18.83,15.65a133.612,133.612,0,0,1-12.677,4.28.5.5,0,0,1-.268-.971Z" transform="translate(-259.792 -183.517)" fill="#d2e6d7"/>
  <circle id="Ellipse_524" data-name="Ellipse 524" cx="8.059" cy="8.059" r="8.059" transform="translate(34.217 15.279)" fill="rgba(109,209,121,0.2)"/>
  <circle id="Ellipse_525" data-name="Ellipse 525" cx="8.059" cy="8.059" r="8.059" transform="translate(90.129 30.559)" fill="rgba(109,209,121,0.2)"/>
  <circle id="Ellipse_526" data-name="Ellipse 526" cx="8.059" cy="8.059" r="8.059" transform="translate(137.478)" fill="rgba(109,209,121,0.2)"/>
  <circle id="Ellipse_527" data-name="Ellipse 527" cx="8.059" cy="8.059" r="8.059" transform="translate(167.029 34.253)" fill="#f2f2f2"/>
  <circle id="Ellipse_528" data-name="Ellipse 528" cx="8.059" cy="8.059" r="8.059" transform="translate(127.068 73.878)" fill="rgba(109,209,121,0.2)"/>
  <circle id="Ellipse_529" data-name="Ellipse 529" cx="8.059" cy="8.059" r="8.059" transform="translate(76.361 93.019)" fill="rgba(109,209,121,0.2)"/>
  <circle id="Ellipse_530" data-name="Ellipse 530" cx="8.059" cy="8.059" r="8.059" transform="translate(130.09 122.906)" fill="#f2f2f2"/>
  <circle id="Ellipse_531" data-name="Ellipse 531" cx="8.059" cy="8.059" r="8.059" transform="translate(187.85 139.697)" fill="#f2f2f2"/>
  <circle id="Ellipse_532" data-name="Ellipse 532" cx="8.059" cy="8.059" r="8.059" transform="translate(255.347 136.003)" fill="rgba(109,209,121,0.2)"/>
  <path id="Path_3604" data-name="Path 3604" d="M516.594,220.37A44.7,44.7,0,0,0,472.341,264.3c0,.223,0,1.79,0,3.84a11.333,11.333,0,0,0,11.331,11.332h0a11.339,11.339,0,0,0,11.337-11.347c0-1.4,0-2.362,0-2.421A21.492,21.492,0,1,1,528.088,283.8l0,0s-16.128,10.383-21.046,24.627h0a31.571,31.571,0,0,0-1.3,8.989c0,1.251.074,12.2.216,21.081a11.682,11.682,0,0,0,11.683,11.492h0a11.685,11.685,0,0,0,11.684-11.757c-.049-8.136-.076-17.61-.076-18.3,0-8.746,8.437-17.46,15.368-23.143a46.612,46.612,0,0,0,16.031-25.521,29.14,29.14,0,0,0,.839-6.324,44.579,44.579,0,0,0-44.9-44.578Z" transform="translate(-373.382 -197.534)" fill="#6dd179"/>
  <path id="Path_3605" data-name="Path 3605" d="M460.913,746.049H178.062a.4.4,0,1,1,0-.8H460.913a.4.4,0,1,1,0,.8Z" transform="translate(-177.662 -546.155)" fill="#3f3d56"/>
  <circle id="Ellipse_533" data-name="Ellipse 533" cx="10.074" cy="10.074" r="10.074" transform="translate(200.965 71.526)" fill="#2f2e41"/>
  <path id="Path_3606" data-name="Path 3606" d="M561,550.721h-4.117l-1.959-15.88H561Z" transform="translate(-368.572 -355.236)" fill="#ffb8b8"/>
  <path id="Path_3607" data-name="Path 3607" d="M542.108,578.626h7.94v5H537.109A5,5,0,0,1,542.108,578.626Z" transform="translate(-356.742 -384.318)" fill="#2f2e41"/>
  <path id="Path_3608" data-name="Path 3608" d="M656,550.721h-4.117l-1.959-15.88H656Z" transform="translate(-431.671 -355.236)" fill="#ffb8b8"/>
  <path id="Path_3609" data-name="Path 3609" d="M637.108,578.626h7.94v5H632.109A5,5,0,0,1,637.108,578.626Z" transform="translate(-419.841 -384.318)" fill="#2f2e41"/>
  <circle id="Ellipse_534" data-name="Ellipse 534" cx="8.248" cy="8.248" r="8.248" transform="translate(201.26 75.238)" fill="#ffb8b8"/>
  <path id="Path_3610" data-name="Path 3610" d="M757.865,458.222l3.69-8.479a10.539,10.539,0,0,0-2.334-11.955,10.707,10.707,0,0,0-1.031-.9,10.389,10.389,0,0,0-6.377-2.206,10.807,10.807,0,0,0-4.5,1c-.121.054-.238.111-.359.168-.232.111-.46.232-.682.356A10.638,10.638,0,0,0,741,444.229l-1.629,13.647c-.41,1.071-15.024,39.757-9.913,69.291a1.5,1.5,0,0,0,1.283,1.232l5.182.705a1.51,1.51,0,0,0,1.682-1.185l8.694-41.442a1.176,1.176,0,0,1,2.284-.077l12.284,43.581a1.5,1.5,0,0,0,1.447,1.1,1.723,1.723,0,0,0,.292-.027l6.33-1.219a1.5,1.5,0,0,0,1.219-1.615C769.226,517.848,764.282,465.888,757.865,458.222Z" transform="translate(-543.441 -339.881)" fill="#2f2e41"/>
  <path id="Path_3611" data-name="Path 3611" d="M706.057,415.439a3.377,3.377,0,0,0,3.558,3.762l4.61,11.079,3.487-5.17-4.913-9.728a3.4,3.4,0,0,0-6.743.057Z" transform="translate(-528.602 -325.09)" fill="#ffb8b8"/>
  <path id="Path_3612" data-name="Path 3612" d="M792.634,511.12a3.377,3.377,0,0,0,2.83-4.336l9.7-7.065-5.84-2.187-8.316,7.044a3.4,3.4,0,0,0,1.626,6.544Z" transform="translate(-583.583 -381.623)" fill="#ffb8b8"/>
  <path id="Path_3613" data-name="Path 3613" d="M729.523,454.919a5.729,5.729,0,0,1-1.108-.109,5.476,5.476,0,0,1-4.012-3.229l-6.459-7.876a1.511,1.511,0,0,1,.373-2.243l4.6-2.845a1.511,1.511,0,0,1,2.087.5l4.552,7.5,8.718-6.443a3.265,3.265,0,0,1,3.8,5.226l-8.7,7.937A5.458,5.458,0,0,1,729.523,454.919Z" transform="translate(-536.284 -342.342)" fill="#2f2e41"/>
  <path id="Path_3614" data-name="Path 3614" d="M812.182,471.634h-.035a1.514,1.514,0,0,1-1.112-.527l-4.086-4.766a1.511,1.511,0,0,1,.309-2.241l7.65-5.1-6.931-8.332a3.264,3.264,0,0,1,5-4.091l8.423,8.232a5.549,5.549,0,0,1-1.234,9.047l-6.884,7.305A1.513,1.513,0,0,1,812.182,471.634Z" transform="translate(-595.387 -347.212)" fill="#2f2e41"/>
  <path id="Path_3615" data-name="Path 3615" d="M786.283,445.08a1.562,1.562,0,0,1-.2-.012,1.5,1.5,0,0,1-1.246-1.031l-3.07-9.413a1.035,1.035,0,0,1,.535-1.251l.1-.047c.09-.043.18-.085.271-.126a10.939,10.939,0,0,1,4.568-1.015,10.52,10.52,0,0,1,5.763,1.732,1.051,1.051,0,0,1,.3,1.442l-5.759,9.022a1.5,1.5,0,0,1-1.268.7Z" transform="translate(-578.872 -338.22)" fill="#e6e6e6"/>
  <circle id="Ellipse_535" data-name="Ellipse 535" cx="3.297" cy="3.297" r="3.297" transform="translate(215.685 70.51)" fill="#2f2e41"/>
  <path id="Path_3616" data-name="Path 3616" d="M778.842,361.365h0a8.731,8.731,0,0,0-8.731,8.731v3.694h4.543l2.173-3.694.652,3.694h13.788l-3.694-3.694a8.731,8.731,0,0,0-8.731-8.731Z" transform="translate(-571.161 -291.182)" fill="#2f2e41"/>
  <path id="Path_3617" data-name="Path 3617" d="M834.809,358.433a5.088,5.088,0,0,1,5.534-3.491,7.05,7.05,0,0,1,4.751,3.926,38.654,38.654,0,0,1,2.112,6.02,10.9,10.9,0,0,0,3.289,5.368c1.68,1.31,4.257,1.665,5.907.318a6.756,6.756,0,0,1-12.585,2.412,14.615,14.615,0,0,1-1.353-5.121,11.193,11.193,0,0,0-1.633-5.017,4.15,4.15,0,0,0-4.635-1.726Z" transform="translate(-614.133 -286.885)" fill="#2f2e41"/>
  <path id="Path_3618" data-name="Path 3618" d="M486.554,310.608h0a11.333,11.333,0,0,1-11.332-11.331c0-2.051,0-3.618,0-3.841a44.162,44.162,0,0,1,5.158-20.118,44.261,44.261,0,0,0-8.516,25.491c0,.223,0,1.79,0,3.84A11.333,11.333,0,0,0,483.2,315.981h0a11.341,11.341,0,0,0,10.91-8.258A11.291,11.291,0,0,1,486.554,310.608Z" transform="translate(-373.069 -234.031)" fill="#3f3d56"/>
  <path id="Path_3619" data-name="Path 3619" d="M572.032,280.8a21.493,21.493,0,0,1,18.691,30.026,21.491,21.491,0,1,0-36.075-22.494A21.448,21.448,0,0,1,572.032,280.8Z" transform="translate(-428.053 -234.088)" fill="#3f3d56"/>
  <path id="Path_3620" data-name="Path 3620" d="M586.621,499.764h0a11.682,11.682,0,0,1-11.683-11.495c-.142-8.882-.216-19.828-.216-21.079a31.567,31.567,0,0,1,1.3-8.989h0a31.925,31.925,0,0,1,1.845-4.265,36.956,36.956,0,0,0-5.2,9.638h0a31.57,31.57,0,0,0-1.3,8.989c0,1.251.074,12.2.216,21.081a11.682,11.682,0,0,0,11.683,11.492h0a11.686,11.686,0,0,0,11.216-8.409A11.639,11.639,0,0,1,586.621,499.764Z" transform="translate(-439.155 -352.667)" fill="#3f3d56"/>
  <path id="Path_3621" data-name="Path 3621" d="M126.539,551.176h4.117l1.959-15.88h-6.076Z" transform="translate(-84.045 -355.538)" fill="#ffb8b8"/>
  <path id="Path_3622" data-name="Path 3622" d="M0,0H12.939V5H5A5,5,0,0,1,0,0H0Z" transform="translate(54.549 199.46) rotate(179.997)" fill="#2f2e41"/>
  <path id="Path_3623" data-name="Path 3623" d="M82.539,551.176h4.117l1.959-15.88H82.538Z" transform="translate(-54.821 -355.538)" fill="#ffb8b8"/>
  <path id="Path_3624" data-name="Path 3624" d="M0,0H12.939V5H5A5,5,0,0,1,0,0H0Z" transform="translate(39.774 199.46) rotate(179.997)" fill="#2f2e41"/>
  <path id="Path_3625" data-name="Path 3625" d="M260.022,611.442,256,611.23a1.569,1.569,0,0,1-1.484-1.668l4.806-53.214,22.134,5.973,2.132-.582-6.669,47.109a1.577,1.577,0,0,1-1.464,1.325l-4.335.2a1.57,1.57,0,0,1-1.656-1.61l.785-28.274a.523.523,0,0,0-1.035-.121l-7.575,29.824a1.56,1.56,0,0,1-1.534,1.251Z" transform="translate(-228.706 -420.688)" fill="#2f2e41"/>
  <circle id="Ellipse_536" data-name="Ellipse 536" cx="8.248" cy="8.248" r="8.248" transform="translate(34.985 75.624)" fill="#ffb8b8"/>
  <path id="Path_3626" data-name="Path 3626" d="M265.483,448.441l.907,19.567.328,7.119a1.559,1.559,0,0,0,1.032,1.4l21.269,7.7a1.5,1.5,0,0,0,.537.094,1.559,1.559,0,0,0,1.566-1.608l-.872-35.182a12.4,12.4,0,0,0-10.324-11.981c-.206-.031-.415-.063-.624-.091a12.173,12.173,0,0,0-9.794,3.17,12.5,12.5,0,0,0-4.025,9.8Z" transform="translate(-235.983 -340.338)" fill="#ccc"/>
  <path id="Path_3627" data-name="Path 3627" d="M348.023,539.4a3.379,3.379,0,0,1-1.8-5.113l-7.213-9.591,6.224-.385,5.895,9.167a3.4,3.4,0,0,1-3.1,5.923Z" transform="translate(-284.826 -399.41)" fill="#ffb8b8"/>
  <path id="Path_3628" data-name="Path 3628" d="M326.926,484.488a1.56,1.56,0,0,1-.853-.846l-10.866-25.889a4.185,4.185,0,0,1,7.718-3.24L333.791,480.4a1.571,1.571,0,0,1-.84,2.055l-4.824,2.025A1.558,1.558,0,0,1,326.926,484.488Z" transform="translate(-268.801 -351.346)" fill="#ccc"/>
  <path id="Path_3629" data-name="Path 3629" d="M298.141,504.868l10.437-19.984a1.638,1.638,0,0,1,2.208-.693l15.149,7.912a1.638,1.638,0,0,1,.693,2.208L316.19,514.295a1.638,1.638,0,0,1-2.208.693l-15.149-7.912A1.638,1.638,0,0,1,298.141,504.868Z" transform="translate(-257.56 -372.639)" fill="#3f3d56"/>
  <path id="Path_3630" data-name="Path 3630" d="M289.232,502.86a3.379,3.379,0,0,0-5.211-1.5l-10-6.634L274,500.964l9.5,5.343a3.4,3.4,0,0,0,5.729-3.448Z" transform="translate(-241.652 -379.761)" fill="#ffb8b8"/>
  <path id="Path_3631" data-name="Path 3631" d="M257.765,470.6l-8.173-6.474a5.764,5.764,0,0,1-2.627-9.112l7.42-9.725a3.39,3.39,0,0,1,5.752,3.454l-5.871,9.6,8.628,4.092a1.569,1.569,0,0,1,.654,2.256l-3.483,5.512a1.572,1.572,0,0,1-1.063.709l-.026,0A1.577,1.577,0,0,1,257.765,470.6Z" transform="translate(-222.828 -346.097)" fill="#ccc"/>
  <path id="Path_3632" data-name="Path 3632" d="M279.825,384.673a.717.717,0,0,1,.623-.947,1.656,1.656,0,0,1,1.167.576,4.647,4.647,0,0,0,1.031.886.887.887,0,0,0,1.168-.211,1.624,1.624,0,0,0-.062-1.26,12.394,12.394,0,0,1-.547-3.281,5.777,5.777,0,0,1,.826-3.509,4.642,4.642,0,0,1,3.978-1.691,26.734,26.734,0,0,1,4.469.791,1.5,1.5,0,0,0,1.461-.245,1.883,1.883,0,0,0,.076-1.68,11.671,11.671,0,0,0-1.768-4.215,6.346,6.346,0,0,0-4.05-2.28,9.718,9.718,0,0,0-4.521.513,12.121,12.121,0,0,0-5.938,4.137,9.818,9.818,0,0,0-1.873,7.254,8.955,8.955,0,0,0,3.32,5.66Z" transform="translate(-242.825 -295.278)" fill="#2f2e41"/>
  <path id="Path_3633" data-name="Path 3633" d="M575.046,687.667a15.445,15.445,0,0,1-5.732-24.007,15.446,15.446,0,1,0,21.011,22.319A15.437,15.437,0,0,1,575.046,687.667Z" transform="translate(-433.583 -491.964)" fill="#3f3d56"/>
</svg>
