<svg xmlns="http://www.w3.org/2000/svg" width="352.676" height="252.2" viewBox="0 0 352.676 252.2">
  <g id="Group_2121" data-name="Group 2121" transform="translate(0 -0.01)">
    <ellipse id="Ellipse_460" data-name="Ellipse 460" cx="176.338" cy="11.084" rx="176.338" ry="11.084" transform="translate(0 230.042)" fill="#6dd179" opacity="0.1"/>
    <path id="Path_3110" data-name="Path 3110" d="M1012.745,748.4a12.431,12.431,0,0,1-.269,2.607c-.034.161-.07.336-.107.474-.954,3.826-3.644,6.624-6.855,6.8h-.336c-3.4,0-6.268-2.929-7.215-6.963-.027-.108-.05-.215-.074-.336a12.426,12.426,0,0,1-.269-2.606c0-5.465,3.382-9.892,7.557-9.892S1012.745,742.937,1012.745,748.4Z" transform="translate(-687.729 -515.478)" fill="#3f3d56"/>
    <path id="Path_3111" data-name="Path 3111" d="M1012.771,748.428a12.421,12.421,0,0,1-.269,2.606c-.034.161-.07.336-.107.474h-.336a15.37,15.37,0,0,1-2.472-.336,15.093,15.093,0,0,1-2.2.5,15.421,15.421,0,0,1-1.726.161h-.584a15.591,15.591,0,0,1-2.07-.138,15.175,15.175,0,0,1-3.247-.806,15.313,15.313,0,0,1-1.753.47c-.027-.107-.05-.215-.074-.336a12.431,12.431,0,0,1-.269-2.607c0-5.465,3.382-9.892,7.557-9.892S1012.771,742.97,1012.771,748.428Z" transform="translate(-687.755 -515.511)" opacity="0.1"/>
    <path id="Path_3112" data-name="Path 3112" d="M993.052,669.134a15.291,15.291,0,0,0-1.646-6.919l-8.887,2.764,7.8-4.588a15.354,15.354,0,0,0-11.541-6.58,15.693,15.693,0,0,0-1.2-1.585L964.817,656.2l10.469-6.153a15.363,15.363,0,0,0-24.184,8.189l10.933,12.589-11.86-8.582a15.363,15.363,0,0,0,13.748,27.109,19.031,19.031,0,0,0,28.516-14.728c0-.336,0-.672-.034-1.008a15.347,15.347,0,0,0,.645-4.481Z" transform="translate(-651.913 -454.64)" fill="#6dd179"/>
    <path id="Path_3113" data-name="Path 3113" d="M992.755,714.657a40.864,40.864,0,0,0-14.221-.181c-5.337.883-10.792,2.825-16.011,1.4-3.063-.833-5.71-2.761-8.7-3.829a16.488,16.488,0,0,0-8.985-.541,15.37,15.37,0,0,0,19.041,20.512,19.031,19.031,0,0,0,28.516-14.729c0-.336,0-.672-.034-1.008A15.207,15.207,0,0,0,992.755,714.657Z" transform="translate(-651.883 -497.312)" opacity="0.1"/>
    <rect id="Rectangle_2404" data-name="Rectangle 2404" width="3.463" height="28.557" rx="1.731" transform="translate(231.953 57.768)" fill="#3f3d56"/>
    <rect id="Rectangle_2406" data-name="Rectangle 2406" width="2.19" height="16.364" rx="1.095" transform="translate(116.736 52.609)" fill="#3f3d56"/>
    <rect id="Rectangle_2407" data-name="Rectangle 2407" width="2.086" height="16.505" rx="1.043" transform="translate(116.769 74.697)" fill="#3f3d56"/>
    <path id="Path_3147" data-name="Path 3147" d="M35.69,0H80.223c19.711,0,35.69-4.021,35.69,15.69v203.2c0,19.711-15.979,16.69-35.69,16.69H35.69C15.979,235.577,0,239.6,0,219.887V15.69C0-4.021,15.979,0,35.69,0Z" transform="translate(117.908 4.329)" fill="#3f3d56"/>
    <rect id="Rectangle_2409" data-name="Rectangle 2409" width="16.186" height="3.288" rx="1.644" transform="translate(167.683 11.363)" fill="#e6e8ec"/>
    <path id="Path_3114" data-name="Path 3114" d="M548.948,114.906V319.794a9.207,9.207,0,0,1-9.206,9.2H456.557a9.207,9.207,0,0,1-9.207-9.2V114.906a9.207,9.207,0,0,1,9.207-9.207H469v1.6a7.584,7.584,0,0,0,7.581,7.571h42.321a7.581,7.581,0,0,0,7.581-7.581V105.7h13.271A9.207,9.207,0,0,1,548.948,114.906Z" transform="translate(-322.284 -95.237)" fill="#fff"/>
    <path id="Path_3115" data-name="Path 3115" d="M549.676,306.466v69.672h-.729v.071H447.35V291.09q.977-1.115,1.982-2.314C463.6,271.736,482.994,267.252,498,266.782a70.436,70.436,0,0,1,30.3,6.012,57.644,57.644,0,0,0,20.647,4.917v26.34C549.441,305.459,549.676,306.466,549.676,306.466Z" transform="translate(-322.284 -202.192)" fill="#6dd179" opacity="0.2"/>
    <path id="Path_3116" data-name="Path 3116" d="M549.676,362.709v69.672H447.35v-45.64c3.644-.917,8.733-4.444,15.262-14.188,7.809-11.658,18.42-14.725,26.632-15.047a32.04,32.04,0,0,1,16.576,4.115c6.016,3.248,17.61,7.164,26.42-4.205,9.741-12.572,14.92-2.2,16.707,2.879C549.441,361.7,549.676,362.709,549.676,362.709Z" transform="translate(-322.284 -258.435)" fill="#6dd179" opacity="0.2"/>
    <rect id="Rectangle_2410" data-name="Rectangle 2410" width="81.283" height="25.527" rx="12" transform="translate(135.36 161.186)" fill="#6dd179"/>
    <path id="Path_3117" data-name="Path 3117" d="M164.856,735.692l6.429-3.792A15.449,15.449,0,0,0,168,727.967l-12.129,3.785,9.505-5.589A15.451,15.451,0,0,0,142.5,739.716c0,8.535,6.916,8.83,15.451,8.83s15.451-.3,15.451-8.83a15.367,15.367,0,0,0-1.327-6.268Z" transform="translate(-119.828 -506.037)" fill="#6dd179"/>
    <path id="Path_3118" data-name="Path 3118" d="M166.472,763.576a12.029,12.029,0,0,0-2.277-1.79,10.66,10.66,0,0,0-3.752-1.831,27.553,27.553,0,0,0-3.695-.1,8.622,8.622,0,0,1-5.646-2.59,17.639,17.639,0,0,0-2.623-2.717,5.77,5.77,0,0,0-3.933-.722,11.313,11.313,0,0,0-1.162.238,15.417,15.417,0,0,0-.914,5.243c0,8.535,6.916,8.83,15.451,8.83,4.141,0,7.9-.071,10.674-1.119l-.464-.867A12.12,12.12,0,0,0,166.472,763.576Z" transform="translate(-119.808 -525.62)" opacity="0.1"/>
    <path id="Path_3119" data-name="Path 3119" d="M300.479,651.239a4.007,4.007,0,0,0-1.1,1.585c-.574,1.794,1.031,3.554,1.186,5.431.121,1.491-.672,2.882-1.122,4.313a9.307,9.307,0,0,0,3.2,9.875,2.663,2.663,0,0,0,1.068.551,2.4,2.4,0,0,0,1.824-.537,4.89,4.89,0,0,0,1.71-2.257,9.793,9.793,0,0,0,.447-2.744l.238-3.594c.249-3.752.474-7.621-.44-11.306-.3-1.209-.853-3.987-2.25-4.155S301.406,650.333,300.479,651.239Z" transform="translate(-223.817 -455.649)" fill="#3f3d56"/>
    <path id="Path_3120" data-name="Path 3120" d="M346.17,580.062a117.944,117.944,0,0,0-3.638,17.986,5.036,5.036,0,0,1-.736,2.449c-1.031,1.387-3.1,1.3-4.81,1.075a2.02,2.02,0,0,1-2.035-2.422q-1.76-17.157-2.351-34.4c-.017-.44,14.339-.48,15.568.672s.275,5.461,0,6.929A72.882,72.882,0,0,1,346.17,580.062Z" transform="translate(-246.077 -399.908)" fill="#fbbebe"/>
    <path id="Path_3121" data-name="Path 3121" d="M346.17,580.062a117.944,117.944,0,0,0-3.638,17.986,5.036,5.036,0,0,1-.736,2.449c-1.031,1.387-3.1,1.3-4.81,1.075a2.02,2.02,0,0,1-2.035-2.422q-1.76-17.157-2.351-34.4c-.017-.44,14.339-.48,15.568.672s.275,5.461,0,6.929A72.882,72.882,0,0,1,346.17,580.062Z" transform="translate(-246.077 -399.908)" opacity="0.05"/>
    <path id="Path_3122" data-name="Path 3122" d="M284,545.048l5.814,12.787c1.935,4.252,3.883,8.552,4.806,13.13a41.925,41.925,0,0,1,.709,5.794,21.83,21.83,0,0,1-.155,5c-.212,1.229-.6,2.425-.772,3.661-.672,4.927,2.119,9.563,4.031,14.147a42.657,42.657,0,0,1,3.117,12.35c.175,1.81.272,3.732,1.307,5.226a14.153,14.153,0,0,1,5.71-.836c.353-2.892-1.475-5.556-2.146-8.4-1.233-5.206,1.491-10.678.564-15.948-.5-2.855-2.066-5.542-1.938-8.437.238-5.28,1.229-10.614.222-15.786-1.135-5.848-4.4-11.165-5.122-17.076-.554-4.541.336-9.562-2.193-13.378A15.578,15.578,0,0,0,284,545.048Z" transform="translate(-213.801 -381.847)" fill="#fbbebe"/>
    <path id="Path_3123" data-name="Path 3123" d="M336.314,773.544a1.9,1.9,0,0,1-1.619-.46,1.8,1.8,0,0,1-.292-.9,44.284,44.284,0,0,1-.4-6.11,3.792,3.792,0,0,1,.45-2.153,6.222,6.222,0,0,1,1.038-1.008c.89-.823,1.538-2.015,2.687-2.395a2.9,2.9,0,0,1,2.878.756,4.8,4.8,0,0,1,1.276,2.818c.168,1.249.027,2.61.689,3.695.262.42.628.763.924,1.159,1.008,1.344,1.911,3.974-.168,4.518C341.57,774.041,338.6,773.47,336.314,773.544Z" transform="translate(-247.006 -530.04)" fill="#3f3d56"/>
    <path id="Path_3124" data-name="Path 3124" d="M209.022,312.907a6.591,6.591,0,0,0-1.206-7.121,12.325,12.325,0,0,0-6.64-3.584,17.44,17.44,0,0,0-10.174.457c-2.563.984-4.77,2.687-7.134,4.078A32.446,32.446,0,0,1,170.18,311.1c-5.374.453-11.376-.252-15.531,3.171-7.611,6.268-2.311,20.391-9.4,27.23-1.915,1.844-4.471,2.842-6.664,4.343s-4.155,3.9-3.8,6.536a7.109,7.109,0,0,0,1.659,3.406,16.509,16.509,0,0,0,14.648,5.868,17.754,17.754,0,0,0,13.1-8.985,11.168,11.168,0,0,1,2.274-3.4c2.119-1.75,5.23-1.041,7.977-1.125a13.069,13.069,0,0,0,12.192-11.517c.228-2.6-.215-5.633,1.656-7.46,1.508-1.478,3.866-1.464,5.928-1.918,3.789-.83,6.546-3.57,8.276-6.916.793-1.538.712-3.258,1.888-4.534C205.629,314.395,207.9,315.063,209.022,312.907Z" transform="translate(-114.673 -225.38)" fill="#3f3d56"/>
    <g id="Group_2120" data-name="Group 2120" transform="translate(35.268 76.304)" opacity="0.1">
      <path id="Path_3125" data-name="Path 3125" d="M209.81,330.463a32.45,32.45,0,0,0,6.573-1.253c-.6.084-1.209.155-1.817.2-4.212.353-8.82,0-12.616,1.481C204.536,330.631,207.247,330.678,209.81,330.463Z" transform="translate(-194.577 -319.979)"/>
      <path id="Path_3126" data-name="Path 3126" d="M191.484,444.2a10.893,10.893,0,0,0-2.274,3.4,17.9,17.9,0,0,1-9.21,8.018c.3-.02.6-.047.9-.084a17.759,17.759,0,0,0,13.1-8.981,11.067,11.067,0,0,1,2.274-3.4l.181-.141C194.608,442.971,192.841,443.082,191.484,444.2Z" transform="translate(-180 -395.554)"/>
      <path id="Path_3127" data-name="Path 3127" d="M317.883,305.849a12.407,12.407,0,0,0-6.64-3.584,17.453,17.453,0,0,0-10.177.46l-.215.087a19.524,19.524,0,0,1,5.636.5,12.378,12.378,0,0,1,6.64,3.587,6.6,6.6,0,0,1,1.206,7.121c-1.118,2.156-3.392,1.485-4.672,2.879-1.176,1.273-1.1,3-1.888,4.534a13.08,13.08,0,0,1-6.751,6.456c1.051-.249,2.18-.359,3.228-.588,3.789-.833,6.546-3.57,8.276-6.916.8-1.538.715-3.261,1.888-4.534,1.283-1.394,3.557-.725,4.672-2.879A6.607,6.607,0,0,0,317.883,305.849Z" transform="translate(-260.259 -301.727)"/>
      <path id="Path_3128" data-name="Path 3128" d="M266.516,380.854c-2.062.45-4.42.44-5.928,1.915-1.871,1.831-1.427,4.86-1.656,7.463a13.124,13.124,0,0,1-7.742,10.476h.306a13.069,13.069,0,0,0,12.189-11.517c.232-2.606-.212-5.636,1.659-7.463a4.568,4.568,0,0,1,1.485-.947Z" transform="translate(-227.279 -354.227)"/>
    </g>
    <path id="Path_3129" data-name="Path 3129" d="M315.07,382.319a2.456,2.456,0,0,1-1.387.92c-5.529,2.035-11.346,4.108-17.177,3.251-.218-.917-.433-1.837-.648-2.754q-.467-2-.94-3.99c-.148-.635-.3-1.276-.42-1.921h0a11.285,11.285,0,0,1-.2-3.1,6.663,6.663,0,0,1,.2-1.112,5.78,5.78,0,0,1,.853-1.851c.067-.091.138-.181.212-.269h0a4.235,4.235,0,0,1,1.189-.991c.991-.544,2.351-.776,2.751-1.831a2.848,2.848,0,0,0-.044-1.679c-.336-1.344-.944-2.606-1.32-3.937-.477-1.679.242-1.575,1.864-1.982a20.583,20.583,0,0,1,8.978-.672,12.893,12.893,0,0,0,.094,4.444,4.358,4.358,0,0,0,2.8,3.214c.212.06.437.1.672.148h0a2.032,2.032,0,0,1,.863.356,1.475,1.475,0,0,1,.41.541,4.143,4.143,0,0,1,.285,1.108q.789,5.287,1.139,10.624v.134A2.415,2.415,0,0,1,315.07,382.319Z" transform="translate(-220.62 -264.223)" fill="#fbbebe"/>
    <path id="Path_3130" data-name="Path 3130" d="M261.929,399.415a16.684,16.684,0,0,0-2.062,6.493l-2.438,14.141c-.336,1.935-.635,4.061.356,5.757a13.835,13.835,0,0,1,1.051,1.679,9.28,9.28,0,0,1,.363,1.878c.571,3.241,3.759,5.428,6.956,6.214a3.86,3.86,0,0,0,3.416-.373,2.96,2.96,0,0,0,.413-3.577,8.516,8.516,0,0,0-2.731-2.731l-3.483-2.566,2.015-15.451c.148-1.122.672-2.576,1.807-2.452,1.034.111,1.831,1.619,2.751,1.132a1.367,1.367,0,0,0,.568-.833,10.164,10.164,0,0,0,.178-3.957l-.417-4.79a17.716,17.716,0,0,1,.45-4.182c.218-1.7-.917-1.186-2.318-.82A11.483,11.483,0,0,0,261.929,399.415Z" transform="translate(-195.941 -287.106)" fill="#fbbebe"/>
    <path id="Path_3131" data-name="Path 3131" d="M354.867,415.1a2.506,2.506,0,0,1-1.088.987,12.387,12.387,0,0,1-8.955,1.26,19.379,19.379,0,0,0-2.129-.5c-1.149-.141-2.318.087-3.476,0a9.737,9.737,0,0,1-6.046-3.359c-.981-1.008-1.871-2.657-.957-3.738a2.166,2.166,0,0,1,2-.6,7.95,7.95,0,0,1,2.039.759,22.45,22.45,0,0,0,7.117,1.962c1.679.175,3.816-.111,4.4-1.706a4.24,4.24,0,0,0-.114-2.439q-.813-3.3-1.626-6.6a1.818,1.818,0,0,0-.2-.547.715.715,0,0,0-.1-.128,1.521,1.521,0,0,0-.749-.336,6.985,6.985,0,0,1-3.4-1.733,7.54,7.54,0,0,1-1.384-2.227c-.094-.2-.181-.413-.272-.621-.689-1.606-1.414-3.251-1.975-4.937a20.215,20.215,0,0,1-.863-3.5c-.148-1.031-.228-1.5.336-1.962a3.358,3.358,0,0,1,.48-.3c.259-.138.551-.275.86-.406l.3-.124a20.62,20.62,0,0,1,2.825-.9,6.868,6.868,0,0,1,6.419,2.371,14.215,14.215,0,0,1,2.959,6.452c.531,2.334.8,4.726,1.468,7.023.259.9.581,1.787.8,2.687a25.811,25.811,0,0,1,.507,3.248q.474,4.175.944,8.35A2.754,2.754,0,0,1,354.867,415.1Z" transform="translate(-245.568 -279.573)" fill="#fbbebe"/>
    <path id="Path_3132" data-name="Path 3132" d="M291.547,457.148c.672,4.286-1.26,8.5-3.127,12.428a10.592,10.592,0,0,0,3.614,1.488,71.855,71.855,0,0,0,25.93,1.951,7.9,7.9,0,0,0-.191-4.326c-.369-.83-1.008-1.5-1.414-2.318a8.766,8.766,0,0,1-.531-4.4l.6-12.706c-4.168-1.921-9-.121-13.586.138-2.375.134-4.78-.155-7.121.265-1.216.218-5.038.82-5.613,2.072S291.342,455.784,291.547,457.148Z" transform="translate(-216.736 -322.826)" fill="#fbbebe"/>
    <path id="Path_3133" data-name="Path 3133" d="M291.547,457.148c.672,4.286-1.26,8.5-3.127,12.428a10.592,10.592,0,0,0,3.614,1.488,71.855,71.855,0,0,0,25.93,1.951,7.9,7.9,0,0,0-.191-4.326c-.369-.83-1.008-1.5-1.414-2.318a8.766,8.766,0,0,1-.531-4.4l.6-12.706c-4.168-1.921-9-.121-13.586.138-2.375.134-4.78-.155-7.121.265-1.216.218-5.038.82-5.613,2.072S291.342,455.784,291.547,457.148Z" transform="translate(-216.736 -322.826)" opacity="0.05"/>
    <path id="Path_3134" data-name="Path 3134" d="M297.266,508.047c-4.595-1.707-9.111-4.529-13.8-4.724a.789.789,0,0,0-.683.232,2.9,2.9,0,0,0-.43,1.335q-.728,4.48-1.3,9.028c-1.271,10.076,5.176,18.647,7.97,27.693-.027-2.938-1.64-7.041,0-7.309a6.04,6.04,0,0,1,4.919,1.042c2.172,1.761,3.653,5.456,3.884,9.692l16.142.932c.192.1.4.02.551-.212a1.574,1.574,0,0,0,.2-.94,209.166,209.166,0,0,0-.065-27.8c-.178-2.578-.2-6.157-1.828-7.126-1.94-1.158-5.008.2-7.082.037a30.961,30.961,0,0,1-8.476-1.878Z" transform="translate(-211.711 -361.299)" fill="#3f3d56"/>
    <circle id="Ellipse_461" data-name="Ellipse 461" cx="2.5" cy="2.5" r="2.5" transform="translate(174.318 222.141)" fill="#3f3d56"/>
    <path id="Path_3135" data-name="Path 3135" d="M316.474,401.928l-.05,7.054-16.055.534a46.6,46.6,0,0,0-8.787.857c-.826.188-1.642.423-2.455.655-.846-3.1-1.679-6.348-1.458-9.509h0a12.5,12.5,0,0,1,.443-2.519c.511-1.773,1.468-3.446,1.978-5.2h0a7.948,7.948,0,0,0,.336-2.1,10.209,10.209,0,0,0-.336-2.106,6.451,6.451,0,0,1-.208-1.73l1.273-.393h0c.037.151.067.3.094.453.054.319.1.645.128.971h0a19.871,19.871,0,0,1,.067,2.428c-.044,1.619-.262,3.423.749,4.7,1.313,1.642,3.839,1.387,5.9.977l5.4-1.078c1.706-.336,3.611-.813,4.5-2.307a5.129,5.129,0,0,0,.584-2.351V391.1a18.553,18.553,0,0,0-.527-5.3c-.131-.544-.292-1.082-.474-1.609h.541a2.032,2.032,0,0,1,.863.356,1.474,1.474,0,0,1,.41.541l.3-.124a46.98,46.98,0,0,0,5.818,13.771,6.281,6.281,0,0,1,.806,1.582,4.178,4.178,0,0,1,.134.934A5.4,5.4,0,0,1,316.474,401.928Z" transform="translate(-216.213 -280.188)" fill="#ccc"/>
    <circle id="Ellipse_462" data-name="Ellipse 462" cx="9.741" cy="9.741" r="9.741" transform="translate(73.558 80.91)" fill="#fbbebe"/>
    <path id="Path_3136" data-name="Path 3136" d="M261.929,408.339a16.684,16.684,0,0,0-2.062,6.493l-2.438,14.141c-.336,1.935-.635,4.061.356,5.757a13.84,13.84,0,0,1,1.051,1.679,9.28,9.28,0,0,1,.363,1.878c.571,3.241,3.759,5.428,6.956,6.214a3.86,3.86,0,0,0,3.416-.373,2.96,2.96,0,0,0,.413-3.577,8.516,8.516,0,0,0-2.731-2.731l-3.483-2.566,2.015-15.451C265.919,418.691,263.484,405.968,261.929,408.339Z" transform="translate(-195.941 -296.03)" fill="#fbbebe"/>
    <path id="Path_3137" data-name="Path 3137" d="M351.263,409.359c.531,2.334.8,4.726,1.468,7.023.259.9.581,1.787.8,2.687a25.772,25.772,0,0,1,.507,3.245l.944,8.35a2.767,2.767,0,0,1-.118,1.545,2.526,2.526,0,0,1-1.088.987,12.428,12.428,0,0,1-8.955,1.26,17.966,17.966,0,0,0-2.129-.5c-1.149-.144-2.318.087-3.476,0a9.777,9.777,0,0,1-6.046-3.342c-.981-1.008-1.871-2.66-.957-3.742a2.167,2.167,0,0,1,2-.6,7.963,7.963,0,0,1,2.039.762,22.529,22.529,0,0,0,7.117,1.958c1.679.178,3.816-.107,4.4-1.706a4.24,4.24,0,0,0-.114-2.438l-1.626-6.6C345.96,418.018,350.733,407.028,351.263,409.359Z" transform="translate(-245.568 -296.687)" fill="#fbbebe"/>
    <path id="Path_3138" data-name="Path 3138" d="M287.548,325.326c-.433-1.555-1.041-3.5.178-4.555a2.825,2.825,0,0,1,1.518-.581c2.737-.336,5.569,1.276,8.189.416a4.555,4.555,0,0,0,.87-8.269,9.04,9.04,0,0,0-3.832-.92c-3.476-.319-7.1-.615-10.352.672s-5.992,4.6-5.32,8.028a10.484,10.484,0,0,0,2.351,4.346c.789.991,3.957,5.71,5.23,5.643C288.173,330,287.83,326.337,287.548,325.326Z" transform="translate(-210.278 -231.675)" fill="#3f3d56"/>
    <path id="Path_3139" data-name="Path 3139" d="M310.718,314.122a4.549,4.549,0,0,0-.6-.292,4.548,4.548,0,0,1-1.646,7.692c-2.62.86-5.451-.752-8.189-.416a2.825,2.825,0,0,0-1.518.581c-1.219,1.055-.611,3-.178,4.555.282,1.008.625,4.679-1.162,4.78h-.03c.554.541,1.055.893,1.411.873,1.787-.1,1.444-3.769,1.162-4.78-.433-1.555-1.041-3.5.178-4.555a2.825,2.825,0,0,1,1.518-.581c2.737-.336,5.569,1.276,8.189.416a4.555,4.555,0,0,0,.87-8.269Z" transform="translate(-222.693 -233.46)" opacity="0.1"/>
    <path id="Path_3141" data-name="Path 3141" d="M258.989,86.04l-5.213,3.305,3.164-5.754a5.153,5.153,0,0,0-3.154-1.125H253.7a6.1,6.1,0,0,1-1.082-.081L250.854,83.5l.759-1.377a6.254,6.254,0,0,1-3.09-2.351l-3.164,2.015,2-3.631a9.256,9.256,0,0,0-7.084-3.58c-3.288,0-6.217,1.955-8.108,5a6.046,6.046,0,0,1-5.374,2.889h-.178c-3.631,0-6.573,4.115-6.573,9.193s2.942,9.193,6.573,9.193a4.948,4.948,0,0,0,2.291-.574,9.468,9.468,0,0,1,7.954-.155,8.283,8.283,0,0,0,6.765,0,9.489,9.489,0,0,1,7.887.155,4.921,4.921,0,0,0,2.264.561c3.631,0,6.573-4.118,6.573-9.193A11.658,11.658,0,0,0,258.989,86.04Z" transform="translate(-171.324 -74.57)" fill="#6dd179" opacity="0.2"/>
    <path id="Path_3142" data-name="Path 3142" d="M249.207,123.175a9.7,9.7,0,0,0-5.623.611,8.3,8.3,0,0,1-6.765,0,9.479,9.479,0,0,0-7.954.158,4.954,4.954,0,0,1-2.291.571c-3.224,0-5.908-3.248-6.466-7.534a6.274,6.274,0,0,0,1.612-1.737c1.891-3.05,4.82-5,8.108-5s6.18,1.931,8.061,4.948a6.217,6.217,0,0,0,5.357,2.926h.084C245.9,118.113,248.126,120.172,249.207,123.175Z" transform="translate(-171.37 -98.252)" opacity="0.03"/>
    <path id="Path_3143" data-name="Path 3143" d="M828.6,320.463l-2.6,1.649,1.579-2.872a2.576,2.576,0,0,0-1.572-.561h-.044a3.164,3.164,0,0,1-.537-.037l-.9.564.38-.689a3.124,3.124,0,0,1-1.542-1.169l-1.579,1.008,1.008-1.81a4.615,4.615,0,0,0-3.534-1.787,4.8,4.8,0,0,0-4.031,2.5,3.023,3.023,0,0,1-2.687,1.441h-.087c-1.81,0-3.278,2.056-3.278,4.585s1.468,4.588,3.278,4.588a2.469,2.469,0,0,0,1.142-.285,4.729,4.729,0,0,1,3.967-.081,4.118,4.118,0,0,0,1.679.366,4.208,4.208,0,0,0,1.679-.356,4.739,4.739,0,0,1,3.933.074,2.442,2.442,0,0,0,1.129.282c1.81,0,3.278-2.056,3.278-4.588a5.811,5.811,0,0,0-.665-2.818Z" transform="translate(-562.582 -234.078)" fill="#f2f2f2"/>
    <path id="Path_3144" data-name="Path 3144" d="M823.7,338.969a4.809,4.809,0,0,0-2.808.306,4.125,4.125,0,0,1-3.359,0,4.743,4.743,0,0,0-3.967.077,2.462,2.462,0,0,1-1.142.289c-1.609,0-2.946-1.622-3.224-3.759a3.093,3.093,0,0,0,.8-.867,4.515,4.515,0,0,1,8.061-.03,3.1,3.1,0,0,0,2.687,1.468h.04A3.34,3.34,0,0,1,823.7,338.969Z" transform="translate(-562.596 -245.873)" opacity="0.03"/>
    <path id="Path_3145" data-name="Path 3145" d="M881.931,186.073l4.175,2.65-2.539-4.612a4.138,4.138,0,0,1,2.526-.9h.067a4.921,4.921,0,0,0,.867-.064l1.417.9-.608-1.1a5.059,5.059,0,0,0,2.475-1.881l2.536,1.606-1.6-2.909a7.41,7.41,0,0,1,5.676-2.868,7.774,7.774,0,0,1,6.5,4.007,4.854,4.854,0,0,0,4.3,2.314h.141c2.909,0,5.267,3.3,5.267,7.366s-2.351,7.366-5.267,7.366a3.967,3.967,0,0,1-1.834-.46,7.588,7.588,0,0,0-6.382-.124,6.64,6.64,0,0,1-5.418,0,7.6,7.6,0,0,0-6.318.121,3.983,3.983,0,0,1-1.817.45c-2.909,0-5.267-3.3-5.267-7.366A9.368,9.368,0,0,1,881.931,186.073Z" transform="translate(-610.159 -142.516)" fill="#6dd179" opacity="0.2"/>
    <path id="Path_3146" data-name="Path 3146" d="M907.56,215.812a7.772,7.772,0,0,1,4.514.49,6.64,6.64,0,0,0,5.418,0,7.6,7.6,0,0,1,6.382.128,3.963,3.963,0,0,0,1.834.457c2.583,0,4.733-2.6,5.183-6.046a4.89,4.89,0,0,1-1.293-1.394,7.265,7.265,0,0,0-12.965-.044,4.981,4.981,0,0,1-4.293,2.351h-.067C910.21,211.758,908.427,213.407,907.56,215.812Z" transform="translate(-627.918 -161.477)" opacity="0.03"/>
    <g id="Group_2122" data-name="Group 2122">
      <path id="Path_2888" data-name="Path 2888" d="M275.775,324.178s-.854,3.132.854,4.271S278.907,335,278.907,335l-3.417,9.4L266.38,346.1l-3.417-6.549v-9.68s1.139-4.84.854-6.264S275.775,324.178,275.775,324.178Z" transform="translate(-7.975 -221.114)" fill="#ffb9b9"/>
      <path id="Path_2889" data-name="Path 2889" d="M275.775,324.178s-.854,3.132.854,4.271S278.907,335,278.907,335l-3.417,9.4L266.38,346.1l-3.417-6.549v-9.68s1.139-4.84.854-6.264S275.775,324.178,275.775,324.178Z" transform="translate(-7.975 -221.114)" opacity="0.2"/>
      <path id="Path_2890" data-name="Path 2890" d="M276.516,494.93l7.4,1.424s.569,8.257,0,10.25-1.139,4.271-.569,4.84-2.562,15.09-2.278,15.944a13.375,13.375,0,0,1,.569,5.125c-.285,1.708-1.139,1.139-.569,2.847s1.139,1.993.569,3.132-3.417,28.757-4.271,29.041-8.542.569-8.542,0,2.563-4.84,1.708-5.979.285-20.5.285-21.354,1.708-2.278.854-2.847-1.424-1.139-1.139-1.993.854-1.139.285-1.993-.569-17.937-2.562-18.507c0,0-2.562,12.528-1.708,15.659s-.285,4.271-.285,4.271l3.986,3.417-5.41,10.25-5.694-6.548s0-1.708-1.139-1.993-1.708-.569-1.708-1.424a55.185,55.185,0,0,0-1.993-6.264s-5.694-17.937-2.847-27.048,3.944-8.809,3.944-8.809Z" transform="translate(0.396 -338.055)" fill="#2f2e41"/>
      <path id="Path_2891" data-name="Path 2891" d="M254.645,610.952l3.132,3.417-1.139,9.4h-2.563l-3.986-8.826Z" transform="translate(26.822 -395.139)" fill="#ffb9b9"/>
      <path id="Path_2892" data-name="Path 2892" d="M338.044,685.852s-1.139,2.563-1.993,1.993-1.137-1.424-2.419-1.424-2.421.285-2.136.854,3.7,6.833,3.7,6.833a8.048,8.048,0,0,1,0,6.833c-1.708,3.7,4.556,5.694,5.694,1.708a29.76,29.76,0,0,0,1.139-10.25c-.285-1.708,1.424-10.535,1.424-10.535s-4.6-2.12-6-2.2C337.453,679.667,338.614,684.713,338.044,685.852Z" transform="translate(-54.584 -463.775)" fill="#2f2e41"/>
      <path id="Path_2893" data-name="Path 2893" d="M313.266,718.636l1.139,3.417s0,3.417,1.139,5.125,2.278,5.41-2.278,5.694-6.549-1.424-6.549-1.424.854-2.278,0-3.132,0-2.563,0-2.563l.854-6.833Z" transform="translate(-37.493 -490.296)" fill="#2f2e41"/>
      <path id="Path_2894" data-name="Path 2894" d="M296.076,629.51h2.562l12.812,16.8s-2.278,5.41-5.694,5.979c0,0-.569-.285-3.132-1.993s-9.4-10.25-9.4-10.25l-.854-4.84Z" transform="translate(-27.99 -429.642)" fill="#2f2e41"/>
      <ellipse id="Ellipse_330" data-name="Ellipse 330" cx="9.111" cy="9.111" rx="9.111" ry="9.111" transform="translate(252.71 88.543)" fill="#ffb9b9"/>
      <path id="Path_2895" data-name="Path 2895" d="M267.556,343.664l-2.847-1.139s-.285,9.965-5.694,9.965-11.1-1.424-11.1-4.271-4.556,5.125-4.556,5.125,4.271,28.472,3.986,28.757,3.132,15.375,3.132,15.375,14.521.569,19.361-1.424a11.345,11.345,0,0,0,6.264-5.694L274.105,365.3l-3.986-19.361Z" transform="translate(5.369 -234.337)" fill="#ccc"/>
      <path id="Path_2896" data-name="Path 2896" d="M303.966,336.991a2.2,2.2,0,0,1,2.846,0c1.708,1.139,12.243,3.7,12.243,4.555v10.819a4.215,4.215,0,0,1-.569,2.847c-.854,1.139-2.847,5.41-1.708,7.4s5.41,25.055,4.556,27.9a16.831,16.831,0,0,1-3.132,5.41s-12.243-25.909-12.243-33.312.119-16.485.119-16.485Z" transform="translate(-35.879 -230.226)" fill="#2f2e41"/>
      <path id="Path_2897" data-name="Path 2897" d="M340.143,353.221h2.562s9.68,18.507,9.68,22.208-6.264,24.2-6.833,24.486-2.278-3.132-2.278-3.132l-1.424-11.389s2.847-6.833,1.993-7.972-5.125-9.965-5.125-9.965Z" transform="translate(-59.53 -241.615)" fill="#2f2e41"/>
      <path id="Path_2898" data-name="Path 2898" d="M236.071,338.069a26.571,26.571,0,0,0-3.838,3.132c-.569.854-9.111,5.694-9.4,6.833s6.549,10.819,6.549,10.819,2.847,15.944,2.847,17.083,1.139,20.5,1.139,20.5,11.673,3.417,11.673,1.424.285-30.465-1.424-36.729S236.071,338.069,236.071,338.069Z" transform="translate(19.338 -231.304)" fill="#2f2e41"/>
      <path id="Path_2899" data-name="Path 2899" d="M261.6,522.559s9.68,13.1,4.555,12.812-8.542-11.389-8.542-11.389Z" transform="translate(-4.335 -356.857)" fill="#ffb9b9"/>
      <path id="Path_2900" data-name="Path 2900" d="M222.684,366.59l-3.417.854s-2.847,25.055-1.139,28.472,10.819,25.625,10.819,24.77,8.015-2.377,7.709-3.181-2.014-4.221-2.584-5.36-1.424-2.562-1.139-3.986-3.132-7.517-3.132-7.517-.854-3.587-1.139-5.3-2.847-20.5-2.847-20.5Z" transform="translate(22.908 -250.713)" fill="#2f2e41"/>
      <path id="Path_2901" data-name="Path 2901" d="M266.455,268.71a2.264,2.264,0,0,0-1.031-1.267,4.851,4.851,0,0,0-.218-1.672c-.567-1.578-1.911-1.488-3.178-2.185-.55-.3-.516-.57-.8-1.067a4.086,4.086,0,0,0-1.622-1.558,6.03,6.03,0,0,0-2.634-1.052c-2.022-.13-3.572,1.66-5.5,2.235-.852.253-1.767.264-2.623.5A2.355,2.355,0,0,0,247,264.29c-.059.384.045.778-.015,1.162-.119.763-.83,1.3-1.307,1.926a4.506,4.506,0,0,0-.091,4.86,6.8,6.8,0,0,0,.607.895,5.265,5.265,0,0,0,.641,2.044,10.526,10.526,0,0,0,3.806,3.577,7.986,7.986,0,0,1-.225-1.525,1,1,0,0,1,.069-.505c.169-.332.614-.42.954-.6a2.224,2.224,0,0,0,1-1.971c.02-.762-.151-1.524-.066-2.282a1.219,1.219,0,0,1,.453-.917,1.646,1.646,0,0,1,.855-.192,10.183,10.183,0,0,0,4.22-.722,6.411,6.411,0,0,1,1.313-.625,2.85,2.85,0,0,1,2.808,1.32c.623.872.933,1.911,1.508,2.812a3.057,3.057,0,0,0,2.678,1.6.458.458,0,0,0,.332-.139.446.446,0,0,0,.061-.266l.062-4A5.7,5.7,0,0,0,266.455,268.71Z" transform="translate(4.3 -178.108)" fill="#2f2e41"/>
    </g>
  </g>
</svg>
