<svg xmlns="http://www.w3.org/2000/svg" width="30" height="30" viewBox="0 0 30 30">
  <path id="Icon_awesome-heartbeat" data-name="Icon awesome-heartbeat" d="M18.76,16.432l-2.912,6.656a.892.892,0,0,1-1.693-.04l-3.334-8.457-1.758,4.8H3.55L14.243,31.88a.956.956,0,0,0,1.506,0l10.7-12.488H20.055ZM27.754,5.055l-.141-.167a7.026,7.026,0,0,0-10.98,0L15,6.8,13.364,4.895a7.017,7.017,0,0,0-10.98,0l-.141.161a10.192,10.192,0,0,0-.428,12.194h6l2.1-5.772a.9.9,0,0,1,1.723-.027l3.41,8.658,2.871-6.555a.889.889,0,0,1,1.676,0l1.617,3.7h6.966A10.192,10.192,0,0,0,27.754,5.055Z" transform="translate(0.001 -2.246)" fill="#6dd179"/>
</svg>
