<svg xmlns="http://www.w3.org/2000/svg" width="40" height="40" viewBox="0 0 40 40">
  <g id="Help" transform="translate(-37 -1575)">
    <g id="Path_3054" data-name="Path 3054" transform="translate(37 1575)" fill="none">
      <path d="M10,0H30A10,10,0,0,1,40,10V30A10,10,0,0,1,30,40H10A10,10,0,0,1,0,30V10A10,10,0,0,1,10,0Z" stroke="none"/>
      <path d="M 10 1 C 5.037380218505859 1 1 5.037380218505859 1 10 L 1 30 C 1 34.96261978149414 5.037380218505859 39 10 39 L 30 39 C 34.96261978149414 39 39 34.96261978149414 39 30 L 39 10 C 39 5.037380218505859 34.96261978149414 1 30 1 L 10 1 M 10 0 L 30 0 C 35.52285003662109 0 40 4.477149963378906 40 10 L 40 30 C 40 35.52285003662109 35.52285003662109 40 30 40 L 10 40 C 4.477149963378906 40 0 35.52285003662109 0 30 L 0 10 C 0 4.477149963378906 4.477149963378906 0 10 0 Z" stroke="none" fill="#6dd179"/>
    </g>
    <path id="Icon_material-help" data-name="Icon material-help" d="M13,3A10,10,0,1,0,23,13,10,10,0,0,0,13,3Zm1,17H12V18h2Zm2.07-7.75-.9.92A3.4,3.4,0,0,0,14,16H12v-.5a4.025,4.025,0,0,1,1.17-2.83l1.24-1.26A1.955,1.955,0,0,0,15,10a2,2,0,1,0-4,0H9a4,4,0,1,1,8,0A3.182,3.182,0,0,1,16.07,12.25Z" transform="translate(44 1582)" fill="#6dd179"/>
  </g>
</svg>
