<svg xmlns="http://www.w3.org/2000/svg" width="15" height="13.5" viewBox="0 0 15 13.5">
  <g id="Icon_material-camera-alt" data-name="Icon material-camera-alt" transform="translate(-3 -3)">
    <path id="Path_2305" data-name="Path 2305" d="M18,15.6a2.4,2.4,0,1,1-2.4-2.4A2.4,2.4,0,0,1,18,15.6Z" transform="translate(-5.1 -5.1)"/>
    <path id="Path_2306" data-name="Path 2306" d="M8.25,3,6.877,4.5H4.5A1.5,1.5,0,0,0,3,6v9a1.5,1.5,0,0,0,1.5,1.5h12A1.5,1.5,0,0,0,18,15V6a1.5,1.5,0,0,0-1.5-1.5H14.122L12.75,3ZM10.5,14.25a3.75,3.75,0,1,1,3.75-3.75A3.751,3.751,0,0,1,10.5,14.25Z" transform="translate(0 0)"/>
  </g>
</svg>
