<svg xmlns="http://www.w3.org/2000/svg" width="40" height="40" viewBox="0 0 40 40">
  <g id="Group_2252" data-name="Group 2252" transform="translate(-37 -1475)">
    <g id="Path_3055" data-name="Path 3055" transform="translate(37 1475)" fill="none">
      <path d="M10,0H30A10,10,0,0,1,40,10V30A10,10,0,0,1,30,40H10A10,10,0,0,1,0,30V10A10,10,0,0,1,10,0Z" stroke="none"/>
      <path d="M 10 1 C 5.037380218505859 1 1 5.037380218505859 1 10 L 1 30 C 1 34.96261978149414 5.037380218505859 39 10 39 L 30 39 C 34.96261978149414 39 39 34.96261978149414 39 30 L 39 10 C 39 5.037380218505859 34.96261978149414 1 30 1 L 10 1 M 10 0 L 30 0 C 35.52285003662109 0 40 4.477149963378906 40 10 L 40 30 C 40 35.52285003662109 35.52285003662109 40 30 40 L 10 40 C 4.477149963378906 40 0 35.52285003662109 0 30 L 0 10 C 0 4.477149963378906 4.477149963378906 0 10 0 Z" stroke="none" fill="#6dd179"/>
    </g>
    <path id="Icon_awesome-info-circle" data-name="Icon awesome-info-circle" d="M10.563.563a10,10,0,1,0,10,10A10,10,0,0,0,10.563.563Zm0,4.435A1.694,1.694,0,1,1,8.869,6.692,1.694,1.694,0,0,1,10.563,5ZM12.821,15.24a.484.484,0,0,1-.484.484H8.788A.484.484,0,0,1,8.3,15.24v-.968a.484.484,0,0,1,.484-.484h.484V11.208H8.788a.484.484,0,0,1-.484-.484V9.756a.484.484,0,0,1,.484-.484h2.581a.484.484,0,0,1,.484.484v4.032h.484a.484.484,0,0,1,.484.484Z" transform="translate(46.437 1484.438)" fill="#6dd179"/>
  </g>
</svg>
