<svg xmlns="http://www.w3.org/2000/svg" width="16" height="20" viewBox="0 0 16 20">
  <path id="list" d="M9.333,5.313V0H1A.968.968,0,0,0,0,.938V19.063A.968.968,0,0,0,1,20H15a.968.968,0,0,0,1-.937V6.25H10.333A.973.973,0,0,1,9.333,5.313ZM12,14.531a.487.487,0,0,1-.5.469h-7a.487.487,0,0,1-.5-.469v-.312a.487.487,0,0,1,.5-.469h7a.487.487,0,0,1,.5.469Zm0-2.5a.487.487,0,0,1-.5.469h-7a.487.487,0,0,1-.5-.469v-.312a.487.487,0,0,1,.5-.469h7a.487.487,0,0,1,.5.469Zm0-2.812v.313a.487.487,0,0,1-.5.469h-7A.487.487,0,0,1,4,9.531V9.219a.487.487,0,0,1,.5-.469h7A.487.487,0,0,1,12,9.219Zm4-4.457V5H10.667V0h.254a1.034,1.034,0,0,1,.708.273L15.708,4.1A.906.906,0,0,1,16,4.762Z" fill="#6dd179"/>
</svg>
