<svg xmlns="http://www.w3.org/2000/svg" width="287.551" height="164.367" viewBox="0 0 287.551 164.367">
  <g id="FM-login" transform="translate(-44.449 -172.395)">
    <path id="Path_133" data-name="Path 133" d="M832.418,556.592a64.661,64.661,0,0,0,14.109,11.383c.12.074.241.143.363.214l8.441-7.471c-.089-.082-.187-.175-.293-.276-6.29-5.972-37.514-47.729-39.594-57.9C815.588,503.391,813.567,536.612,832.418,556.592Z" transform="translate(-688.47 -234.675)" fill="rgba(109,209,121,0.5)"/>
    <path id="Path_134" data-name="Path 134" d="M858.876,669.259c.16.038.322.074.485.106l6.333-5.605-.434-.151c-2.717-.962-10.81-3.867-18.863-7.175-8.654-3.556-17.266-7.574-19.118-10.148C827.676,646.884,839.915,665.019,858.876,669.259Z" transform="translate(-702.448 -334.517)" fill="rgba(109,209,121,0.5)"/>
    <path id="Path_3077" data-name="Path 3077" d="M622.107,228.938h.9V204.233a14.3,14.3,0,0,1,14.3-14.3H689.65a14.3,14.3,0,0,1,14.3,14.3V339.769a14.3,14.3,0,0,1-14.3,14.3H637.307a14.3,14.3,0,0,1-14.3-14.3V246.524h-.9Z" transform="translate(-478.042 -17.538)" fill="#3f3d56"/>
    <path id="Path_3078" data-name="Path 3078" d="M635.027,212.794V348.133a10.676,10.676,0,0,0,10.68,10.676H698.3a10.676,10.676,0,0,0,10.676-10.677V212.794A10.676,10.676,0,0,0,698.3,202.118h-6.382a5.076,5.076,0,0,1-4.7,6.988H657.235a5.07,5.07,0,0,1-4.7-6.988h-6.829A10.676,10.676,0,0,0,635.027,212.794Z" transform="translate(-487.016 -26.001)" fill="#fff"/>
    <path id="Path_3079" data-name="Path 3079" d="M665.282,450.006h46.229a3.058,3.058,0,0,0,3.054-3.054v-1.52a3.058,3.058,0,0,0-3.054-3.054H665.282a3.058,3.058,0,0,0-3.054,3.054v1.52A3.058,3.058,0,0,0,665.282,450.006Z" transform="translate(-500.911 -192.884)" fill="#f0f0f0"/>
    <path id="Path_3080" data-name="Path 3080" d="M665.282,492.913h46.229a3.058,3.058,0,0,0,3.054-3.054v-1.52a3.058,3.058,0,0,0-3.054-3.054H665.282a3.058,3.058,0,0,0-3.054,3.054v1.52a3.058,3.058,0,0,0,3.054,3.054Z" transform="translate(-500.911 -222.687)" fill="#f0f0f0"/>
    <path id="Path_3081" data-name="Path 3081" d="M672.506,439.715h46.229a3.21,3.21,0,0,0,3.207-3.207v-1.52a3.211,3.211,0,0,0-3.207-3.207H672.506a3.21,3.21,0,0,0-3.207,3.207v1.52A3.211,3.211,0,0,0,672.506,439.715Zm46.229-7.323a2.6,2.6,0,0,1,2.6,2.6v1.52a2.6,2.6,0,0,1-2.6,2.6H672.506a2.6,2.6,0,0,1-2.6-2.6v-1.52a2.6,2.6,0,0,1,2.6-2.6Z" transform="translate(-510.448 -185.524)" fill="#3f3d56"/>
    <path id="Path_3082" data-name="Path 3082" d="M672.506,482.622h46.229a3.21,3.21,0,0,0,3.207-3.207V477.9a3.21,3.21,0,0,0-3.207-3.207H672.506A3.21,3.21,0,0,0,669.3,477.9v1.52a3.211,3.211,0,0,0,3.207,3.207Zm46.229-7.323a2.6,2.6,0,0,1,2.6,2.6v1.52a2.6,2.6,0,0,1-2.6,2.6H672.506a2.6,2.6,0,0,1-2.6-2.6V477.9a2.6,2.6,0,0,1,2.6-2.6Z" transform="translate(-510.448 -215.327)" fill="#3f3d56"/>
    <path id="Path_3083" data-name="Path 3083" d="M747.28,212.794v29.438a31.622,31.622,0,0,0,39.667-30.564q0-1.3-.1-2.563H769.488a5.07,5.07,0,0,1-4.7-6.988H757.96A10.676,10.676,0,0,0,747.28,212.794Z" transform="translate(-599.27 -26.001)" fill="#6dd179"/>
    <path id="Path_3084" data-name="Path 3084" d="M635.027,655.684c0,.62.023,1.233.073,1.839h15.825A10.676,10.676,0,0,0,661.6,646.845V632.37a23.539,23.539,0,0,0-26.575,23.314Z" transform="translate(-439.641 -324.715)" fill="#6dd179"/>
    <path id="Path_3096" data-name="Path 3096" d="M246.406,726.746H533.144a.406.406,0,0,0,0-.812H246.406a.406.406,0,0,0,0,.812Z" transform="translate(-201.551 -389.983)" fill="#3f3d56"/>
    <path id="Path_3097" data-name="Path 3097" d="M701.879,544.654h21.947a3.058,3.058,0,0,0,3.054-3.054v-1.52a3.058,3.058,0,0,0-3.054-3.054H701.879a3.058,3.058,0,0,0-3.054,3.054v1.52a3.058,3.058,0,0,0,3.054,3.054Z" transform="translate(-524.404 -258.626)" fill="#6dd179"/>
    <path id="Path_3098" data-name="Path 3098" d="M709.1,534.364h21.947a3.211,3.211,0,0,0,3.207-3.207v-1.52a3.21,3.21,0,0,0-3.207-3.207H709.1a3.21,3.21,0,0,0-3.207,3.207v1.52A3.211,3.211,0,0,0,709.1,534.364Zm21.947-7.323a2.6,2.6,0,0,1,2.6,2.6v1.52a2.6,2.6,0,0,1-2.6,2.6H709.1a2.6,2.6,0,0,1-2.6-2.6v-1.52a2.6,2.6,0,0,1,2.6-2.6Z" transform="translate(-533.941 -251.266)" fill="#3f3d56"/>
    <path id="Path_3099" data-name="Path 3099" d="M583.854,479.7h-4.979l-2.369-19.2h7.349Z" transform="translate(-292.195 -148.172)" fill="#ffb8b8"/>
    <path id="Path_3100" data-name="Path 3100" d="M564.741,504.28h9.6v6.046H558.695A6.046,6.046,0,0,1,564.741,504.28Z" transform="translate(-281.617 -174.175)" fill="#2f2e41"/>
    <path id="Path_3101" data-name="Path 3101" d="M644.854,479.7h-4.979l-2.369-19.2h7.349Z" transform="translate(-328.421 -148.172)" fill="#ffb8b8"/>
    <path id="Path_3102" data-name="Path 3102" d="M625.741,504.28h9.6v6.046H619.695A6.046,6.046,0,0,1,625.741,504.28Z" transform="translate(-317.843 -174.175)" fill="#2f2e41"/>
    <path id="Path_3103" data-name="Path 3103" d="M697,450.975a4.363,4.363,0,0,1,1.832-6.434l16.926-46.651,8.328,4.545-19.326,44.581a4.387,4.387,0,0,1-7.76,3.959Z" transform="translate(-430.314 -188.129)" fill="#ffb8b8"/>
    <path id="Path_3104" data-name="Path 3104" d="M804.951,468.393a4.363,4.363,0,0,1-1.175-6.586l-5.244-49.348,9.478.433,2.179,48.541a4.387,4.387,0,0,1-5.239,6.961Z" transform="translate(-491.061 -196.78)" fill="#ffb8b8"/>
    <ellipse id="Ellipse_459" data-name="Ellipse 459" cx="9.975" cy="9.975" rx="9.975" ry="9.975" transform="translate(288.795 181.171)" fill="#ffb8b8"/>
    <path id="Path_3105" data-name="Path 3105" d="M770.205,441.264H740.133l.036-.234c.054-.35,5.36-35.105,1.446-46.476a4.8,4.8,0,0,1,2.465-5.923h0c5.593-2.634,16.329-5.877,25.391,1.994a11.467,11.467,0,0,1,3.842,9.5Z" transform="translate(-456.379 -180.875)" fill="#ccc"/>
    <path id="Path_3106" data-name="Path 3106" d="M734.557,415.937l-13.539-2.747,6.346-15.039a5.685,5.685,0,0,1,11.008,2.842Z" transform="translate(-445.027 -185.751)" fill="#ccc"/>
    <path id="Path_3107" data-name="Path 3107" d="M795.7,422.576l-.814-18.658c-.617-3.507,1.391-6.823,4.479-7.365s6.1,1.893,6.725,5.426l3.059,17.434Z" transform="translate(-488.827 -187.29)" fill="#ccc"/>
    <path id="Path_3108" data-name="Path 3108" d="M766.836,517.049c4.839,18.429,5.367,41.859,4.061,67.417l-6.5-.812-11.778-48.735-6.5,49.548-7.31-.406c-2.184-26.816-4.31-49.838-.812-64.98Z" transform="translate(-454.01 -258.894)" fill="#2f2e41"/>
    <path id="Path_3109" data-name="Path 3109" d="M766.166,338.454a3.222,3.222,0,0,1-5.559-1.79,3.271,3.271,0,0,1,0-.632c.125-1.2.818-2.289.652-3.555a1.865,1.865,0,0,0-.341-.873c-1.483-1.986-4.964.888-6.363-.909-.858-1.1.151-2.838-.508-4.07-.869-1.626-3.444-.824-5.058-1.714-1.8-.991-1.689-3.747-.506-5.423a8.531,8.531,0,0,1,6.467-3.292,17.348,17.348,0,0,1,7.307,1.426c2.648,1.032,5.275,2.458,6.9,4.787a11.688,11.688,0,0,1,1.182,9.951C769.744,334.374,767.686,336.835,766.166,338.454Z" transform="translate(-460.824 -139.599)" fill="#2f2e41"/>
    <path id="Path_3539" data-name="Path 3539" d="M401.457,527.143h4.7l2.235-18.12h-6.933Z" transform="translate(-309.003 -195.575)" fill="#ffb8b8"/>
    <path id="Path_3540" data-name="Path 3540" d="M392.7,552.808h-9.06v5.7h14.765A5.7,5.7,0,0,0,392.7,552.808Z" transform="translate(-292.197 -222.582)" fill="#2f2e41"/>
    <path id="Path_3541" data-name="Path 3541" d="M452.457,527.143h4.7l2.235-18.12h-6.933Z" transform="translate(-379.546 -195.575)" fill="#ffb8b8"/>
    <path id="Path_3542" data-name="Path 3542" d="M443.7,552.808h-9.06v5.7h14.765a5.7,5.7,0,0,0-5.7-5.7Z" transform="translate(-362.74 -222.582)" fill="#2f2e41"/>
    <path id="Path_3543" data-name="Path 3543" d="M680.12,584.307H684.9a1.735,1.735,0,0,0,1.718-1.582l4.053-48.818a.575.575,0,0,1,1.143-.02l5.82,48.9a1.725,1.725,0,0,0,1.712,1.52h5.872a1.726,1.726,0,0,0,1.724-1.715c.013-3.072.034-6.165.055-9.26.186-27.56.379-56.057-5.376-67.222l-.052-.1-20.766-.355-.052.114c-6.283,13.73-4.376,44.4-2.532,74.064l.177,2.858A1.727,1.727,0,0,0,680.12,584.307Z" transform="translate(-606.61 -256.903)" fill="#2f2e41"/>
    <ellipse id="Ellipse_508" data-name="Ellipse 508" cx="9.412" cy="9.412" rx="9.412" ry="9.412" transform="translate(73.935 193.233)" fill="#ffb8b8"/>
    <path id="Path_3544" data-name="Path 3544" d="M707.858,453.441,707.6,442.65l1.867-8.419a13.571,13.571,0,0,0-3.018-11.924,13.365,13.365,0,0,0-11.2-4.642h0l-.408.034a13.421,13.421,0,0,0-9.247,4.946,13.576,13.576,0,0,0-2.975,10.183l2.259,19.741Z" transform="translate(-611.68 -202.606)" fill="#ccc"/>
    <path id="Path_3545" data-name="Path 3545" d="M655.85,531.734a3.853,3.853,0,0,1-.2-5.905l-5.3-12.626,6.993,1.313,3.96,11.789a3.874,3.874,0,0,1-5.452,5.429Z" transform="translate(-551.677 -261.56)" fill="#ffb8b8"/>
    <path id="Path_3546" data-name="Path 3546" d="M765.943,535.228a3.853,3.853,0,0,0-.134-5.907l4.572-12.907-6.907,1.709-3.283,12a3.874,3.874,0,0,0,5.752,5.11Z" transform="translate(-701.754 -263.541)" fill="#ffb8b8"/>
    <path id="Path_3547" data-name="Path 3547" d="M666.052,473.872a1.725,1.725,0,0,0,.7-.151l4.031-1.806a1.722,1.722,0,0,0,.937-2.1l-6.762-21.006-2.613-15.826a4.25,4.25,0,1,0-8.331,1.661l3.972,16.972L664.4,472.65a1.723,1.723,0,0,0,1.65,1.221Z" transform="translate(-562.72 -209.885)" fill="#ccc"/>
    <path id="Path_3548" data-name="Path 3548" d="M743.35,473.872A1.723,1.723,0,0,0,745,472.65l6.409-21.023,3.975-16.984a4.25,4.25,0,1,0-8.331-1.661l-2.62,15.853-6.756,20.979a1.722,1.722,0,0,0,.937,2.1l4.031,1.806A1.725,1.725,0,0,0,743.35,473.872Z" transform="translate(-678.476 -209.885)" fill="#ccc"/>
    <path id="Path_3549" data-name="Path 3549" d="M700.428,357.277a5.559,5.559,0,0,1,7.088,2.925,9.172,9.172,0,0,1,.094,5.243,22.522,22.522,0,0,0-.823,5.243,5.136,5.136,0,0,0,2.392,4.475,15.87,15.87,0,0,0,3.058.837,2.833,2.833,0,0,1,2.217,2.026c.222,1.588-1.7,2.8-1.692,4.4.014,1.7,2.137,2.708,2.412,4.385a2.91,2.91,0,0,1-1.122,2.587,7.628,7.628,0,0,1-2.638,1.277,45.527,45.527,0,0,1-22.706,1.294,9.109,9.109,0,0,1-4.213-1.7,3.588,3.588,0,0,1-1.163-4.1c1.005-2.063,4.2-2.181,5.31-4.189.667-1.2.36-2.683.22-4.052-.363-3.537-1.2-7.669-.321-11.114.794-3.113,2.518-7.135,4.982-9.2,1.768-1.479,5.143-.805,7.4-.349Z" transform="translate(-617.275 -165.035)" fill="#2f2e41"/>
  </g>
</svg>
