<svg xmlns="http://www.w3.org/2000/svg" width="271.216" height="193.761" viewBox="0 0 271.216 193.761">
  <g id="M-Bin" transform="translate(-21.305 27.762)">
    <path id="Path_1" data-name="Path 1" d="M238.049,657.951H192.8s-.917-13.451,4.509-13.6,4.815,5.961,11.617-2.446,15.056-7.949,16.126-2.981-2.063,8.942,3.669,7.719S246.433,651.363,238.049,657.951Z" transform="translate(-155.722 -492.825)" fill="#d2e6d7"/>
    <path id="Path_2" data-name="Path 2" d="M260.532,657.789l-.153-.006c.356-8.856,2.211-14.546,3.7-17.76a16.115,16.115,0,0,1,3.2-4.916l.1.114a16.013,16.013,0,0,0-3.168,4.879C262.731,643.3,260.887,648.966,260.532,657.789Z" transform="translate(-201.591 -492.66)" fill="#fff"/>
    <path id="Path_3" data-name="Path 3" d="M311.431,684.627l-.147-.043a23.711,23.711,0,0,1,5.97-9.932l.1.113a23.551,23.551,0,0,0-5.926,9.861Z" transform="translate(-236.115 -519.479)" fill="#fff"/>
    <path id="Path_4" data-name="Path 4" d="M206.62,677.564l-.152-.021a16.648,16.648,0,0,0-1.5-9.731,13.4,13.4,0,0,0-2.362-3.448l.106-.11a13.565,13.565,0,0,1,2.395,3.491A16.8,16.8,0,0,1,206.62,677.564Z" transform="translate(-162.412 -512.427)" fill="#fff"/>
    <path id="Path_5" data-name="Path 5" d="M233.836,646.475H177.57l-.013-.19c-.032-.474-.75-11.658,2.874-15.649a3.969,3.969,0,0,1,2.9-1.392,8.635,8.635,0,0,1,5.044,1.528c2.257,1.339,3.747,2.223,9.168-4.476,5.872-7.258,12.208-8.819,15.85-7.951a5.653,5.653,0,0,1,4.45,4.351,19.264,19.264,0,0,1,.191,5.624c-.123,1.686-.22,3.017.472,3.621.579.5,1.732.549,3.63.144,3.862-.824,9.251-.119,11.956,3.376,1.455,1.88,2.6,5.3-.2,10.9Zm-55.882-.409h55.629c2.088-4.237,2.154-7.816.187-10.356-2.481-3.206-7.687-4.05-11.547-3.226-2.063.44-3.292.368-3.984-.235-.847-.738-.743-2.159-.611-3.958a18.97,18.97,0,0,0-.183-5.508,5.258,5.258,0,0,0-4.145-4.039c-3.526-.841-9.686.7-15.437,7.81-5.643,6.974-7.343,5.966-9.695,4.57a8.2,8.2,0,0,0-4.824-1.471,3.575,3.575,0,0,0-2.609,1.258c-3.256,3.587-2.859,13.644-2.779,15.156Z" transform="translate(-145.369 -481.144)" fill="#2f2e41"/>
    <g id="Group_1" data-name="Group 1" transform="translate(205.899 108.208)">
      <rect id="Rectangle_18" data-name="Rectangle 18" width="4.215" height="39.2" rx="2.108" transform="translate(16.597)" fill="#3f3d56"/>
      <path id="Rectangle_19" data-name="Rectangle 19" d="M2.042-.023A2.391,2.391,0,0,1,4.2,2.451l.564,34.195A2.2,2.2,0,0,1,2.686,39.04,2.391,2.391,0,0,1,.534,36.566L-.03,2.371A2.2,2.2,0,0,1,2.042-.023Z" transform="translate(32.333 -0.051) rotate(7)" fill="#3f3d56"/>
      <path id="Rectangle_19-2" data-name="Rectangle 19" d="M3.2.039A2.2,2.2,0,0,1,5.275,2.433L4.711,36.628A2.391,2.391,0,0,1,2.558,39.1,2.2,2.2,0,0,1,.486,36.709L1.05,2.514A2.391,2.391,0,0,1,3.2.039Z" transform="translate(10.546 38.674) rotate(173)" fill="#3f3d56"/>
      <g id="Path_4368" data-name="Path 4368" transform="translate(-8.51 -18.912)" fill="none" stroke-linecap="round" stroke-linejoin="round">
        <path d="M1.355,1.189C2.874-.089,6.075,0,6.075,0H47.813s2.971-.19,4.267,1.164S53,5.416,53,5.416L48,67.234A9.746,9.746,0,0,1,38,76.7H15a9.746,9.746,0,0,1-10-9.47L0,5.114S-.164,2.468,1.355,1.189Z" stroke="none"/>
        <path d="M 48.19171524047852 1.490806579589844 C 48.01416015625 1.490806579589844 47.9058837890625 1.4971923828125 47.90860366821289 1.496864318847656 C 47.87675857543945 1.498893737792969 47.84487152099609 1.499916076660156 47.81295776367188 1.499916076660156 L 6.075424194335938 1.499916076660156 C 6.061424255371094 1.499916076660156 6.050037384033203 1.499794006347656 6.036048889160156 1.499397277832031 C 6.027915954589844 1.499198913574219 5.994613647460938 1.498573303222656 5.940227508544922 1.498573303222656 C 4.676490783691406 1.498573303222656 3.004772186279297 1.7608642578125 2.320636749267578 2.336738586425781 C 1.572990417480469 2.966079711914062 1.473075866699219 4.504814147949219 1.496883392333984 5.014869689941406 L 6.495170593261719 67.11371612548828 C 6.498394012451172 67.15374755859375 6.500003814697266 67.19389343261719 6.500003814697266 67.23406219482422 C 6.500003814697266 71.62851715087891 10.31309127807617 75.20365905761719 15.00000381469727 75.20365905761719 L 38.00000381469727 75.20365905761719 C 42.68691253662109 75.20365905761719 46.50000381469727 71.62851715087891 46.50000381469727 67.23406219482422 C 46.50000381469727 67.19371032714844 46.50163650512695 67.15336608886719 46.5048828125 67.11312866210938 L 51.5048828125 5.295059204101562 C 51.5068473815918 5.270797729492188 51.50940322875977 5.246574401855469 51.51254653930664 5.222419738769531 C 51.61172485351562 4.460304260253906 51.56233596801758 2.79180908203125 50.9970588684082 2.201576232910156 C 50.58989334106445 1.776420593261719 49.4625244140625 1.49078369140625 48.19173812866211 1.490806579589844 C 48.19172668457031 1.490806579589844 48.19172668457031 1.490806579589844 48.19171524047852 1.490806579589844 M 48.19171142578125 -0.00919342041015625 C 49.03392791748047 -0.0092010498046875 51.06760787963867 0.1065597534179688 52.08038330078125 1.1640625 C 53.37713623046875 2.518081665039062 53.00000381469727 5.415992736816406 53.00000381469727 5.415992736816406 L 48.00000381469727 67.23406219482422 C 48.00000381469727 72.46398162841797 43.52285003662109 76.70365905761719 38.00000381469727 76.70365905761719 L 15.00000381469727 76.70365905761719 C 9.477149963378906 76.70365905761719 5.000003814697266 72.46398162841797 5.000003814697266 67.23406219482422 L 3.814697265625e-06 5.11395263671875 C 3.814697265625e-06 5.11395263671875 -0.1641845703125 2.467681884765625 1.354671478271484 1.189170837402344 C 2.873527526855469 -0.08933258056640625 6.075416564941406 -9.918212890625e-05 6.075424194335938 -8.392333984375e-05 L 47.81295776367188 -8.392333984375e-05 C 47.81295776367188 -8.392333984375e-05 47.9555549621582 -0.009185791015625 48.19171142578125 -0.00919342041015625 Z" stroke="none" fill="#3f3d56"/>
      </g>
    </g>
    <path id="Path_10" data-name="Path 10" d="M949.918,389.183a12.376,12.376,0,0,0-18.864,12.251l3.282,2.074a9.765,9.765,0,1,1,9.326,5.9l3.282,2.074a12.376,12.376,0,0,0,2.976-22.3Z" transform="translate(-682.351 -321.575)" fill="#3f3d56"/>
    <rect id="Rectangle_21" data-name="Rectangle 21" width="271.216" height="0.597" transform="translate(21.305 165.137)" fill="#3f3d56"/>
    <g id="Group_6" data-name="Group 6" transform="translate(78.92 -27.762)">
      <path id="Path_111" data-name="Path 111" d="M523.47,656.84h-5.475l-2.606-21.117h8.082Z" transform="translate(-482.761 -469.088)" fill="#feb8b8"/>
      <path id="Path_112" data-name="Path 112" d="M494.234,694.382H511.44v-6.648H500.79a6.556,6.556,0,0,0-6.556,6.556h0Z" transform="translate(-469.559 -501.547)" fill="#2f2e41"/>
      <path id="Path_113" data-name="Path 113" d="M531.766,580.671l3.776,3.964,17.087-12.679-5.573-5.85Z" transform="translate(-492.982 -425.642)" fill="#feb8b8"/>
      <path id="Path_114" data-name="Path 114" d="M531.971,607.426l-7.349-7.711-4.813,4.587,11.872,12.457.067-.063A6.557,6.557,0,0,0,531.971,607.426Z" transform="translate(-485.52 -446.616)" fill="#2f2e41"/>
      <path id="Path_115" data-name="Path 115" d="M429.272,349.15a4.491,4.491,0,0,1,2.148-6.541l21.5-54.782,8.379,5.017L437.417,345.4a4.515,4.515,0,0,1-8.144,3.752Z" transform="translate(-428.596 -251.974)" fill="#feb8b8"/>
      <path id="Path_116" data-name="Path 116" d="M588.09,363.469a4.49,4.49,0,0,1-4.033-5.583l-31.711-49.573,8.981-3.834,28.509,50.195a4.515,4.515,0,0,1-1.747,8.8Z" transform="translate(-505.826 -262.367)" fill="#feb8b8"/>
      <path id="Path_117" data-name="Path 117" d="M493.853,429.812l5.613,83.423,13.414-1.183,2.761-61.547,7.5,26.433,16.175,1.183-6.4-52.254Z" transform="translate(-469.321 -338.122)" fill="#2f2e41"/>
      <path id="Path_118" data-name="Path 118" d="M546.612,551.224l-2.368,3.945-16.568,11.441,11.836,6.313s22.882-12.625,20.91-16.57Z" transform="translate(-490.429 -416.354)" fill="#2f2e41"/>
      <path id="Path_119" data-name="Path 119" d="M462.607,299.034l4.669-13.157a23.493,23.493,0,0,1,12.154-13.409h0a33.618,33.618,0,0,1,19.73-1.08l1.7.422a32.843,32.843,0,0,1,12.454,6.015c2.877,2.268,5.466,5.14,5.7,8.23a.091.091,0,0,0,.006.019c.8,3.493,1.191,21.641,1.191,21.641h-7.03l1.112,24.46L514.2,332s-40.546,7.673-40.546,3.728v-25.25l-.831-9.143Z" transform="translate(-449.821 -241.097)" fill="#ccc"/>
      <circle id="Ellipse_12" data-name="Ellipse 12" cx="11.236" cy="11.236" r="11.236" transform="translate(39.395 4.4)" fill="#feb8b8"/>
      <path id="Path_120" data-name="Path 120" d="M546.224,203.054l8.724.35a4.763,4.763,0,0,0,3.132-.752c1.259-1.071,1.048-3.092.374-4.6-1.88-4.2-6.072-5.71-10.676-5.586s-9.428,1.684-11.907,5.564a18.081,18.081,0,0,0-2.215,13.287,14.486,14.486,0,0,1,11.845-8.259Z" transform="translate(-493.909 -192.457)" fill="#2f2e41"/>
    </g>
    <g id="Group_4" data-name="Group 4" transform="translate(154.527 51.827)">
      <rect id="Rectangle_2321" data-name="Rectangle 2321" width="36" height="45" rx="5" transform="matrix(0.848, 0.53, -0.53, 0.848, 21.52, -1.947)" fill="#6dd179"/>
      <path id="Path_82" data-name="Path 82" d="M689.5,419.153l-15.862-11.117a1.706,1.706,0,0,1,1.958-2.794l15.862,11.117a1.706,1.706,0,0,1-1.958,2.794Z" transform="translate(-655.897 -387.385)" fill="#fff"/>
      <path id="Path_83" data-name="Path 83" d="M678.189,435.294l-15.862-11.117a1.706,1.706,0,0,1,1.958-2.794L680.147,432.5a1.706,1.706,0,0,1-1.958,2.794Z" transform="translate(-648.225 -398.331)" fill="#fff"/>
      <path id="Path_84" data-name="Path 84" d="M666.755,451.608l-15.862-11.117a1.706,1.706,0,1,1,1.958-2.794l15.862,11.117a1.706,1.706,0,1,1-1.958,2.794Z" transform="translate(-640.471 -409.396)" fill="#fff"/>
      <path id="Path_85" data-name="Path 85" d="M709.844,401.577l-6.144-4.306a1.706,1.706,0,1,1,1.958-2.794l6.144,4.306a1.706,1.706,0,0,1-1.958,2.794Z" transform="translate(-676.284 -380.084)" fill="#fff"/>
      <g id="Path_2878" data-name="Path 2878" transform="matrix(0.839, 0.545, -0.545, 0.839, 71.147, 11.969)" fill="none">
        <path d="M1.646,0H67.308a1.69,1.69,0,0,1,1.646,1.732V8.658a1.69,1.69,0,0,1-1.646,1.732H1.646A1.69,1.69,0,0,1,0,8.658V1.732A1.69,1.69,0,0,1,1.646,0Z" stroke="none"/>
        <path d="M 1.645668029785156 1.500004768371582 C 1.586280822753906 1.500004768371582 1.5 1.590234756469727 1.5 1.731624603271484 L 1.5 8.658144950866699 C 1.5 8.799534797668457 1.586280822753906 8.889764785766602 1.645668029785156 8.889764785766602 L 67.30818939208984 8.889764785766602 C 67.36757659912109 8.889764785766602 67.453857421875 8.799534797668457 67.453857421875 8.658144950866699 L 67.453857421875 1.731624603271484 C 67.453857421875 1.590234756469727 67.36757659912109 1.500004768371582 67.30818939208984 1.500004768371582 L 1.645668029785156 1.500004768371582 M 1.645668029785156 4.76837158203125e-06 L 67.30818939208984 4.76837158203125e-06 C 68.21707153320312 4.76837158203125e-06 68.953857421875 0.7752752304077148 68.953857421875 1.731624603271484 L 68.953857421875 8.658144950866699 C 68.953857421875 9.614494323730469 68.21707153320312 10.3897647857666 67.30818939208984 10.3897647857666 L 1.645668029785156 10.3897647857666 C 0.736785888671875 10.3897647857666 0 9.614494323730469 0 8.658144950866699 L 0 1.731624603271484 C 0 0.7752752304077148 0.736785888671875 4.76837158203125e-06 1.645668029785156 4.76837158203125e-06 Z" stroke="none" fill="#3f3d56"/>
      </g>
    </g>
  </g>
</svg>
