<svg xmlns="http://www.w3.org/2000/svg" width="211.602" height="188.45" viewBox="0 0 211.602 188.45">
  <g id="M-overall-health" transform="translate(4.593)">
    <path id="Path_2251" data-name="Path 2251" d="M248.177,155.74c7.757,8.639-4.8,32.508,7.093,39.961s36.122-3.49,40.494-10.151c7.322-11.147,17.285-4.655,27.672-3.256,7.35.988,23.632,11.305,31.071,3.256s-1.8-27.7-1.314-35.452c.233-3.743.188-7.668,1.314-11.02a18.186,18.186,0,0,1,2.84-5.125c10.183-13.539,34.98.256,44.65-14.1,6.531-9.695,17.036-35.321,0-53.012s-27.556-21.192-48.8-23.764S323.067,52.887,317.324,54.8c-9.6,3.188-21.7-3.249-34.642,4.9s-11.136,21.536-18.934,29.449c-5.519,5.592-9.372,13.226-14.4,19.519-3.278,4.1-7.231,6.472-10.182,11.195-3.635,5.817-6.366,14.473-3.755,22.232C237.888,149.459,244.062,151.153,248.177,155.74Z" transform="translate(-238.968 -42.386)" fill="#6dd179" opacity="0.1"/>
    <path id="Path_2429" data-name="Path 2429" d="M298.5,86.267a38.866,38.866,0,1,0,38.866,38.866A38.908,38.908,0,0,0,298.5,86.267Zm32.156,54.489a35.746,35.746,0,1,1,3.6-15.624A35.793,35.793,0,0,1,330.652,140.757Z" transform="translate(-233.083 -86.267)" fill="#d0d0d0"/>
    <path id="Path_2430" data-name="Path 2430" d="M310.228,341.65a39.028,39.028,0,0,1-35.184-22.2,1.679,1.679,0,0,1,.126-1.668l.021-.031a1.655,1.655,0,0,1,2.855.228,35.63,35.63,0,0,0,63,2.58,1.655,1.655,0,0,1,1.444-.828,1.626,1.626,0,0,1,1.421.829l.018.032a1.676,1.676,0,0,1-.009,1.666,39.131,39.131,0,0,1-33.695,19.4Z" transform="translate(-244.814 -263.803)" fill="#6dd179"/>
    <path id="Path_2431" data-name="Path 2431" d="M368.53,218.022a4.562,4.562,0,1,1-3.2,1.339,4.5,4.5,0,0,1,3.2-1.339m0-1.943A6.479,6.479,0,1,0,375,222.561,6.479,6.479,0,0,0,368.53,216.079Zm13.5-9.265a2.21,2.21,0,0,0,2.221-2.2q0-.011,0-.022a2.186,2.186,0,0,0-2.165-2.207h-.042a2.214,2.214,0,0,0-.042,4.428Zm4.643,11.209a4.562,4.562,0,1,1-3.2,1.339,4.5,4.5,0,0,1,3.2-1.339m0-1.943a6.475,6.475,0,1,0,6.475,6.475A6.475,6.475,0,0,0,386.671,216.079Z" transform="translate(-311.876 -175.601)" fill="#d0d0d0"/>
    <path id="Path_2432" data-name="Path 2432" d="M415.027,223.306H411.7l-2.047-4.171a2.171,2.171,0,0,0-3.435-.458l-4.976,4.8a2.26,2.26,0,0,0-.645,1.555,2.068,2.068,0,0,0,1.284,1.881c3.158,1.818,4.268,2.02,4.268,2.929v4.574a1.11,1.11,0,1,0,2.221,0h0v-6.246c0-.916-2.11-1.666-3.352-2.637l3.394-3.574c1.3,1.978,1.895,3.574,2.637,3.574h3.984a1.11,1.11,0,1,0,0-2.221Z" transform="translate(-341.529 -187.639)" fill="#d0d0d0"/>
    <path id="Path_2434" data-name="Path 2434" d="M187.659,458.8A23.014,23.014,0,1,0,190.576,470,23.014,23.014,0,0,0,187.659,458.8Zm-20.1,32.383a21.075,21.075,0,1,1,.213,0Z" transform="translate(-144.542 -363.789)" fill="#d0d0d0"/>
    <path id="Path_2435" data-name="Path 2435" d="M201.4,531.353a23.088,23.088,0,0,1-12.386-3.6,1.036,1.036,0,0,1-.408-.5l-.012-.03a1.016,1.016,0,0,1,.31-1.169,1,1,0,0,1,1.192-.073,21.052,21.052,0,0,0,29.8-27.812,1,1,0,0,1,.155-1.184,1.017,1.017,0,0,1,1.189-.229l.029.014a1.028,1.028,0,0,1,.465.436,23.128,23.128,0,0,1-20.325,34.14Z" transform="translate(-178.378 -402.002)" fill="#6dd179"/>
    <path id="Path_2436" data-name="Path 2436" d="M535.111,446.957a23.021,23.021,0,1,0,0,46.042h0c.149,0,.3,0,.445-.006a23.019,23.019,0,1,0-.445-46.037Zm4.692,43.672a21.179,21.179,0,1,1-4.7-41.832h.012a21.179,21.179,0,0,1,4.692,41.832Z" transform="translate(-427.307 -363.758)" fill="#d0d0d0"/>
    <path id="Path_2500" data-name="Path 2500" d="M528.734,446.956a16.644,16.644,0,1,0,0,33.288h0c.108,0,.214,0,.321,0a16.643,16.643,0,1,0-.321-33.285Zm3.392,31.575a15.312,15.312,0,1,1-3.4-30.245h.009a15.312,15.312,0,0,1,3.392,30.245Z" transform="translate(-462.48 -328.617)" fill="#d0d0d0"/>
    <path id="Path_2437" data-name="Path 2437" d="M534.736,494.405a23.137,23.137,0,0,1-4.9-45.748,1.062,1.062,0,0,1,.417-.005l.048.009a1.025,1.025,0,0,1,.023,2.007,21.066,21.066,0,0,0,4.413,41.664c.2,0,.4,0,.6-.009a.954.954,0,0,1,.972.748.923.923,0,0,1-.524,1.07h0q-.2.093-.408.183a.949.949,0,0,1-.365.081Z" transform="translate(-426.931 -365.05)" fill="#6dd179"/>
    <path id="Path_2499" data-name="Path 2499" d="M528.327,481.727a16.728,16.728,0,0,1-3.542-33.076.766.766,0,0,1,.3,0l.035.007a.741.741,0,0,1,.017,1.451,15.231,15.231,0,0,0,3.191,30.123c.147,0,.29,0,.435-.006a.69.69,0,0,1,.7.541.668.668,0,0,1-.379.774h0q-.147.067-.3.132a.685.685,0,0,1-.264.058Z" transform="translate(-462.073 -330.015)" fill="#6dd179"/>
    <path id="Path_2438" data-name="Path 2438" d="M582.884,498.96a2.814,2.814,0,0,0-2.809,1.917h-2.267l-1.655-4.977a.933.933,0,0,0-.886-.641h-.017a.922.922,0,0,0-.874.676l-2.594,9.051-3.048-18.306a.936.936,0,0,0-1.83-.076l-3.089,14.273h-3.462a.932.932,0,1,0,0,1.865h4.2a.93.93,0,0,0,.9-.705l2.18-10.619,2.99,17.945a.926.926,0,0,0,.868.775h.052a.935.935,0,0,0,.9-.676l2.9-10.118.915,2.757a.94.94,0,0,0,.886.641h2.978a2.8,2.8,0,1,0,2.768-3.782Z" transform="translate(-463.723 -393.719)" fill="#d0d0d0"/>
    <g id="Group_2021" data-name="Group 2021" transform="translate(61.058 124.931)">
      <path id="Icon_feather-moon" data-name="Icon feather-moon" d="M15.871,10.453a5.6,5.6,0,0,1-5.819,4.967,5.573,5.573,0,0,1-5.492-5.3A5.544,5.544,0,0,1,9.7,4.5a4.148,4.148,0,0,0,.428,5.54A4.527,4.527,0,0,0,15.871,10.453Z" transform="translate(-4.557 1.326)" fill="#d0d0d0"/>
      <text id="Z" transform="translate(7.314 8)" fill="#d0d0d0" font-size="6" font-family="Montserrat-Medium, Montserrat" font-weight="500" letter-spacing="0.05em"><tspan x="0" y="0">Z</tspan></text>
    </g>
    <g id="Group_2027" data-name="Group 2027" transform="translate(14.257 96.376)" opacity="0.96">
      <g id="Ellipse_214" data-name="Ellipse 214" transform="translate(4.563 7.412)" fill="#d0d0d0" stroke="#d0d0d0" stroke-linecap="round" stroke-linejoin="round" stroke-width="1">
        <ellipse cx="3.711" cy="3.711" rx="3.711" ry="3.711" stroke="none"/>
        <ellipse cx="3.711" cy="3.711" rx="3.211" ry="3.211" fill="none"/>
      </g>
      <path id="Path_1594" data-name="Path 1594" d="M14378.072,2385.142a5.835,5.835,0,0,0-2.315,3.076,7.884,7.884,0,0,0-.389,3.9l3.821-4.444" transform="translate(-14373.199 -2373.254)" fill="none" stroke="#d0d0d0" stroke-linecap="round" stroke-linejoin="round" stroke-width="1"/>
      <path id="Path_1595" data-name="Path 1595" d="M14367.779,2404.362h16.55" transform="translate(-14367.779 -2385.497)" fill="none" stroke="#d0d0d0" stroke-linecap="round" stroke-width="1"/>
      <path id="Path_1596" data-name="Path 1596" d="M14375.895,2361.982l-2.831-1.578,1.622-1.3-3.182-1.421" transform="translate(-14371.138 -2353.951)" fill="none" stroke="#d0d0d0" stroke-linecap="round" stroke-linejoin="round" stroke-width="1"/>
      <path id="Path_1597" data-name="Path 1597" d="M4.39,0,1.558,1.577l1.623,1.3L0,4.3" transform="translate(11.091 3.687) rotate(149)" fill="none" stroke="#d0d0d0" stroke-linecap="round" stroke-linejoin="round" stroke-width="1"/>
      <path id="Path_1598" data-name="Path 1598" d="M4.39,0,1.558,1.577l1.623,1.3L0,4.3" transform="translate(15.801 8.03) rotate(-180)" fill="none" stroke="#d0d0d0" stroke-linecap="round" stroke-linejoin="round" stroke-width="1"/>
      <path id="Path_1599" data-name="Path 1599" d="M14376.039,2385.142a5.842,5.842,0,0,1,2.318,3.076,7.9,7.9,0,0,1,.391,3.9l-3.979-4.558" transform="translate(-14364.547 -2373.254)" fill="none" stroke="#d0d0d0" stroke-linecap="round" stroke-linejoin="round" stroke-width="1"/>
    </g>
    <path id="Path_4257" data-name="Path 4257" d="M132.613,551.176H128.5l-1.959-15.88h6.076Z" transform="translate(54.738 -366.549)" fill="#ffb8b8"/>
    <path id="Path_4258" data-name="Path 4258" d="M0,5H12.939V0H5A5,5,0,0,0,0,5H0Z" transform="translate(175.296 183.45)" fill="#2f2e41"/>
    <path id="Path_4259" data-name="Path 4259" d="M88.613,551.176H84.5L82.538,535.3h6.076Z" transform="translate(113.513 -366.549)" fill="#ffb8b8"/>
    <path id="Path_4260" data-name="Path 4260" d="M0,5H12.939V0H5A5,5,0,0,0,0,5H0Z" transform="translate(190.071 183.45)" fill="#2f2e41"/>
    <path id="Path_4261" data-name="Path 4261" d="M278.081,611.442l4.021-.211a1.569,1.569,0,0,0,1.484-1.668l-4.806-53.214-22.134,5.973-2.132-.582,6.669,47.109a1.577,1.577,0,0,0,1.464,1.325l4.335.2a1.57,1.57,0,0,0,1.656-1.61l-.785-28.274a.523.523,0,0,1,1.035-.121l7.575,29.824A1.56,1.56,0,0,0,278,611.444Z" transform="translate(-79.551 -431.699)" fill="#2f2e41"/>
    <ellipse id="Ellipse_845" data-name="Ellipse 845" cx="8.248" cy="8.248" rx="8.248" ry="8.248" transform="translate(178.365 64.613)" fill="#ffb8b8"/>
    <path id="Path_4262" data-name="Path 4262" d="M291.109,448.441l-.907,19.567-.328,7.119a1.559,1.559,0,0,1-1.032,1.4l-21.269,7.7a1.5,1.5,0,0,1-.537.094,1.559,1.559,0,0,1-1.566-1.608l.872-35.182a12.4,12.4,0,0,1,10.324-11.981c.206-.031.415-.063.624-.091a12.173,12.173,0,0,1,9.794,3.17,12.5,12.5,0,0,1,4.025,9.8Z" transform="translate(-90.764 -351.349)" fill="#ccc"/>
    <path id="Path_4263" data-name="Path 4263" d="M343.43,539.4a3.379,3.379,0,0,0,1.8-5.113l7.213-9.591-6.224-.385-5.895,9.167a3.4,3.4,0,0,0,3.1,5.923Z" transform="translate(-176.782 -410.421)" fill="#ffb8b8"/>
    <path id="Path_4264" data-name="Path 4264" d="M326.627,504.868,316.19,484.884a1.638,1.638,0,0,0-2.208-.693L298.834,492.1a1.638,1.638,0,0,0-.693,2.208l10.437,19.984a1.638,1.638,0,0,0,2.208.693l15.149-7.912A1.638,1.638,0,0,0,326.627,504.868Z" transform="translate(-137.363 -383.65)" fill="#3f3d56"/>
    <path id="Path_4265" data-name="Path 4265" d="M274.23,502.86a3.379,3.379,0,0,1,5.211-1.5l10-6.634.017,6.236-9.5,5.343a3.4,3.4,0,0,1-5.729-3.448Z" transform="translate(-91.966 -390.772)" fill="#ffb8b8"/>
    <path id="Path_4266" data-name="Path 4266" d="M251.691,470.6l8.173-6.474a5.764,5.764,0,0,0,2.627-9.112l-7.42-9.725a3.39,3.39,0,0,0-5.752,3.454l5.871,9.6-8.628,4.092a1.569,1.569,0,0,0-.654,2.256l3.483,5.512a1.572,1.572,0,0,0,1.063.709l.026,0A1.577,1.577,0,0,0,251.691,470.6Z" transform="translate(-56.783 -357.108)" fill="#ccc"/>
    <path id="Path_4267" data-name="Path 4267" d="M290.118,384.673a.717.717,0,0,0-.623-.947,1.656,1.656,0,0,0-1.167.576,4.647,4.647,0,0,1-1.031.886.887.887,0,0,1-1.168-.211,1.624,1.624,0,0,1,.062-1.26,12.392,12.392,0,0,0,.547-3.281,5.777,5.777,0,0,0-.826-3.509,4.642,4.642,0,0,0-3.978-1.691,26.734,26.734,0,0,0-4.469.791,1.5,1.5,0,0,1-1.461-.245,1.883,1.883,0,0,1-.076-1.68,11.671,11.671,0,0,1,1.768-4.215,6.346,6.346,0,0,1,4.05-2.28,9.718,9.718,0,0,1,4.521.513,12.121,12.121,0,0,1,5.938,4.137,9.818,9.818,0,0,1,1.873,7.254,8.955,8.955,0,0,1-3.32,5.66Z" transform="translate(-97.273 -306.289)" fill="#2f2e41"/>
  </g>
</svg>
