<svg xmlns="http://www.w3.org/2000/svg" width="25" height="22.222" viewBox="0 0 25 22.222">
  <path id="mental" d="M9.028,0A2.77,2.77,0,0,0,6.345,2.092c-.035,0-.061-.009-.1-.009A2.78,2.78,0,0,0,3.472,4.861a2.56,2.56,0,0,0,.074.608,3.442,3.442,0,0,0-1.8,4.727A3.459,3.459,0,0,0,2.144,16.4a3.181,3.181,0,0,0-.061.612,3.123,3.123,0,0,0,3.125,3.125,2.943,2.943,0,0,0,.521-.052,3.118,3.118,0,0,0,6.076-.99V2.778A2.78,2.78,0,0,0,9.028,0ZM25,13.194a3.454,3.454,0,0,0-1.749-3,3.416,3.416,0,0,0,.36-1.515,3.472,3.472,0,0,0-2.157-3.212,2.752,2.752,0,0,0-2.7-3.385c-.035,0-.065.009-.1.009a2.772,2.772,0,0,0-5.46.686V19.1a3.118,3.118,0,0,0,6.076.99,2.943,2.943,0,0,0,.521.052,3.123,3.123,0,0,0,3.125-3.125,3.181,3.181,0,0,0-.061-.612A3.472,3.472,0,0,0,25,13.194Z" fill="#6dd179"/>
</svg>
