<svg xmlns="http://www.w3.org/2000/svg" width="242.992" height="281.828" viewBox="0 0 242.992 281.828">
  <g id="Group_2503" data-name="Group 2503" transform="translate(3338.861 1053.984)">
    <path id="male" d="M84.451,33.393c0-17.238,6.035-26.779,19.361-30.611,13.765-3.96,35.915-1.008,43.429,5.787,5.879,5.318,9.094,14.113,9.094,24.883,0,7.661.61,10.511,2.4,11.2,1.671.641,2.4,3.246,2.4,8.6q0,11.324-7.751,17.594c-6.4,5.177-9.129,27.675-4.449,36.71,4.216,8.136,11.549,11.62,38.557,18.31,20.9,5.177,27.044,6.816,31.945,11.827,3.406,3.484,11.884,11.863,15.513,24.842s-2,35.744-2,35.744.609,34.424,1,43.336c.718,16.342,8.167,27.646,8.716,38.51.027.488-37.629.106-37.594-.04a60.753,60.753,0,0,1,.741-6.476c1.851-11.588-4.7-20.664-7.24-30.473-3.021-6.049-8.264-46.244-8.264-47.883,0-9.366-3.564,36.161-9.538,56.483-3.407,11.589-4.981,19.55-4.835,28.236.01.576-111.887,1.26-111.9.268-.192-14.933-7.481-87.366-11.331-84.987-.9.556-1.947,20.078-6.59,35.6s-10.445,18.137-11.981,26.477,0,22.913,0,22.913c-.009,1.232-31.089-.065-31.1,0,0,0-.017,0,0,0s.841-6.246.912-9.591c.168-7.957-2.731-19.374-2.237-29.035,1.494-29.227,6.7-25.639,8.637-46.361s-.76-19.01,0-27.532c2.076-17.928,11.53-35.061,32.687-39.678,19.576-4.272,35.2-8.815,39.929-11.607C92.4,110.86,96.983,93.217,91.649,82.99a21.193,21.193,0,0,1-2.4-7.42,4.227,4.227,0,0,0-2.332-3.738c-1.278-.49-3.856-4.061-5.732-7.933C77.367,56,77.972,44.07,82.2,44.07,83.913,44.07,84.451,41.524,84.451,33.393Z" transform="translate(-3339.528 -1053.929)" fill="none" stroke="#323232" stroke-width="2"/>
    <g id="device" transform="translate(-3444 -1341)">
      <path id="Path_4610" data-name="Path 4610" d="M-2.135.339S33.62,2.252,67.218,2.252,128.672.339,128.672.339l-3.377,12.13s-24.478,1.165-58.076,1.165S.178,12.469.178,12.469Z" transform="translate(163.732 502)" fill="#323232"/>
      <g id="device-2" data-name="device" transform="translate(209.101 493.921)">
        <g id="Ellipse_899" data-name="Ellipse 899" transform="translate(4.899 3.079)" fill="#323232" stroke="#4d4d4d" stroke-width="1">
          <circle cx="12" cy="12" r="12" stroke="none"/>
          <circle cx="12" cy="12" r="11.5" fill="none"/>
        </g>
        <g id="Ellipse_859" data-name="Ellipse 859" transform="translate(5.899 4.079)" fill="#323232" stroke="#b1b1b1" stroke-width="1">
          <circle cx="11" cy="11" r="11" stroke="none"/>
          <circle cx="11" cy="11" r="10.5" fill="none"/>
        </g>
        <g id="Ellipse_898" data-name="Ellipse 898" transform="translate(6.899 5.079)" fill="#323232" stroke="#707070" stroke-width="1">
          <circle cx="10" cy="10" r="10" stroke="none"/>
          <circle cx="10" cy="10" r="9.5" fill="none"/>
        </g>
        <path id="Path_808" data-name="Path 808" d="M109.075,71.041l4.946,7.572c-1.7-1.14-4.933-3.026-7.686-3.026H106.1l2.974-4.551m0-.5-3.508,5.369a5.09,5.09,0,0,1,.765-.055c3.821,0,8.7,3.814,8.7,3.814l-5.965-9.128Z" transform="translate(-92.217 -61.461)" fill="#fff"/>
        <g id="Group_217" data-name="Group 217" transform="translate(10.947 9.084)">
          <path id="Path_809" data-name="Path 809" d="M90.529,71.082l2.956,4.52h-.229c-2.742,0-5.953,1.872-7.645,3.007l4.918-7.522m0-.492L84.6,79.657s4.856-3.786,8.656-3.786a5.035,5.035,0,0,1,.762.056L90.529,70.59Z" transform="translate(-84.6 -70.59)" fill="#fff"/>
        </g>
        <path id="Path_810" data-name="Path 810" d="M90.885,71.08l1.3,2a26.762,26.762,0,0,0-5.445,4.341l4.14-6.338m0-.49L85,79.607s4.57-5.03,7.585-6.424Z" transform="translate(-74.007 -61.506)" fill="#fff"/>
        <g id="Group_218" data-name="Group 218" transform="translate(15.14 9.084)">
          <path id="Path_811" data-name="Path 811" d="M122.867,71.086l4.19,6.416a27.145,27.145,0,0,0-5.507-4.394l1.32-2.023m0-.5-1.721,2.626c3.053,1.409,7.678,6.5,7.678,6.5l-5.965-9.128Z" transform="translate(-121.15 -70.59)" fill="#fff"/>
        </g>
        <path id="Path_812" data-name="Path 812" d="M86.155,153.962v2.361l-1.7-1.786v1.674H84.18V153.85l1.7,1.786v-1.674Z" transform="translate(-73.281 -135.214)" fill="#fff"/>
        <path id="Path_813" data-name="Path 813" d="M109.063,154.83v2.249h-.273V154.83Zm-.122,0h1.135v.257h-1.133Zm0,.9h1.069v.257h-1.069Zm0,1.092h1.135v.257h-1.133Z" transform="translate(-95.067 -136.082)" fill="#fff"/>
        <path id="Path_814" data-name="Path 814" d="M125.14,154.83h1.431v.257H126v1.992h-.274v-1.992h-.574Z" transform="translate(-109.542 -136.082)" fill="#fff"/>
        <path id="Path_815" data-name="Path 815" d="M143.278,154.829v2.249H143v-2.249Zm-.123,0h.459a.9.9,0,0,1,.39.081.677.677,0,0,1,.273.229.688.688,0,0,1,0,.718.665.665,0,0,1-.273.229.9.9,0,0,1-.39.081h-.459v-.241h.459a.594.594,0,0,0,.255-.052.4.4,0,0,0,.173-.148.466.466,0,0,0,0-.468.391.391,0,0,0-.173-.148.594.594,0,0,0-.255-.052h-.459Zm.556,1.14.8,1.108h-.337l-.771-1.108Z" transform="translate(-125.353 -136.081)" fill="#fff"/>
        <path id="Path_816" data-name="Path 816" d="M161.893,154.83v2.249h-.273V154.83Z" transform="translate(-141.837 -136.082)" fill="#fff"/>
        <path id="Path_817" data-name="Path 817" d="M173.375,153.962v2.361l-1.7-1.786v1.674H171.4V153.85l1.7,1.786v-1.674Z" transform="translate(-150.495 -135.214)" fill="#fff"/>
      </g>
    </g>
  </g>
</svg>
