<svg id="undraw_Design_process_re_0dhf" xmlns="http://www.w3.org/2000/svg" width="226" height="177.692" viewBox="0 0 226 177.692">
  <path id="Path_2399" data-name="Path 2399" d="M240.808,173.767h-.57v-15.6a9.031,9.031,0,0,0-9.031-9.031H198.151a9.031,9.031,0,0,0-9.031,9.031v85.6a9.031,9.031,0,0,0,9.031,9.031h33.057a9.031,9.031,0,0,0,9.031-9.031V184.873h.57Z" transform="translate(-80.591 -76.07)" fill="#3f3d56"/>
  <path id="Path_2400" data-name="Path 2400" d="M241.051,160.421h-4.315a3.2,3.2,0,0,1-2.966,4.414H214.832a3.2,3.2,0,0,1-2.966-4.414h-4.03a6.744,6.744,0,0,0-6.744,6.744v85.473a6.744,6.744,0,0,0,6.744,6.744h33.216a6.744,6.744,0,0,0,6.744-6.744h0V167.164A6.744,6.744,0,0,0,241.051,160.421Z" transform="translate(-90.07 -85.007)" fill="#fff"/>
  <path id="Path_2401" data-name="Path 2401" d="M267.59,252.245a16.219,16.219,0,0,1-1.022,5.687,15.773,15.773,0,0,1-1.13,2.409,16.294,16.294,0,0,1-28.273,0q-.217-.376-.411-.762a16.29,16.29,0,1,1,30.836-7.334Z" transform="translate(-116.928 -144.819)" fill="#f1f1f1"/>
  <circle id="Ellipse_252" data-name="Ellipse 252" cx="3.114" cy="3.114" r="3.114" transform="translate(132.106 103.948)" fill="#ff6582"/>
  <path id="Path_2402" data-name="Path 2402" d="M243.389,306.371c1.372-1.483,3.206-3.837,4.926-2.136.863.8,2.215,2.791,3.508,1.491l10.1-10.1a2.005,2.005,0,0,1,2.868.051l8.412,9.047a15.774,15.774,0,0,1-1.13,2.409H243.8Z" transform="translate(-123.563 -191.611)" fill="#6dd179"/>
  <path id="Path_680" data-name="Path 680" d="M348.394,473.123a.421.421,0,1,0,0,.842h4.416a.421.421,0,1,0,0-.842Z" transform="translate(-206.378 -332.62)" fill="#6dd179"/>
  <path id="Path_680-2" data-name="Path 680" d="M252.818,443.43a.421.421,0,1,0,0,.842h24.5a.421.421,0,1,0,0-.842Z" transform="translate(-130.696 -309.108)" fill="#e5e5e5"/>
  <path id="Path_680-3" data-name="Path 680" d="M252.818,458.277a.421.421,0,0,0,0,.842h24.5a.421.421,0,1,0,0-.842Z" transform="translate(-130.696 -320.864)" fill="#e5e5e5"/>
  <path id="Path_680-4" data-name="Path 680" d="M348.394,568.39a.421.421,0,1,0,0,.842h4.416a.421.421,0,1,0,0-.842Z" transform="translate(-206.378 -408.057)" fill="#6dd179"/>
  <path id="Path_680-5" data-name="Path 680" d="M252.818,538.7a.421.421,0,1,0,0,.842h24.5a.421.421,0,1,0,0-.842Z" transform="translate(-130.696 -384.544)" fill="#e5e5e5"/>
  <path id="Path_680-6" data-name="Path 680" d="M252.818,553.543a.421.421,0,1,0,0,.842h24.5a.421.421,0,1,0,0-.842Z" transform="translate(-130.696 -396.3)" fill="#e5e5e5"/>
  <g id="undraw_data_processing_yrrv">
    <circle id="Ellipse_240" data-name="Ellipse 240" cx="3.601" cy="3.601" r="3.601" transform="translate(6.844 25.653)" fill="#e6e6e6"/>
    <circle id="Ellipse_241" data-name="Ellipse 241" cx="3.601" cy="3.601" r="3.601" transform="translate(17.648 25.653)" fill="#e6e6e6"/>
    <circle id="Ellipse_242" data-name="Ellipse 242" cx="3.601" cy="3.601" r="3.601" transform="translate(28.451 25.653)" fill="#e6e6e6"/>
    <circle id="Ellipse_243" data-name="Ellipse 243" cx="3.601" cy="3.601" r="3.601" transform="translate(39.255 25.653)" fill="#e6e6e6"/>
    <circle id="Ellipse_244" data-name="Ellipse 244" cx="3.601" cy="3.601" r="3.601" transform="translate(50.058 25.653)" fill="#e6e6e6"/>
    <circle id="Ellipse_245" data-name="Ellipse 245" cx="3.601" cy="3.601" r="3.601" transform="translate(60.862 25.653)" fill="#e6e6e6"/>
    <circle id="Ellipse_246" data-name="Ellipse 246" cx="3.601" cy="3.601" r="3.601" transform="translate(71.665 25.653)" fill="#e6e6e6"/>
    <path id="Path_2346" data-name="Path 2346" d="M257.712,247.511H176.248a1.467,1.467,0,0,1-1.465-1.466v-5.84a1.467,1.467,0,0,1,1.465-1.465h81.464a1.467,1.467,0,0,1,1.466,1.465v5.84A1.467,1.467,0,0,1,257.712,247.511Zm-81.464-8.185a.88.88,0,0,0-.879.879v5.84a.88.88,0,0,0,.879.879h81.464a.88.88,0,0,0,.879-.879v-5.84a.88.88,0,0,0-.879-.879Z" transform="translate(-174.124 -213.872)" fill="#e6e6e6"/>
    <path id="Path_2347" data-name="Path 2347" d="M191.848,145.454a.843.843,0,0,1,.842.842v18.246a.843.843,0,0,1-.842.842H173.975a.843.843,0,0,1-.842-.842V146.3a.843.843,0,0,1,.842-.842h17.874m0-.842H173.975a1.684,1.684,0,0,0-1.684,1.684v18.246a1.684,1.684,0,0,0,1.684,1.684h17.874a1.684,1.684,0,0,0,1.684-1.684V146.3a1.684,1.684,0,0,0-1.684-1.684Z" transform="translate(-172.291 -144.612)" fill="#e6e6e6"/>
    <path id="Path_2348" data-name="Path 2348" d="M201.38,163.608H189.455a.421.421,0,0,1,0-.842H201.38a.421.421,0,1,1,0,.842Z" transform="translate(-184.611 -157.97)" fill="#6dd179"/>
    <path id="Path_2349" data-name="Path 2349" d="M201.38,174.893H189.455a.421.421,0,0,1,0-.842H201.38a.421.421,0,1,1,0,.842Z" transform="translate(-184.611 -166.273)" fill="#6dd179"/>
    <path id="Path_2350" data-name="Path 2350" d="M201.38,186.176H189.455a.421.421,0,0,1,0-.842H201.38a.421.421,0,1,1,0,.842Z" transform="translate(-184.611 -174.576)" fill="#6dd179"/>
    <path id="Path_2351" data-name="Path 2351" d="M201.38,197.461H189.455a.421.421,0,0,1,0-.842H201.38a.421.421,0,1,1,0,.842Z" transform="translate(-184.611 -182.879)" fill="#6dd179"/>
    <path id="Path_2352" data-name="Path 2352" d="M201.38,208.746H189.455a.421.421,0,0,1,0-.842H201.38a.421.421,0,1,1,0,.842Z" transform="translate(-184.611 -191.182)" fill="#6dd179"/>
    <path id="Path_2353" data-name="Path 2353" d="M422.91,145.454a.843.843,0,0,1,.842.842v18.246a.843.843,0,0,1-.842.842H405.036a.843.843,0,0,1-.842-.842V146.3a.843.843,0,0,1,.842-.842H422.91m0-.842H405.036a1.684,1.684,0,0,0-1.684,1.684v18.246a1.684,1.684,0,0,0,1.684,1.684H422.91a1.684,1.684,0,0,0,1.684-1.684V146.3a1.684,1.684,0,0,0-1.684-1.684Z" transform="translate(-342.306 -144.612)" fill="#e6e6e6"/>
    <path id="Path_2354" data-name="Path 2354" d="M432.442,163.608H420.516a.421.421,0,1,1,0-.842h11.925a.421.421,0,0,1,0,.842Z" transform="translate(-354.626 -157.97)" fill="#6dd179"/>
    <path id="Path_2355" data-name="Path 2355" d="M432.442,174.893H420.516a.421.421,0,1,1,0-.842h11.925a.421.421,0,0,1,0,.842Z" transform="translate(-354.626 -166.273)" fill="#6dd179"/>
    <path id="Path_2356" data-name="Path 2356" d="M432.442,186.176H420.516a.421.421,0,1,1,0-.842h11.925a.421.421,0,0,1,0,.842Z" transform="translate(-354.626 -174.576)" fill="#6dd179"/>
    <path id="Path_2357" data-name="Path 2357" d="M432.442,197.461H420.516a.421.421,0,1,1,0-.842h11.925a.421.421,0,0,1,0,.842Z" transform="translate(-354.626 -182.879)" fill="#6dd179"/>
    <path id="Path_2358" data-name="Path 2358" d="M432.442,208.746H420.516a.421.421,0,1,1,0-.842h11.925a.421.421,0,0,1,0,.842Z" transform="translate(-354.626 -191.182)" fill="#6dd179"/>
    <path id="Path_2359" data-name="Path 2359" d="M652.848,278.246a.843.843,0,0,1,.842.842v18.246a.843.843,0,0,1-.842.842H634.975a.843.843,0,0,1-.842-.842V279.088a.843.843,0,0,1,.842-.842h17.873m0-.842H634.975a1.684,1.684,0,0,0-1.684,1.684v18.246a1.684,1.684,0,0,0,1.684,1.684h17.873a1.684,1.684,0,0,0,1.684-1.684V279.088a1.684,1.684,0,0,0-1.684-1.684Z" transform="translate(-511.496 -242.32)" fill="#6dd179"/>
    <path id="Path_2360" data-name="Path 2360" d="M662.38,296.4H650.455a.421.421,0,0,1,0-.842H662.38a.421.421,0,1,1,0,.842Z" transform="translate(-523.815 -255.678)" fill="#6dd179"/>
    <path id="Path_2361" data-name="Path 2361" d="M662.38,307.684H650.455a.421.421,0,1,1,0-.842H662.38a.421.421,0,0,1,0,.842Z" transform="translate(-523.815 -263.981)" fill="#6dd179"/>
    <path id="Path_2362" data-name="Path 2362" d="M662.38,318.968H650.455a.421.421,0,0,1,0-.842H662.38a.421.421,0,1,1,0,.842Z" transform="translate(-523.815 -272.284)" fill="#6dd179"/>
    <path id="Path_2363" data-name="Path 2363" d="M662.38,330.252H650.455a.421.421,0,0,1,0-.842H662.38a.421.421,0,1,1,0,.842Z" transform="translate(-523.815 -280.587)" fill="#6dd179"/>
    <path id="Path_2364" data-name="Path 2364" d="M662.38,341.537H650.455a.421.421,0,0,1,0-.842H662.38a.421.421,0,1,1,0,.842Z" transform="translate(-523.815 -288.89)" fill="#6dd179"/>
    <path id="Path_2365" data-name="Path 2365" d="M306.44,179.45H288.1a1.873,1.873,0,0,1-1.871-1.871V164.454a1.873,1.873,0,0,1,1.871-1.871H306.44a1.873,1.873,0,0,1,1.871,1.871v13.124A1.873,1.873,0,0,1,306.44,179.45ZM288.1,163.425a1.03,1.03,0,0,0-1.029,1.029v13.124a1.03,1.03,0,0,0,1.029,1.029H306.44a1.03,1.03,0,0,0,1.029-1.029V164.454a1.03,1.03,0,0,0-1.029-1.029Z" transform="translate(-256.126 -157.835)" fill="#e6e6e6"/>
    <path id="Path_2366" data-name="Path 2366" d="M316.206,182.467H304.281a.421.421,0,0,1,0-.842h11.925a.421.421,0,1,1,0,.842Z" transform="translate(-269.099 -171.847)" fill="#6dd179"/>
    <path id="Path_2367" data-name="Path 2367" d="M316.206,193.752H304.281a.421.421,0,0,1,0-.842h11.925a.421.421,0,1,1,0,.842Z" transform="translate(-269.099 -180.15)" fill="#6dd179"/>
    <path id="Path_2368" data-name="Path 2368" d="M316.206,205.036H304.281a.421.421,0,0,1,0-.842h11.925a.421.421,0,1,1,0,.842Z" transform="translate(-269.099 -188.453)" fill="#6dd179"/>
    <path id="Path_2369" data-name="Path 2369" d="M540.272,194.4l-17.616-5.109a1.873,1.873,0,0,1-1.276-2.318l3.656-12.605a1.873,1.873,0,0,1,2.318-1.276l17.616,5.109a1.873,1.873,0,0,1,1.276,2.318l-3.656,12.605a1.873,1.873,0,0,1-2.318,1.276Zm-13.153-20.5a1.03,1.03,0,0,0-1.275.7l-3.655,12.605a1.03,1.03,0,0,0,.7,1.275l17.616,5.109a1.03,1.03,0,0,0,1.275-.7l3.655-12.605a1.03,1.03,0,0,0-.7-1.275Z" transform="translate(-429.097 -165.515)" fill="#e6e6e6"/>
    <path id="Path_2370" data-name="Path 2370" d="M560.275,199.055l-11.453-3.321a.421.421,0,0,1,.234-.809l11.453,3.321a.421.421,0,1,1-.235.809Z" transform="translate(-449.119 -181.62)" fill="#6dd179"/>
    <path id="Path_2371" data-name="Path 2371" d="M557.131,209.893l-11.453-3.321a.421.421,0,0,1,.235-.809l11.453,3.321a.421.421,0,0,1-.235.809Z" transform="translate(-446.806 -189.595)" fill="#6dd179"/>
    <path id="Path_2372" data-name="Path 2372" d="M553.989,220.73l-11.453-3.321a.421.421,0,1,1,.234-.809l11.453,3.321a.421.421,0,0,1-.234.809Z" transform="translate(-444.494 -197.569)" fill="#6dd179"/>
    <rect id="Rectangle_2185" data-name="Rectangle 2185" width="184.757" height="0.793" transform="translate(41.243 176.899)" fill="#e6e6e6"/>
    <circle id="Ellipse_248" data-name="Ellipse 248" cx="0.58" cy="0.58" r="0.58" transform="translate(82.08 68.586)" fill="#fff"/>
    <circle id="Ellipse_249" data-name="Ellipse 249" cx="0.58" cy="0.58" r="0.58" transform="translate(84.281 68.586)" fill="#fff"/>
    <circle id="Ellipse_250" data-name="Ellipse 250" cx="0.58" cy="0.58" r="0.58" transform="translate(86.482 68.586)" fill="#fff"/>
  </g>
  <circle id="Ellipse_342" data-name="Ellipse 342" cx="1" cy="1" r="1" transform="translate(133 168)" fill="#3f3d56"/>
</svg>
