<svg xmlns="http://www.w3.org/2000/svg" width="27" height="30" viewBox="0 0 27 30">
  <path id="running" d="M22.111,7.8a3.121,3.121,0,0,0,3.354-2.791A3.121,3.121,0,0,0,22.111,2.22a3.121,3.121,0,0,0-3.354,2.791A3.121,3.121,0,0,0,22.111,7.8ZM16.074,27.2l1.677-6.14,3.522,2.791V32.22h3.354V21.755l-3.522-2.791,1.006-4.186a13.445,13.445,0,0,0,9.224,3.488V15.476a8.7,8.7,0,0,1-7.211-3.349L22.447,9.894A3.632,3.632,0,0,0,19.6,8.5c-.5,0-.839.14-1.342.14l-8.721,3.07v6.558h3.354V13.522l3.019-.977-2.683,11.3-8.217-1.4-.671,2.791L16.074,27.2Z" transform="translate(-4.335 -2.22)" fill="#6dd179"/>
</svg>
