<svg xmlns="http://www.w3.org/2000/svg" width="30" height="30" viewBox="0 0 30 30">
  <path id="Icon_ionic-ios-sad" data-name="Icon ionic-ios-sad" d="M18.375,3.375a15,15,0,1,0,15,15A15,15,0,0,0,18.375,3.375Zm-5.329,8.569a1.733,1.733,0,1,1-1.587,1.587A1.735,1.735,0,0,1,13.046,11.944ZM13,25.3a1.156,1.156,0,0,1-1.06-1.615,7.02,7.02,0,0,1,12.88,0,1.153,1.153,0,0,1-1.06,1.615,51.971,51.971,0,0,0-5.272-.288C15.707,25.01,13,25.3,13,25.3ZM23.7,15.391A1.733,1.733,0,1,1,25.291,13.8,1.735,1.735,0,0,1,23.7,15.391Z" transform="translate(-3.375 -3.375)" fill="#6dd179"/>
</svg>
