<svg xmlns="http://www.w3.org/2000/svg" width="205.514" height="213.9" viewBox="0 0 205.514 213.9">
  <g id="illustration" transform="translate(-168.396 -86.068)">
    <g id="Group_2094" data-name="Group 2094" transform="translate(58 -141)">
      <path id="Path_2745" data-name="Path 2745" d="M716.949,235.134H715.9V206.5a16.57,16.57,0,0,0-16.57-16.57H638.677a16.57,16.57,0,0,0-16.57,16.57V363.571a16.57,16.57,0,0,0,16.57,16.57h60.656a16.57,16.57,0,0,0,16.57-16.57V255.513h1.045Z" transform="translate(-511.71 37.135)" fill="#3f3d56"/>
      <path id="Path_2746" data-name="Path 2746" d="M720.724,214.49V371.328A12.372,12.372,0,0,1,708.348,383.7H647.4a12.371,12.371,0,0,1-12.372-12.373V214.49A12.371,12.371,0,0,1,647.4,202.118h7.4a5.882,5.882,0,0,0,5.445,8.1h34.749a5.876,5.876,0,0,0,5.445-8.1h7.914A12.372,12.372,0,0,1,720.724,214.49Z" transform="translate(-520.058 29.264)" fill="#fff"/>
      <path id="Path_2818" data-name="Path 2818" d="M793.249,214.49V248.6a36.645,36.645,0,0,1-45.968-35.419q0-1.5.121-2.97h20.112a5.875,5.875,0,0,0,5.445-8.1h7.915A12.372,12.372,0,0,1,793.249,214.49Z" transform="translate(-592.583 29.264)" fill="#f0f0f0"/>
      <circle id="Ellipse_305" data-name="Ellipse 305" cx="24.5" cy="24.5" r="24.5" transform="translate(147 343)" fill="#f0f0f0"/>
      <ellipse id="Ellipse_306" data-name="Ellipse 306" cx="29" cy="29.5" rx="29" ry="29.5" transform="translate(121 302)" fill="#6dd179"/>
      <circle id="Ellipse_343" data-name="Ellipse 343" cx="2" cy="2" r="2" transform="translate(156 402)" fill="#2f2e41"/>
    </g>
    <path id="Path_2799" data-name="Path 2799" d="M755.712,344.184v-8.778a11.763,11.763,0,1,1,23.526,0v8.778a1.582,1.582,0,0,1-1.58,1.58H757.292A1.582,1.582,0,0,1,755.712,344.184Z" transform="translate(-421.697 -166.113)" fill="#2f2e41"/>
    <path id="Path_2800" data-name="Path 2800" d="M574.014,507.215l-4.149,1.148-6.4-15.456,6.123-1.695Z" transform="translate(-210.843 -214.903)" fill="#ffb8b8"/>
    <path id="Path_2801" data-name="Path 2801" d="M5.227,0h8.3V5.227H0A5.227,5.227,0,0,1,5.227,0Z" transform="translate(350.694 294.487) rotate(-15.47)" fill="#2f2e41"/>
    <path id="Path_2802" data-name="Path 2802" d="M458.588,515.191h-4.3l-2.048-16.6h6.354Z" transform="translate(-138.671 -219.688)" fill="#ffb8b8"/>
    <path id="Path_2803" data-name="Path 2803" d="M439.651,542.372h8.3V547.6H434.424A5.227,5.227,0,0,1,439.651,542.372Z" transform="translate(-127.114 -248.099)" fill="#2f2e41"/>
    <path id="Path_2804" data-name="Path 2804" d="M699.464,441.8a3.531,3.531,0,0,0,5.4.322l11.444,5.147-1.041-6.437-10.707-3.9a3.55,3.55,0,0,0-5.1,4.869Z" transform="translate(-384.738 -239.095)" fill="#ffb8b8"/>
    <path id="Path_2805" data-name="Path 2805" d="M735.31,477.993a23.212,23.212,0,0,1-10.446-2.128,13.489,13.489,0,0,1-6.92-8.275c-1.63-5.161.425-10.232,2.413-15.136a33.82,33.82,0,0,0,2.7-8.738l.105-1c.47-4.511.876-8.407,3.124-9.869,1.165-.757,2.732-.8,4.79-.132L750.4,438.99l-.711,36.69-.117.039A51.337,51.337,0,0,1,735.31,477.993Z" transform="translate(-396.807 -236.578)" fill="#2f2e41"/>
    <path id="Path_2806" data-name="Path 2806" d="M744.741,397.37s9.481-2.809,16.854-1.756c0,0-4.214,23.175-2.809,30.9s-24.4,2.985-19.137-4.389l1.756-8.778a5.857,5.857,0,0,1-.351-7.725Z" transform="translate(-410.814 -212.659)" fill="#6dd179"/>
    <path id="Path_2807" data-name="Path 2807" d="M720.59,454.7l-11.684-2.191,4.079-31.394c.274-.876,6.594-20.767,9.464-21.843a48.994,48.994,0,0,1,6.379-1.772l.416-.083-2.343,3.514-9.328,22.351Z" transform="translate(-391.326 -213.984)" fill="#2f2e41"/>
    <path id="Path_2808" data-name="Path 2808" d="M696.945,549.617l-15.1-2.516,8.472-34.6,12.607-47.311.124.84c.01.063,1.188,6.243,18.663,3.5l.154-.024.042.15,21.121,74.629-17.2,2.867-15.69-54.449Z" transform="translate(-373.769 -257.961)" fill="#2f2e41"/>
    <path id="Path_2809" data-name="Path 2809" d="M784.436,458.518l.009-.266c.011-.295,1.049-29.626.7-41.422a65.069,65.069,0,0,1,3.523-22.189l.031-.082.085-.024c4.958-1.416,9.259,2.811,9.3,2.854l.06.06L796.736,409.1l6.045,42.361Z" transform="translate(-440.335 -211.923)" fill="#2f2e41"/>
    <circle id="Ellipse_304" data-name="Ellipse 304" cx="8.624" cy="8.624" r="8.624" transform="translate(334.737 162.199)" fill="#ffb8b8"/>
    <path id="Path_2810" data-name="Path 2810" d="M747.787,341.948a9.316,9.316,0,0,1,9.3-9.305h1.756a9.315,9.315,0,0,1,9.3,9.305v.176h-3.71l-1.265-3.544-.253,3.544h-1.918l-.638-1.788-.128,1.788H747.787Z" transform="translate(-416.555 -171.953)" fill="#2f2e41"/>
    <path id="Path_2811" data-name="Path 2811" d="M779.349,359.79a1.556,1.556,0,0,1-.124-1.653c1.86-3.539,4.465-10.078,1.008-14.11l-.248-.29h10.038v15.071l-9.119,1.609a1.617,1.617,0,0,1-.28.025,1.574,1.574,0,0,1-1.275-.651Z" transform="translate(-436.836 -179.151)" fill="#2f2e41"/>
    <path id="Path_2812" data-name="Path 2812" d="M520.7,191.6a47.41,47.41,0,1,0,2.688,70.017l58.154,49.07a4.369,4.369,0,1,0,5.641-6.673l-.006-.005-58.154-49.07A47.413,47.413,0,0,0,520.7,191.6Zm-3.749,58.614a35.52,35.52,0,1,1-4.24-50.053h0A35.52,35.52,0,0,1,516.955,250.21Z" transform="translate(-218.606 -73.18)" fill="#3f3d56"/>
    <path id="Path_2813" data-name="Path 2813" d="M481.337,303.015a35.522,35.522,0,0,1-6.027-47.75q-1.019,1.026-1.97,2.149a35.52,35.52,0,0,0,54.294,45.813q.949-1.124,1.787-2.3A35.522,35.522,0,0,1,481.337,303.015Z" transform="translate(-233.042 -121.744)" opacity="0.3" style="mix-blend-mode: normal;isolation: isolate"/>
    <path id="Path_2814" data-name="Path 2814" d="M785.17,475.193a3.531,3.531,0,0,0,4.362-3.207l12.091-3.356-4.915-4.285-10.728,3.844a3.55,3.55,0,0,0-.81,7Z" transform="translate(-439.04 -257.41)" fill="#ffb8b8"/>
    <path id="Path_2815" data-name="Path 2815" d="M803.166,433.573l-.736-6.99,10.1-5.572-6.585-7.971,1.074-8.954,2.676-1.147.083.107c1.262,1.622,12.327,15.9,12.327,17.665,0,1.813-2.117,7.136-5.013,8.584-2.794,1.4-13.284,4.112-13.729,4.227Z" transform="translate(-452.011 -217.566)" fill="#2f2e41"/>
    <path id="Path_2816" data-name="Path 2816" d="M705.9,728H572.117a.351.351,0,0,1,0-.7H705.9a.351.351,0,1,1,0,.7Z" transform="translate(-332.341 -428.03)" fill="#ccc"/>
  </g>
</svg>
