<svg xmlns="http://www.w3.org/2000/svg" width="219.782" height="176.452" viewBox="0 0 219.782 176.452">
  <g id="FM-complete" transform="translate(6)">
    <rect id="Rectangle_2818" data-name="Rectangle 2818" width="123.107" height="123.871" rx="20" transform="translate(65.111)" fill="#fff"/>
    <g id="Rectangle_2819" data-name="Rectangle 2819" transform="translate(65.111)" fill="none" stroke="#cacaca" stroke-width="1">
      <rect width="123.107" height="123.871" rx="20" stroke="none"/>
      <rect x="0.5" y="0.5" width="122.107" height="122.871" rx="19.5" fill="none"/>
    </g>
    <path id="Path_438" data-name="Path 438" d="M308.863,649.41a6.346,6.346,0,0,0,6.508-1.239c2.28-2.068,2.994-5.474,3.576-8.629l1.72-9.331-3.6,2.68c-2.59,1.927-5.238,3.917-7.031,6.708s-2.575,6.6-1.135,9.624" transform="translate(-296.045 -488.113)" fill="#6dd179"/>
    <path id="Path_439" data-name="Path 439" d="M310.873,679.851a50.526,50.526,0,0,1-.6-10.792,17.836,17.836,0,0,1,3.028-8.9,14.14,14.14,0,0,1,3.514-3.442c.351-.24.675.362.325.6a13.879,13.879,0,0,0-5.151,6.717,24.264,24.264,0,0,0-1.108,9.717c.117,1.98.365,3.948.614,5.912a.365.365,0,0,1-.225.428.322.322,0,0,1-.4-.243Z" transform="translate(-297.499 -506.607)" fill="#f2f2f2"/>
    <path id="Path_442" data-name="Path 442" d="M324.424,701.21a4.863,4.863,0,0,0,4.323,2.412c2.189-.112,4.013-1.763,5.655-3.33l4.858-4.636-3.215-.166a17.894,17.894,0,0,0-6.886.54,6.858,6.858,0,0,0-4.635,5.089" transform="translate(-307.788 -533.693)" fill="#6dd179"/>
    <path id="Path_442-2" data-name="Path 442" d="M339.26,701.21a4.863,4.863,0,0,1-4.323,2.412c-2.189-.112-4.013-1.763-5.655-3.331l-4.858-4.636,3.215-.166a17.894,17.894,0,0,1,6.886.54,6.858,6.858,0,0,1,4.635,5.089" transform="translate(-330.424 -541.712)" fill="#6dd179"/>
    <path id="Path_443" data-name="Path 443" d="M307.991,715.529c2.182-4.173,4.713-8.811,9.236-10.294a9.575,9.575,0,0,1,3.884-.434c.412.039.309.726-.1.687a9.041,9.041,0,0,0-6.2,1.773,16.973,16.973,0,0,0-4.261,4.97c-.706,1.161-1.338,2.372-1.97,3.581A.327.327,0,1,1,307.991,715.529Z" transform="translate(-295.898 -540.233)" fill="#f2f2f2"/>
    <path id="Path_443-2" data-name="Path 443" d="M321.331,715.53c-2.182-4.173-4.713-8.811-9.236-10.294a9.574,9.574,0,0,0-3.884-.433c-.412.038-.309.726.1.687a9.042,9.042,0,0,1,6.2,1.773,16.971,16.971,0,0,1,4.261,4.97c.706,1.161,1.338,2.372,1.97,3.581A.327.327,0,1,0,321.331,715.53Z" transform="translate(-307.952 -548.253)" fill="#f2f2f2"/>
    <path id="Path_142" data-name="Path 142" d="M704.949,262.185a1.029,1.029,0,0,0,0,2.052h52.09a1.029,1.029,0,0,0,0-2.052Z" transform="translate(-581.712 -230.807)" fill="#e4e4e4"/>
    <path id="Path_143" data-name="Path 143" d="M704.949,282.65a1.029,1.029,0,0,0,0,2.052h26.593a1.029,1.029,0,0,0,0-2.052Z" transform="translate(-581.712 -245.115)" fill="#e4e4e4"/>
    <path id="Path_142-2" data-name="Path 142" d="M541.38,392.7a1.029,1.029,0,0,0,0,2.052h97.668a1.029,1.029,0,0,0,0-2.052Z" transform="translate(-463.671 -322.059)" fill="#e4e4e4"/>
    <path id="Path_143-2" data-name="Path 143" d="M541.38,413.17a1.029,1.029,0,0,0,0,2.052h72.172a1.029,1.029,0,0,0,0-2.052Z" transform="translate(-463.671 -336.368)" fill="#e4e4e4"/>
    <path id="Path_142-3" data-name="Path 142" d="M541.38,433.172a1.029,1.029,0,0,0,0,2.052h97.668a1.029,1.029,0,0,0,0-2.052Z" transform="translate(-463.671 -350.352)" fill="#e4e4e4"/>
    <path id="Path_143-3" data-name="Path 143" d="M541.38,453.637a1.029,1.029,0,0,0,0,2.052h72.172a1.029,1.029,0,0,0,0-2.052Z" transform="translate(-463.671 -364.66)" fill="#e4e4e4"/>
    <path id="Path_142-4" data-name="Path 142" d="M541.38,474.172a1.029,1.029,0,0,0,0,2.052h97.668a1.029,1.029,0,0,0,0-2.052Z" transform="translate(-463.671 -379.017)" fill="#e4e4e4"/>
    <path id="Path_143-4" data-name="Path 143" d="M541.38,494.637a1.029,1.029,0,0,0,0,2.052h72.172a1.029,1.029,0,0,0,0-2.052Z" transform="translate(-463.671 -393.326)" fill="#e4e4e4"/>
    <path id="Path_2862" data-name="Path 2862" d="M564.058,256.311c-7.533,0-13.639-6.6-13.639-14.742s6.106-14.741,13.639-14.741,13.639,6.6,13.639,14.742S571.587,256.3,564.058,256.311Z" transform="translate(-470.879 -206.086)" fill="#6dd179"/>
    <path id="Path_2863" data-name="Path 2863" d="M416.457,486.2a3.781,3.781,0,0,0-1.343-2.759,3.212,3.212,0,0,0-2.819-.659l-4.508-6.867-4.529,1.943,6.492,9.6a3.422,3.422,0,0,0,3.871,2.59A3.653,3.653,0,0,0,416.457,486.2Z" transform="translate(-364.678 -380.235)" fill="#a0616a"/>
    <path id="Path_2864" data-name="Path 2864" d="M383.745,410.34,370.1,391.213l5.111-17.362c.375-4.365,2.9-5.584,3.009-5.634l.164-.076,4.448,12.82-3.266,9.412,8.015,14.571Z" transform="translate(-340.753 -304.886)" fill="#3f3d56"/>
    <path id="Path_2865" data-name="Path 2865" d="M566.448,312.345a3.391,3.391,0,0,0-2.441,1.66,3.941,3.941,0,0,0-.39,3.089l-5.986,5.389,2.143,4.73,8.354-7.739a3.779,3.779,0,0,0,2.09-4.371A3.448,3.448,0,0,0,566.448,312.345Z" transform="translate(-476.083 -265.854)" fill="#ffb8b8"/>
    <path id="Path_2866" data-name="Path 2866" d="M490.213,335.373l-16.589,16.179-16.411-4.165c-4.055-.066-5.375-2.7-5.429-2.807l-.083-.171,11.481-5.784,8.935,2.791,12.821-9.764Z" transform="translate(-399.639 -279.374)" fill="#3f3d56"/>
    <path id="Path_2867" data-name="Path 2867" d="M227.246,525.254H231.7l2.12-18.581h-6.578Z" transform="translate(-165.405 -354.241)" fill="#ffb8b8"/>
    <path id="Path_2868" data-name="Path 2868" d="M0,0H14.008V5.85H3.93A4.1,4.1,0,0,1,0,1.6V0Z" transform="translate(74.892 175.486) rotate(179.997)" fill="#2f2e41"/>
    <path id="Path_2869" data-name="Path 2869" d="M163.246,525.254H167.7l2.12-18.581h-6.578Z" transform="translate(-119.219 -354.241)" fill="#ffb8b8"/>
    <path id="Path_2870" data-name="Path 2870" d="M0,0H14.008V5.85H3.93A4.1,4.1,0,0,1,0,1.6Z" transform="translate(57.078 175.486) rotate(179.997)" fill="#2f2e41"/>
    <path id="Path_2871" data-name="Path 2871" d="M157.552,342.991l.364,27.506.364,36.151,8-.786,4-49.9,5.09,49.9h8.257l.832-50.3-2.908-11Z" transform="translate(-115.111 -239.803)" fill="#2f2e41"/>
    <path id="Path_2872" data-name="Path 2872" d="M414.352,386.307c-8.7,0-16.713-4.257-16.821-4.315l-.09-.049L396.711,363c-.212-.669-4.382-13.878-5.088-18.077-.716-4.254,9.655-7.987,10.915-8.423l.286-3.422,11.622-1.354,1.473,4.378,4.169,1.69a2.271,2.271,0,0,1,1.278,2.619L419.048,350.6l5.66,33.7-1.218.057A20.7,20.7,0,0,1,414.352,386.307Z" transform="translate(-356.257 -279.425)" fill="#3f3d56"/>
    <path id="Path_2876" data-name="Path 2876" d="M8.813,0a8.055,8.055,0,0,1,8.239,8.6,9.433,9.433,0,0,1-8.808,9.173A8.055,8.055,0,0,1,0,9.178,9.433,9.433,0,0,1,8.813,0Z" transform="translate(41.083 37.375) rotate(-28.663)" fill="#ffb8b8"/>
    <path id="Path_2873" data-name="Path 2873" d="M419.529,275.6a2.715,2.715,0,0,0,4.764-1.658,3.276,3.276,0,0,0,0-.585c-.107-1.111-.7-2.12-.559-3.293a1.81,1.81,0,0,1,.292-.808c1.271-1.839,4.254.823,5.453-.842.735-1.021-.129-2.628.435-3.769.745-1.506,2.951-.763,4.334-1.588,1.539-.918,1.447-3.47.434-5.023a7.149,7.149,0,0,0-5.542-3.05,13.906,13.906,0,0,0-6.262,1.321,12.554,12.554,0,0,0-5.917,4.434,11.585,11.585,0,0,0-1.013,9.217C416.464,271.822,418.227,274.1,419.529,275.6Z" transform="translate(-373.474 -225.757)" fill="#2f2e41"/>
    <path id="Path_2874" data-name="Path 2874" d="M419.293,740.564H260c-.231,0-.418-.135-.418-.3s.187-.3.418-.3H419.293c.231,0,.418.135.418.3S419.524,740.564,419.293,740.564Z" transform="translate(-260.993 -564.846)" fill="#cacaca"/>
    <path id="Path_2875" data-name="Path 2875" d="M582.4,268.844a.933.933,0,0,1-.663-.281l-4.5-4.515a1.114,1.114,0,0,1-.051-1.488.924.924,0,0,1,1.377-.055l3.809,3.824,7.536-8.146a.923.923,0,0,1,1.378,0,1.114,1.114,0,0,1,0,1.489l-8.2,8.863A.937.937,0,0,1,582.4,268.844Z" transform="translate(-490.778 -227.028)" fill="#fff"/>
    <path id="Path_3158" data-name="Path 3158" d="M709.034,314.079l1.666.357a9.587,9.587,0,0,1,.259-2.069,6.209,6.209,0,0,0,.938,2.324l9.555,2.041,9.174-9.681c.014-4.841-2.674-8.519-7.494-8.519-.291,0-.592.014-.9.042a10.193,10.193,0,0,0-11.669,8.012C707.151,309.948,708.39,311.926,709.034,314.079Z" transform="translate(-535.757 -257.427)" fill="#2f2e41"/>
    <path id="Path_3159" data-name="Path 3159" d="M428.859,458.354h-3.466l-1.649-13.369h5.115Z" transform="translate(-260.279 -288.484)" fill="#ffb6b6"/>
    <path id="Path_3160" data-name="Path 3160" d="M677.481,684.04h-2.459l-.439-2.322-1.124,2.322h-6.523a1.466,1.466,0,0,1-.833-2.673l5.209-3.6v-2.347l5.479.327Z" transform="translate(-507.351 -507.589)" fill="#2f2e41"/>
    <path id="Path_3161" data-name="Path 3161" d="M537.858,450.574l-3.015,1.71-8.031-10.814,4.449-2.524Z" transform="translate(-328.673 -284.476)" fill="#ffb6b6"/>
    <path id="Path_3162" data-name="Path 3162" d="M808.515,671.451l-2.139,1.214-1.528-1.8.168,2.574-5.673,3.219a1.466,1.466,0,0,1-2.044-1.914l2.755-5.7L798.9,667l4.927-2.419Z" transform="translate(-594.734 -500.395)" fill="#2f2e41"/>
    <path id="Path_3163" data-name="Path 3163" d="M651.485,351.834a3.07,3.07,0,0,1,2.474,4l5.3,4.591-2,3.9-7.4-6.588a3.086,3.086,0,0,1,1.625-5.91Z" transform="translate(-495.717 -292.84)" fill="#ffb6b6"/>
    <path id="Path_3164" data-name="Path 3164" d="M665.115,375.286l-3.547-5.643,3.944-4.033,2.8,3.409,3.47,1.548,4.762,2.9c.947-1.115,8.244-9.5,11.5-7.084a3.278,3.278,0,0,1,1.412,2.349c.23,2.244-1.781,4.527-1.858,4.611l-4.3,5.8c-.134.364-1.557,4.122-3.778,5.132a2.525,2.525,0,0,1-2.03.066c-5.885-2.294-9.85-4.882-11.619-7.561A6.8,6.8,0,0,1,665.115,375.286Z" transform="translate(-504.762 -302.005)" fill="#2f2e41"/>
    <path id="Path_3165" data-name="Path 3165" d="M694.227,429.384s-10.191,16.233-8.345,18.079a9.857,9.857,0,0,0,4.719,2.331l6.358-8.239Z" transform="translate(-520.748 -344.324)" fill="#2f2e41"/>
    <path id="Path_3166" data-name="Path 3166" d="M717.691,363.484l-4.8,3.249a12.39,12.39,0,0,0-4.827,14.134l1.352,4.11Z" transform="translate(-535.201 -300.594)" fill="#2f2e41"/>
    <path id="Path_3167" data-name="Path 3167" d="M449.293,261.036l.642,2.237,2.191,26.971,10.947,20.4-5.225,3.732L442.92,294.972l-5.9-19.27-9.273,42.657-6.966-.5,4.838-59.144,9.181-16.647Z" transform="translate(-258.31 -153.834)" fill="#2f2e41"/>
    <path id="Path_3168" data-name="Path 3168" d="M708.866,365.912l-6.685,5.463a9.1,9.1,0,0,0-3.022,4.654h0a9.106,9.106,0,0,0-.32,2.548l.2,11.863-6.129,16.381s16.617,6.277,18.833.739S708.866,365.912,708.866,365.912Z" transform="translate(-525.56 -302.205)" fill="#ccc"/>
    <path id="Path_3169" data-name="Path 3169" d="M710.482,391.073l-1.108-4.431.271-11.026c.021-.641,3.436-10.612,7.74-21.2l3.7-3.7,2-1.3,4.394,4.055s-.559,11.1-.378,22.465c.05,3.144-.5,6.816-.739,9.6l2.019,8.97V399.5l-.131.027c-.131.026-2.154-.036-10.455-.036C710.914,399.487,715.493,394.61,710.482,391.073Z" transform="translate(-536.485 -291.256)" fill="#2f2e41"/>
    <ellipse id="Ellipse_465" data-name="Ellipse 465" cx="6.689" cy="6.689" rx="6.689" ry="6.689" transform="translate(175.558 43.597)" fill="#ffb6b6"/>
    <path id="Path_3172" data-name="Path 3172" d="M699.753,418.861a3.069,3.069,0,0,1,4.7.142l6.754-1.9,2.153,3.823-9.575,2.543a3.086,3.086,0,0,1-4.036-4.613Z" transform="translate(-529.574 -336.177)" fill="#ffb6b6"/>
    <path id="Path_3173" data-name="Path 3173" d="M728.774,386.453l-6.664-.15-1.191-5.514,4.388-.459,3.2-2.042,5.046-2.375c-.408-1.4-3.382-12.113.426-13.5a3.278,3.278,0,0,1,2.738.117c2,1.045,2.8,3.981,2.824,4.091l2.471,6.787c.23.312,2.581,3.57,2.2,5.981a2.525,2.525,0,0,1-1.063,1.731c-5.157,3.646-9.5,5.529-12.713,5.529A6.8,6.8,0,0,1,728.774,386.453Z" transform="translate(-544.146 -299.721)" fill="#2f2e41"/>
    <path id="Path_3174" data-name="Path 3174" d="M713.349,301.326c.536.7,2.38,1.313,4.571,1.81,0-.046,0-.091,0-.136a9.6,9.6,0,0,1,.259-2.069,6.211,6.211,0,0,0,.938,2.324c.035.053.07.105.109.158,1.88.371,3.867.658,5.425.851-1.071,3.857-5.177,7.021-4.732,9.366l12.03,2.457a9.431,9.431,0,0,1,.231-2.905,6.253,6.253,0,0,0,1.743,3.308l1.022.21.3-1.5c2.639-6.339-1.04-12.828-7.067-16.184a7.326,7.326,0,0,0-4.641-3.115l-1.5-.308a7.361,7.361,0,0,0-8.687,5.737Z" transform="translate(-539.123 -255.44)" fill="#2f2e41"/>
  </g>
</svg>
