<svg xmlns="http://www.w3.org/2000/svg" width="40" height="40" viewBox="0 0 40 40">
  <g id="SETTINGS" transform="translate(-37 -1264)">
    <path id="Icon_material-settings" data-name="Icon material-settings" d="M21.047,13.98a6.709,6.709,0,0,0,0-1.96l2.169-1.65a.5.5,0,0,0,.123-.64L21.283,6.27a.524.524,0,0,0-.627-.22l-2.56,1a7.564,7.564,0,0,0-1.737-.98l-.391-2.65a.5.5,0,0,0-.5-.42H11.352a.5.5,0,0,0-.5.42l-.391,2.65a7.954,7.954,0,0,0-1.737.98l-2.56-1a.508.508,0,0,0-.627.22L3.477,9.73a.484.484,0,0,0,.123.64L5.77,12.02A7.718,7.718,0,0,0,5.7,13a7.718,7.718,0,0,0,.072.98L3.6,15.63a.5.5,0,0,0-.123.64l2.056,3.46a.524.524,0,0,0,.627.22l2.56-1a7.564,7.564,0,0,0,1.737.98l.391,2.65a.5.5,0,0,0,.5.42h4.112a.5.5,0,0,0,.5-.42l.391-2.65a7.955,7.955,0,0,0,1.737-.98l2.56,1a.508.508,0,0,0,.627-.22l2.056-3.46a.5.5,0,0,0-.123-.64l-2.169-1.65ZM13.408,16.5a3.5,3.5,0,1,1,3.6-3.5A3.554,3.554,0,0,1,13.408,16.5Z" transform="translate(44.003 1271.5)" fill="#6dd179"/>
    <g id="Path_3051" data-name="Path 3051" transform="translate(37 1264)" fill="none">
      <path d="M10,0H30A10,10,0,0,1,40,10V30A10,10,0,0,1,30,40H10A10,10,0,0,1,0,30V10A10,10,0,0,1,10,0Z" stroke="none"/>
      <path d="M 10 1 C 5.037380218505859 1 1 5.037380218505859 1 10 L 1 30 C 1 34.96261978149414 5.037380218505859 39 10 39 L 30 39 C 34.96261978149414 39 39 34.96261978149414 39 30 L 39 10 C 39 5.037380218505859 34.96261978149414 1 30 1 L 10 1 M 10 0 L 30 0 C 35.52285003662109 0 40 4.477149963378906 40 10 L 40 30 C 40 35.52285003662109 35.52285003662109 40 30 40 L 10 40 C 4.477149963378906 40 0 35.52285003662109 0 30 L 0 10 C 0 4.477149963378906 4.477149963378906 0 10 0 Z" stroke="none" fill="#6dd179"/>
    </g>
  </g>
</svg>
