<svg xmlns="http://www.w3.org/2000/svg" width="100.838" height="72.241" viewBox="0 0 100.838 72.241">
  <g id="M-sleeping" transform="translate(-50.834)">
    <ellipse id="Ellipse_495" data-name="Ellipse 495" cx="3.396" cy="0.566" rx="3.396" ry="0.566" transform="translate(138.897 70.968)" fill="#f2f2f2"/>
    <rect id="Rectangle_2457" data-name="Rectangle 2457" width="0.283" height="5.943" transform="translate(145.972 17.477)" fill="#fff"/>
    <rect id="Rectangle_2458" data-name="Rectangle 2458" width="1.698" height="58.585" transform="translate(141.444 13.656)" fill="#fff"/>
    <path id="Path_3472" data-name="Path 3472" d="M935.093,213H919.545a1.2,1.2,0,0,1-1.194-1.352l1.981-15.849a1.2,1.2,0,0,1,1.194-1.054h11.586a1.2,1.2,0,0,1,1.194,1.054l1.981,15.849A1.2,1.2,0,0,1,935.093,213Z" transform="translate(-785.026 -194.75)" fill="#a5ddad"/>
    <circle id="Ellipse_496" data-name="Ellipse 496" cx="0.991" cy="0.991" r="0.991" transform="translate(145.123 22.429)" fill="#abdeb3"/>
    <circle id="Ellipse_497" data-name="Ellipse 497" cx="0.98" cy="0.98" r="0.98" transform="translate(60.558 70.059)" fill="#ccc"/>
    <circle id="Ellipse_498" data-name="Ellipse 498" cx="0.98" cy="0.98" r="0.98" transform="translate(122.492 70.059)" fill="#ccc"/>
    <rect id="Rectangle_2459" data-name="Rectangle 2459" width="67.654" height="14.135" transform="translate(59.087 56.822)" fill="rgba(65,69,17,0.3)"/>
    <path id="Path_3479" data-name="Path 3479" d="M345.936,588.7h-2.941a2.9,2.9,0,0,1-2.7-3.061V570.883h5.638Z" transform="translate(-284.397 -517.657)" fill="rgba(65,69,17,0.3)"/>
    <path id="Path_3480" data-name="Path 3480" d="M820.743,574.816H817.8v-20.1h5.638v16.645C823.44,573.267,822.23,574.816,820.743,574.816Z" transform="translate(-694.329 -503.777)" fill="rgba(65,69,17,0.3)"/>
    <path id="Path_3481" data-name="Path 3481" d="M400.892,572.252H380.138V567.84q10.377-5.952,20.754,0Z" transform="translate(-318.599 -512.489)" fill="#ccc"/>
    <path id="Path_3482" data-name="Path 3482" d="M546.972,572.83H526.218v-4.412q10.377-5.952,20.754,0Z" transform="translate(-444.008 -512.985)" fill="#ccc"/>
    <path id="Path_3483" data-name="Path 3483" d="M693.053,573.407H672.3v-4.412q10.377-5.952,20.754,0Z" transform="translate(-569.416 -513.48)" fill="#ccc"/>
    <circle id="Ellipse_499" data-name="Ellipse 499" cx="4.821" cy="4.821" r="4.821" transform="translate(52.714 47.344)" fill="#ccc"/>
    <circle id="Ellipse_500" data-name="Ellipse 500" cx="4.821" cy="4.821" r="4.821" transform="translate(123.309 47.181)" fill="#ccc"/>
    <path id="Path_3484" data-name="Path 3484" d="M2.954,1.263a1.489,1.489,0,0,1,.015.234L8.748,5.48l.343,3.009A1.132,1.132,0,0,1,7.74,8.347L1.888,2.915A1.485,1.485,0,1,1,2.954,1.263Z" transform="translate(93.938 49.885) rotate(-16)" fill="#ffb8b8"/>
    <path id="Path_3488" data-name="Path 3488" d="M.558,3.538,0,1.9,6.133,0l.761,1.384Z" transform="translate(68.432 50.026) rotate(20)" fill="#ffb8b8"/>
    <path id="Path_3489" data-name="Path 3489" d="M1.8,5.436,0,.139.067.116A2.177,2.177,0,0,1,2.829,1.477h0l1.1,3.235Z" transform="translate(66.223 48.224) rotate(20)" fill="#ffb8b8"/>
    <path id="Path_3490" data-name="Path 3490" d="M624.231,543.384a7.409,7.409,0,0,1-3.763-.788l-7.123-2.013-8.349.244a.923.923,0,0,1-1.148-.517l-.409-.982a.915.915,0,0,1,.473-1.192l8.516-1.022a8.061,8.061,0,0,1,4.038,0h9.507l2.922,3.47-.032.045A6.131,6.131,0,0,1,624.231,543.384Z" transform="translate(-532.161 -486.613)" fill="#2f2e41"/>
    <path id="Path_3492" data-name="Path 3492" d="M.558,3.735,0,2.093,6.894,0V1.582Z" transform="translate(68.835 51.511) rotate(20)" fill="#ffb8b8"/>
    <path id="Path_3493" data-name="Path 3493" d="M1.8,5.436,0,.139.067.116A2.177,2.177,0,0,1,2.829,1.477h0l1.1,3.235Z" transform="translate(66.559 49.457) rotate(20)" fill="#ffb8b8"/>
    <path id="Path_3494" data-name="Path 3494" d="M626.671,553.049l-7.1-.574-8.3-1.029a.923.923,0,0,1-1.148-.517l-.409-.983a.915.915,0,0,1,.472-1.192h8.046a11.137,11.137,0,0,1,4.756,0l9.258-1.022,2.922,3.47-.033.045C633.695,553.226,627.941,553.065,626.671,553.049Z" transform="translate(-537.542 -495.777)" fill="#2f2e41"/>
    <path id="Path_3501" data-name="Path 3501" d="M247.726,703.533H147.111a.146.146,0,0,1,0-.283H247.726a.146.146,0,0,1,0,.283Z" transform="translate(-96.166 -631.292)" fill="#3f3d56"/>
    <path id="Path_3508" data-name="Path 3508" d="M.558,4.578,0,2.935,6.07,0l.824,2.424Z" transform="translate(104.681 49.607) rotate(25)" fill="#ffb8b8"/>
    <path id="Path_3491" data-name="Path 3491" d="M5.3,12.368,0,8.866S1.024,8.231,2.875,5.3A16.4,16.4,0,0,1,7.37.658,2.685,2.685,0,0,1,11.7,3.476c-.552,1.794-4.972,7.781-6.353,8.86Z" transform="matrix(0.545, 0.839, -0.839, 0.545, 101.146, 45.491)" fill="#6dd179"/>
    <path id="Path_3495" data-name="Path 3495" d="M2.718.656a1.488,1.488,0,0,1,.114.205L9.759,1.986c1.319,2.99.8,3.174.317,3.022l-7.614-2.4A1.485,1.485,0,1,1,2.718.656Z" transform="translate(88.713 54.217) rotate(-11)" fill="#ffb8b8"/>
    <path id="Path_3496" data-name="Path 3496" d="M.008,3.805a.636.636,0,0,1,.141-.511L2.2.847A1.769,1.769,0,0,1,5.223,2.691L3.962,5.639a.637.637,0,0,1-.919.292L.3,4.246A.636.636,0,0,1,.008,3.805Z" transform="matrix(0.545, 0.839, -0.839, 0.545, 103.848, 51.022)" fill="#6dd179"/>
    <ellipse id="Ellipse_578" data-name="Ellipse 578" cx="3.41" cy="3.41" rx="3.41" ry="3.41" transform="translate(108.284 55.732) rotate(-93)" fill="#ffb8b8"/>
    <path id="Path_3796" data-name="Path 3796" d="M1.629.349a1.1,1.1,0,0,1,1.9.612,1.117,1.117,0,0,1,0,.216A5,5,0,0,0,3.3,2.393a.637.637,0,0,0,.117.3c.507.679,1.7-.3,2.175.311.293.377-.051.97.174,1.391.3.556,1.177.282,1.729.586.614.339.577,1.281.173,1.854A2.916,2.916,0,0,1,5.462,7.958a5.929,5.929,0,0,1-2.5-.488A4.992,4.992,0,0,1,.6,5.834a4,4,0,0,1-.4-3.4A6.413,6.413,0,0,1,1.629.349Z" transform="translate(108.733 56.175) rotate(-93)" fill="#2f2e41"/>
    <text id="Z" transform="translate(115.836 42)" fill="#6dd179" font-size="6" font-family="Montserrat-Bold, Montserrat" font-weight="700"><tspan x="0" y="0">Z</tspan></text>
    <text id="Z-2" data-name="Z" transform="translate(119.836 38)" fill="#6dd179" font-size="6" font-family="Montserrat-Bold, Montserrat" font-weight="700"><tspan x="0" y="0">Z</tspan></text>
  </g>
</svg>
