<svg xmlns="http://www.w3.org/2000/svg" width="25" height="21.875" viewBox="0 0 25 21.875">
  <path id="Icon_awesome-sliders-h" data-name="Icon awesome-sliders-h" d="M24.219,19.438H7.812v-.781a.784.784,0,0,0-.781-.781H5.469a.784.784,0,0,0-.781.781v.781H.781A.784.784,0,0,0,0,20.219v1.563a.784.784,0,0,0,.781.781H4.688v.781a.784.784,0,0,0,.781.781H7.031a.784.784,0,0,0,.781-.781v-.781H24.219A.784.784,0,0,0,25,21.781V20.219A.784.784,0,0,0,24.219,19.438Zm0-7.812H20.313v-.781a.784.784,0,0,0-.781-.781H17.969a.784.784,0,0,0-.781.781v.781H.781A.784.784,0,0,0,0,12.406v1.562a.784.784,0,0,0,.781.781H17.188v.781a.784.784,0,0,0,.781.781h1.563a.784.784,0,0,0,.781-.781V14.75h3.906A.784.784,0,0,0,25,13.969V12.406A.784.784,0,0,0,24.219,11.625Zm0-7.812H14.062V3.031a.784.784,0,0,0-.781-.781H11.719a.784.784,0,0,0-.781.781v.781H.781A.784.784,0,0,0,0,4.594V6.156a.784.784,0,0,0,.781.781H10.938v.781a.784.784,0,0,0,.781.781h1.562a.784.784,0,0,0,.781-.781V6.938H24.219A.784.784,0,0,0,25,6.156V4.594A.784.784,0,0,0,24.219,3.813Z" transform="translate(0 -2.25)" opacity="0.5"/>
</svg>
