<svg xmlns="http://www.w3.org/2000/svg" width="20" height="20" viewBox="0 0 20 20">
  <g id="Stats" transform="translate(-5.625 -13.033)">
    <path id="Path_3042" data-name="Path 3042" d="M12.75,24.5H15a.4.4,0,0,0,.375-.417V4.917A.4.4,0,0,0,15,4.5H12.75a.4.4,0,0,0-.375.417V24.083A.4.4,0,0,0,12.75,24.5Z" transform="translate(-1.083 8.533)" fill="#6dd179"/>
    <path id="Path_3043" data-name="Path 3043" d="M6,28.125H8.25a.386.386,0,0,0,.375-.394V20.644a.386.386,0,0,0-.375-.394H6a.386.386,0,0,0-.375.394v7.088A.386.386,0,0,0,6,28.125Z" transform="translate(0 4.908)" fill="#6dd179"/>
    <path id="Path_3044" data-name="Path 3044" d="M19.5,27h2.241a.392.392,0,0,0,.38-.407V16.157a.392.392,0,0,0-.38-.407H19.5a.392.392,0,0,0-.38.407V26.593A.392.392,0,0,0,19.5,27Z" transform="translate(-2.167 6.033)" fill="#6dd179"/>
    <path id="Path_3045" data-name="Path 3045" d="M25.875,9.465V26.919a.427.427,0,0,0,.38.465H28.5a.427.427,0,0,0,.38-.465V9.465A.427.427,0,0,0,28.5,9H26.255A.427.427,0,0,0,25.875,9.465Z" transform="translate(-3.25 5.648)" fill="#6dd179"/>
  </g>
</svg>
