<svg xmlns="http://www.w3.org/2000/svg" width="20" height="20" viewBox="0 0 20 20">
  <path id="step-count" d="M12.612,3.856c-2.351,0-4.257,2.239-4.257,5a32.007,32.007,0,0,0,1.064,5.682c.416,1.971,1.429,3.6,3.193,3.6a2.778,2.778,0,0,0,2.945-3.08c0-.678-.782-1.758-.816-2.679-.063-1.662.763-2.325.763-3.862,0-2.761-.541-4.665-2.891-4.665ZM24.1,9.57c-2.351,0-2.891,1.9-2.891,4.665,0,1.536,1.626,2.2,1.563,3.862-.035.921-.816,2-.816,2.679,0,1.991.382,3.08,2.145,3.08s2.776-1.633,3.193-3.6a32.007,32.007,0,0,0,1.064-5.682c0-2.761-1.906-5-4.257-5Z" transform="translate(-8.355 -3.856)" fill="#6dd179"/>
</svg>
