<svg xmlns="http://www.w3.org/2000/svg" width="40" height="40" viewBox="0 0 40 40">
  <g id="NUTRITIONIST" transform="translate(-37 -702)">
    <g id="Path_3049" data-name="Path 3049" transform="translate(37 702)" fill="none">
      <path d="M10,0H30A10,10,0,0,1,40,10V30A10,10,0,0,1,30,40H10A10,10,0,0,1,0,30V10A10,10,0,0,1,10,0Z" stroke="none"/>
      <path d="M 10 1 C 5.037380218505859 1 1 5.037380218505859 1 10 L 1 30 C 1 34.96261978149414 5.037380218505859 39 10 39 L 30 39 C 34.96261978149414 39 39 34.96261978149414 39 30 L 39 10 C 39 5.037380218505859 34.96261978149414 1 30 1 L 10 1 M 10 0 L 30 0 C 35.52285003662109 0 40 4.477149963378906 40 10 L 40 30 C 40 35.52285003662109 35.52285003662109 40 30 40 L 10 40 C 4.477149963378906 40 0 35.52285003662109 0 30 L 0 10 C 0 4.477149963378906 4.477149963378906 0 10 0 Z" stroke="none" fill="#6dd179"/>
    </g>
    <g id="subscribe" transform="translate(-244.8 -50)">
      <path id="Icon_awesome-hand-point-up" data-name="Icon awesome-hand-point-up" d="M3.179,0A1.057,1.057,0,0,1,4.207,1.05V3.39a1.153,1.153,0,0,1,1.663.148,1.074,1.074,0,0,1,1.461.386C8.482,3.713,9,4.438,9,5.625,9,5.689,9,5.936,9,6c0,1.452-.728,1.8-.9,2.9a.562.562,0,0,1-.556.475H3.522a1.125,1.125,0,0,1-1.028-.667c-.3-.677-1.149-2.236-1.812-2.52A1,1,0,0,1,0,5.25,1.126,1.126,0,0,1,1.568,4.216a3.185,3.185,0,0,1,.584.332V1.05A1.074,1.074,0,0,1,3.179,0Zm.008,9.75h4.5a.562.562,0,0,1,.563.563v1.125A.562.562,0,0,1,7.687,12h-4.5a.562.562,0,0,1-.563-.562V10.313A.562.562,0,0,1,3.187,9.75Zm3.937.656a.469.469,0,1,0,.469.469A.469.469,0,0,0,7.125,10.406Z" transform="translate(300 768.467)" fill="#6dd179"/>
      <g id="Icon_feather-credit-card" data-name="Icon feather-credit-card" transform="translate(291.8 763)">
        <path id="Path_4524" data-name="Path 4524" d="M3.318,6H19.682A1.751,1.751,0,0,1,21.5,7.676V17.729A1.751,1.751,0,0,1,19.682,19.4H3.318A1.751,1.751,0,0,1,1.5,17.729V7.676A1.751,1.751,0,0,1,3.318,6Z" transform="translate(-1.5 -6)" fill="none" stroke="#6dd179" stroke-linecap="round" stroke-linejoin="round" stroke-width="1.5"/>
        <path id="Path_4525" data-name="Path 4525" d="M1.5,15h20" transform="translate(-1.5 -9.973)" fill="none" stroke="#6dd179" stroke-linecap="round" stroke-linejoin="round" stroke-width="1.5"/>
      </g>
    </g>
  </g>
</svg>
