<svg xmlns="http://www.w3.org/2000/svg" width="220" height="229.459" viewBox="0 0 220 229.459">
  <g id="Group_2213" data-name="Group 2213" opacity="0.5">
    <path id="Path_2473" data-name="Path 2473" d="M-104.5,229.459c-39.39-.279-78.712-24.465-104.407-43.689-25.695-19.155-37.695-57.256-54.712-91.387S-302.534,30.161-324.5,0h220Z" transform="translate(324.5)" fill="#d2e7d7"/>
    <path id="Path_2474" data-name="Path 2474" d="M-57.36,178.767c-28.437-.273-56.874-.454-75.465-17.177-18.517-16.632-27.262-49.8-39.533-79.523C-184.63,52.44-200.428,26.174-216.3,0H-57.36Z" transform="translate(277.36)" fill="#abdfb5"/>
    <path id="Path_2475" data-name="Path 2475" d="M-28.73,122.53c-14.249-.125-28.424-.249-37.678-11.717C-75.736,99.345-80.07,76.659-86.166,56.341-92.335,35.9-100.268,17.949-108.2,0h79.47Z" transform="translate(248.73)" fill="#86d690"/>
  </g>
</svg>
