<svg id="Activity_-illustration" data-name="Activity -illustration" xmlns="http://www.w3.org/2000/svg" width="100" height="70.364" viewBox="0 0 100 70.364">
  <path id="Path_2218" data-name="Path 2218" d="M214.222,208.514c-2.879-6.161-8.514-11.417-15.321-12.273a10.471,10.471,0,0,0-5.349.566c-2.192.921-3.807,2.78-5.44,4.495a65.429,65.429,0,0,1-11.529,9.607,17.02,17.02,0,0,1-6.763,2.974c-4.939.7-9.824-2.634-12.076-7.037-1.407-2.75-2.057-5.98-3.195-8.84-1.31,0-2.871,0-4.55.006-4.641.021-8.419.089-8.419.089s4.49-5.883,8.4-3.7c1.25.7,2.559,1.318,3.762,1.842a10.433,10.433,0,0,0-2.732-3.412c-2.339-1.855-5.507-2.376-8.5-2.237a16.6,16.6,0,0,0-8.874,2.8c-4.552,3.24-6.432,8.943-8.041,14.257l3.889,1.928c1.668-1.426,4.107-2.838,6.356-1.585a53.73,53.73,0,0,0,8.4,3.627s-3.747-.034-8.388-.012c-.779,0-1.534.008-2.251.014l43.177,21.41c14.241.2,24.979-.563,38.511,0,.706.029,2.293-3.63,2.3-4.593C217.631,221.644,217.1,214.675,214.222,208.514Zm-13.828,1.847c-4.641.021-8.419.089-8.419.089s4.49-5.883,8.4-3.7a53.731,53.731,0,0,0,8.4,3.627S205.035,210.339,200.394,210.36Z" transform="translate(-119.09 -187.072)" fill="rgba(109,209,121,0.1)"/>
  <path id="Path_2219" data-name="Path 2219" d="M836.161,554.92c0-2.32-1.436-4.2-3.208-4.2a3.1,3.1,0,0,0-2.67,1.871,1.922,1.922,0,0,0-.613-.1,2.089,2.089,0,0,0-1.437.606,3.267,3.267,0,0,0-2.891-2.377,3.179,3.179,0,0,0-2.782,2.109,1.994,1.994,0,0,0-1.1-.338c-1.36,0-2.462,1.443-2.462,3.224a3.961,3.961,0,0,0,.388,1.736h16.126A5.078,5.078,0,0,0,836.161,554.92Z" transform="translate(-742.708 -510.331)" fill="#6dd179"/>
  <path id="Path_2338" data-name="Path 2338" d="M836.161,554.92c0-2.32-1.436-4.2-3.208-4.2a3.1,3.1,0,0,0-2.67,1.871,1.922,1.922,0,0,0-.613-.1,2.089,2.089,0,0,0-1.437.606,3.267,3.267,0,0,0-2.891-2.377,3.179,3.179,0,0,0-2.782,2.109,1.994,1.994,0,0,0-1.1-.338c-1.36,0-2.462,1.443-2.462,3.224a3.961,3.961,0,0,0,.388,1.736h16.126A5.078,5.078,0,0,0,836.161,554.92Z" transform="translate(-742.708 -487.331)" fill="#6dd179"/>
  <path id="Path_2220" data-name="Path 2220" d="M165.809,587.435H82v-.2h83.725Z" transform="translate(-73.866 -527.445)" fill="#2f2e41"/>
  <path id="Path_2221" data-name="Path 2221" d="M100,463.435H0v-.2H99.9Z" transform="translate(0 -416.071)" fill="#2f2e41"/>
  <path id="Path_2339" data-name="Path 2339" d="M100,463.435H0v-.2H99.9Z" transform="translate(0 -393.071)" fill="#2f2e41"/>
  <path id="Path_2222" data-name="Path 2222" d="M483.63,404.313s.624-4.572,1.663-3.325,0,3.118,0,3.118l-.831,1.039-.831-.624Z" transform="translate(-441.172 -375.732)" fill="#ffb8b8"/>
  <path id="Path_2223" data-name="Path 2223" d="M452.826,433.689s2.078-2.286,2.494-1.871,1.663.624,1.455,1.455-4.572,3.533-4.572,3.533Z" transform="translate(-412.884 -403.556)" fill="#454d66"/>
  <path id="Path_2224" data-name="Path 2224" d="M452.826,433.689s2.078-2.286,2.494-1.871,1.663.624,1.455,1.455-4.572,3.533-4.572,3.533Z" transform="translate(-412.884 -403.556)" fill="#0e4d32" opacity="0.1"/>
  <path id="Path_2225" data-name="Path 2225" d="M338.946,449.038V450.7s-.208,3.741,1.039,3.533.624-3.325.624-3.325l-.208-1.871Z" transform="translate(-310.978 -419.061)" fill="#ffb8b8"/>
  <path id="Path_2226" data-name="Path 2226" d="M256.645,570.557s-1.871,2.91-2.494,3.118-3.949,2.078-4.365,3.949l-2.91,3.741,1.455,1.871s6.651-7.066,8.521-7.69,3.741-3.741,3.741-3.741Z" transform="translate(-228.121 -527.829)" fill="#ffb8b8"/>
  <path id="Path_2227" data-name="Path 2227" d="M431.824,522.369s3.949.624,3.325,3.118-6.651,7.69-6.651,7.69l-.208,1.247-2.286.416-1.039-1.039.208-.623s2.494-2.286,2.7-3.118,2.494-4.157,3.533-4.365l-1.455-.831Z" transform="translate(-388.353 -484.741)" fill="#ffb8b8"/>
  <path id="Path_2228" data-name="Path 2228" d="M230.514,669.857s.831-1.247-.416-1.039-2.078.416-2.078,1.247,1.039,6.651,2.286,6.235.208-2.286.208-2.286.624-1.663,1.039-1.871.416-1.247,0-1.247S230.306,670.273,230.514,669.857Z" transform="translate(-211.178 -616.321)" fill="#2f2e41"/>
  <path id="Path_2229" data-name="Path 2229" d="M415.812,629.218s0-1.039-.831,0-1.247,1.871-.416,2.494a41.812,41.812,0,0,0,3.741,2.078s3.118.624,2.7-.831c0,0-2.078-1.039-2.078-1.87s0-2.286-.624-1.871S415.812,629.842,415.812,629.218Z" transform="translate(-378.603 -580.255)" fill="#2f2e41"/>
  <path id="Path_2230" data-name="Path 2230" d="M340.716,476.275s-2.91.416-2.7,4.572c0,0-3.741,3.741-2.7,4.988s3.325,3.533,4.157,2.91,3.325-5.4,3.325-5.4,5.819,2.078,6.859,1.039a14.237,14.237,0,0,0,2.078-3.533l-5.2-2.7Z" transform="translate(-307.506 -443.371)" fill="#2f2e41"/>
  <circle id="Ellipse_178" data-name="Ellipse 178" cx="2.494" cy="2.494" r="2.494" transform="translate(38.9 15.434)" fill="#ffb8b8"/>
  <path id="Path_2231" data-name="Path 2231" d="M436.985,333.8a15.472,15.472,0,0,1-1.871,2.494c-.416.208,2.91,2.286,2.91,2.286s0-2.7,1.039-3.325Z" transform="translate(-397.48 -315.593)" fill="#ffb8b8"/>
  <path id="Path_2232" data-name="Path 2232" d="M391.317,353.939s-3.325-1.039-3.949.624-2.078,4.78-1.871,6.859.624,1.663,0,2.286-1.039.208-.831,1.039.416.831.208,1.247,2.494,1.871,4.78,2.078l2.286.208s0-3.741.416-4.572a12.157,12.157,0,0,0,1.247-3.118v-1.65a6.31,6.31,0,0,0-.831-3.131h0A11.423,11.423,0,0,0,391.317,353.939Z" transform="translate(-352.053 -333.257)" fill="#0e4d32"/>
  <path id="Path_2233" data-name="Path 2233" d="M341.79,365.232s-7.69.624-8.521,2.7-1.247,6.235-.416,6.235,1.871.416,2.078,0,1.039-4.572,1.247-4.572,6.443-.624,6.443-.624S345.324,365.647,341.79,365.232Z" transform="translate(-305.071 -343.761)" fill="#0e4d32"/>
  <path id="Path_2234" data-name="Path 2234" d="M447.9,305.332s.662-1.15,1.489-.151,2.173-.837,1.967-1.229-.936.018-2.187-.391-3.659-1.241-4.062,1.475.557,2.431.557,2.431.44-2.407.838-1.715l.4.691.345.085Z" transform="translate(-406.405 -288.037)" fill="#2f2e41"/>
  <circle id="Ellipse_179" data-name="Ellipse 179" cx="3.043" cy="3.043" r="3.043" transform="translate(62.229 4.428)" fill="#2f2e41"/>
  <path id="Path_2235" data-name="Path 2235" d="M699.8,246.129s.158,2.834-.157,2.834,1.968,1.338,1.968,1.338l1.417-.787v-.945s-1.89-.236-1.1-2.283S699.8,246.129,699.8,246.129Z" transform="translate(-635.503 -236.149)" fill="#ffb8b8"/>
  <path id="Path_2236" data-name="Path 2236" d="M572.69,411.517l-.236,2.362.787.236.63-.63.236-1.968Z" transform="translate(-515.084 -369.571)" fill="#ffb8b8"/>
  <path id="Path_2237" data-name="Path 2237" d="M689.124,419.29l.394,1.5,1.1.709,1.181-.63-1.338-2.2Z" transform="translate(-620.054 -375.981)" fill="#ffb8b8"/>
  <circle id="Ellipse_180" data-name="Ellipse 180" cx="2.283" cy="2.283" r="2.283" transform="translate(62.758 6.377)" fill="#ffb8b8"/>
  <path id="Path_2238" data-name="Path 2238" d="M680.81,285.136l-.551-.236a2.233,2.233,0,0,1-1.023-1.653,5.349,5.349,0,0,1,.787-2.519l1.26-.394,1.48,1.2.016,1.945Z" transform="translate(-617.16 -267.578)" fill="#ffb8b8"/>
  <path id="Path_2239" data-name="Path 2239" d="M645.025,284.455l-.315-.157a1.728,1.728,0,0,0-1.732,1.811c-.157,1.89-.709,5.039-.709,5.039a9.826,9.826,0,0,0-1.181,4.566l-.63,2.047s-.866,2.992.157,2.992.945-3.228.945-3.228,1.89-4.566,2.047-5.354,1.5-4.488,1.1-5.511A2.894,2.894,0,0,1,645.025,284.455Z" transform="translate(-581.958 -271.035)" fill="#ffb8b8"/>
  <path id="Path_2240" data-name="Path 2240" d="M700.074,335.89v.866s.551.63.315,1.023a6.871,6.871,0,0,0-.472,1.181l1.1,1.732,3.7.315.736-4.93Z" transform="translate(-635.758 -317.462)" fill="#ffb8b8"/>
  <path id="Path_2241" data-name="Path 2241" d="M736.425,175.731l.63-.315a7.086,7.086,0,0,1,2.441-1.1l3.385-2.283,2.2-5.275s-.079-2.834.551-2.519.551,2.756.551,2.756-1.181,4.881-2.2,6.22-4.724,3.543-4.724,3.543-1.023,1.181-.945,1.732S736.425,175.731,736.425,175.731Z" transform="translate(-668.573 -163.331)" fill="#ffb8b8"/>
  <path id="Path_2242" data-name="Path 2242" d="M638.675,365.392a.982.982,0,0,0-1.417.394c-.551.945-1.575,1.181-2.2,4.015s-2.126,7.322-2.519,7.637-2.047,3.622-1.1,8.267h1.575l1.338-6.692s4.33-5.354,4.645-7.558l1.417,8.267s.079,3.149,1.26,4.645l1.26,2.992,1.653-.787-1.89-7.558s.945-7.637.315-9.763l-.09-2.787A7.876,7.876,0,0,1,638.675,365.392Z" transform="translate(-573.825 -343.529)" fill="#2f2e41"/>
  <path id="Path_2243" data-name="Path 2243" d="M622.689,583.194h-.945c-.158,0-1.417,1.023-.866,1.575s1.417,1.575,1.417,1.575,3.07.391,3.149-.161-1.338-1.729-1.338-1.729l-.394-1.26S622.925,582.328,622.689,583.194Z" transform="translate(-564.525 -539.214)" fill="#2f2e41"/>
  <path id="Path_2244" data-name="Path 2244" d="M748.887,590.4a15.042,15.042,0,0,1-1.575-.157c-.236-.079-.709,2.047,0,2.2s3.622.394,3.622.394,2.283-.079,2.126-.709-3.228-1.89-3.228-1.89S749.438,589.459,748.887,590.4Z" transform="translate(-678.062 -545.632)" fill="#2f2e41"/>
  <path id="Path_2245" data-name="Path 2245" d="M691.016,275.25l-.394-.236-.472.394s1.417.945,1.1,1.811A16.859,16.859,0,0,1,689.6,279.9s1.181,1.338,1.181,1.811c0,0,3.071-1.1,5.354,0,0,0,0-1.575.315-1.89a1.975,1.975,0,0,0-.315-2.362,17.268,17.268,0,0,1-1.5-2.2l-.787-.472-.406.129s.8.895.012.974A3.453,3.453,0,0,1,691.016,275.25Z" transform="translate(-626.464 -262.575)" fill="#0e4d32"/>
  <path id="Path_2246" data-name="Path 2246" d="M721.188,178.347a1.664,1.664,0,0,1-1.032.54c-.688.1-.147,1.179-.147,1.179a.621.621,0,0,1,.2-.737C720.6,178.986,721.188,178.789,721.188,178.347Z" transform="translate(-653.685 -176.064)" fill="#2f2e41"/>
  <circle id="Ellipse_181" data-name="Ellipse 181" cx="0.848" cy="0.848" r="0.848" transform="translate(65.323 3.381)" fill="#2f2e41"/>
  <path id="Path_2247" data-name="Path 2247" d="M708.72,195.741a6,6,0,0,0-2.381-.592l.151-.579a4.652,4.652,0,0,0,2.381.592Z" transform="translate(-641.558 -190.677)" fill="#454d66"/>
  <path id="Path_2248" data-name="Path 2248" d="M679.054,206.89a4.994,4.994,0,0,1-3.1,1.622c-2.065.295-.442,3.539-.442,3.539a1.865,1.865,0,0,1,.59-2.212C677.284,208.807,679.054,208.217,679.054,206.89Z" transform="translate(-613.267 -201.775)" fill="#2f2e41"/>
  <path id="Path_2249" data-name="Path 2249" d="M716.971,206.1s.59,2.065,1.475,2.36.443,3.392-1.032,3.687c0,0,1.253-1.7.516-3.023S716.75,206.76,716.971,206.1Z" transform="translate(-651.078 -201.06)" fill="#2f2e41"/>
  <rect id="Rectangle_2038" data-name="Rectangle 2038" width="5.432" height="0.63" transform="translate(74.462 1.575)" fill="#2f2e41"/>
  <ellipse id="Ellipse_182" data-name="Ellipse 182" cx="0.472" cy="1.89" rx="0.472" ry="1.89" transform="translate(79.436 0)" fill="#2f2e41"/>
  <ellipse id="Ellipse_183" data-name="Ellipse 183" cx="0.472" cy="1.89" rx="0.472" ry="1.89" transform="translate(73.948 0)" fill="#2f2e41"/>
  <rect id="Rectangle_2039" data-name="Rectangle 2039" width="5.432" height="0.63" transform="translate(77.247 45.102)" fill="#2f2e41"/>
  <ellipse id="Ellipse_184" data-name="Ellipse 184" cx="0.472" cy="1.89" rx="0.472" ry="1.89" transform="translate(82.39 43.55)" fill="#2f2e41"/>
  <ellipse id="Ellipse_185" data-name="Ellipse 185" cx="0.472" cy="1.89" rx="0.472" ry="1.89" transform="translate(76.732 43.55)" fill="#2f2e41"/>
  <path id="Path_2250" data-name="Path 2250" d="M98.161,554.92c0-2.32-1.436-4.2-3.208-4.2a3.1,3.1,0,0,0-2.67,1.871,1.922,1.922,0,0,0-.613-.1,2.089,2.089,0,0,0-1.437.606,3.267,3.267,0,0,0-2.891-2.377,3.179,3.179,0,0,0-2.782,2.109,1.994,1.994,0,0,0-1.1-.338c-1.36,0-2.462,1.443-2.462,3.224a3.961,3.961,0,0,0,.388,1.736H97.514A5.079,5.079,0,0,0,98.161,554.92Z" transform="translate(-78.916 -510.331)" fill="#6dd179"/>
  <path id="Path_2337" data-name="Path 2337" d="M98.161,554.92c0-2.32-1.436-4.2-3.208-4.2a3.1,3.1,0,0,0-2.67,1.871,1.922,1.922,0,0,0-.613-.1,2.089,2.089,0,0,0-1.437.606,3.267,3.267,0,0,0-2.891-2.377,3.179,3.179,0,0,0-2.782,2.109,1.994,1.994,0,0,0-1.1-.338c-1.36,0-2.462,1.443-2.462,3.224a3.961,3.961,0,0,0,.388,1.736H97.514A5.079,5.079,0,0,0,98.161,554.92Z" transform="translate(-78.916 -487.331)" fill="#6dd179"/>
</svg>
