<svg xmlns="http://www.w3.org/2000/svg" width="20" height="9.76" viewBox="0 0 20 9.76">
  <g id="Battery-status" transform="translate(-0.333 -0.333)" opacity="0.5">
    <g id="Border" transform="translate(0.333 0.333)" opacity="0.35">
      <path d="M 16.15297508239746 9.260316848754883 L 2.793525695800781 9.260316848754883 C 1.528865575790405 9.260316848754883 0.499995619058609 8.231446266174316 0.499995619058609 6.966796398162842 L 0.499995619058609 2.793516635894775 C 0.499995619058609 1.528866529464722 1.528865575790405 0.4999965131282806 2.793525695800781 0.4999965131282806 L 16.15297508239746 0.4999965131282806 C 17.41762542724609 0.4999965131282806 18.44649505615234 1.528866529464722 18.44649505615234 2.793516635894775 L 18.44649505615234 6.966796398162842 C 18.44649505615234 8.231446266174316 17.41762542724609 9.260316848754883 16.15297508239746 9.260316848754883 Z" stroke="none"/>
      <path d="M 2.793525695800781 0.9999961853027344 C 1.8045654296875 0.9999961853027344 0.9999961853027344 1.804566383361816 0.9999961853027344 2.793516635894775 L 0.9999961853027344 6.966796398162842 C 0.9999961853027344 7.955746650695801 1.8045654296875 8.760316848754883 2.793525695800781 8.760316848754883 L 16.15297508239746 8.760316848754883 C 17.14192581176758 8.760316848754883 17.94649505615234 7.955746650695801 17.94649505615234 6.966796398162842 L 17.94649505615234 2.793516635894775 C 17.94649505615234 1.804566383361816 17.14192581176758 0.9999961853027344 16.15297508239746 0.9999961853027344 L 2.793525695800781 0.9999961853027344 M 2.793525695800781 -3.814697265625e-06 L 16.15297508239746 -3.814697265625e-06 C 17.69578552246094 -3.814697265625e-06 18.94649505615234 1.250706672668457 18.94649505615234 2.793516635894775 L 18.94649505615234 6.966796398162842 C 18.94649505615234 8.50960636138916 17.69578552246094 9.760316848754883 16.15297508239746 9.760316848754883 L 2.793525695800781 9.760316848754883 C 1.250705718994141 9.760316848754883 -3.814697265625e-06 8.50960636138916 -3.814697265625e-06 6.966796398162842 L -3.814697265625e-06 2.793516635894775 C -3.814697265625e-06 1.250706672668457 1.250705718994141 -3.814697265625e-06 2.793525695800781 -3.814697265625e-06 Z" stroke="none" fill="#211e1e"/>
    </g>
    <path id="Cap" d="M0,0V3.445A1.869,1.869,0,0,0,1.144,1.722,1.869,1.869,0,0,0,0,0" transform="translate(19.19 3.491)" opacity="0.4"/>
    <path id="Capacity" d="M1.4,0H14.1a1.4,1.4,0,0,1,1.4,1.4V4.919a1.4,1.4,0,0,1-1.4,1.4H1.4A1.4,1.4,0,0,1,0,4.919V1.4A1.4,1.4,0,0,1,1.4,0Z" transform="translate(2.056 2.056)"/>
  </g>
</svg>
