<svg xmlns="http://www.w3.org/2000/svg" width="40" height="40" viewBox="0 0 40 40">
  <g id="Group_2250" data-name="Group 2250" transform="translate(-37 -411)">
    <path id="Icon_awesome-weight" data-name="Icon awesome-weight" d="M17.5,2.5H16.485A7.5,7.5,0,1,1,2.5,6.25,7.443,7.443,0,0,1,3.515,2.5H2.5A2.5,2.5,0,0,0,0,5V17.5A2.5,2.5,0,0,0,2.5,20h15A2.5,2.5,0,0,0,20,17.5V5A2.5,2.5,0,0,0,17.5,2.5ZM10,12.5A6.25,6.25,0,1,0,3.75,6.25,6.25,6.25,0,0,0,10,12.5ZM9.988,6.565,11.3,3.5A.625.625,0,0,1,12.45,4L11.135,7.064a1.555,1.555,0,1,1-1.146-.5Z" transform="translate(47 421)" fill="#6dd179"/>
    <g id="Path_3046" data-name="Path 3046" transform="translate(37 411)" fill="none">
      <path d="M10,0H30A10,10,0,0,1,40,10V30A10,10,0,0,1,30,40H10A10,10,0,0,1,0,30V10A10,10,0,0,1,10,0Z" stroke="none"/>
      <path d="M 10 1 C 5.037380218505859 1 1 5.037380218505859 1 10 L 1 30 C 1 34.96261978149414 5.037380218505859 39 10 39 L 30 39 C 34.96261978149414 39 39 34.96261978149414 39 30 L 39 10 C 39 5.037380218505859 34.96261978149414 1 30 1 L 10 1 M 10 0 L 30 0 C 35.52285003662109 0 40 4.477149963378906 40 10 L 40 30 C 40 35.52285003662109 35.52285003662109 40 30 40 L 10 40 C 4.477149963378906 40 0 35.52285003662109 0 30 L 0 10 C 0 4.477149963378906 4.477149963378906 0 10 0 Z" stroke="none" fill="#6dd179"/>
    </g>
  </g>
</svg>
