<svg xmlns="http://www.w3.org/2000/svg" width="30" height="26.667" viewBox="0 0 30 26.667">
  <path id="Icon_awesome-brain" data-name="Icon awesome-brain" d="M10.833,0A3.323,3.323,0,0,0,7.615,2.51c-.042,0-.073-.01-.115-.01A3.336,3.336,0,0,0,4.167,5.833a3.072,3.072,0,0,0,.089.729A4.131,4.131,0,0,0,2.1,12.234a4.151,4.151,0,0,0,.474,7.448,3.817,3.817,0,0,0-.073.734,3.748,3.748,0,0,0,3.75,3.75,3.531,3.531,0,0,0,.625-.062,3.741,3.741,0,0,0,7.292-1.188V3.333A3.336,3.336,0,0,0,10.833,0ZM30,15.833a4.145,4.145,0,0,0-2.1-3.6,4.1,4.1,0,0,0,.432-1.818,4.167,4.167,0,0,0-2.589-3.854A3.3,3.3,0,0,0,22.5,2.5c-.042,0-.078.01-.115.01a3.327,3.327,0,0,0-6.552.823V22.917A3.741,3.741,0,0,0,23.125,24.1a3.532,3.532,0,0,0,.625.062,3.748,3.748,0,0,0,3.75-3.75,3.817,3.817,0,0,0-.073-.734A4.167,4.167,0,0,0,30,15.833Z" fill="#6dd179"/>
</svg>
