<svg xmlns="http://www.w3.org/2000/svg" width="28" height="35" viewBox="0 0 28 35">
  <path id="Icon_metro-fire" data-name="Icon metro-fire" d="M16.3,36.928c-2.309-4.854-4.218-7.635-2.444-10.255a16.435,16.435,0,0,0,2.444-5.71,6.762,6.762,0,0,1,.917,5.144,13.081,13.081,0,0,0,2.8-9.723c6.1,4.307,5.63,13.633,2.117,20.544,18.686-10.682,7.725-26.666,5.281-28.467.815,1.8.969,4.848-.677,6.328C23.95,4.116,17.062,1.928,17.062,1.928c.815,5.5-2.953,11.523-6.586,16.021a12,12,0,0,0-1.406-5.81C8.813,16.126,5.8,19.377,4.981,23.372,3.874,28.782,8.948,32.743,16.3,36.928Z" transform="translate(-4.829 -1.928)" fill="#ff2929"/>
</svg>
