<svg xmlns="http://www.w3.org/2000/svg" width="198.6" height="186.374" viewBox="0 0 198.6 186.374">
  <g id="Group_2476" data-name="Group 2476" transform="translate(0 -0.005)">
    <path id="Path_4676" data-name="Path 4676" d="M460.765,659.855a.466.466,0,0,1-.1.3.322.322,0,0,1-.248.123h-197.9a.427.427,0,0,1,0-.841h197.9a.322.322,0,0,1,.248.123A.465.465,0,0,1,460.765,659.855Z" transform="translate(-262.165 -473.896)" fill="#ccc"/>
    <circle id="Ellipse_923" data-name="Ellipse 923" cx="75.922" cy="75.922" r="75.922" transform="translate(22.599 16.199)" fill="#e6e6e6"/>
    <path id="Path_4677" data-name="Path 4677" d="M486.819,275.221a65.238,65.238,0,0,1-26.368,52.443c-.547.41-1.105.809-1.667,1.2a65.339,65.339,0,0,1-74.587,0c-.561-.388-1.119-.787-1.667-1.2a65.335,65.335,0,0,1,0-104.885c.547-.41,1.105-.809,1.667-1.2a65.339,65.339,0,0,1,74.587,0c.561.388,1.119.787,1.667,1.2a65.238,65.238,0,0,1,26.368,52.443Z" transform="translate(-322.97 -183.099)" fill="#fff"/>
    <circle id="Ellipse_924" data-name="Ellipse 924" cx="59.678" cy="59.678" r="59.678" transform="translate(38.843 32.443)" fill="#ec7070"/>
    <path id="Path_4678" data-name="Path 4678" d="M532.031,226.365c-.9,0-1.8.024-2.7.063A59.676,59.676,0,0,1,526.8,345.491c1.722.149,3.465.23,5.226.23a59.678,59.678,0,0,0,0-119.357Z" transform="translate(-433.354 -193.755)" opacity="0.2"/>
    <path id="Path_4679" data-name="Path 4679" d="M538.1,213.892a1.946,1.946,0,0,0-1.942,1.942v8.475a1.942,1.942,0,1,0,3.884,0v-8.475A1.946,1.946,0,0,0,538.1,213.892Z" transform="translate(-439.407 -185.687)" fill="#fff"/>
    <path id="Path_4680" data-name="Path 4680" d="M635.913,244.182c-.547-.41-1.105-.809-1.667-1.2a1.941,1.941,0,0,0-1.73.844l-4.771,7a1.942,1.942,0,1,0,3.21,2.186l4.771-7A1.929,1.929,0,0,0,635.913,244.182Z" transform="translate(-498.431 -204.503)" fill="#fff"/>
    <path id="Path_4681" data-name="Path 4681" d="M691.635,334.586a1.94,1.94,0,0,0-2.528-1.066l-7.854,3.189a1.942,1.942,0,1,0,1.462,3.6l7.854-3.189A1.947,1.947,0,0,0,691.635,334.586Z" transform="translate(-532.479 -262.977)" fill="#fff"/>
    <path id="Path_4682" data-name="Path 4682" d="M438.727,250.831l-4.771-7a1.941,1.941,0,0,0-1.73-.844c-.561.388-1.119.787-1.667,1.2a1.93,1.93,0,0,0,.187,1.833l4.771,7a1.942,1.942,0,0,0,3.21-2.186Z" transform="translate(-370.998 -204.503)" fill="#fff"/>
    <path id="Path_4683" data-name="Path 4683" d="M379.569,336.709l-7.854-3.189a1.942,1.942,0,1,0-1.462,3.6l7.854,3.189a1.942,1.942,0,0,0,1.462-3.6Z" transform="translate(-331.301 -262.978)" fill="#fff"/>
    <path id="Path_4684" data-name="Path 4684" d="M538.1,540.892a1.946,1.946,0,0,0-1.942,1.942v8.475a1.942,1.942,0,0,0,3.884,0v-8.475A1.946,1.946,0,0,0,538.1,540.892Z" transform="translate(-439.407 -397.215)" fill="#fff"/>
    <path id="Path_4685" data-name="Path 4685" d="M635.726,523.83l-4.771-7a1.942,1.942,0,1,0-3.21,2.186l4.771,7a1.941,1.941,0,0,0,1.73.844c.562-.388,1.119-.787,1.667-1.2A1.93,1.93,0,0,0,635.726,523.83Z" transform="translate(-498.431 -381.098)" fill="#fff"/>
    <path id="Path_4686" data-name="Path 4686" d="M690.569,439.709l-7.854-3.189a1.942,1.942,0,0,0-1.462,3.6l7.853,3.189a1.942,1.942,0,1,0,1.462-3.6Z" transform="translate(-532.479 -329.606)" fill="#fff"/>
    <path id="Path_4687" data-name="Path 4687" d="M438.215,516.315a1.942,1.942,0,0,0-2.7.512l-4.771,7a1.93,1.93,0,0,0-.187,1.833c.547.41,1.105.809,1.667,1.2a1.941,1.941,0,0,0,1.73-.844l4.771-7a1.942,1.942,0,0,0-.512-2.7Z" transform="translate(-370.998 -381.098)" fill="#fff"/>
    <path id="Path_4688" data-name="Path 4688" d="M380.635,437.586a1.94,1.94,0,0,0-2.528-1.066l-7.854,3.189a1.942,1.942,0,1,0,1.462,3.6l7.854-3.189a1.947,1.947,0,0,0,1.066-2.532Z" transform="translate(-331.301 -329.605)" fill="#fff"/>
    <path id="Path_4689" data-name="Path 4689" d="M470.891,385.972a4.066,4.066,0,0,1-3.322,4.684L433.1,396.519a4.061,4.061,0,0,1-1.362-8.007l34.464-5.862a4.066,4.066,0,0,1,4.684,3.322Z" transform="translate(-369.673 -294.814)" fill="#3f3d56"/>
    <path id="Path_4690" data-name="Path 4690" d="M575.26,424.6a2.651,2.651,0,0,1-3.745.015l-37.1-36.809a2.648,2.648,0,0,1,3.731-3.76l37.1,36.81a2.651,2.651,0,0,1,.015,3.745Z" transform="translate(-437.769 -295.255)" fill="#3f3d56"/>
    <circle id="Ellipse_925" data-name="Ellipse 925" cx="4.591" cy="4.591" r="4.591" transform="translate(93.931 87.531)" fill="#ccc"/>
    <path id="Path_4691" data-name="Path 4691" d="M380.14,146.546c-7.047,11.078-17.8,18.431-31.057,23.261a2.493,2.493,0,0,1-3.489-.5h0a21.895,21.895,0,1,1,34.848-26.515l.2.266a2.493,2.493,0,0,1-.5,3.489Z" transform="translate(-313.239 -134.027)" fill="#e6e6e6"/>
    <path id="Path_4692" data-name="Path 4692" d="M628.576,142.791a21.9,21.9,0,1,1,34.849,26.515h0a2.493,2.493,0,0,1-3.489.5c-12.309-4.713-22.4-12.868-31.057-23.261a2.493,2.493,0,0,1-.5-3.489Z" transform="translate(-498.736 -134.027)" fill="#e6e6e6"/>
    <path id="Path_4693" data-name="Path 4693" d="M619.287,580.709a1.946,1.946,0,0,0-.746,2.643l11.209,20.03a1.942,1.942,0,0,0,3.39-1.9l-11.209-20.03A1.946,1.946,0,0,0,619.287,580.709Z" transform="translate(-492.536 -422.812)" fill="#e6e6e6"/>
    <path id="Path_4694" data-name="Path 4694" d="M432.747,581.453l-11.209,20.03a1.942,1.942,0,0,0,3.39,1.9l11.209-20.03a1.942,1.942,0,0,0-3.39-1.9Z" transform="translate(-365.099 -422.809)" fill="#e6e6e6"/>
    <circle id="Ellipse_926" data-name="Ellipse 926" cx="6.003" cy="6.003" r="6.003" transform="translate(133.481 173.694)" fill="#e6e6e6"/>
    <circle id="Ellipse_927" data-name="Ellipse 927" cx="6.003" cy="6.003" r="6.003" transform="translate(137.718 20.084)" fill="#e6e6e6"/>
    <circle id="Ellipse_928" data-name="Ellipse 928" cx="6.003" cy="6.003" r="6.003" transform="translate(92.165 5.959)" fill="#e6e6e6"/>
    <circle id="Ellipse_929" data-name="Ellipse 929" cx="6.003" cy="6.003" r="6.003" transform="translate(48.731 19.378)" fill="#e6e6e6"/>
    <circle id="Ellipse_930" data-name="Ellipse 930" cx="6.003" cy="6.003" r="6.003" transform="translate(52.615 173.694)" fill="#e6e6e6"/>
  </g>
</svg>
