<svg xmlns="http://www.w3.org/2000/svg" width="19.476" height="12.363" viewBox="0 0 19.476 12.363">
  <g id="Dinner" transform="translate(-2 -19.53)">
    <path id="Path_2287" data-name="Path 2287" d="M79.248,19.63c-1.168,0-2.118,1.288-2.118,2.871a2.754,2.754,0,0,0,1.76,2.827,1.554,1.554,0,0,0,.716,0A2.755,2.755,0,0,0,81.364,22.5C81.364,20.918,80.415,19.63,79.248,19.63Zm-.013.978a1.263,1.263,0,0,0-1.1,1,.2.2,0,0,1-.387-.124A1.655,1.655,0,0,1,79.235,20.2a.2.2,0,0,1,0,.406Z" transform="translate(-59.888 -0.08)"/>
    <path id="Path_2288" data-name="Path 2288" d="M85.3,49.859a1.98,1.98,0,0,1-.213.012,1.913,1.913,0,0,1-.213-.012c-.048,1.032-.152,1.995-.246,2.848-.171,1.548-.307,2.771.06,3.185a.5.5,0,0,0,.394.156.508.508,0,0,0,.4-.156c.367-.414.232-1.638.06-3.188C85.45,51.851,85.346,50.89,85.3,49.859Z" transform="translate(-65.726 -24.176)"/>
    <path id="Path_2289" data-name="Path 2289" d="M9.109,39.479c-.071.006-.141.01-.21.01s-.14,0-.208-.01c-.046,1.389-.155,2.682-.252,3.828-.181,2.146-.324,3.84.124,4.342a.429.429,0,0,0,.329.145h.019a.426.426,0,0,0,.324-.145c.448-.5.306-2.194.125-4.336C9.264,42.166,9.155,40.871,9.109,39.479Z" transform="translate(-4.994 -15.902)"/>
    <path id="Path_2290" data-name="Path 2290" d="M5.593,19.53c-.119,0-.219.135-.219.294v1.128a.666.666,0,0,1-.625.7.589.589,0,0,1-.453-.218.736.736,0,0,1-.172-.482V19.824a.342.342,0,0,0-.076-.222A.2.2,0,0,0,3.9,19.53c-.119,0-.219.135-.219.294v1.128a.666.666,0,0,1-.623.7.59.59,0,0,1-.455-.22.735.735,0,0,1-.17-.48V19.824a.342.342,0,0,0-.076-.222.186.186,0,0,0-.143-.072c-.119,0-.219.135-.219.294v1.453a1.9,1.9,0,0,0,1.542,1.87,1.906,1.906,0,0,0,2.27-1.87V19.824a.343.343,0,0,0-.076-.222A.2.2,0,0,0,5.593,19.53Z" transform="translate(0)"/>
    <path id="Path_2291" data-name="Path 2291" d="M34.4,33.035a3.442,3.442,0,1,0,3.442,3.442A3.446,3.446,0,0,0,34.4,33.035Zm0,1.049a2.4,2.4,0,0,0-1.936.986.2.2,0,0,1-.328-.239A2.809,2.809,0,0,1,34.4,33.678a.2.2,0,0,1,0,.406Z" transform="translate(-23.082 -10.765)"/>
    <path id="Path_2292" data-name="Path 2292" d="M28.462,25.58a4.954,4.954,0,1,0,4.954,4.954A4.959,4.959,0,0,0,28.462,25.58Zm0,8.8a3.848,3.848,0,1,1,3.848-3.847A3.852,3.852,0,0,1,28.462,34.382Z" transform="translate(-17.146 -4.823)"/>
  </g>
</svg>
