<svg xmlns="http://www.w3.org/2000/svg" width="35" height="26.25" viewBox="0 0 35 26.25">
  <path id="event_deepbreathing" d="M8.665.029C4.157.323.915,3.049.152,7.184a13.175,13.175,0,0,0-.076,3.422,18.658,18.658,0,0,0,1.671,5.627c1.2,2.917,1.386,3.722,1.381,6.107A12.938,12.938,0,0,1,2.969,24.9c-.085.517-.158,1.027-.162,1.134l-.006.194,5.712.017c5.39.016,5.716.01,5.772-.1a4.52,4.52,0,0,0,.1-.861,11.893,11.893,0,0,1,.251-2.055c.078-.247.128-.253.712-.083,1.73.5,3.45.56,4.213.139a1.631,1.631,0,0,0,.593-2.012c-.135-.446-.09-.595.3-1s.494-.629.4-.921c-.089-.264-.352-.47-1.267-.989-.771-.438-.873-.523-.813-.676.047-.12.131-.138,1.252-.275,1.147-.14,1.493-.286,1.493-.628a1.662,1.662,0,0,0-.289-.453,2.038,2.038,0,0,1-.523-1c0-.236.2-.4.653-.535.864-.261,1.154-.509,1.152-.987,0-.333-.311-.779-1.3-1.871C19.56,10.119,19.2,9.647,19.2,9.3a3.022,3.022,0,0,1,.173-.72,2.247,2.247,0,0,0-.13-1.835A10.19,10.19,0,0,0,15.39,1.629,10.776,10.776,0,0,0,8.665.029Zm16.03,12.492a.567.567,0,0,0-.036.825c.145.165.2.182.778.216.713.042.97.147,1.182.483a1.065,1.065,0,0,1-.246,1.447l-.237.177-1.563.032a7.938,7.938,0,0,0-1.71.115.6.6,0,0,0-.105.948l.178.174,1.694-.019,1.694-.019.4-.182a2.28,2.28,0,0,0,.291-3.991,2.566,2.566,0,0,0-1.592-.394C24.921,12.331,24.876,12.343,24.694,12.521Zm7.261,1.68a.577.577,0,0,0-.325.976c.16.186.2.2.613.2a1.53,1.53,0,0,1,1.213.382.981.981,0,0,1,.038,1.41c-.362.4-.409.41-2.765.41s-2.445.012-2.579.411a.566.566,0,0,0,.237.686c.183.141.2.142,2.506.122l2.322-.02.4-.183a2.515,2.515,0,0,0,1.2-1.177A1.727,1.727,0,0,0,35,16.477a1.712,1.712,0,0,0-.175-.918,2.388,2.388,0,0,0-1.814-1.35A2.76,2.76,0,0,0,31.955,14.2Zm-8.018,3.535c-.62.606.282,1.461.956.907a.593.593,0,0,0,0-.9A.757.757,0,0,0,23.937,17.735Zm2.016.033a.568.568,0,0,0-.041.82.629.629,0,0,0,.5.206c.445.042.7-.066.841-.349A.473.473,0,0,0,27.285,18c-.1-.3-.32-.424-.766-.424C26.2,17.579,26.121,17.6,25.953,17.768Zm-3.687,1.67a.774.774,0,0,0-.483.6.665.665,0,0,0,.16.368l.16.182,3.7.032c3.509.031,3.711.039,3.912.158a1.016,1.016,0,0,1,.537.911.776.776,0,0,1-.131.615,1.384,1.384,0,0,1-1.231.518c-.547,0-.764.1-.866.383a.585.585,0,0,0,.2.687c.172.141.259.161.7.16a2.413,2.413,0,0,0,2.335-1.241,1.538,1.538,0,0,0,.227-1.058,1.81,1.81,0,0,0-.172-1,2.372,2.372,0,0,0-1.792-1.293C29.124,19.4,22.593,19.376,22.267,19.438Z" fill="#ff2929" fill-rule="evenodd"/>
</svg>
