<svg xmlns="http://www.w3.org/2000/svg" width="21.876" height="35" viewBox="0 0 21.876 35">
  <path id="event_walking" d="M14.217,6.562a3.281,3.281,0,1,0-3.281-3.281A3.282,3.282,0,0,0,14.217,6.562Zm6.459,10.191-1.593-.807-.663-2.009a7.452,7.452,0,0,0-6.985-5.188c-2.461-.007-3.821.69-6.377,1.722a6.52,6.52,0,0,0-3.4,3.158l-.458.93a2.194,2.194,0,0,0,.971,2.932,2.158,2.158,0,0,0,2.9-.977l.458-.93a2.173,2.173,0,0,1,1.128-1.053L8.5,13.793,7.457,17.942a4.39,4.39,0,0,0,1.018,4.019l4.094,4.47a4.411,4.411,0,0,1,1.018,1.893l1.251,5.01a2.187,2.187,0,0,0,4.245-1.059l-1.517-6.083A4.372,4.372,0,0,0,16.547,24.3l-3.11-3.4,1.176-4.7.376,1.128a4.359,4.359,0,0,0,2.167,2.529l1.593.807a2.158,2.158,0,0,0,2.9-.977,2.213,2.213,0,0,0-.977-2.939ZM5.031,26.369a4.241,4.241,0,0,1-.971,1.47L.643,31.263a2.187,2.187,0,0,0,3.089,3.1l4.06-4.06a4.443,4.443,0,0,0,.971-1.47l.923-2.31c-3.78-4.121-2.645-2.857-3.24-3.67l-1.415,3.52Z" transform="translate(-0.002)" fill="#ff2929"/>
</svg>
