<svg xmlns="http://www.w3.org/2000/svg" width="40.909" height="45" viewBox="0 0 40.909 45">
  <path id="event_aerobics_zumba" data-name="event_aerobics/zumba" d="M18.588.165a4.606,4.606,0,0,0-2.134,7.6,4.415,4.415,0,0,0,7.322-1.222,3.249,3.249,0,0,0,.348-1.884,3.773,3.773,0,0,0-1.251-3.213A4.149,4.149,0,0,0,18.588.165Zm-1.55,10.359c-.091.03-.437.178-.769.33s-3.914,1.591-7.958,3.2C3.915,15.8.847,17.076.684,17.23a1.866,1.866,0,0,0,.794,3.125c.539.154.756.09,3.791-1.126,1.646-.659,8.916-3.548,9.648-3.833.218-.085.251-.051.32.323a8.965,8.965,0,0,1-.507,3.376,8.213,8.213,0,0,1-2.259,3.286c-.253.217-1.409,1.3-2.568,2.407s-2.126,1.993-2.148,1.969-.224-1.511-.448-3.306-.426-3.284-.449-3.31a12.627,12.627,0,0,0-1.594.563l-1.552.609.051,5.458a49.851,49.851,0,0,0,.184,5.8,2.232,2.232,0,0,0,2.8,1.251c.306-.131,3.006-2.1,6.519-4.76.435-.329.807-.6.828-.6s-.195,1.887-.478,4.192-.625,5.323-.76,6.705c-.351,3.587-.305,3.7,1.971,4.891,1.187.622,1.532.754,1.963.752a2.313,2.313,0,0,0,1.764-3.776,2.455,2.455,0,0,0-1.415-.836c-.159,0-.216-.052-.176-.16.2-.525,2.071-9.643,2.836-13.794.124-.672.2-.809.956-1.688a13.608,13.608,0,0,0,3.276-6.7l.071-.615H39.414l.49-.253a1.833,1.833,0,0,0,.181-3.169c-.307-.233-.387-.236-8.429-.266l-8.118-.03-.234-.388a7.76,7.76,0,0,0-3.731-2.692A7.5,7.5,0,0,0,17.038,10.525ZM1.814,12.807A2.311,2.311,0,0,0,0,15.232a1.732,1.732,0,0,0,.058.623c.074,0,4.271-1.7,4.323-1.749.022-.021-.068-.193-.2-.382A2.487,2.487,0,0,0,1.814,12.807Z" fill="#ff2929" fill-rule="evenodd"/>
</svg>
