<svg id="event_meditation" xmlns="http://www.w3.org/2000/svg" width="31.154" height="45" viewBox="0 0 31.154 45">
  <path id="Path_4521" data-name="Path 4521" d="M15.112.043a5.584,5.584,0,0,0-4.647,5.82c.215,3.572,3.4,6.491,6.4,5.866a6.1,6.1,0,0,0,4.088-3.453,5.639,5.639,0,0,0,.623-2.712,4.693,4.693,0,0,0-.551-2.477A5.655,5.655,0,0,0,17.436.156,7.829,7.829,0,0,0,15.112.043Zm-.741,12.842a10.763,10.763,0,0,0-6.86,2.728c-1.389,1.309-2.242,2.6-4.332,6.543-.634,1.2-1.393,2.6-1.686,3.116-.853,1.5-.8,1.941.358,3.141,1.359,1.4,2.9,2.385,7.492,4.776,2.932,1.526,4.213,2.277,4.16,2.442-.074.232.158.389.91.617a5.909,5.909,0,0,0,1.979.267l1.226.039.7-.449c.892-.57,2.063-1.247,4.257-2.462a44.8,44.8,0,0,0,6.031-3.762,9.307,9.307,0,0,0,1.733-1.669c.988-1.221.989-1.425.008-3.176-.378-.674-1.2-2.189-1.818-3.366a42.11,42.11,0,0,0-2.312-4.054,9.643,9.643,0,0,0-5.484-4.2A18.7,18.7,0,0,0,14.371,12.885ZM9.354,23.131a46.074,46.074,0,0,1,.086,5.893l-.055.563.653.563c3.467,2.988,3.661,3.143,3.908,3.1a3.97,3.97,0,0,1,1,.155,5.747,5.747,0,0,0,2.074.163l1.309-.03L20.51,31.6l2.177-1.94-.054-.713a34.427,34.427,0,0,1,.281-6.742c.045-.166.151-.077,1.275,1.071,2.152,2.2,2.439,2.808,1.865,3.972a7.813,7.813,0,0,1-2.082,2.3c-.638.555-2.216,1.948-3.507,3.1C18.725,34.2,18.111,34.7,18.1,34.6a.439.439,0,0,0-.189-.242,4.6,4.6,0,0,0-1.869-.09,2.214,2.214,0,0,1-1.157-.107c-.63-.157-.784-.172-1.029-.1l-.289.086-.786-.636c-.432-.35-1.654-1.27-2.715-2.046C6.5,28.863,5.984,28.3,5.98,26.991a4.972,4.972,0,0,1,1.344-3.062,12.711,12.711,0,0,1,1.84-2.053A9.547,9.547,0,0,1,9.354,23.131ZM8.67,33.883c-.07.28-.143.564-.163.631-.028.093.114.176.627.366a22.734,22.734,0,0,1,5.982,3.169l.478.371.317-.254c.174-.14.514-.392.754-.561.434-.3.436-.308.227-.354-.116-.025-.671-.057-1.232-.07a4.217,4.217,0,0,1-1.577-.219c-.714-.249-1.131-.525-1.262-.836-.086-.2-.44-.464-2.012-1.478-1.049-.677-1.931-1.24-1.96-1.252A1.223,1.223,0,0,0,8.67,33.883ZM2.915,35.527a5.948,5.948,0,0,0-1.977.514C-.737,36.958-.13,38.908,2.45,40.9c3.233,2.491,8.666,4.322,12.112,4.082a9.786,9.786,0,0,1,2.043,0c3.447.241,8.879-1.59,12.112-4.082,1.656-1.276,2.507-2.513,2.432-3.536-.061-.833-.622-1.339-1.844-1.661a11.554,11.554,0,0,0-3.7-.036,22.65,22.65,0,0,0-9.36,3.778l-.662.482-.662-.482A21.771,21.771,0,0,0,4.049,35.532C3.592,35.513,3.081,35.511,2.915,35.527Z" transform="translate(0 0)" fill="#ff2929" fill-rule="evenodd"/>
  <path id="Path_4522" data-name="Path 4522" d="M5.171,21.974l.885-4.842L19.163,16.5l.8,5.474L12.2,26.056Z" transform="translate(3.384 12.254)" fill="#ff2929"/>
</svg>
