<svg id="F-lying" xmlns="http://www.w3.org/2000/svg" width="292.43" height="164.774" viewBox="0 0 292.43 164.774">
  <ellipse id="Ellipse_495" data-name="Ellipse 495" cx="7.746" cy="1.291" rx="7.746" ry="1.291" transform="translate(261.696 161.869)" fill="#f2f2f2"/>
  <rect id="Rectangle_2457" data-name="Rectangle 2457" width="0.646" height="13.556" transform="translate(277.834 39.862)" fill="#fff"/>
  <rect id="Rectangle_2458" data-name="Rectangle 2458" width="3.873" height="133.627" transform="translate(267.505 31.147)" fill="#fff"/>
  <path id="Path_3472" data-name="Path 3472" d="M956.55,236.387H921.085a2.743,2.743,0,0,1-2.722-3.084l4.519-36.15a2.748,2.748,0,0,1,2.722-2.4h26.427a2.748,2.748,0,0,1,2.722,2.4l4.519,36.15a2.744,2.744,0,0,1-2.722,3.084Z" transform="translate(-669.376 -194.75)" fill="rgba(109,209,121,0.5)"/>
  <circle id="Ellipse_496" data-name="Ellipse 496" cx="2.259" cy="2.259" r="2.259" transform="translate(275.897 51.159)" fill="#abdeb3"/>
  <path id="Path_3473" data-name="Path 3473" d="M220.348,546.163c-1.631,5.657-6.392,9.617-11.359,12.981q-1.04.7-2.081,1.377l-.014.009c-.033.021-.067.043-.1.065l-.429.276.078.035s.077.041-.007.007l-.076-.03c-2.885-1.164-5.822-2.413-8.033-4.593-2.294-2.264-3.634-5.814-2.392-8.788a5.68,5.68,0,0,1,.615-1.1c.1-.144.209-.282.322-.418a6.086,6.086,0,0,1,10.453,1.849c.365-3.4-2.437-6.243-5.132-8.343s-5.762-4.384-6.283-7.763a6.585,6.585,0,0,1,1.553-5.164c.037-.044.074-.089.112-.132a8.882,8.882,0,0,1,5.709-3.063c4.136-.43,8.153,1.759,11.157,4.635C219.278,532.625,222.2,539.731,220.348,546.163Z" transform="translate(-179.82 -417.26)" fill="#c6e4cb"/>
  <path id="Path_3474" data-name="Path 3474" d="M214.858,545.27a15.1,15.1,0,0,1,1.809,3.99,13.111,13.111,0,0,1,.453,3.872,16.8,16.8,0,0,1-2.2,7.645,24.175,24.175,0,0,1-3.647,4.873q-1.04.7-2.081,1.377l-.014.009c-.033.021-.067.043-.1.065l-.429.276s.155.076.071.042l-.076-.03a13.246,13.246,0,0,0-9.81-14.485c.1-.144.209-.282.322-.418a13.979,13.979,0,0,1,2.307.873,13.693,13.693,0,0,1,6.191,5.969,14,14,0,0,1,1.524,7.682c.119-.107.237-.217.352-.326a24.547,24.547,0,0,0,5.458-7.1,15.627,15.627,0,0,0,1.636-7.394,14.124,14.124,0,0,0-2.832-7.632,32.709,32.709,0,0,0-6.2-6.39,37.168,37.168,0,0,0-7.712-4.761.267.267,0,0,1-.134-.343.227.227,0,0,1,.112-.132.2.2,0,0,1,.172.007c.34.157.678.315,1.013.481a37.594,37.594,0,0,1,7.767,5.123A30.264,30.264,0,0,1,214.858,545.27Z" transform="translate(-182.104 -423.766)" fill="#fff"/>
  <path id="Path_3475" data-name="Path 3475" d="M196.725,638.25h17.87a1.382,1.382,0,0,1,1.372,1.554l-2.277,18.215a1.385,1.385,0,0,1-1.372,1.211H199a1.385,1.385,0,0,1-1.372-1.211L195.353,639.8a1.382,1.382,0,0,1,1.372-1.554Z" transform="translate(-179.739 -495.101)" fill="#fff"/>
  <circle id="Ellipse_497" data-name="Ellipse 497" cx="2.236" cy="2.236" r="2.236" transform="translate(73.014 159.796)" fill="#ccc"/>
  <circle id="Ellipse_498" data-name="Ellipse 498" cx="2.236" cy="2.236" r="2.236" transform="translate(214.279 159.796)" fill="#ccc"/>
  <path id="Path_3476" data-name="Path 3476" d="M420.747,524.471H385.711a6.157,6.157,0,0,1-6.15-6.15V494.466a6.157,6.157,0,0,1,6.15-6.15h35.037a6.157,6.157,0,0,1,6.15,6.15v23.855a6.157,6.157,0,0,1-6.15,6.15Z" transform="translate(-304.497 -393.562)" fill="rgba(65,69,17,0.3)"/>
  <path id="Path_3477" data-name="Path 3477" d="M566.828,525.048H531.791a6.157,6.157,0,0,1-6.15-6.15V495.044a6.157,6.157,0,0,1,6.15-6.15h35.037a6.157,6.157,0,0,1,6.15,6.15V518.9A6.157,6.157,0,0,1,566.828,525.048Z" transform="translate(-403.427 -393.953)" fill="rgba(65,69,17,0.3)"/>
  <path id="Path_3478" data-name="Path 3478" d="M712.908,525.626H677.872a6.157,6.157,0,0,1-6.15-6.15V495.621a6.157,6.157,0,0,1,6.15-6.15h35.037a6.157,6.157,0,0,1,6.15,6.15v23.855A6.157,6.157,0,0,1,712.908,525.626Z" transform="translate(-502.357 -394.344)" fill="rgba(65,69,17,0.3)"/>
  <rect id="Rectangle_2459" data-name="Rectangle 2459" width="154.311" height="32.241" transform="translate(69.659 129.605)" fill="rgba(65,69,17,0.3)"/>
  <path id="Path_3479" data-name="Path 3479" d="M353.157,611.511h-6.709c-3.391,0-6.15-3.133-6.15-6.983V570.883h12.859Z" transform="translate(-277.907 -449.479)" fill="rgba(65,69,17,0.3)"/>
  <path id="Path_3480" data-name="Path 3480" d="M824.511,600.562H817.8V554.716h12.859v37.966C830.661,597.027,827.9,600.562,824.511,600.562Z" transform="translate(-601.287 -438.53)" fill="rgba(65,69,17,0.3)"/>
  <path id="Path_3481" data-name="Path 3481" d="M427.475,581.716H380.138V571.652q23.669-13.577,47.337,0Z" transform="translate(-304.888 -445.402)" fill="#ccc"/>
  <path id="Path_3482" data-name="Path 3482" d="M573.555,582.294H526.218V572.23q23.669-13.577,47.337,0Z" transform="translate(-403.818 -445.793)" fill="#ccc"/>
  <path id="Path_3483" data-name="Path 3483" d="M719.636,582.871H672.3V572.807q23.668-13.577,47.337,0Z" transform="translate(-502.748 -446.184)" fill="#ccc"/>
  <circle id="Ellipse_499" data-name="Ellipse 499" cx="10.996" cy="10.996" r="10.996" transform="translate(55.123 107.986)" fill="#ccc"/>
  <circle id="Ellipse_500" data-name="Ellipse 500" cx="10.996" cy="10.996" r="10.996" transform="translate(216.142 107.614)" fill="#ccc"/>
  <path id="Path_3484" data-name="Path 3484" d="M6.738,2.881a3.4,3.4,0,0,1,.035.534L19.953,12.5l.783,6.863a2.582,2.582,0,0,1-3.082-.323L4.306,6.65A3.388,3.388,0,1,1,6.738,2.881Z" transform="translate(149.149 113.781) rotate(-16)" fill="#ffb8b8"/>
  <path id="Path_3488" data-name="Path 3488" d="M1.274,8.07,0,4.324,13.99,0l1.735,3.158Z" transform="translate(90.974 114.103) rotate(20)" fill="#ffb8b8"/>
  <path id="Path_3489" data-name="Path 3489" d="M4.107,12.4,0,.318.153.266a4.966,4.966,0,0,1,6.3,3.1h0l2.508,7.378Z" transform="translate(85.935 109.994) rotate(20)" fill="#ffb8b8"/>
  <path id="Path_3490" data-name="Path 3490" d="M653.049,551.75a18.3,18.3,0,0,1-8.961-1.8l-16.962-4.592-19.881.556a2.229,2.229,0,0,1-2.734-1.179l-.973-2.241a2.054,2.054,0,0,1,1.125-2.719l20.278-2.331c2.276-.976,7.2-.587,9.615,0h22.638l6.958,7.914-.077.1A14.745,14.745,0,0,1,653.049,551.75Z" transform="translate(-506.066 -422.263)" fill="#2f2e41"/>
  <circle id="Ellipse_501" data-name="Ellipse 501" cx="7.928" cy="7.928" r="7.928" transform="matrix(0.174, 0.985, -0.985, 0.174, 203.534, 109.465)" fill="#ffb8b8"/>
  <path id="Path_3492" data-name="Path 3492" d="M1.274,8.52,0,4.773,15.725,0V3.607Z" transform="translate(91.893 117.492) rotate(20)" fill="#ffb8b8"/>
  <path id="Path_3493" data-name="Path 3493" d="M4.107,12.4,0,.318.153.266a4.966,4.966,0,0,1,6.3,3.1h0l2.508,7.378Z" transform="translate(86.701 112.806) rotate(20)" fill="#ffb8b8"/>
  <path id="Path_3494" data-name="Path 3494" d="M657.223,562.036a16.9,16.9,0,0,1-8.583-1.8l-16.353-1.689L613.35,556.2a2.1,2.1,0,0,1-2.619-1.179l-.932-2.241a2.087,2.087,0,0,1,1.078-2.719h18.351c2.18-.976,8.533-.587,10.849,0l21.116-2.331,6.664,7.914-.074.1C664.512,560.262,660.631,561.789,657.223,562.036Z" transform="translate(-510.31 -429.229)" fill="#2f2e41"/>
  <path id="Path_3501" data-name="Path 3501" d="M439.107,703.9H147.323a.323.323,0,1,1,0-.646H439.107a.323.323,0,1,1,0,.646Z" transform="translate(-147 -539.121)" fill="#3f3d56"/>
  <path id="Path_3502" data-name="Path 3502" d="M553.284,301.141h-32.6a2.908,2.908,0,0,1-2.9-2.9V270.155a2.908,2.908,0,0,1,2.9-2.9h32.6a2.908,2.908,0,0,1,2.9,2.9v28.081A2.908,2.908,0,0,1,553.284,301.141Zm-32.6-33.245a2.262,2.262,0,0,0-2.259,2.259v28.081a2.262,2.262,0,0,0,2.259,2.259h32.6a2.262,2.262,0,0,0,2.259-2.259V270.155a2.262,2.262,0,0,0-2.259-2.259Z" transform="translate(-398.103 -243.849)" fill="#fff"/>
  <path id="Path_3503" data-name="Path 3503" d="M558.857,305.926H535.79a2.747,2.747,0,0,1-2.744-2.744V283.494a2.747,2.747,0,0,1,2.744-2.744h23.067a2.747,2.747,0,0,1,2.744,2.744v19.689a2.747,2.747,0,0,1-2.744,2.744Z" transform="translate(-408.442 -252.992)" fill="#fff"/>
  <circle id="Ellipse_502" data-name="Ellipse 502" cx="1.614" cy="1.614" r="1.614" transform="translate(137.429 15.977)" fill="#fff"/>
  <path id="Path_3504" data-name="Path 3504" d="M425.933,59.477l-3.392-5.669-3.373,5.668-.555-.33,3.926-6.6,3.948,6.6Z" transform="translate(-283.497 -35.588)" fill="#fff"/>
  <path id="Path_3505" data-name="Path 3505" d="M576.073,309.7a6.779,6.779,0,0,0-.16-1.452h-4.843a1.291,1.291,0,0,0-1.291,1.291v6.915A6.773,6.773,0,0,0,576.073,309.7Z" transform="translate(-433.319 -271.616)" fill="#6dd179"/>
  <path id="Path_3506" data-name="Path 3506" d="M553.375,304.95a7.1,7.1,0,1,1,6.934-8.622l.086.392H555.15a.969.969,0,0,0-.968.968V304.9l-.356.025C553.676,304.94,553.527,304.95,553.375,304.95Zm0-13.556a6.455,6.455,0,1,0,0,12.911c.054,0,.108,0,.161,0v-6.613a1.616,1.616,0,0,1,1.614-1.614h4.429A6.493,6.493,0,0,0,553.375,291.394Z" transform="translate(-417.398 -259.762)" fill="#6dd179"/>
  <path id="Path_3507" data-name="Path 3507" d="M578.14,318.224h-7.747a1.616,1.616,0,0,1-1.614-1.614v-1.132l.3-.021a6.437,6.437,0,0,0,5.842-7.815l-.086-.392h3.3a1.616,1.616,0,0,1,1.614,1.614v7.747A1.616,1.616,0,0,1,578.14,318.224Zm-8.715-2.151v.537a.969.969,0,0,0,.968.968h7.747a.969.969,0,0,0,.968-.968v-7.747a.969.969,0,0,0-.968-.968h-2.514a7.033,7.033,0,0,1,.093,1.13A7.12,7.12,0,0,1,569.425,316.073Z" transform="translate(-432.642 -270.938)" fill="#6dd179"/>
  <path id="Path_3508" data-name="Path 3508" d="M1.274,10.442,0,6.7,13.845,0l1.88,5.529Z" transform="translate(183.653 113.149) rotate(25)" fill="#ffb8b8"/>
  <path id="Path_3497" data-name="Path 3497" d="M6.929,20.459a17.3,17.3,0,0,0,3.64-10.349,10.683,10.683,0,0,1-3.617,1.747,6.316,6.316,0,0,1-4.213-.151A4.988,4.988,0,0,1,.025,6.73a6.138,6.138,0,0,1,3.4-4.7,8.023,8.023,0,0,1,5.9-.357A7.01,7.01,0,0,1,16.854.668c2.806,1.377,4.358,4.567,4.627,7.681s-.531,6.211-1.324,9.234l-.09.342c-.247.941-.965,2.747-.965,2.747s-4.169-.823-5.825-1.35A29.539,29.539,0,0,1,6.929,20.459Z" transform="matrix(0.174, 0.985, -0.985, 0.174, 207.083, 107.701)" fill="#2f2e41"/>
  <path id="Path_3491" data-name="Path 3491" d="M11.84,32.411-.8,22.735l9.849-7.952c-.187-.9-.916-6.053,5.805-10.226a30.858,30.858,0,0,0,4.6-3.3A7.515,7.515,0,0,1,23.965-.868a5.207,5.207,0,0,1,4.92,2.431,7.073,7.073,0,0,1,.429,6.122c-1.735,4.826-4.393,11.254-7.2,14.468A107.025,107.025,0,0,1,11.95,32.318Z" transform="matrix(0.545, 0.839, -0.839, 0.545, 170.653, 101.682)" fill="#6dd179"/>
  <path id="Path_3495" data-name="Path 3495" d="M6.2,1.5a3.4,3.4,0,0,1,.26.468l15.8,2.566c3.008,6.821,1.817,7.239.722,6.894L5.614,5.943A3.388,3.388,0,1,1,6.2,1.5Z" transform="translate(137.233 123.663) rotate(-11)" fill="#ffb8b8"/>
  <path id="Path_3496" data-name="Path 3496" d="M.019,8.679A1.45,1.45,0,0,1,.34,7.513L5.029,1.931a4.034,4.034,0,0,1,6.884,4.206L9.037,12.861a1.453,1.453,0,0,1-2.1.666L.692,9.684A1.45,1.45,0,0,1,.019,8.679Z" transform="matrix(0.545, 0.839, -0.839, 0.545, 179.862, 116.376)" fill="#6dd179"/>
</svg>
