<svg xmlns="http://www.w3.org/2000/svg" xmlns:xlink="http://www.w3.org/1999/xlink" width="284.052" height="217.165" viewBox="0 0 284.052 217.165">
  <defs>
    <linearGradient id="linear-gradient" x1="0.5" y1="1" x2="0.5" gradientUnits="objectBoundingBox">
      <stop offset="0" stop-color="gray" stop-opacity="0.251"/>
      <stop offset="0.54" stop-color="gray" stop-opacity="0.122"/>
      <stop offset="1" stop-color="gray" stop-opacity="0.102"/>
    </linearGradient>
  </defs>
  <g id="F-workout" transform="translate(-0.001 27.05)">
    <path id="Path_3308" data-name="Path 3308" d="M188.977,97.083c-18.21-.662-35.552-6.777-52.1-13.473S103.908,69.492,86.134,65.944c-11.445-2.282-24.519-2.6-33.73,3.781C43.541,75.865,40.676,86.466,39.138,96.3c-1.159,7.4-1.839,15.191,1.334,22.116,2.2,4.81,6.117,8.853,8.824,13.461,9.423,16.027,2.766,35.795-7.443,51.448-4.788,7.341-10.34,14.346-14.033,22.162s-5.4,16.772-2.17,24.745c3.205,7.9,10.836,13.838,19.1,18.012,16.795,8.471,36.585,10.907,55.882,12.282,42.719,3.042,85.665,1.725,128.5.406,15.851-.488,31.773-.983,47.364-3.535,8.661-1.417,17.6-3.665,23.888-9.1,7.981-6.892,9.958-18.564,4.61-27.209-8.969-14.5-33.777-18.1-40.042-33.657-3.452-8.563.094-18.1,5.108-26.046,10.759-17.039,28.792-31.986,29.743-51.463.651-13.376-8.018-26.77-21.422-33.112-14.053-6.633-33.53-5.8-43.9,5.182C223.814,93.315,205.056,97.665,188.977,97.083Z" transform="translate(-23.94 -72.265)" fill="#6dd179" opacity="0.1"/>
    <g id="Group_2134" data-name="Group 2134" transform="translate(113.863 99.248)">
      <path id="Path_3309" data-name="Path 3309" d="M471.428,402.58l-8.249.17L461.83,404.6V411l1.684,1.178h7.914l1.684-1.852v-6.063Z" transform="translate(-461.83 -402.573)" fill="#757576"/>
      <path id="Path_3310" data-name="Path 3310" d="M498.789,468.018s-7.576,1.178-8.249,0l.17-.841,8.079-.177Z" transform="translate(-489.364 -467)" fill="#757576" opacity="0.2"/>
      <path id="Path_3311" data-name="Path 3311" d="M498.1,542.09l1.346,1.349v6.41l-1.346,1.326s-4.882,1.684-8.082.335L488.5,550v-6.41l1.349-1.516Z" transform="translate(-487.827 -523.562)" fill="#757576"/>
      <path id="Path_3312" data-name="Path 3312" d="M501.882,543.666s-5.892,1.346-7.912,0V542.15h8.249Z" transform="translate(-491.948 -523.622)" fill="#757576" opacity="0.2"/>
      <path id="Path_3313" data-name="Path 3313" d="M505.71,501.828v9.107a1.366,1.366,0,0,1-1.43,1.292h0a1.366,1.366,0,0,1-1.43-1.292v-9.107a1.383,1.383,0,0,1,1.6-1.284h0A1.346,1.346,0,0,1,505.71,501.828Z" transform="translate(-498.639 -492.267)" fill="#757576"/>
      <path id="Path_3314" data-name="Path 3314" d="M525.018,403.64l-8.25.168-1.349,1.852v6.4l1.684,1.178h7.914l1.684-1.852v-6.063Z" transform="translate(-502.208 -403.371)" fill="#757576"/>
      <path id="Path_3315" data-name="Path 3315" d="M552.389,469.1s-7.576,1.178-8.249,0l.168-.841,8.082-.168Z" transform="translate(-529.749 -467.821)" fill="#757576" opacity="0.2"/>
      <path id="Path_3316" data-name="Path 3316" d="M551.668,543.2l1.346,1.349v6.41l-1.346,1.334s-4.884,1.684-8.082.335l-1.516-1.514v-6.4l1.349-1.516Z" transform="translate(-528.189 -524.413)" fill="#757576"/>
      <path id="Path_3317" data-name="Path 3317" d="M555.472,544.716s-5.892,1.346-7.912,0V543.2H555.8Z" transform="translate(-532.326 -524.413)" fill="#757576" opacity="0.2"/>
      <path id="Path_3318" data-name="Path 3318" d="M559.252,502.878v9.107a1.368,1.368,0,0,1-1.43,1.292h0a1.368,1.368,0,0,1-1.432-1.292v-9.107a1.384,1.384,0,0,1,1.6-1.285h0a1.346,1.346,0,0,1,1.262,1.285Z" transform="translate(-538.979 -493.058)" fill="#757576"/>
      <path id="Path_3319" data-name="Path 3319" d="M598.422,423.39l-6.792.141-1.109,1.524v5.266l1.386.971h6.516l1.386-1.526v-4.99Z" transform="translate(-558.792 -418.252)" fill="#757576"/>
      <path id="Path_3320" data-name="Path 3320" d="M625.19,488.673s-6.235.969-6.79,0l.138-.693,6.657-.141Z" transform="translate(-585.7 -482.702)" fill="#757576" opacity="0.2"/>
      <path id="Path_3321" data-name="Path 3321" d="M624.594,549.68l1.109,1.109v5.266l-1.109,1.109s-4.019,1.386-6.657.276l-1.247-1.248v-5.266l1.109-1.247Z" transform="translate(-584.412 -529.295)" fill="#757576"/>
      <path id="Path_3322" data-name="Path 3322" d="M627.724,550.927s-4.852,1.109-6.514,0V549.68H628Z" transform="translate(-587.818 -529.295)" fill="#757576" opacity="0.2"/>
      <path id="Path_3323" data-name="Path 3323" d="M630.874,516.465v7.5a1.124,1.124,0,0,1-1.178,1.063h0a1.122,1.122,0,0,1-1.176-1.063v-7.5a1.139,1.139,0,0,1,1.314-1.058h0A1.109,1.109,0,0,1,630.874,516.465Z" transform="translate(-593.325 -503.462)" fill="#757576"/>
      <path id="Path_3324" data-name="Path 3324" d="M642.539,424.26l-6.792.138-1.107,1.524v5.269l1.386.969h6.514l1.386-1.524v-4.99Z" transform="translate(-592.034 -418.907)" fill="#757576"/>
      <path id="Path_3325" data-name="Path 3325" d="M669.3,489.541s-6.238.971-6.792,0l.138-.693,6.657-.138Z" transform="translate(-618.935 -483.357)" fill="#757576" opacity="0.2"/>
      <path id="Path_3326" data-name="Path 3326" d="M668.722,550.55l1.107,1.107v5.266l-1.107,1.109s-4.021,1.386-6.657.279l-1.245-1.24V551.8l1.109-1.248Z" transform="translate(-617.662 -529.951)" fill="#757576"/>
      <path id="Path_3327" data-name="Path 3327" d="M671.834,551.8s-4.85,1.107-6.514,0V550.55h6.792Z" transform="translate(-621.052 -529.951)" fill="#757576" opacity="0.2"/>
      <path id="Path_3328" data-name="Path 3328" d="M674.987,517.353v7.495a1.124,1.124,0,0,1-1.179,1.063h0a1.124,1.124,0,0,1-1.178-1.063v-7.495a1.141,1.141,0,0,1,1.317-1.055h0A1.107,1.107,0,0,1,674.987,517.353Z" transform="translate(-626.56 -504.138)" fill="#757576"/>
    </g>
    <path id="Path_3329" data-name="Path 3329" d="M225.574,275.415a30.832,30.832,0,0,1-4.948-3.9c-.74-.769-1.4-1.617-2.194-2.32a18.659,18.659,0,0,0-2.219-1.588,89.161,89.161,0,0,1-9.98-7.507c-2.4-2.081-4.361-4.761-6.926-6.627-1.571-1.144-3.4-2.187-5.32-1.972a5.076,5.076,0,0,0-1.753.54,4.583,4.583,0,0,0-1.607-.36,8.208,8.208,0,0,0-4.339,1.615q-11.834,7.192-24.038,13.743c-1.642.883-3.294,1.758-4.862,2.769a33.02,33.02,0,0,0-8.023,7.315c-.414.525-.937,1.122-1.6,1.043a1.425,1.425,0,0,1-.51-.182,6.417,6.417,0,0,1-2.219-2.621,8.336,8.336,0,0,0-1.5-2.073h0a4.377,4.377,0,0,0-.528-.986c.875-2.16,1.63-4.371,2.33-6.6.365-1.169.717-2.345,1.183-3.479,1.149-2.806,2.981-5.348,3.629-8.316.155-.717.247-1.455.367-2.179a15.437,15.437,0,1,0-11.159-2.123v.086a10.907,10.907,0,0,1-.145,1.479,18.723,18.723,0,0,1-1.694,4.712c-.468,1.008-.937,2.022-1.423,3.028a2.809,2.809,0,0,1-.673-.227,2.038,2.038,0,0,1-.757-1.188,42.523,42.523,0,0,0-2.557-5.981,10.354,10.354,0,0,0-1.479-2.271,12.469,12.469,0,0,0-3.844-2.5c-.247-.118-.476-.247-.713-.36a6.09,6.09,0,0,0-.641-.417,16.2,16.2,0,0,1-3.375-2.022c-.717-.68-1.211-1.566-1.881-2.288a12.007,12.007,0,0,0-4.154-2.539,5.511,5.511,0,0,0-2.448-.641,2.931,2.931,0,0,0-.357.039,5.673,5.673,0,0,0-.607.138,3.3,3.3,0,0,1-.547-.365,5.406,5.406,0,0,1-1.568-3.042,14.221,14.221,0,0,1-.708-5.762A8.727,8.727,0,0,1,110,228.5c.076-.126.15-.247.217-.382a12.862,12.862,0,0,0,6.733-19.837c-.126-.173-.247-.34-.387-.508l.148-.081a3.523,3.523,0,0,0,1.043-4.31,7.774,7.774,0,0,0-3.331-3.355c-.2-.121-.4-.234-.6-.348l-.173-.094c-.153-.084-.3-.165-.456-.247l-.18-.091c-.18-.091-.36-.178-.54-.261l-.081-.039c-.224-.1-.449-.2-.676-.293h0c-.219-.091-.439-.175-.661-.247l-.091-.035c-.21-.076-.422-.148-.634-.217l-.047-.015a16.575,16.575,0,0,0-4.8-.809,27.74,27.74,0,0,0-9.184,1.8,15.823,15.823,0,0,0-6.082,4.561,5.863,5.863,0,0,0-1.016.168,10.209,10.209,0,0,0-3.632,1.926,11.588,11.588,0,0,0-2.416,2.4,10.34,10.34,0,0,0-1.63,3.888c-.934,4.371.214,8.876,1.06,13.269s1.334,9.181-.74,13.124c-.782,1.479-1.891,2.764-2.712,4.216a6.4,6.4,0,0,0-.917,4.815c.574,1.955,2.465,3.185,3.452,4.961A6.079,6.079,0,0,1,81,259.116c-.067.079-.133.158-.2.247a2.466,2.466,0,0,1-.266.266,5.581,5.581,0,0,0,4.684-.92,8.316,8.316,0,0,0,2.764-2.66c1.763-2.894.971-6.637,1.593-9.983.816-4.381,4.11-8.289,3.656-12.724-.306-2.976-2.249-5.463-3.775-8.023a31.735,31.735,0,0,1-2.539-5.4l-.084-.247h0a7.941,7.941,0,0,1-.56-3.945,5.518,5.518,0,0,1,.385-1.25v.143a9.677,9.677,0,0,0,.841,3.725c1.541,3.205,5.249,4.684,7.6,7.283.1.108.192.219.286.333.027.03.052.062.076.094l.2.247.084.116c.062.086.123.173.18.261l.076.111c.079.126.158.247.232.382a5.871,5.871,0,0,0,1.46-2.219c.022-.074.037-.15.052-.227.02.02.037.042.057.064.047.264.084.528.118.794h0a5.359,5.359,0,0,0,.121,1.132,49.785,49.785,0,0,1-.121,7.172c-.084,1.27.247,3.156-.562,4.1l-.025.027a1.3,1.3,0,0,1-.155.153h0c-.138.143-.279.284-.409.431a17.163,17.163,0,0,0-3.881,11.553c.064,4.731,1.575,9.315,3.289,13.715a38.516,38.516,0,0,0,2.11,4.684,8.181,8.181,0,0,0,1.63,2.192,9.821,9.821,0,0,0,2.367,1.413c.207.1.417.195.624.3l.53.247,4.036,1.918c.74,1.087,1.455,2.2,2.177,3.323.1.158.2.321.311.478.789,1.233,1.583,2.465,2.392,3.664l6.8,10.074a8.489,8.489,0,0,0,1.7,2.027,3.473,3.473,0,0,0,.636.4,3.319,3.319,0,0,0,.353.145,1.124,1.124,0,0,0-.18.762,1.289,1.289,0,0,0,.493.643c1.538,1.272,3.247,2.613,3.73,4.569.343,1.393,0,2.885.308,4.285.565,2.525,3.062,4.056,5.424,5.027a30.387,30.387,0,0,0,16.8,2,24.538,24.538,0,0,0,14.608-8.383c1.119-1.376,2.073-2.877,3.136-4.3a35.98,35.98,0,0,1,2.394-2.875,19.76,19.76,0,0,0,2.616-1.445,50.5,50.5,0,0,0,4.931-4.1c1.211-1.055,2.478-2.051,3.59-3.205a37.57,37.57,0,0,0,2.793-3.452q2.959-3.92,6.112-7.685a12.177,12.177,0,0,1,3.886-3.452l.072-.03a8.9,8.9,0,0,0,1.677,3c2.539,3.945,5.2,8.005,9.122,10.52a29.158,29.158,0,0,0,7.007,2.988c6.164,1.948,12.426,3.476,18.693,5.007.207-.394.409-.759.636-1.114a3.388,3.388,0,0,1,.271.325c.027.039.049.081.076.121a.9.9,0,0,0-.133.037,1.753,1.753,0,0,0-.885.932,10.349,10.349,0,0,0-.772,4.438c-.022,1.479,0,2.959,0,4.438a3.829,3.829,0,0,0,.247,1.622,3.356,3.356,0,0,0,2.781,1.479,23.247,23.247,0,0,0,5.671-.222C237.055,307.1,227.1,276.454,225.574,275.415Z" transform="translate(-64.711 -139.048)" fill="url(#linear-gradient)"/>
    <path id="Path_3337" data-name="Path 3337" d="M703.584,659.78a3.255,3.255,0,0,1,.493,2.712,4.741,4.741,0,0,0,3.03.883,9.37,9.37,0,0,0,3.119-.717,10.306,10.306,0,0,0,2.426-1.272,10.7,10.7,0,0,0,2.958-3.723c.417-.779.772-1.787.247-2.488a2.387,2.387,0,0,0-.74-.572,43.953,43.953,0,0,0-5.917-2.813,4.348,4.348,0,0,0-1.785-.4,3.827,3.827,0,0,0-2.046.92,11.1,11.1,0,0,0-3.185,3.945c-.232.493-.932,1.664-.584,2.172.158.234.74.316.986.464A3.187,3.187,0,0,1,703.584,659.78Z" transform="translate(-534.452 -506.682)" fill="#fbbebe"/>
    <path id="Path_3338" data-name="Path 3338" d="M703.584,659.78a3.255,3.255,0,0,1,.493,2.712,4.741,4.741,0,0,0,3.03.883,9.37,9.37,0,0,0,3.119-.717,10.306,10.306,0,0,0,2.426-1.272,10.7,10.7,0,0,0,2.958-3.723c.417-.779.772-1.787.247-2.488a2.387,2.387,0,0,0-.74-.572,43.953,43.953,0,0,0-5.917-2.813,4.348,4.348,0,0,0-1.785-.4,3.827,3.827,0,0,0-2.046.92,11.1,11.1,0,0,0-3.185,3.945c-.232.493-.932,1.664-.584,2.172.158.234.74.316.986.464A3.187,3.187,0,0,1,703.584,659.78Z" transform="translate(-534.452 -506.682)" opacity="0.03"/>
    <path id="Path_3339" data-name="Path 3339" d="M711.554,662.237c4.172.774,8.008,2.791,12.108,3.878a40.238,40.238,0,0,1,4.953,1.386,6.743,6.743,0,0,1,3.762,3.323,9.518,9.518,0,0,1,.569,2.347,4.478,4.478,0,0,1-.353,3.338c-.713.986-2.059,1.2-3.264,1.349-4.334.515-8.669,1.033-13.018,1.4a22.768,22.768,0,0,0-2.626.313c-.715.143-1.413.36-2.123.528-.92.215-1.854.35-2.786.493a28.756,28.756,0,0,1-7.189.424,3.351,3.351,0,0,1-2.8-1.46,3.725,3.725,0,0,1-.247-1.608c-.012-1.464-.025-2.927,0-4.388a9.956,9.956,0,0,1,.777-4.4,1.748,1.748,0,0,1,.89-.925,2.045,2.045,0,0,1,.764-.069,9.028,9.028,0,0,1,3.755.671c.91.451,1.649,1.2,2.576,1.612,1.755.779,3.873.219,5.651.952a7.074,7.074,0,0,0,.012-3.878,30.167,30.167,0,0,1-.87-3.93,2.508,2.508,0,0,0-.168-.858C711.8,662.461,711.845,662.195,711.554,662.237Z" transform="translate(-532.213 -514.851)" fill="#464353"/>
    <path id="Path_3340" data-name="Path 3340" d="M711.554,662.237c4.172.774,8.008,2.791,12.108,3.878a40.238,40.238,0,0,1,4.953,1.386,6.743,6.743,0,0,1,3.762,3.323,9.518,9.518,0,0,1,.569,2.347,4.478,4.478,0,0,1-.353,3.338c-.713.986-2.059,1.2-3.264,1.349-4.334.515-8.669,1.033-13.018,1.4a22.768,22.768,0,0,0-2.626.313c-.715.143-1.413.36-2.123.528-.92.215-1.854.35-2.786.493a28.756,28.756,0,0,1-7.189.424,3.351,3.351,0,0,1-2.8-1.46,3.725,3.725,0,0,1-.247-1.608c-.012-1.464-.025-2.927,0-4.388a9.956,9.956,0,0,1,.777-4.4,1.748,1.748,0,0,1,.89-.925,2.045,2.045,0,0,1,.764-.069,9.028,9.028,0,0,1,3.755.671c.91.451,1.649,1.2,2.576,1.612,1.755.779,3.873.219,5.651.952a7.074,7.074,0,0,0,.012-3.878,30.167,30.167,0,0,1-.87-3.93,2.508,2.508,0,0,0-.168-.858C711.8,662.461,711.845,662.195,711.554,662.237Z" transform="translate(-532.213 -514.851)" opacity="0.06"/>
    <path id="Path_3341" data-name="Path 3341" d="M175.261,445.135c-.841-.266-1.652.478-2.123,1.233-1.958,3.077-1.8,7.184-.232,10.478a7.954,7.954,0,0,0,1.519,2.261,14.625,14.625,0,0,0,2.959,1.972,22.261,22.261,0,0,1,7.091,6.657c1.206,1.778,2.155,3.733,3.523,5.387,3.368,4.073,8.9,5.917,12.17,10.059a12.815,12.815,0,0,0,2.485,2.848,4.226,4.226,0,0,0,6.615-3.274,47.5,47.5,0,0,0,3.3-5.959,70.914,70.914,0,0,0,3.7-9.583c.367-1.159.722-2.325,1.191-3.452,1.156-2.781,3-5.3,3.649-8.237a35.538,35.538,0,0,1,.705-3.548,6.753,6.753,0,0,1,1.7-2.712c2.564-2.493,3.945-6.124,5.984-9.058a19.557,19.557,0,0,0,2.236-3.711,5.869,5.869,0,0,0,.247-4.233,3.53,3.53,0,0,0-3.289-2.374,5,5,0,0,0-1.847.567,20.574,20.574,0,0,0-5.409,3.728,26.183,26.183,0,0,0-1.972,2.12c-3.013,3.6-5.37,7.968-5.577,12.658-.069,1.607.059,3.39-.962,4.635-2.816,3.439-3.72,8.168-6.122,11.911-1.112,1.726-2.387,3.513-4.287,4.3a1.829,1.829,0,0,1-.9.177c-.759-.086-1.2-.885-1.516-1.58a61.162,61.162,0,0,0-4.337-7.828A7.454,7.454,0,0,0,193.357,458c-.705-.392-1.524-.567-2.187-1.026a6.476,6.476,0,0,1-1.889-2.744,42.632,42.632,0,0,0-5.87-9.152c-1.07-1.275-2.48-2.591-4.132-2.4C177.706,442.862,176.745,444.516,175.261,445.135Z" transform="translate(-135.27 -339.788)" fill="#fbbebe"/>
    <path id="Path_3342" data-name="Path 3342" d="M175.261,445.135c-.841-.266-1.652.478-2.123,1.233-1.958,3.077-1.8,7.184-.232,10.478a7.954,7.954,0,0,0,1.519,2.261,14.625,14.625,0,0,0,2.959,1.972,22.261,22.261,0,0,1,7.091,6.657c1.206,1.778,2.155,3.733,3.523,5.387,3.368,4.073,8.9,5.917,12.17,10.059a12.815,12.815,0,0,0,2.485,2.848,4.226,4.226,0,0,0,6.615-3.274,47.5,47.5,0,0,0,3.3-5.959,70.914,70.914,0,0,0,3.7-9.583c.367-1.159.722-2.325,1.191-3.452,1.156-2.781,3-5.3,3.649-8.237a35.538,35.538,0,0,1,.705-3.548,6.753,6.753,0,0,1,1.7-2.712c2.564-2.493,3.945-6.124,5.984-9.058a19.557,19.557,0,0,0,2.236-3.711,5.869,5.869,0,0,0,.247-4.233,3.53,3.53,0,0,0-3.289-2.374,5,5,0,0,0-1.847.567,20.574,20.574,0,0,0-5.409,3.728,26.183,26.183,0,0,0-1.972,2.12c-3.013,3.6-5.37,7.968-5.577,12.658-.069,1.607.059,3.39-.962,4.635-2.816,3.439-3.72,8.168-6.122,11.911-1.112,1.726-2.387,3.513-4.287,4.3a1.829,1.829,0,0,1-.9.177c-.759-.086-1.2-.885-1.516-1.58a61.162,61.162,0,0,0-4.337-7.828A7.454,7.454,0,0,0,193.357,458c-.705-.392-1.524-.567-2.187-1.026a6.476,6.476,0,0,1-1.889-2.744,42.632,42.632,0,0,0-5.87-9.152c-1.07-1.275-2.48-2.591-4.132-2.4C177.706,442.862,176.745,444.516,175.261,445.135Z" transform="translate(-135.27 -339.788)" opacity="0.03"/>
    <ellipse id="Ellipse_474" data-name="Ellipse 474" cx="6.499" cy="5.865" rx="6.499" ry="5.865" transform="translate(33.319 81.837)" fill="#fbbebe"/>
    <circle id="Ellipse_475" data-name="Ellipse 475" cx="2.34" cy="2.34" r="2.34" transform="translate(43.573 84.157)" fill="#fbbebe"/>
    <ellipse id="Ellipse_476" data-name="Ellipse 476" cx="8.952" cy="2.394" rx="8.952" ry="2.394" transform="translate(31.719 82.914)" fill="#fbbebe"/>
    <path id="Path_3343" data-name="Path 3343" d="M147.011,349.035a16.215,16.215,0,0,1,.513,2.108,12.591,12.591,0,0,1-1.938-2.547,1.9,1.9,0,0,1-.343-.542,14.482,14.482,0,0,1-1.344-5.777,12.663,12.663,0,1,1,15.991,12.216,15.821,15.821,0,0,0,.986-3.76,2.712,2.712,0,0,0-.182-1.27,2.9,2.9,0,0,0-.929-1.07,8.03,8.03,0,0,0-5-1.519,13.721,13.721,0,0,0-5.141,1.233c-.51.219-1.122.515-1.726.717A4.493,4.493,0,0,1,147.011,349.035Z" transform="translate(-114.324 -264.238)" fill="#fbbebe"/>
    <path id="Path_3344" data-name="Path 3344" d="M188.279,442.539c-.811,1.3-2.544,1.7-4.068,1.58a13.884,13.884,0,0,1-7.618-3.55c-2.194-1.824-4.112-3.945-6.356-5.7a22.559,22.559,0,0,0-14.186-4.662c1.038-.86.656-2.9.74-4.243a41.478,41.478,0,0,0,0-8.168c-.037-.288-.079-.572-.128-.856.084.089.173.175.264.264a12.677,12.677,0,0,0,12.1,3.087,9.864,9.864,0,0,0-.318,1.312,13.758,13.758,0,0,0,.713,5.705A5.329,5.329,0,0,0,171,430.32a6.946,6.946,0,0,0,2.056.87,11.342,11.342,0,0,1,3.831,2.219,31,31,0,0,0,2.315,2.073,16.117,16.117,0,0,0,2.5,1.292,31.311,31.311,0,0,1,6.016,3.646,1.972,1.972,0,0,1,.782.927,1.524,1.524,0,0,1-.224,1.191Z" transform="translate(-123.478 -330.034)" fill="#fbbebe"/>
    <path id="Path_3345" data-name="Path 3345" d="M189.674,502.8c-.17,1.124-1.2,2-1.928,2.875-1.977,2.387-3.982,4.781-6.193,6.965a96.9,96.9,0,0,1-7.562,6.5l-3.368,2.695a4.242,4.242,0,0,1-1.432.863,2.616,2.616,0,0,1-1.844-.219,3.609,3.609,0,0,1-.639-.392A8.65,8.65,0,0,1,165,520.068q-3.417-4.988-6.842-9.978c-.814-1.188-1.612-2.409-2.406-3.629-.106-.158-.207-.318-.313-.476-.725-1.109-1.447-2.219-2.189-3.291l-4.058-1.9-.533-.247-.629-.293a9.959,9.959,0,0,1-2.379-1.4,8.056,8.056,0,0,1-1.64-2.172,38.016,38.016,0,0,1-2.125-4.652c-1.726-4.356-3.245-8.9-3.309-13.587a16.787,16.787,0,0,1,3.9-11.442,12.28,12.28,0,0,1,1.206-1.169,2.156,2.156,0,0,1,1.75-.6c.678.1,1.321.195,1.972.306q2.692.463,5.343,1.134a11.065,11.065,0,0,0,4.852.547c.259-.052.515-.126.772-.192.21-.054.417-.106.631-.141a2.92,2.92,0,0,1,.36-.039,5.661,5.661,0,0,1,2.465.636,12.25,12.25,0,0,1,4.191,2.515c.676.715,1.171,1.593,1.891,2.266a16.34,16.34,0,0,0,3.4,2,6.093,6.093,0,0,1,.643.412,7.309,7.309,0,0,1,1.233,1.171h0c1.494,1.763,2.382,4.142,4.031,5.895a24.061,24.061,0,0,1,3.417,4.628c.155.279.306.56.454.846q.37.714.688,1.447c.054.126.108.247.158.377a22.622,22.622,0,0,1,.811,2.261c.56,1.861.932,3.871,2.175,5.365A26.917,26.917,0,0,0,188,499.287a5.456,5.456,0,0,1,1.5,2.039A2.914,2.914,0,0,1,189.674,502.8Z" transform="translate(-110.31 -366.403)" fill="#fbbebe"/>
    <path id="Path_3346" data-name="Path 3346" d="M194.773,489.706q-.424.535-.87,1.055c-.049.064-.1.126-.158.187a47.089,47.089,0,0,1-8.841,8.015c-2.027,1.415-4.164,2.67-6.3,3.923l-3.945,2.31a24.428,24.428,0,0,1-5.15,2.5c-.587.175-1.2.316-1.8.481-.106-.158-.207-.318-.313-.476-.725-1.109-1.447-2.219-2.189-3.291l-4.058-1.9a23.768,23.768,0,0,0,5.883-5.271,63.923,63.923,0,0,0,6.23-9.951,7.481,7.481,0,0,0,.767-1.775,6.1,6.1,0,0,0-.264-3.134,16.519,16.519,0,0,0-6.607-8.908,31.223,31.223,0,0,0-7.253-3.247,12.207,12.207,0,0,0-5.456-.944,11.982,11.982,0,0,1,1.206-1.166,2.149,2.149,0,0,1,1.75-.607c.678.1,1.322.195,1.972.308,1.319.4,2.616.888,3.905,1.386a18.306,18.306,0,0,1,2.465,1.117,22.077,22.077,0,0,1,2.271,1.59,56.732,56.732,0,0,0,6.736,4.416c2.712,1.5,5.56,2.712,8.4,3.945a2.236,2.236,0,0,0,.974.247.764.764,0,0,0,.74-.577.929.929,0,0,0-.118-.515,5.14,5.14,0,0,0-2.626-2.007,63.577,63.577,0,0,1-11.563-7.877,1.161,1.161,0,0,1-.232-.247l.631-.141a94.062,94.062,0,0,0,12.931,7.8q.357.182.717.355c.173.086.343.17.518.247h0a11.036,11.036,0,0,1,3.346,2.219,10.216,10.216,0,0,1,1.479,2.246,42.215,42.215,0,0,1,2.574,5.917,1.337,1.337,0,0,0,.047.128,2.278,2.278,0,0,0,.454.846.96.96,0,0,0,.259.2C193.755,489.385,194.391,489.355,194.773,489.706Z" transform="translate(-122.273 -368.121)" opacity="0.06"/>
    <path id="Path_3347" data-name="Path 3347" d="M170.976,466.883a93.8,93.8,0,0,0,12.931,7.793l.717.357a12.772,12.772,0,0,1,3.866,2.465,10.29,10.29,0,0,1,1.479,2.249,41.791,41.791,0,0,1,2.571,5.917,2,2,0,0,0,.762,1.178c.419.232,1.085.215,1.457.565-.335.419-.676.833-1.028,1.233a47.017,47.017,0,0,1-8.841,8.018c-2.027,1.415-4.164,2.67-6.3,3.923l-3.945,2.31a24.537,24.537,0,0,1-5.15,2.5c-.688.21-1.415.367-2.113.57-.725-1.109-1.447-2.219-2.189-3.291l-4.591-2.15a23.1,23.1,0,0,0,6.41-5.587,63.784,63.784,0,0,0,6.23-9.948,7.522,7.522,0,0,0,.767-1.775,6.113,6.113,0,0,0-.264-3.136,16.519,16.519,0,0,0-6.59-8.883,31.328,31.328,0,0,0-7.253-3.247A12.205,12.205,0,0,0,154.45,467a12.285,12.285,0,0,1,1.206-1.169,2.156,2.156,0,0,1,1.75-.6c.678.1,1.322.195,1.972.306,1.319.407,2.616.89,3.905,1.388a18,18,0,0,1,2.465,1.117,22.08,22.08,0,0,1,2.271,1.59,56.71,56.71,0,0,0,6.746,4.4c2.712,1.5,5.56,2.724,8.4,3.945a2.231,2.231,0,0,0,.974.247.759.759,0,0,0,.74-.577.924.924,0,0,0-.118-.513,5.127,5.127,0,0,0-2.626-2.007,63.145,63.145,0,0,1-11.563-7.889,1.092,1.092,0,0,1-.232-.247Z" transform="translate(-122.273 -366.403)" fill="#6dd179"/>
    <circle id="Ellipse_477" data-name="Ellipse 477" cx="15.476" cy="15.476" r="15.476" transform="translate(67.771 82.914)" fill="#757576"/>
    <path id="Path_3348" data-name="Path 3348" d="M396.876,570.773a33.216,33.216,0,0,0,8.383-3.5,49.525,49.525,0,0,0,4.951-4.063c1.22-1.045,2.493-2.032,3.612-3.185a37.629,37.629,0,0,0,2.811-3.407q2.968-3.886,6.132-7.623a12.309,12.309,0,0,1,3.908-3.422c2.808-1.319,6.1-.429,9.068.476a84.344,84.344,0,0,1,13.005,4.857c2.362,1.176,4.65,2.488,7.034,3.614a99.512,99.512,0,0,0,13.6,4.877,1.726,1.726,0,0,0,1.085.089,1.6,1.6,0,0,0,.643-.537,9.184,9.184,0,0,0,1.427-2.466.473.473,0,0,0-.116-.639c-1.972-1.921-4.532-3.1-6.923-4.47-1.9-1.087-3.725-2.308-5.545-3.528a30.336,30.336,0,0,1-4.978-3.861c-.74-.762-1.405-1.6-2.207-2.3a18.5,18.5,0,0,0-2.244-1.573,90.156,90.156,0,0,1-10.039-7.438c-2.411-2.061-4.386-4.716-6.963-6.566-1.58-1.134-3.42-2.167-5.353-1.96-2.352.247-4.088,2.219-5.727,3.92-5.51,5.722-12.463,9.818-18.612,14.85-5.02,4.1-9.711,8.977-15.826,11.141.274.907.37,1.815.646,2.712a28.333,28.333,0,0,0,1.285,3.659,28.757,28.757,0,0,0,1.709,3.057l2.451,4a10.116,10.116,0,0,0,1.714,2.286C396.173,570.13,396.876,570.258,396.876,570.773Z" transform="translate(-298.242 -410.791)" fill="#464353"/>
    <path id="Path_3349" data-name="Path 3349" d="M396.876,570.773a33.216,33.216,0,0,0,8.383-3.5,49.525,49.525,0,0,0,4.951-4.063c1.22-1.045,2.493-2.032,3.612-3.185a37.629,37.629,0,0,0,2.811-3.407q2.968-3.886,6.132-7.623a12.309,12.309,0,0,1,3.908-3.422c2.808-1.319,6.1-.429,9.068.476a84.344,84.344,0,0,1,13.005,4.857c2.362,1.176,4.65,2.488,7.034,3.614a99.512,99.512,0,0,0,13.6,4.877,1.726,1.726,0,0,0,1.085.089,1.6,1.6,0,0,0,.643-.537,9.184,9.184,0,0,0,1.427-2.466.473.473,0,0,0-.116-.639c-1.972-1.921-4.532-3.1-6.923-4.47-1.9-1.087-3.725-2.308-5.545-3.528a30.336,30.336,0,0,1-4.978-3.861c-.74-.762-1.405-1.6-2.207-2.3a18.5,18.5,0,0,0-2.244-1.573,90.156,90.156,0,0,1-10.039-7.438c-2.411-2.061-4.386-4.716-6.963-6.566-1.58-1.134-3.42-2.167-5.353-1.96-2.352.247-4.088,2.219-5.727,3.92-5.51,5.722-12.463,9.818-18.612,14.85-5.02,4.1-9.711,8.977-15.826,11.141.274.907.37,1.815.646,2.712a28.333,28.333,0,0,0,1.285,3.659,28.757,28.757,0,0,0,1.709,3.057l2.451,4a10.116,10.116,0,0,0,1.714,2.286C396.173,570.13,396.876,570.258,396.876,570.773Z" transform="translate(-298.242 -410.791)" opacity="0.06"/>
    <path id="Path_3350" data-name="Path 3350" d="M691.438,668.673a3.262,3.262,0,0,1,.493,2.712,4.731,4.731,0,0,0,3.023.89,9.5,9.5,0,0,0,3.126-.715,10.4,10.4,0,0,0,2.426-1.272,10.828,10.828,0,0,0,2.971-3.725c.417-.777.772-1.785.234-2.485a2.322,2.322,0,0,0-.74-.572,44.036,44.036,0,0,0-5.9-2.813,4.4,4.4,0,0,0-1.785-.4,3.83,3.83,0,0,0-2.049.922,11.1,11.1,0,0,0-3.183,3.945c-.232.493-.932,1.667-.587,2.174.158.234.74.316.986.461A3.192,3.192,0,0,1,691.438,668.673Z" transform="translate(-525.309 -513.387)" fill="#fbbebe"/>
    <path id="Path_3351" data-name="Path 3351" d="M703.779,670.617c4.172.777,8.008,2.791,12.108,3.878a40.246,40.246,0,0,1,4.953,1.386A6.743,6.743,0,0,1,724.6,679.2a9.552,9.552,0,0,1,.569,2.347,4.478,4.478,0,0,1-.353,3.338c-.713.986-2.059,1.206-3.264,1.349-4.334.518-8.669,1.033-13.018,1.4a23.308,23.308,0,0,0-2.621.313c-.715.146-1.413.36-2.123.528-.917.217-1.854.35-2.786.493a28.754,28.754,0,0,1-7.189.422,3.351,3.351,0,0,1-2.8-1.46,3.724,3.724,0,0,1-.247-1.607c0-1.462-.025-2.927,0-4.389a9.955,9.955,0,0,1,.777-4.4,1.755,1.755,0,0,1,.89-.924,2.042,2.042,0,0,1,.764-.069,9.029,9.029,0,0,1,3.755.671c.91.451,1.566-.9,2.493-.493,1.758.777.567-1.578,2.342-.846.414-1.277,2.175-.518,1.869-1.827s.791-.74.666-2.086a2.519,2.519,0,0,0-.168-.858C704.026,670.841,704.07,670.575,703.779,670.617Z" transform="translate(-526.361 -521.164)" fill="#464353"/>
    <path id="Path_3352" data-name="Path 3352" d="M166.775,334.814a6.13,6.13,0,0,1-3.257.429,20.244,20.244,0,0,0-2.917.15,2.753,2.753,0,0,0-1,.266,2.51,2.51,0,0,0-.932,1.087,7.707,7.707,0,0,0-.786,2.421,5.555,5.555,0,0,1-.715,2.739c-.806,1.023-2.064.865-3.205,1.068a8.629,8.629,0,0,0-2.813,1.075,6.95,6.95,0,0,0-3.259,4.785c-.032.224-.054.446-.064.671-.025.636.039,1.285-.044,1.908a3.322,3.322,0,0,1-.094.461.985.985,0,0,1-.042.131c-.037-.288-.079-.572-.128-.856a12.591,12.591,0,0,1-1.938-2.547,1.9,1.9,0,0,1-.343-.542,14.482,14.482,0,0,1-1.344-5.777,12.66,12.66,0,0,1,22.882-7.47Z" transform="translate(-114.316 -264.245)" opacity="0.06"/>
    <path id="Path_3353" data-name="Path 3353" d="M117.979,312.668a7.717,7.717,0,0,0-3.348-3.323,18.228,18.228,0,0,0-9-2.675,27.192,27.192,0,0,0-9.209,1.758,15.87,15.87,0,0,0-6.117,4.517,6.149,6.149,0,0,0-1.023.165,10.31,10.31,0,0,0-3.651,1.908,11.622,11.622,0,0,0-2.431,2.374,10.2,10.2,0,0,0-1.64,3.854c-.939,4.329.217,8.8,1.065,13.143s1.344,9.1-.74,13c-.786,1.479-1.9,2.737-2.742,4.177a6.206,6.206,0,0,0-.92,4.771c.567,1.943,2.475,3.176,3.471,4.924a5.917,5.917,0,0,1-1.151,7.081,5.708,5.708,0,0,0,4.719-.91,8.338,8.338,0,0,0,2.779-2.636c1.773-2.87.986-6.575,1.6-9.891.821-4.339,4.135-8.21,3.678-12.6-.308-2.959-2.261-5.412-3.8-7.949a31.148,31.148,0,0,1-2.571-5.333,8.052,8.052,0,0,1-.648-4.137,5.569,5.569,0,0,1,.387-1.233v.141a9.445,9.445,0,0,0,.843,3.7c1.834,3.748,6.718,5.128,8.787,8.75a5.84,5.84,0,0,0,1.479-2.207,10.132,10.132,0,0,0,.138-2.372,6.873,6.873,0,0,1,3.323-5.454,8.538,8.538,0,0,1,2.813-1.072c1.139-.2,2.4-.049,3.205-1.072a5.546,5.546,0,0,0,.717-2.737,7.658,7.658,0,0,1,.786-2.424,2.488,2.488,0,0,1,.932-1.085,2.713,2.713,0,0,1,1.006-.266,20.2,20.2,0,0,1,2.914-.15,6.05,6.05,0,0,0,3.3-.451A3.482,3.482,0,0,0,117.979,312.668Z" transform="translate(-64.709 -246.951)" fill="#464353"/>
    <path id="Path_3360" data-name="Path 3360" d="M982.652,627l-.212.064" transform="translate(-746.124 -488.305)" fill="#464353"/>
    <path id="Path_3361" data-name="Path 3361" d="M808.15,670.867a1.816,1.816,0,0,1,.044-.247" transform="translate(-614.805 -521.17)" fill="#464353"/>
    <path id="Path_3368" data-name="Path 3368" d="M277.607,610.037c-.17,1.124-1.2,2-1.928,2.875-1.977,2.387-3.982,4.781-6.193,6.965a96.9,96.9,0,0,1-7.562,6.5l-3.368,2.695a4.24,4.24,0,0,1-1.432.863,2.616,2.616,0,0,1-1.844-.219c.049-.1.1-.19.158-.281l4.038-6.768c.794-1.326,1.314-2.535,2.219-3.78a37.662,37.662,0,0,1,4.418-5.318,38.252,38.252,0,0,1,7.369-4.9,2.116,2.116,0,0,1,2.927-.88,3.657,3.657,0,0,1,1.018.782A2.914,2.914,0,0,1,277.607,610.037Z" transform="translate(-198.243 -473.645)" opacity="0.06"/>
    <path id="Path_3369" data-name="Path 3369" d="M260.241,560.6l-4.038,6.77a.957.957,0,0,0,.229,1.534c1.548,1.26,3.264,2.589,3.75,4.524.348,1.381,0,2.86.311,4.245.57,2.5,3.082,4.019,5.459,4.98a30.9,30.9,0,0,0,16.9,1.972,24.758,24.758,0,0,0,14.692-8.318c1.124-1.361,2.086-2.85,3.153-4.255,2.959-3.883,6.714-7.071,10.439-10.227,4.8-4.063,7.621-10.123,11.834-14.793a5.907,5.907,0,0,1,2.712-2.007c.616-.155,1.479.074,1.5.71.057,1.233,1.048,2.241,1.726,3.272,2.554,3.905,5.227,7.931,9.174,10.422a29.191,29.191,0,0,0,7.049,2.959c6.188,1.928,12.5,3.452,18.8,4.96a10.538,10.538,0,0,1,1.139-1.8c.653-.8,1.514-1.413,2.17-2.219a11.708,11.708,0,0,0,2.007-5.217c-3.765-2.305-7.628-4.684-11.341-7.081a26.759,26.759,0,0,1-5.264-4.061c-.986-1.07-1.815-2.3-2.8-3.373a28.6,28.6,0,0,0-3.259-2.892L337.7,533.6c-2.549-2.039-5.148-4.191-7.643-6.3-1.4-1.188-2.959-2.438-4.793-2.5a8.345,8.345,0,0,0-4.366,1.6q-11.9,7.128-24.162,13.614c-1.654.873-3.316,1.741-4.894,2.744a32.988,32.988,0,0,0-8.067,7.244c-.417.52-.944,1.112-1.605,1.033a1.443,1.443,0,0,1-.515-.18,6.286,6.286,0,0,1-2.219-2.6,6.015,6.015,0,0,0-2.253-2.567,2.115,2.115,0,0,0-2.927.883,40.136,40.136,0,0,0-7.374,4.926,37.526,37.526,0,0,0-4.418,5.318C261.555,558.068,261.032,559.276,260.241,560.6Z" transform="translate(-198.727 -411.303)" fill="#464353"/>
    <path id="Path_3370" data-name="Path 3370" d="M246.61,502.52a49.689,49.689,0,0,1,6.972,3.836" transform="translate(-191.711 -394.515)" opacity="0.06"/>
    <path id="Path_3372" data-name="Path 3372" d="M160.23,449.259c-3.232.639-4.914,4.438-4.724,7.724a12.574,12.574,0,0,0,3.407,7.853c1.349,1.418,3.03,2.512,4.248,4.043,1.8,2.258,2.426,5.244,4.036,7.643a20.821,20.821,0,0,0,4.438,4.416q5.636,4.5,11.639,8.513c1.627,1.087,3.407,2.187,5.365,2.145a6.689,6.689,0,0,0,4.746-2.522,20.242,20.242,0,0,0,2.754-4.778c2.816-6.139,5.651-12.345,7-18.962a24.526,24.526,0,0,1,1.647-6.122,29.72,29.72,0,0,1,2.811-4.083,28.163,28.163,0,0,0,4.753-10.621,13.7,13.7,0,0,0-.165-7.569,6.883,6.883,0,0,0-5.577-4.652,6.778,6.778,0,0,0-5.357,2.394,13.252,13.252,0,0,0-2.7,5.382,25.781,25.781,0,0,0-.888,8.629c.158,2.345.636,4.712.232,7.029a18.827,18.827,0,0,1-1.7,4.665c-1.822,3.881-3.674,7.811-6.427,11.095-.9,1.07-2.133,2.152-3.506,1.9-1.9-.345-2.4-2.749-3.338-4.438-1.149-2.071-3.328-3.316-5.037-4.961-2.431-2.342-3.888-5.483-5.616-8.383s-3.964-5.762-7.15-6.874-7.431.316-8.249,3.59" transform="translate(-123.057 -341.587)" opacity="0.06"/>
    <path id="Path_3373" data-name="Path 3373" d="M162.728,448.075c-3.235.639-7.352,1.055-7.15,4.347a12.549,12.549,0,0,0,3.407,7.853c1.349,1.42,3.03,2.515,4.248,4.046,1.8,2.258,2.426,5.242,4.036,7.643a20.707,20.707,0,0,0,4.438,4.416q5.636,4.5,11.639,8.513c1.627,1.09,3.407,2.189,5.365,2.147a6.7,6.7,0,0,0,4.746-2.522,20.161,20.161,0,0,0,2.754-4.781c2.816-6.139,5.651-12.345,7-18.962a24.508,24.508,0,0,1,1.647-6.119,29.894,29.894,0,0,1,2.811-4.085,28.136,28.136,0,0,0,4.753-10.619,13.709,13.709,0,0,0-.165-7.571,6.883,6.883,0,0,0-5.577-4.652,6.786,6.786,0,0,0-5.357,2.394,13.231,13.231,0,0,0-2.7,5.385,25.774,25.774,0,0,0-.888,8.629c.158,2.347.636,4.714.232,7.029a18.809,18.809,0,0,1-1.7,4.667c-1.822,3.881-3.674,7.808-6.427,11.095-.9,1.07-2.133,2.15-3.506,1.9-1.9-.348-2.4-2.751-3.338-4.438-1.149-2.071-3.328-3.316-5.037-4.961-2.431-2.34-3.888-5.483-5.616-8.383s-3.964-5.759-7.15-6.874.8,6.023-.017,9.3" transform="translate(-123.117 -338.151)" opacity="0.06"/>
    <path id="Path_3374" data-name="Path 3374" d="M160.23,446.983c-3.232.639-4.914,4.438-4.724,7.724a12.574,12.574,0,0,0,3.407,7.855c1.349,1.418,3.03,2.512,4.248,4.043,1.8,2.258,2.426,5.244,4.036,7.643a20.775,20.775,0,0,0,4.438,4.418q5.636,4.5,11.639,8.511c1.627,1.09,3.407,2.189,5.365,2.147a6.689,6.689,0,0,0,4.746-2.522,20.244,20.244,0,0,0,2.754-4.778c2.816-6.139,5.651-12.345,7-18.964a24.508,24.508,0,0,1,1.647-6.119,29.893,29.893,0,0,1,2.811-4.085,28.136,28.136,0,0,0,4.753-10.619,13.709,13.709,0,0,0-.165-7.572,6.876,6.876,0,0,0-5.577-4.65,6.771,6.771,0,0,0-5.357,2.394,13.252,13.252,0,0,0-2.7,5.382,25.781,25.781,0,0,0-.888,8.629c.158,2.345.636,4.711.232,7.027a18.809,18.809,0,0,1-1.7,4.667c-1.822,3.881-3.674,7.811-6.427,11.095-.9,1.07-2.133,2.15-3.506,1.9-1.9-.348-2.4-2.749-3.338-4.438-1.149-2.073-3.328-3.319-5.037-4.961-2.431-2.342-3.888-5.483-5.616-8.383s-3.964-5.759-7.15-6.871-7.431.316-8.249,3.59" transform="translate(-123.057 -339.876)" fill="#fbbebe"/>
    <g id="Group_2135" data-name="Group 2135" transform="translate(15.834 60.126)" opacity="0.06">
      <path id="Path_3375" data-name="Path 3375" d="M97.144,384.5a31.148,31.148,0,0,1-2.571-5.333l-.084-.247a7.987,7.987,0,0,1-1.3-1.871,9.433,9.433,0,0,1-.843-3.7v-.141a5.57,5.57,0,0,0-.387,1.233,8.082,8.082,0,0,0,.648,4.137,31.233,31.233,0,0,0,2.571,5.333c1.531,2.559,3.486,5.025,3.789,7.961.456,4.393-2.857,8.262-3.676,12.6-.626,3.316.168,7.022-1.605,9.891A8.305,8.305,0,0,1,90.909,417a7.86,7.86,0,0,1-2.276.986,5.29,5.29,0,0,1-.473.493,5.707,5.707,0,0,0,4.719-.91,8.338,8.338,0,0,0,2.779-2.636c1.773-2.87.986-6.575,1.6-9.891.821-4.339,4.135-8.21,3.678-12.6C100.633,389.487,98.68,387.024,97.144,384.5Z" transform="translate(-88.16 -357.212)"/>
      <path id="Path_3376" data-name="Path 3376" d="M170.343,313.912A7.717,7.717,0,0,0,167,310.588a19.381,19.381,0,0,0-5.624-2.268,20.1,20.1,0,0,1,3.654,1.7,7.754,7.754,0,0,1,3.351,3.326,3.453,3.453,0,0,1-1.05,4.27,6.073,6.073,0,0,1-3.3.451,19.843,19.843,0,0,0-2.914.148,2.8,2.8,0,0,0-1.006.266,2.5,2.5,0,0,0-.932,1.1,7.663,7.663,0,0,0-.789,2.424,5.555,5.555,0,0,1-.717,2.737c-.8,1.023-2.061.868-3.205,1.07a8.629,8.629,0,0,0-2.813,1.075,6.858,6.858,0,0,0-3.323,5.454,10.111,10.111,0,0,1-.136,2.369,3.91,3.91,0,0,1-.641,1.233,8.408,8.408,0,0,1,1.139,1.536,5.84,5.84,0,0,0,1.479-2.207,10.132,10.132,0,0,0,.138-2.372,6.873,6.873,0,0,1,3.323-5.454,8.539,8.539,0,0,1,2.813-1.072c1.139-.2,2.4-.049,3.205-1.072a5.546,5.546,0,0,0,.717-2.737,7.658,7.658,0,0,1,.786-2.424,2.488,2.488,0,0,1,.932-1.085,2.712,2.712,0,0,1,1.006-.266,20.192,20.192,0,0,1,2.914-.15,6.05,6.05,0,0,0,3.3-.451A3.478,3.478,0,0,0,170.343,313.912Z" transform="translate(-132.908 -308.32)"/>
    </g>
    <path id="Path_3377" data-name="Path 3377" d="M174.52,426.55s2.912,2.5,8.442.986C182.962,427.531,179.537,428.88,174.52,426.55Z" transform="translate(-137.394 -337.275)" opacity="0.06"/>
    <path id="Path_3379" data-name="Path 3379" d="M87.655,660.277s.392-.436-.345-.609v-.717h.444a3.784,3.784,0,0,0-3-3.7v-.87h.116V653.25H82.016v1.132H82.1v.88a3.787,3.787,0,0,0-2.959,3.7h.392v.688s-.934.441,0,1.233.789,1.363.789,1.363-.392,1.479-1.178,1.672v13.715a3.047,3.047,0,0,0,3.047,3.05H84.6a3.05,3.05,0,0,0,3.05-3.05V663.916s-1.378-1.033-1.132-1.672A15.427,15.427,0,0,1,87.655,660.277Z" transform="translate(-65.512 -508.083)" fill="#464353"/>
    <ellipse id="Ellipse_483" data-name="Ellipse 483" cx="52.089" cy="3.456" rx="52.089" ry="3.456" transform="translate(137.849 48.597)" fill="#6dd179" opacity="0.1"/>
    <g id="Group_2139" data-name="Group 2139" transform="translate(139.825 -27.05)" opacity="0.5">
      <path id="Path_3410" data-name="Path 3410" d="M700.844,68.4h0a2.724,2.724,0,0,1,2.724,2.724V146.87H698.12V71.121A2.724,2.724,0,0,1,700.844,68.4Z" transform="translate(-682.223 -68.4)"/>
      <path id="Path_3411" data-name="Path 3411" d="M923.738,68.4h0a2.724,2.724,0,0,1,2.724,2.724V146.87H921V71.121a2.724,2.724,0,0,1,2.738-2.721Z" transform="translate(-845.343 -68.4)"/>
      <rect id="Rectangle_2431" data-name="Rectangle 2431" width="5.448" height="97.019" rx="2.724" transform="translate(97.019 11.484) rotate(90)"/>
      <rect id="Rectangle_2432" data-name="Rectangle 2432" width="4.269" height="20.463" rx="2.134" transform="translate(10.009 3.974)"/>
      <rect id="Rectangle_2433" data-name="Rectangle 2433" width="4.269" height="16.637" rx="2.134" transform="translate(5.741 5.888)"/>
      <rect id="Rectangle_2434" data-name="Rectangle 2434" width="4.269" height="20.463" rx="2.134" transform="translate(87.007 24.437) rotate(180)"/>
      <rect id="Rectangle_2435" data-name="Rectangle 2435" width="4.269" height="16.637" rx="2.134" transform="translate(91.276 22.523) rotate(180)"/>
    </g>
    <g id="Group_2140" data-name="Group 2140" transform="translate(178.336 4.653)">
      <path id="Path_3412" data-name="Path 3412" d="M787.047,186.64h11.138a4.558,4.558,0,0,1,4.558,4.558v19.134H782.5V191.2A4.558,4.558,0,0,1,787.047,186.64Z" transform="translate(-782.489 -186.64)" fill="#757576"/>
      <rect id="Rectangle_2436" data-name="Rectangle 2436" width="2.963" height="9.875" transform="translate(8.639 21.973)" fill="#757576"/>
      <rect id="Rectangle_2437" data-name="Rectangle 2437" width="2.963" height="9.875" transform="translate(2.713 33.081)" fill="#757576"/>
      <rect id="Rectangle_2438" data-name="Rectangle 2438" width="2.963" height="9.875" transform="translate(15.058 33.081)" fill="#757576"/>
      <rect id="Rectangle_2439" data-name="Rectangle 2439" width="20.244" height="2.716" transform="translate(0 31.105)" fill="#757576"/>
    </g>
  </g>
</svg>
