<svg xmlns="http://www.w3.org/2000/svg" width="16" height="20" viewBox="0 0 16 20">
  <path id="fire" d="M11.383,21.928c-1.319-2.774-2.41-4.363-1.4-5.86a9.391,9.391,0,0,0,1.4-3.263,3.864,3.864,0,0,1,.524,2.94,7.475,7.475,0,0,0,1.6-5.556c3.486,2.461,3.217,7.79,1.21,11.74,10.678-6.1,4.414-15.238,3.018-16.267.466,1.029.554,2.771-.387,3.616-1.592-6.1-5.528-7.349-5.528-7.349.466,3.145-1.688,6.585-3.764,9.155a6.855,6.855,0,0,0-.8-3.32c-.147,2.278-1.87,4.136-2.337,6.419C4.284,17.273,7.183,19.537,11.383,21.928Z" transform="translate(-4.829 -1.928)" fill="#6dd179" opacity="0.8"/>
</svg>
