<svg xmlns="http://www.w3.org/2000/svg" width="199.918" height="201.588" viewBox="0 0 199.918 201.588">
  <g id="Firmware-update" transform="translate(-193 -105)">
    <ellipse id="Ellipse_92" data-name="Ellipse 92" cx="99.959" cy="5.871" rx="99.959" ry="5.871" transform="translate(193 294.845)" fill="#e6e6e6"/>
    <path id="Path_607" data-name="Path 607" d="M379.161,151.165h-1.075v-29.46a17.05,17.05,0,0,0-17.05-17.05H298.621a17.05,17.05,0,0,0-17.05,17.05V283.322a17.05,17.05,0,0,0,17.05,17.05h62.414a17.05,17.05,0,0,0,17.05-17.05V172.134h1.075Z" transform="translate(-37.844 0.345)" fill="#3f3d56"/>
    <path id="Path_608" data-name="Path 608" d="M385.78,132.5V293.878a12.734,12.734,0,0,1-12.733,12.733H310.333A12.734,12.734,0,0,1,297.6,293.879V132.5a12.734,12.734,0,0,1,12.733-12.733h7.608a6.052,6.052,0,0,0,5.6,8.334H359.3a6.052,6.052,0,0,0,5.6-8.334h8.145A12.734,12.734,0,0,1,385.78,132.5Z" transform="translate(-49.168 -10.33)" fill="#fff"/>
    <path id="Path_615" data-name="Path 615" d="M379.546,548.3v36.111a13.006,13.006,0,0,1-12.733,13.262H304.1a13.006,13.006,0,0,1-12.734-13.262v-32.59a58.369,58.369,0,0,1,88.18-3.52Z" transform="translate(-42.934 -300.038)" fill="rgba(109,209,121,0.1)"/>
    <circle id="Ellipse_95" data-name="Ellipse 95" cx="18.556" cy="18.556" r="18.556" transform="translate(274.035 246.769)" fill="#6dd179" opacity="0.2"/>
    <path id="Ellipse_96" data-name="Ellipse 96" d="M14.941,0A14.941,14.941,0,1,1,0,14.941,14.941,14.941,0,0,1,14.941,0Z" transform="translate(277.649 250.384)" fill="#6dd179"/>
    <path id="Path_616" data-name="Path 616" d="M245.413,532.188l-5.266-6.77,3.062-2.382,2.493,3.205,8.422-8.89,2.816,2.668Z" transform="translate(43.435 -259.475)" fill="#fff"/>
    <g id="updating" transform="translate(-653.383 -299.325)">
      <path id="Icon_material-system-update" data-name="Icon material-system-update" d="M20.175,1.51,9.612,1.5A2.072,2.072,0,0,0,7.5,3.516V21.664a2.072,2.072,0,0,0,2.112,2.016H20.175a2.072,2.072,0,0,0,2.112-2.016V3.516A2.064,2.064,0,0,0,20.175,1.51Zm0,18.138H9.612V5.533H20.175ZM19.119,13.6H15.95V8.558H13.837V13.6H10.669l4.225,4.033Z" transform="translate(930.941 458.809)" fill="#6dd179"/>
      <g id="Icon_ionic-ios-sync" data-name="Icon ionic-ios-sync" transform="translate(917 447)">
        <path id="Path_60" data-name="Path 60" d="M55.226,28.289a1.621,1.621,0,0,0-2.3,0l-1.558,1.558A24.641,24.641,0,0,0,43.54,10.07,24.535,24.535,0,0,0,17.674,5.4a24.087,24.087,0,0,0-8.115,5.43A24.682,24.682,0,0,0,5.532,16.2a1.72,1.72,0,0,0-.144,1.33,1.7,1.7,0,0,0,.863,1.019,1.717,1.717,0,0,0,.767.18A1.694,1.694,0,0,0,8.5,17.849,21.035,21.035,0,0,1,41.85,13.175a21.135,21.135,0,0,1,6.041,17.284l-2.265-2.217a1.592,1.592,0,0,0-2.241.012,1.592,1.592,0,0,0,0,2.253l5.13,5.142a1.186,1.186,0,0,0,1.678,0l5.046-5.058A1.639,1.639,0,0,0,55.226,28.289Z" transform="translate(1.825 -3.586)" fill="#6dd179"/>
        <path id="Path_61" data-name="Path 61" d="M50.578,30.832a1.717,1.717,0,0,0-.767-.18,1.694,1.694,0,0,0-1.486.875,21.064,21.064,0,0,1-33.357,4.687A21.262,21.262,0,0,1,8.939,18.966l2.205,2.217a1.534,1.534,0,0,0,2.157,0l.156-.156a1.527,1.527,0,0,0,0-2.146L8.315,13.728a1.186,1.186,0,0,0-1.678,0L1.6,18.8a1.627,1.627,0,1,0,2.3,2.3l1.558-1.57A24.943,24.943,0,0,0,6.541,28.7,24.461,24.461,0,0,0,29.89,45.827a24.511,24.511,0,0,0,9.217-1.8,24.21,24.21,0,0,0,8.1-5.406,24.475,24.475,0,0,0,4.1-5.442,1.687,1.687,0,0,0-.731-2.349Z" transform="translate(-1.127 3.316)" fill="#6dd179"/>
      </g>
    </g>
  </g>
</svg>
