<svg id="Activity_-illustration" data-name="Activity -illustration" xmlns="http://www.w3.org/2000/svg" width="359.511" height="215.706" viewBox="0 0 359.511 215.706">
  <path id="Path_2218" data-name="Path 2218" d="M444.214,255.087c-10.351-22.149-30.609-41.045-55.081-44.124-6.47-.814-13.226-.488-19.23,2.035-7.88,3.311-13.688,9.995-19.558,16.16A235.225,235.225,0,0,1,308.9,263.7c-7.459,4.884-15.459,9.442-24.314,10.691-17.755,2.506-35.318-9.471-43.415-25.3-5.058-9.888-7.4-21.5-11.485-31.782-4.709-.009-10.32-.007-16.356.02-16.685.076-30.266.32-30.266.32s16.143-21.151,30.205-13.315c4.494,2.5,9.2,4.739,13.526,6.622a37.508,37.508,0,0,0-9.821-12.265c-8.408-6.67-19.8-8.54-30.563-8.044-11.306.522-22.715,3.516-31.9,10.054-16.365,11.648-23.124,32.151-28.908,51.256l13.981,6.933c6-5.128,14.767-10.2,22.85-5.7a193.165,193.165,0,0,0,30.216,13.039s-13.471-.12-30.156-.044c-2.8.013-5.514.03-8.091.051L309.622,343.2c51.2.713,89.8-2.025,138.45,0,2.537.106,8.244-13.05,8.263-16.512C456.469,302.292,454.565,277.236,444.214,255.087ZM394.5,261.725c-16.685.076-30.266.32-30.266.32s16.143-21.151,30.205-13.315a193.163,193.163,0,0,0,30.216,13.039S411.186,261.649,394.5,261.725Z" transform="translate(-102.203 -178.001)" fill="#e0e0e0"/>
  <path id="Path_2219" data-name="Path 2219" d="M880.7,565.822c0-8.341-5.164-15.1-11.534-15.1-4,0-7.53,2.672-9.6,6.728a6.909,6.909,0,0,0-2.2-.362,7.51,7.51,0,0,0-5.165,2.18c-1.865-5.057-5.818-8.545-10.394-8.545-4.278,0-8.01,3.052-10,7.582a7.173,7.173,0,0,0-3.948-1.217c-4.889,0-8.852,5.189-8.852,11.591a14.239,14.239,0,0,0,1.4,6.241H878.37A18.256,18.256,0,0,0,880.7,565.822Z" transform="translate(-544.723 -405.518)" fill="#ff2929"/>
  <path id="Path_2220" data-name="Path 2220" d="M383.3,587.95H82v-.714H383Z" transform="translate(-52.756 -372.28)" fill="#2f2e41"/>
  <path id="Path_2221" data-name="Path 2221" d="M359.511,463.95H0v-.713H359.15Z" transform="translate(0 -293.671)" fill="#2f2e41"/>
  <path id="Path_2222" data-name="Path 2222" d="M483.63,413.5s2.242-16.438,5.978-11.955,0,11.208,0,11.208l-2.989,3.736-2.989-2.242Z" transform="translate(-330.992 -310.751)" fill="#ffb8b8"/>
  <path id="Path_2223" data-name="Path 2223" d="M454.444,438.674s7.472-8.219,8.966-6.725,5.978,2.242,5.23,5.23-16.438,12.7-16.438,12.7Z" transform="translate(-310.85 -330.343)" fill="#7c7c7c"/>
  <path id="Path_2225" data-name="Path 2225" d="M338.979,449.038v5.978s-.747,13.449,3.736,12.7,2.242-11.955,2.242-11.955l-.747-6.725Z" transform="translate(-238.434 -341.268)" fill="#ffb8b8"/>
  <path id="Path_2226" data-name="Path 2226" d="M281.995,570.557s-6.725,10.461-8.966,11.208-14.2,7.472-15.691,14.2l-10.461,13.45,5.23,6.725s23.91-25.4,30.635-27.646,13.449-13.45,13.449-13.45Z" transform="translate(-179.45 -416.944)" fill="#ffb8b8"/>
  <path id="Path_2227" data-name="Path 2227" d="M449.622,522.369s14.2,2.242,11.955,11.208-23.91,27.646-23.91,27.646l-.747,4.483L428.7,567.2l-3.736-3.736.747-2.241s8.966-8.219,9.714-11.208,8.966-14.944,12.7-15.691l-5.23-2.989Z" transform="translate(-293.341 -387.093)" fill="#ffb8b8"/>
  <path id="Path_2228" data-name="Path 2228" d="M236.987,672.614s2.989-4.484-1.494-3.736-7.472,1.494-7.472,4.483,3.736,23.91,8.219,22.416.747-8.219.747-8.219,2.242-5.978,3.736-6.725,1.494-4.483,0-4.483S236.239,674.109,236.987,672.614Z" transform="translate(-167.47 -480.147)" fill="#2f2e41"/>
  <path id="Path_2229" data-name="Path 2229" d="M420.224,630.417s0-3.736-2.989,0-4.483,6.725-1.494,8.966,13.45,7.472,13.45,7.472,11.208,2.242,9.713-2.989c0,0-7.472-3.736-7.472-6.724s0-8.22-2.242-6.725S420.224,632.658,420.224,630.417Z" transform="translate(-286.453 -454.388)" fill="#2f2e41"/>
  <path id="Path_2230" data-name="Path 2230" d="M355.213,476.275s-10.461,1.494-9.714,16.438c0,0-13.449,13.449-9.714,17.933s11.955,12.7,14.944,10.461,11.955-19.427,11.955-19.427,20.921,7.472,24.657,3.736,7.472-12.7,7.472-12.7L376.134,483Z" transform="translate(-235.82 -357.979)" fill="#2f2e41"/>
  <circle id="Ellipse_178" data-name="Ellipse 178" cx="8.966" cy="8.966" r="8.966" transform="translate(139.848 55.487)" fill="#ffb8b8"/>
  <path id="Path_2231" data-name="Path 2231" d="M441.932,333.8s-5.23,8.219-6.725,8.966,10.461,8.219,10.461,8.219,0-9.714,3.736-11.955Z" transform="translate(-299.907 -268.331)" fill="#ffb8b8"/>
  <path id="Path_2232" data-name="Path 2232" d="M408.717,354.771s-11.955-3.736-14.2,2.242S387.048,374.2,387.8,381.67s2.242,5.978,0,8.219-3.736.747-2.989,3.736,1.494,2.989.747,4.483,8.966,6.725,17.186,7.472l8.219.747s0-13.449,1.494-16.438,4.483-8.966,4.483-11.208V372.75a22.685,22.685,0,0,0-2.989-11.255h0S409.464,354.771,408.717,354.771Z" transform="translate(-267.56 -280.419)" fill="#7c7c7c"/>
  <path id="Path_2233" data-name="Path 2233" d="M366.159,365.232s-27.646,2.242-30.635,9.714-4.483,22.416-1.494,22.416,6.725,1.495,7.472,0,3.736-16.438,4.483-16.438,23.163-2.242,23.163-2.242S378.861,366.726,366.159,365.232Z" transform="translate(-234.148 -288.041)" fill="#7c7c7c"/>
  <path id="Path_2234" data-name="Path 2234" d="M455.407,311.089s2.38-4.135,5.354-.543,7.813-3.009,7.07-4.417-3.366.063-7.861-1.406-13.154-4.463-14.6,5.3,2,8.741,2,8.741,1.583-8.653,3.014-6.167l1.431,2.485,1.241.305Z" transform="translate(-306.222 -248.911)" fill="#2f2e41"/>
  <circle id="Ellipse_179" data-name="Ellipse 179" cx="10.939" cy="10.939" r="10.939" transform="translate(223.718 15.92)" fill="#2f2e41"/>
  <path id="Path_2235" data-name="Path 2235" d="M700.289,248.192s.567,10.19-.566,10.19,7.076,4.812,7.076,4.812l5.095-2.83v-3.4s-6.793-.849-3.963-8.208S700.289,248.192,700.289,248.192Z" transform="translate(-469.124 -212.313)" fill="#ffb8b8"/>
  <path id="Path_2236" data-name="Path 2236" d="M573.3,411.517l-.849,8.492,2.83.849,2.264-2.264.849-7.076Z" transform="translate(-366.203 -260.716)" fill="#ffb8b8"/>
  <path id="Path_2237" data-name="Path 2237" d="M689.124,420.925l1.415,5.378,3.962,2.547,4.246-2.264-4.812-7.925Z" transform="translate(-440.811 -265.224)" fill="#ffb8b8"/>
  <circle id="Ellipse_180" data-name="Ellipse 180" cx="8.208" cy="8.208" r="8.208" transform="translate(225.623 22.927)" fill="#ffb8b8"/>
  <path id="Path_2238" data-name="Path 2238" d="M684.909,297.6l-1.981-.849a8.027,8.027,0,0,1-3.68-5.944c-.283-3.962,2.831-9.057,2.831-9.057l4.529-1.415,5.321,4.331.057,6.991Z" transform="translate(-456.081 -234.476)" fill="#ffb8b8"/>
  <path id="Path_2239" data-name="Path 2239" d="M657.763,284.865l-1.132-.566s-5.661-.283-6.227,6.51-2.547,18.115-2.547,18.115-4.529,7.925-4.246,16.417l-2.264,7.359s-3.114,10.756.566,10.756,3.4-11.6,3.4-11.6,6.793-16.417,7.359-19.247,5.378-16.134,3.963-19.813S657.763,284.865,657.763,284.865Z" transform="translate(-431.031 -236.619)" fill="#ffb8b8"/>
  <path id="Path_2240" data-name="Path 2240" d="M700.483,335.89V339s1.981,2.264,1.132,3.679a24.7,24.7,0,0,0-1.7,4.246l3.963,6.227,13.3,1.132,2.645-17.724Z" transform="translate(-469.262 -269.64)" fill="#ffb8b8"/>
  <path id="Path_2241" data-name="Path 2241" d="M736.425,205.624l2.264-1.132s4.812-3.4,8.774-3.963l12.171-8.208,7.925-18.964s-.283-10.19,1.981-9.057,1.981,9.907,1.981,9.907-4.245,17.549-7.925,22.361S746.615,209.3,746.615,209.3s-3.68,4.246-3.4,6.227S736.425,205.624,736.425,205.624Z" transform="translate(-492.489 -161.044)" fill="#ffb8b8"/>
  <path id="Path_2242" data-name="Path 2242" d="M658.217,365.807a3.531,3.531,0,0,0-5.095,1.415c-1.981,3.4-5.661,4.246-7.925,14.435s-7.642,26.323-9.058,27.455-7.359,13.02-3.963,29.72h5.661l4.812-24.059s15.567-19.247,16.7-27.172l5.095,29.72s.283,11.322,4.529,16.7l4.529,10.756,5.944-2.831-6.793-27.172s3.4-27.455,1.132-35.1l-.325-10.019S664.161,370.053,658.217,365.807Z" transform="translate(-425.077 -287.206)" fill="#2f2e41"/>
  <path id="Path_2243" data-name="Path 2243" d="M627.748,584.193h-3.4c-.566,0-5.095,3.68-3.114,5.661s5.095,5.661,5.095,5.661,11.039,1.4,11.322-.577-4.811-6.216-4.811-6.216l-1.415-4.529S628.6,581.08,627.748,584.193Z" transform="translate(-418.643 -426.077)" fill="#2f2e41"/>
  <path id="Path_2244" data-name="Path 2244" d="M753.945,591.61a54.055,54.055,0,0,1-5.661-.566c-.849-.283-2.548,7.359,0,7.925s13.02,1.415,13.02,1.415,8.208-.283,7.642-2.548-11.6-6.793-11.6-6.793S755.926,588.214,753.945,591.61Z" transform="translate(-499.318 -430.652)" fill="#2f2e41"/>
  <path id="Path_2245" data-name="Path 2245" d="M694.693,276.476l-1.415-.849-1.7,1.415s5.095,3.4,3.962,6.51-5.944,9.624-5.944,9.624,4.246,4.812,4.246,6.51c0,0,11.039-3.963,19.247,0,0,0,0-5.661,1.132-6.793s1.7-5.095-1.132-8.491a62.059,62.059,0,0,1-5.378-7.925l-2.83-1.7-1.458.462s2.873,3.217.043,3.5S696.109,278.174,694.693,276.476Z" transform="translate(-462.623 -230.908)" fill="#323232"/>
  <path id="Path_2246" data-name="Path 2246" d="M724.772,178.347a5.981,5.981,0,0,1-3.709,1.943c-2.473.353-.53,4.239-.53,4.239a2.233,2.233,0,0,1,.707-2.649C722.652,180.643,724.772,179.936,724.772,178.347Z" transform="translate(-482.091 -170.139)" fill="#2f2e41"/>
  <circle id="Ellipse_181" data-name="Ellipse 181" cx="3.049" cy="3.049" r="3.049" transform="translate(234.844 12.154)" fill="#2f2e41"/>
  <path id="Path_2247" data-name="Path 2247" d="M714.9,198.78a21.581,21.581,0,0,0-8.56-2.129l.545-2.082a16.725,16.725,0,0,0,8.56,2.129Z" transform="translate(-473.446 -180.576)" fill="#454d66"/>
  <path id="Path_2248" data-name="Path 2248" d="M689.811,206.89a17.952,17.952,0,0,1-11.134,5.832c-7.423,1.06-1.591,12.725-1.591,12.725s-2.121-4.242,2.121-7.953S689.811,211.662,689.811,206.89Z" transform="translate(-453.302 -188.502)" fill="#2f2e41"/>
  <path id="Path_2249" data-name="Path 2249" d="M717.119,206.1s2.121,7.423,5.3,8.483,1.591,12.195-3.711,13.255c0,0,4.506-6.1,1.856-10.869S716.324,208.482,717.119,206.1Z" transform="translate(-480.225 -187.992)" fill="#2f2e41"/>
  <rect id="Rectangle_2038" data-name="Rectangle 2038" width="19.53" height="2.264" transform="translate(267.698 5.661)" fill="#2f2e41"/>
  <ellipse id="Ellipse_182" data-name="Ellipse 182" cx="1.698" cy="6.793" rx="1.698" ry="6.793" transform="translate(285.582 0)" fill="#2f2e41"/>
  <ellipse id="Ellipse_183" data-name="Ellipse 183" cx="1.698" cy="6.793" rx="1.698" ry="6.793" transform="translate(265.853 0)" fill="#2f2e41"/>
  <rect id="Rectangle_2039" data-name="Rectangle 2039" width="19.53" height="2.264" transform="translate(277.71 162.147)" fill="#2f2e41"/>
  <ellipse id="Ellipse_184" data-name="Ellipse 184" cx="1.698" cy="6.793" rx="1.698" ry="6.793" transform="translate(296.2 156.568)" fill="#2f2e41"/>
  <ellipse id="Ellipse_185" data-name="Ellipse 185" cx="1.698" cy="6.793" rx="1.698" ry="6.793" transform="translate(275.86 156.568)" fill="#2f2e41"/>
  <path id="Path_2250" data-name="Path 2250" d="M142.7,565.822c0-8.341-5.164-15.1-11.535-15.1-4,0-7.53,2.672-9.6,6.728a6.91,6.91,0,0,0-2.2-.362,7.511,7.511,0,0,0-5.165,2.18c-1.864-5.057-5.818-8.545-10.393-8.545-4.278,0-8.01,3.052-10,7.582a7.172,7.172,0,0,0-3.948-1.217c-4.889,0-8.852,5.189-8.852,11.591a14.239,14.239,0,0,0,1.395,6.241H140.37A18.259,18.259,0,0,0,142.7,565.822Z" transform="translate(-73.51 -405.518)" fill="#ff2929"/>
</svg>
