<svg xmlns="http://www.w3.org/2000/svg" width="287.432" height="230.765" viewBox="0 0 287.432 230.765">
  <g id="FM-complete" transform="translate(6)">
    <rect id="Rectangle_2818" data-name="Rectangle 2818" width="161" height="162" rx="20" transform="translate(87)" fill="#fff"/>
    <g id="Rectangle_2819" data-name="Rectangle 2819" transform="translate(87)" fill="none" stroke="#cacaca" stroke-width="1">
      <rect width="161" height="162" rx="20" stroke="none"/>
      <rect x="0.5" y="0.5" width="160" height="161" rx="19.5" fill="none"/>
    </g>
    <path id="Path_438" data-name="Path 438" d="M309.082,655.32a8.3,8.3,0,0,0,8.512-1.62c2.981-2.7,3.916-7.159,4.676-11.285l2.25-12.2-4.71,3.505c-3.387,2.521-6.85,5.122-9.2,8.773s-3.368,8.635-1.484,12.586" transform="translate(-290.471 -444.374)" fill="#6dd179"/>
    <path id="Path_439" data-name="Path 439" d="M311.09,686.989a66.082,66.082,0,0,1-.786-14.114,23.326,23.326,0,0,1,3.96-11.638,18.492,18.492,0,0,1,4.6-4.5c.459-.313.882.474.425.786a18.152,18.152,0,0,0-6.736,8.784,31.731,31.731,0,0,0-1.449,12.709c.153,2.59.477,5.163.8,7.732a.477.477,0,0,1-.294.56.421.421,0,0,1-.518-.318Z" transform="translate(-291.753 -460.418)" fill="#f2f2f2"/>
    <path id="Path_442" data-name="Path 442" d="M324.424,703a6.36,6.36,0,0,0,5.654,3.155c2.863-.147,5.248-2.306,7.4-4.356l6.353-6.063-4.2-.218c-3.024-.156-6.125-.3-9.005.706a8.969,8.969,0,0,0-6.062,6.655" transform="translate(-300.82 -483.917)" fill="#6dd179"/>
    <path id="Path_442-2" data-name="Path 442" d="M343.827,703a6.36,6.36,0,0,1-5.654,3.155c-2.863-.147-5.248-2.306-7.4-4.356l-6.353-6.063,4.2-.218c3.024-.156,6.125-.3,9.005.706a8.969,8.969,0,0,1,6.062,6.655" transform="translate(-330.424 -494.405)" fill="#6dd179"/>
    <path id="Path_443" data-name="Path 443" d="M308,718.845c2.854-5.458,6.164-11.523,12.078-13.462a12.521,12.521,0,0,1,5.08-.567c.539.05.4.949-.134.9a11.825,11.825,0,0,0-8.107,2.318,22.2,22.2,0,0,0-5.572,6.5c-.923,1.519-1.749,3.1-2.576,4.683A.427.427,0,1,1,308,718.845Z" transform="translate(-290.342 -489.591)" fill="#f2f2f2"/>
    <path id="Path_443-2" data-name="Path 443" d="M325.45,718.845c-2.854-5.458-6.164-11.523-12.078-13.462a12.521,12.521,0,0,0-5.08-.567c-.539.05-.4.949.134.9a11.825,11.825,0,0,1,8.107,2.318,22.2,22.2,0,0,1,5.572,6.5c.923,1.519,1.749,3.1,2.576,4.683A.427.427,0,1,0,325.45,718.845Z" transform="translate(-306.106 -500.079)" fill="#f2f2f2"/>
    <path id="Path_142" data-name="Path 142" d="M705.241,262.185a1.346,1.346,0,0,0,0,2.684h68.123a1.346,1.346,0,0,0,0-2.684Z" transform="translate(-542.224 -221.148)" fill="#e4e4e4"/>
    <path id="Path_143" data-name="Path 143" d="M705.241,282.65a1.346,1.346,0,0,0,0,2.684h34.778a1.346,1.346,0,0,0,0-2.684Z" transform="translate(-542.224 -233.561)" fill="#e4e4e4"/>
    <path id="Path_142-2" data-name="Path 142" d="M541.672,392.7a1.346,1.346,0,0,0,0,2.684H669.4a1.346,1.346,0,0,0,0-2.684Z" transform="translate(-438.197 -300.314)" fill="#e4e4e4"/>
    <path id="Path_143-2" data-name="Path 143" d="M541.672,413.17a1.346,1.346,0,0,0,0,2.684h94.386a1.346,1.346,0,0,0,0-2.684Z" transform="translate(-438.197 -312.727)" fill="#e4e4e4"/>
    <path id="Path_142-3" data-name="Path 142" d="M541.672,433.172a1.346,1.346,0,0,0,0,2.684H669.4a1.346,1.346,0,0,0,0-2.684Z" transform="translate(-438.197 -324.86)" fill="#e4e4e4"/>
    <path id="Path_143-3" data-name="Path 143" d="M541.672,453.637a1.346,1.346,0,0,0,0,2.684h94.386a1.346,1.346,0,0,0,0-2.684Z" transform="translate(-438.197 -337.273)" fill="#e4e4e4"/>
    <path id="Path_142-4" data-name="Path 142" d="M541.672,474.172a1.346,1.346,0,0,0,0,2.684H669.4a1.346,1.346,0,0,0,0-2.684Z" transform="translate(-438.197 -349.728)" fill="#e4e4e4"/>
    <path id="Path_143-4" data-name="Path 143" d="M541.672,494.637a1.346,1.346,0,0,0,0,2.684h94.386a1.346,1.346,0,0,0,0-2.684Z" transform="translate(-438.197 -362.141)" fill="#e4e4e4"/>
    <path id="Path_2862" data-name="Path 2862" d="M568.256,265.386c-9.851,0-17.837-8.632-17.837-19.279s7.986-19.279,17.837-19.279,17.837,8.632,17.837,19.279S578.1,265.374,568.256,265.386Z" transform="translate(-444.549 -199.702)" fill="#6dd179"/>
    <path id="Path_2863" data-name="Path 2863" d="M420.52,489.364a4.945,4.945,0,0,0-1.756-3.609,4.2,4.2,0,0,0-3.687-.862l-5.9-8.981-5.923,2.542,8.491,12.556a4.476,4.476,0,0,0,5.062,3.388A4.777,4.777,0,0,0,420.52,489.364Z" transform="translate(-350.957 -350.784)" fill="#a0616a"/>
    <path id="Path_2864" data-name="Path 2864" d="M387.944,423.329,370.1,398.315l6.684-22.706c.49-5.709,3.795-7.3,3.936-7.368l.215-.1,5.817,16.766-4.271,12.31,10.482,19.056Z" transform="translate(-329.872 -285.415)" fill="#3f3d56"/>
    <path id="Path_2865" data-name="Path 2865" d="M569.162,312.355a4.436,4.436,0,0,0-3.193,2.171,5.154,5.154,0,0,0-.51,4.04l-7.828,7.048,2.8,6.186,10.925-10.121a4.942,4.942,0,0,0,2.734-5.717,4.509,4.509,0,0,0-4.93-3.608Z" transform="translate(-449.136 -251.553)" fill="#ffb8b8"/>
    <path id="Path_2866" data-name="Path 2866" d="M502.067,336.519l-21.695,21.158-21.462-5.448c-5.3-.086-7.03-3.525-7.1-3.671l-.108-.224,15.015-7.564,11.685,3.651,16.767-12.769Z" transform="translate(-381.766 -263.283)" fill="#3f3d56"/>
    <path id="Path_2867" data-name="Path 2867" d="M227.246,530.973h5.829l2.773-24.3h-8.6Z" transform="translate(-144.524 -307.322)" fill="#ffb8b8"/>
    <path id="Path_2868" data-name="Path 2868" d="M0,0H18.32V7.65H5.14A5.359,5.359,0,0,1,0,2.1V0Z" transform="translate(99.792 229.502) rotate(179.997)" fill="#2f2e41"/>
    <path id="Path_2869" data-name="Path 2869" d="M163.246,530.973h5.829l2.773-24.3h-8.6Z" transform="translate(-103.821 -307.322)" fill="#ffb8b8"/>
    <path id="Path_2870" data-name="Path 2870" d="M0,0H18.32V7.65H5.14A5.359,5.359,0,0,1,0,2.1Z" transform="translate(76.494 229.502) rotate(179.997)" fill="#2f2e41"/>
    <path id="Path_2871" data-name="Path 2871" d="M157.552,342.991l.475,35.973.476,47.279,10.46-1.028,5.23-65.265,6.656,65.265h10.8l1.088-65.779-3.8-14.389Z" transform="translate(-100.2 -208.041)" fill="#2f2e41"/>
    <path id="Path_2872" data-name="Path 2872" d="M421.359,403.108c-11.381,0-21.857-5.567-22-5.643l-.117-.063-.955-24.774c-.277-.875-5.731-18.15-6.654-23.641-.936-5.563,12.627-10.445,14.274-11.016l.374-4.475,15.2-1.77,1.926,5.726,5.453,2.21a2.97,2.97,0,0,1,1.672,3.425L427.5,356.406l7.4,44.071-1.594.075A27.071,27.071,0,0,1,421.359,403.108Z" transform="translate(-343.535 -263.327)" fill="#3f3d56"/>
    <path id="Path_2876" data-name="Path 2876" d="M11.147-.372C17.3-.578,22.127,4.46,21.922,10.88s-5.363,11.791-11.519,12S-.578,18.045-.372,11.625,4.991-.167,11.147-.372Z" transform="translate(56.09 49.03) rotate(-28.663)" fill="#ffb8b8"/>
    <path id="Path_2873" data-name="Path 2873" d="M420.786,281.953a3.551,3.551,0,0,0,6.23-2.168,4.285,4.285,0,0,0,0-.765c-.14-1.453-.917-2.772-.731-4.306a2.367,2.367,0,0,1,.382-1.057c1.662-2.405,5.563,1.076,7.132-1.1.962-1.335-.169-3.437.569-4.93.974-1.97,3.859-1,5.669-2.077,2.013-1.2,1.893-4.538.568-6.569a9.349,9.349,0,0,0-7.248-3.988,18.186,18.186,0,0,0-8.189,1.728c-2.968,1.25-5.912,2.978-7.738,5.8-2.221,3.431-2.435,8.043-1.324,12.054C416.777,277.011,419.083,279.992,420.786,281.953Z" transform="translate(-358.708 -216.767)" fill="#2f2e41"/>
    <path id="Path_2874" data-name="Path 2874" d="M468.454,740.749H260.128c-.3,0-.547-.176-.547-.393s.245-.393.547-.393H468.454c.3,0,.547.176.547.393S468.756,740.749,468.454,740.749Z" transform="translate(-259.581 -510.944)" fill="#cacaca"/>
    <path id="Path_2875" data-name="Path 2875" d="M584.089,272.22a1.22,1.22,0,0,1-.867-.368l-5.882-5.9a1.457,1.457,0,0,1-.066-1.946,1.208,1.208,0,0,1,1.8-.072l4.982,5,9.856-10.653a1.208,1.208,0,0,1,1.8,0,1.457,1.457,0,0,1,0,1.948L584.99,271.817A1.225,1.225,0,0,1,584.089,272.22Z" transform="translate(-462.412 -217.533)" fill="#fff"/>
    <path id="Path_3158" data-name="Path 3158" d="M709.267,318.895l2.179.467a12.543,12.543,0,0,1,.339-2.705,8.121,8.121,0,0,0,1.227,3.039l12.5,2.669,12-12.661c.018-6.331-3.5-11.141-9.8-11.141-.38,0-.774.018-1.172.055a13.331,13.331,0,0,0-15.261,10.478C706.8,313.493,708.425,316.08,709.267,318.895Z" transform="translate(-480.807 -244.805)" fill="#2f2e41"/>
    <path id="Path_3159" data-name="Path 3159" d="M430.433,462.469H425.9l-2.156-17.484h6.69Z" transform="translate(-208.117 -240.311)" fill="#ffb6b6"/>
    <path id="Path_3160" data-name="Path 3160" d="M681.178,686.693h-3.216l-.574-3.037-1.47,3.037h-8.531a1.918,1.918,0,0,1-1.09-3.5l6.812-4.7v-3.07l7.166.428Z" transform="translate(-456.834 -455.929)" fill="#2f2e41"/>
    <path id="Path_3161" data-name="Path 3161" d="M541.258,454.153l-3.943,2.237-10.5-14.143,5.819-3.3Z" transform="translate(-265.837 -236.93)" fill="#ffb6b6"/>
    <path id="Path_3162" data-name="Path 3162" d="M812.013,673.566l-2.8,1.587-2-2.358.22,3.367-7.42,4.21a1.918,1.918,0,0,1-2.673-2.5l3.6-7.454-1.515-2.67,6.443-3.164Z" transform="translate(-530.581 -449.857)" fill="#2f2e41"/>
    <path id="Path_3163" data-name="Path 3163" d="M652.577,351.844a4.014,4.014,0,0,1,3.236,5.237l6.936,6-2.62,5.105-9.676-8.616a4.036,4.036,0,0,1,2.125-7.729Z" transform="translate(-447.016 -274.692)" fill="#ffb6b6"/>
    <path id="Path_3164" data-name="Path 3164" d="M666.207,378.265l-4.639-7.381,5.158-5.274,3.664,4.458,4.538,2.025,6.228,3.795c1.238-1.458,10.782-12.421,15.04-9.264a4.287,4.287,0,0,1,1.846,3.072c.3,2.935-2.33,5.92-2.429,6.031l-5.625,7.588c-.175.477-2.036,5.39-4.94,6.712a3.3,3.3,0,0,1-2.655.087c-7.7-3-12.882-6.385-15.2-9.889A8.892,8.892,0,0,1,666.207,378.265Z" transform="translate(-454.649 -282.427)" fill="#2f2e41"/>
    <path id="Path_3165" data-name="Path 3165" d="M696.865,429.384s-13.328,21.23-10.913,23.644a12.891,12.891,0,0,0,6.172,3.049l8.316-10.776Z" transform="translate(-468.141 -318.141)" fill="#2f2e41"/>
    <path id="Path_3166" data-name="Path 3166" d="M720.846,363.484l-6.281,4.249a16.2,16.2,0,0,0-6.313,18.485l1.768,5.375Z" transform="translate(-480.339 -281.236)" fill="#2f2e41"/>
    <path id="Path_3167" data-name="Path 3167" d="M458.07,266.874l.84,2.925,2.866,35.273,14.317,26.682-6.833,4.881-19.523-25.38-7.722-25.2-12.127,55.787-9.111-.651,6.327-77.348,12.007-21.771Z" transform="translate(-206.455 -126.675)" fill="#2f2e41"/>
    <path id="Path_3168" data-name="Path 3168" d="M713.778,365.912l-8.743,7.145a11.906,11.906,0,0,0-3.952,6.087h0a11.908,11.908,0,0,0-.418,3.333l.26,15.515-8.016,21.423s21.732,8.21,24.629.966S713.778,365.912,713.778,365.912Z" transform="translate(-472.202 -282.596)" fill="#ccc"/>
    <path id="Path_3169" data-name="Path 3169" d="M710.823,403.9l-1.449-5.8.354-14.419c.028-.838,4.494-13.878,10.122-27.729l4.842-4.842,2.61-1.7,5.746,5.3s-.731,14.518-.494,29.38c.065,4.112-.657,8.914-.966,12.556l2.64,11.731v6.53l-.172.035c-.171.035-2.817-.047-13.673-.047C711.388,414.9,717.376,408.523,710.823,403.9Z" transform="translate(-481.422 -273.355)" fill="#2f2e41"/>
    <ellipse id="Ellipse_465" data-name="Ellipse 465" cx="8.748" cy="8.748" rx="8.748" ry="8.748" transform="translate(231.443 57.017)" fill="#ffb6b6"/>
    <path id="Path_3172" data-name="Path 3172" d="M700,419.4a4.014,4.014,0,0,1,6.153.186l8.832-2.479,2.816,5-12.522,3.326A4.036,4.036,0,0,1,700,419.4Z" transform="translate(-475.589 -311.266)" fill="#ffb6b6"/>
    <path id="Path_3173" data-name="Path 3173" d="M731.192,393.928l-8.715-.2-1.558-7.211,5.739-.6,4.19-2.671,6.6-3.106c-.534-1.837-4.423-15.842.558-17.655a4.287,4.287,0,0,1,3.581.153c2.615,1.366,3.656,5.206,3.693,5.351l3.232,8.876c.3.408,3.376,4.67,2.878,7.822A3.3,3.3,0,0,1,750,386.952c-6.745,4.769-12.427,7.231-16.626,7.23A8.892,8.892,0,0,1,731.192,393.928Z" transform="translate(-487.887 -280.499)" fill="#2f2e41"/>
    <path id="Path_3174" data-name="Path 3174" d="M713.349,303.138c.7.911,3.113,1.716,5.978,2.366,0-.06,0-.119,0-.178a12.554,12.554,0,0,1,.339-2.705,8.123,8.123,0,0,0,1.227,3.039c.046.069.092.137.142.206,2.458.485,5.058.861,7.095,1.112-1.4,5.044-6.77,9.182-6.189,12.249l15.733,3.213a12.335,12.335,0,0,1,.3-3.8,8.178,8.178,0,0,0,2.28,4.326l1.336.275.4-1.964c3.451-8.29-1.359-16.776-9.242-21.166a9.581,9.581,0,0,0-6.07-4.074l-1.964-.4a9.627,9.627,0,0,0-11.361,7.5Z" transform="translate(-483.648 -243.129)" fill="#2f2e41"/>
  </g>
</svg>
