<svg xmlns="http://www.w3.org/2000/svg" width="295.105" height="236.253" viewBox="0 0 295.105 236.253">
  <g id="FM-question" transform="translate(23.639 37.158)">
    <circle id="Ellipse_525" data-name="Ellipse 525" cx="8.059" cy="8.059" r="8.059" transform="translate(-9.871 -19.441)" fill="rgba(237,91,91,0.18)"/>
    <circle id="Ellipse_526" data-name="Ellipse 526" cx="8.059" cy="8.059" r="8.059" transform="translate(197.478)" fill="rgba(237,91,91,0.18)"/>
    <circle id="Ellipse_527" data-name="Ellipse 527" cx="8.059" cy="8.059" r="8.059" transform="translate(167.029 34.253)" fill="#f2f2f2"/>
    <circle id="Ellipse_528" data-name="Ellipse 528" cx="8.059" cy="8.059" r="8.059" transform="translate(27.068 23.878)" fill="rgba(237,91,91,0.18)"/>
    <circle id="Ellipse_529" data-name="Ellipse 529" cx="8.059" cy="8.059" r="8.059" transform="translate(-23.639 43.019)" fill="rgba(237,91,91,0.18)"/>
    <circle id="Ellipse_530" data-name="Ellipse 530" cx="8.059" cy="8.059" r="8.059" transform="translate(130.09 122.906)" fill="#f2f2f2"/>
    <circle id="Ellipse_532" data-name="Ellipse 532" cx="8.059" cy="8.059" r="8.059" transform="translate(255.347 136.003)" fill="rgba(237,91,91,0.18)"/>
    <circle id="Ellipse_937" data-name="Ellipse 937" cx="8.059" cy="8.059" r="8.059" transform="translate(239.228 16.119)" fill="rgba(237,91,91,0.18)"/>
    <circle id="Ellipse_934" data-name="Ellipse 934" cx="8.059" cy="8.059" r="8.059" transform="translate(30.35 57.759)" fill="rgba(237,91,91,0.18)"/>
    <circle id="Ellipse_935" data-name="Ellipse 935" cx="8.059" cy="8.059" r="8.059" transform="translate(8.35)" fill="rgba(237,91,91,0.18)"/>
    <circle id="Ellipse_936" data-name="Ellipse 936" cx="8.059" cy="8.059" r="8.059" transform="translate(-8.059 106.787)" fill="rgba(237,91,91,0.18)"/>
    <g id="Group_2479" data-name="Group 2479" transform="translate(89 15.783)">
      <ellipse id="Ellipse_523" data-name="Ellipse 523" cx="10.593" cy="10.593" rx="10.593" ry="10.593" transform="translate(119.795 122.776)" fill="#a2a2a2"/>
      <path id="Path_3604" data-name="Path 3604" d="M502.685,220.37a30.654,30.654,0,0,0-30.345,30.124c0,.153,0,1.227,0,2.633a7.771,7.771,0,0,0,7.77,7.771h0a7.776,7.776,0,0,0,7.774-7.781c0-.958,0-1.62,0-1.66a14.738,14.738,0,1,1,22.687,12.407l0,0s-11.06,7.12-14.432,16.888h0a21.651,21.651,0,0,0-.892,6.164c0,.858.05,8.364.148,14.456a8.011,8.011,0,0,0,8.011,7.881h0a8.013,8.013,0,0,0,8.012-8.062c-.034-5.579-.052-12.076-.052-12.548,0-6,5.786-11.973,10.538-15.87a31.964,31.964,0,0,0,10.993-17.5,19.988,19.988,0,0,0,.576-4.337,30.569,30.569,0,0,0-30.79-30.569Z" transform="translate(-373.432 -197.534)" fill="#a2a2a2"/>
      <path id="Path_3618" data-name="Path 3618" d="M481.938,299.518h0a7.771,7.771,0,0,1-7.771-7.77c0-1.406,0-2.481,0-2.634a30.284,30.284,0,0,1,3.537-13.8,30.351,30.351,0,0,0-5.84,17.48c0,.153,0,1.228,0,2.633a7.771,7.771,0,0,0,7.77,7.771h0a7.777,7.777,0,0,0,7.481-5.663A7.743,7.743,0,0,1,481.938,299.518Z" transform="translate(-373.069 -239.83)" fill="#3f3d56"/>
      <path id="Path_3619" data-name="Path 3619" d="M566.569,279.106a14.739,14.739,0,0,1,12.817,20.59,14.737,14.737,0,1,0-24.738-15.425A14.708,14.708,0,0,1,566.569,279.106Z" transform="translate(-436.789 -239.896)" fill="#3f3d56"/>
      <path id="Path_3620" data-name="Path 3620" d="M581.826,485.362h0a8.011,8.011,0,0,1-8.011-7.882c-.1-6.091-.148-13.6-.148-14.455a21.646,21.646,0,0,1,.892-6.164h0a21.894,21.894,0,0,1,1.265-2.925,25.344,25.344,0,0,0-3.568,6.609h0a21.65,21.65,0,0,0-.892,6.164c0,.858.05,8.364.148,14.456a8.011,8.011,0,0,0,8.011,7.881h0a8.014,8.014,0,0,0,7.691-5.767A7.981,7.981,0,0,1,581.826,485.362Z" transform="translate(-449.656 -377.315)" fill="#3f3d56"/>
      <path id="Path_3633" data-name="Path 3633" d="M571.253,680.123a10.591,10.591,0,0,1-3.931-16.462,10.592,10.592,0,1,0,14.408,15.305A10.586,10.586,0,0,1,571.253,680.123Z" transform="translate(-443.198 -538.745)" fill="#3f3d56"/>
    </g>
    <g id="Group_2480" data-name="Group 2480" transform="translate(98.728 -0.982)">
      <circle id="Ellipse_524" data-name="Ellipse 524" cx="8.059" cy="8.059" r="8.059" transform="translate(34.217 15.279)" fill="rgba(109,209,121,0.2)"/>
      <path id="Path_3147" data-name="Path 3147" d="M35.69,0H80.223c19.711,0,35.69-4.021,35.69,15.69v203.2c0,19.711-15.979,16.69-35.69,16.69H35.69C15.979,235.577,0,239.6,0,219.887V15.69C0-4.021,15.979,0,35.69,0Z" transform="translate(-39.552 -35.838)" fill="#3f3d56"/>
      <rect id="Rectangle_2409" data-name="Rectangle 2409" width="16.186" height="3.288" rx="1.644" transform="translate(10.223 -28.805)" fill="#e6e8ec"/>
      <path id="Path_3114" data-name="Path 3114" d="M548.948,114.906V319.794a9.207,9.207,0,0,1-9.206,9.2H456.557a9.207,9.207,0,0,1-9.207-9.2V114.906a9.207,9.207,0,0,1,9.207-9.207H469v1.6a7.584,7.584,0,0,0,7.581,7.571h42.321a7.581,7.581,0,0,0,7.581-7.581V105.7h13.271A9.207,9.207,0,0,1,548.948,114.906Z" transform="translate(-479.744 -135.405)" fill="#fff"/>
      <path id="Path_3115" data-name="Path 3115" d="M549.676,306.466v69.672h-.729v.071H447.35V291.09q.977-1.115,1.982-2.314C463.6,271.736,482.994,267.252,498,266.782a70.436,70.436,0,0,1,30.3,6.012,57.644,57.644,0,0,0,20.647,4.917v26.34C549.441,305.459,549.676,306.466,549.676,306.466Z" transform="translate(-479.744 -242.359)" fill="#ff2929" opacity="0.2"/>
      <path id="Path_3116" data-name="Path 3116" d="M549.676,362.709v69.672H447.35v-45.64c3.644-.917,8.733-4.444,15.262-14.188,7.809-11.658,18.42-14.725,26.632-15.047a32.04,32.04,0,0,1,16.576,4.115c6.016,3.248,17.61,7.164,26.42-4.205,9.741-12.572,14.92-2.2,16.707,2.879C549.441,361.7,549.676,362.709,549.676,362.709Z" transform="translate(-479.744 -298.602)" fill="#ff2929" opacity="0.2"/>
      <circle id="Ellipse_461" data-name="Ellipse 461" cx="2.5" cy="2.5" r="2.5" transform="translate(16.858 181.974)" fill="#3f3d56"/>
      <rect id="Rectangle_2410" data-name="Rectangle 2410" width="81.283" height="25.527" rx="12" transform="translate(-22.1 121.019)" fill="#ff7e7e"/>
    </g>
  </g>
</svg>
