<svg xmlns="http://www.w3.org/2000/svg" width="20" height="20" viewBox="0 0 20 20">
  <path id="Heart-beat" d="M12.507,11.7l-1.941,4.437a.594.594,0,0,1-1.129-.027L7.214,10.476l-1.172,3.2H2.367L9.5,22a.638.638,0,0,0,1,0l7.132-8.325H13.37Zm6-7.584-.094-.112a4.684,4.684,0,0,0-7.32,0L10,5.284,8.909,4.012a4.678,4.678,0,0,0-7.32,0L1.5,4.119a6.8,6.8,0,0,0-.285,8.129h4L6.612,8.4a.6.6,0,0,1,1.148-.018l2.273,5.772,1.914-4.37a.592.592,0,0,1,1.117,0l1.078,2.464h4.644A6.8,6.8,0,0,0,18.5,4.119Z" transform="translate(0.001 -2.246)" fill="#6dd179"/>
</svg>
