<svg xmlns="http://www.w3.org/2000/svg" width="227.449" height="236.105" viewBox="0 0 227.449 236.105">
  <g id="Group_2144" data-name="Group 2144" transform="translate(-178.144 -220.59)">
    <line id="Line_384" data-name="Line 384" y2="226.396" transform="translate(213.299 223.59)" fill="none" stroke="#3f3d56" stroke-linecap="round" stroke-width="6"/>
    <path id="Path_2888" data-name="Path 2888" d="M280.7,324.594s-1.182,4.335,1.182,5.911,3.153,9.064,3.153,9.064L280.3,352.574l-12.611,2.365-4.729-9.064v-13.4s1.576-6.7,1.182-8.67S280.7,324.594,280.7,324.594Z" transform="translate(-29.561 -63.439)" fill="#ffb9b9"/>
    <path id="Path_2889" data-name="Path 2889" d="M280.7,324.594s-1.182,4.335,1.182,5.911,3.153,9.064,3.153,9.064L280.3,352.574l-12.611,2.365-4.729-9.064v-13.4s1.576-6.7,1.182-8.67S280.7,324.594,280.7,324.594Z" transform="translate(-29.561 -63.439)" opacity="0.2"/>
    <path id="Path_2890" data-name="Path 2890" d="M286.448,494.93l10.247,1.97s.788,11.429,0,14.187-1.576,5.911-.788,6.7-3.547,20.887-3.153,22.069a18.512,18.512,0,0,1,.788,7.094c-.394,2.365-1.576,1.577-.788,3.941s1.576,2.759.788,4.335-4.729,39.8-5.911,40.2-11.823.788-11.823,0,3.547-6.7,2.365-8.276.394-28.375.394-29.557,2.365-3.153,1.182-3.941-1.971-1.576-1.576-2.759,1.182-1.576.394-2.759-.788-24.828-3.547-25.616c0,0-3.547,17.34-2.365,21.675s-.394,5.911-.394,5.911l5.517,4.729L270.29,569.02l-7.882-9.064s0-2.365-1.576-2.759-2.365-.788-2.365-1.971-2.759-8.67-2.759-8.67-7.882-24.828-3.941-37.439,5.459-12.194,5.459-12.194Z" transform="translate(-22.7 -159.292)" fill="#2f2e41"/>
    <path id="Path_2891" data-name="Path 2891" d="M256.4,610.952l4.335,4.729-1.576,13.005h-3.547L250.09,616.47Z" transform="translate(13.658 -193.736)" fill="#ffb9b9"/>
    <path id="Path_2892" data-name="Path 2892" d="M340.577,688.228s-1.576,3.547-2.759,2.759-1.574-1.97-3.349-1.97-3.351.394-2.957,1.182,5.123,9.458,5.123,9.458a11.14,11.14,0,0,1,0,9.458c-2.365,5.123,6.306,7.882,7.882,2.365s1.971-11.823,1.576-14.187,1.971-14.582,1.971-14.582-6.367-2.935-8.307-3.044C339.758,679.667,341.365,686.651,340.577,688.228Z" transform="translate(-67.765 -262.342)" fill="#2f2e41"/>
    <path id="Path_2893" data-name="Path 2893" d="M315.927,718.636l1.576,4.729s0,4.729,1.576,7.094,3.153,7.488-3.153,7.882-9.064-1.971-9.064-1.971,1.182-3.153,0-4.335,0-3.547,0-3.547l1.182-9.458Z" transform="translate(-53.756 -284.08)" fill="#2f2e41"/>
    <path id="Path_2894" data-name="Path 2894" d="M297.5,629.51h3.547l17.734,23.252s-3.153,7.488-7.882,8.276c0,0-.788-.394-4.335-2.759s-13.005-14.187-13.005-14.187l-1.182-6.7Z" transform="translate(-45.967 -234.363)" fill="#2f2e41"/>
    <ellipse id="Ellipse_330" data-name="Ellipse 330" cx="12.611" cy="12.611" rx="12.611" ry="12.611" transform="translate(230.25 241.055)" fill="#ffb9b9"/>
    <path id="Path_2895" data-name="Path 2895" d="M276.854,344.1l-3.941-1.576s-.394,13.793-7.882,13.793-15.37-1.97-15.37-5.911-6.306,7.094-6.306,7.094,5.911,39.41,5.517,39.8,4.335,21.281,4.335,21.281,20.1.788,26.8-1.971,8.67-7.882,8.67-7.882l-2.759-34.68-5.517-26.8Z" transform="translate(-18.623 -74.278)" fill="#ccc"/>
    <path id="Path_2896" data-name="Path 2896" d="M303.966,337.186s1.574-1.576,3.939,0,16.946,5.123,16.946,6.306v14.976a5.834,5.834,0,0,1-.788,3.941c-1.182,1.576-3.941,7.488-2.365,10.246s7.488,34.68,6.306,38.621a23.3,23.3,0,0,1-4.335,7.488s-16.946-35.863-16.946-46.109.164-22.817.164-22.817Z" transform="translate(-52.433 -70.908)" fill="#2f2e41"/>
    <path id="Path_2897" data-name="Path 2897" d="M340.69,353.221h3.547s13.4,25.616,13.4,30.74-8.67,33.5-9.458,33.892-3.153-4.335-3.153-4.335l-1.97-15.764s3.941-9.458,2.759-11.035-7.094-13.793-7.094-13.793Z" transform="translate(-71.819 -80.244)" fill="#2f2e41"/>
    <path id="Path_2898" data-name="Path 2898" d="M241.159,338.069s-4.524,3.153-5.312,4.335-12.611,7.882-13.005,9.458,9.064,14.976,9.064,14.976,3.941,22.069,3.941,23.646,1.576,28.375,1.576,28.375,16.158,4.729,16.158,1.971.394-42.168-1.97-50.838S241.159,338.069,241.159,338.069Z" transform="translate(-7.173 -71.792)" fill="#2f2e41"/>
    <path id="Path_2899" data-name="Path 2899" d="M263.133,522.559s13.4,18.128,6.306,17.734-11.823-15.764-11.823-15.764Z" transform="translate(-26.578 -174.704)" fill="#ffb9b9"/>
    <path id="Path_2900" data-name="Path 2900" d="M224.644,366.59l-4.729,1.182s-3.941,34.68-1.576,39.41,14.976,35.469,14.976,34.286,11.094-3.29,10.67-4.4-2.788-5.843-3.576-7.419-1.97-3.547-1.576-5.517-4.335-10.4-4.335-10.4-1.182-4.965-1.576-7.33-3.941-28.375-3.941-28.375Z" transform="translate(-4.247 -87.701)" fill="#2f2e41"/>
    <path id="Path_2901" data-name="Path 2901" d="M274.725,272.093a3.134,3.134,0,0,0-1.427-1.753,6.715,6.715,0,0,0-.3-2.314c-.785-2.184-2.645-2.059-4.4-3.025-.761-.419-.714-.789-1.111-1.478a5.656,5.656,0,0,0-2.245-2.156,8.346,8.346,0,0,0-3.646-1.456c-2.8-.18-4.944,2.3-7.619,3.093-1.179.35-2.446.365-3.631.7a3.259,3.259,0,0,0-2.544,2.274c-.082.532.062,1.077-.02,1.609-.164,1.057-1.149,1.8-1.809,2.666a6.238,6.238,0,0,0-.125,6.728,9.409,9.409,0,0,0,.841,1.238,7.288,7.288,0,0,0,.888,2.829A14.57,14.57,0,0,0,252.844,286a11.055,11.055,0,0,1-.311-2.112,1.378,1.378,0,0,1,.1-.7c.233-.459.85-.581,1.32-.833a3.078,3.078,0,0,0,1.384-2.728c.028-1.054-.209-2.11-.092-3.158a1.687,1.687,0,0,1,.628-1.27,2.278,2.278,0,0,1,1.183-.266,14.094,14.094,0,0,0,5.841-1,8.875,8.875,0,0,1,1.818-.866,3.945,3.945,0,0,1,3.887,1.827c.862,1.208,1.292,2.645,2.087,3.893A4.231,4.231,0,0,0,274.391,281a.633.633,0,0,0,.459-.192.617.617,0,0,0,.085-.368l.086-5.533A7.894,7.894,0,0,0,274.725,272.093Z" transform="translate(-19.5 -28.189)" fill="#2f2e41"/>
    <rect id="Rectangle_2030" data-name="Rectangle 2030" width="222.313" height="2.479" transform="translate(178.144 454.217)"/>
    <path id="Path_2037" data-name="Path 2037" d="M15.221,32.784S22.832,14.05,0,0Z" transform="translate(310.812 422.407) rotate(-14)"/>
    <path id="Path_2842" data-name="Path 2842" d="M15.221,32.784S22.832,14.05,0,0Z" transform="translate(348.394 419.928) rotate(-14)"/>
    <path id="Path_2843" data-name="Path 2843" d="M15.221,32.784S22.832,14.05,0,0Z" transform="translate(361.174 409.948) rotate(2)"/>
    <path id="Path_2038" data-name="Path 2038" d="M794.914,662.724s3.464-19.922,30.272-19.751Z" transform="translate(-457.176 -213.876)"/>
    <path id="Path_2844" data-name="Path 2844" d="M794.914,662.724s3.464-19.922,30.272-19.751Z" transform="translate(-419.594 -216.355)"/>
    <ellipse id="Ellipse_159" data-name="Ellipse 159" cx="5.328" cy="5.328" rx="5.328" ry="5.328" transform="translate(343.066 414.564)" fill="#6dd179"/>
    <ellipse id="Ellipse_313" data-name="Ellipse 313" cx="5.328" cy="5.328" rx="5.328" ry="5.328" transform="translate(332.411 425.219)" fill="#6dd179"/>
    <ellipse id="Ellipse_314" data-name="Ellipse 314" cx="5.328" cy="5.328" rx="5.328" ry="5.328" transform="translate(369.993 422.74)" fill="#6dd179"/>
  </g>
</svg>
