<svg xmlns="http://www.w3.org/2000/svg" width="309.394" height="104.918" viewBox="0 0 309.394 104.918">
  <g id="Group_2185" data-name="Group 2185" transform="translate(-47 -193)">
    <path id="Path_2534" data-name="Path 2534" d="M249.868,368.633a.557.557,0,0,1-.557-.557V348.6a.557.557,0,0,1,1.113,0v19.481A.557.557,0,0,1,249.868,368.633Z" transform="translate(-202.312 -112.877)" fill="#ccc"/>
    <path id="Path_2535" data-name="Path 2535" d="M256.869,369.256a.557.557,0,0,1-.557-.557V343.1a.557.557,0,1,1,1.113,0v25.6A.557.557,0,0,1,256.869,369.256Z" transform="translate(-205.416 -110.438)" fill="#ccc"/>
    <path id="Path_2536" data-name="Path 2536" d="M263.868,369.652a.557.557,0,0,1-.557-.557V339.6a.557.557,0,0,1,1.113,0v29.5A.557.557,0,0,1,263.868,369.652Z" transform="translate(-208.519 -108.887)" fill="#ccc"/>
    <path id="Path_2537" data-name="Path 2537" d="M270.868,370.671a.557.557,0,0,1-.557-.557V330.6a.557.557,0,0,1,1.113,0v39.518A.557.557,0,0,1,270.868,370.671Z" transform="translate(-211.623 -104.896)" fill="#ccc"/>
    <path id="Path_2538" data-name="Path 2538" d="M277.868,372.2a.557.557,0,0,1-.557-.557V317.1a.557.557,0,0,1,1.113,0v54.546A.557.557,0,0,1,277.868,372.2Z" transform="translate(-214.727 -98.91)" fill="#ccc"/>
    <path id="Path_2539" data-name="Path 2539" d="M284.869,370.671a.557.557,0,0,1-.557-.557V330.6a.557.557,0,0,1,1.113,0v39.518A.557.557,0,0,1,284.869,370.671Z" transform="translate(-217.831 -104.896)" fill="#ccc"/>
    <path id="Path_2540" data-name="Path 2540" d="M291.868,371.406a.557.557,0,0,1-.557-.557V324.1a.557.557,0,0,1,1.113,0V370.85A.557.557,0,0,1,291.868,371.406Z" transform="translate(-220.935 -102.014)" fill="#ccc"/>
    <path id="Path_2541" data-name="Path 2541" d="M298.868,369.482a.557.557,0,0,1-.557-.557V341.1a.557.557,0,1,1,1.113,0v27.83A.557.557,0,0,1,298.868,369.482Z" transform="translate(-224.039 -109.552)" fill="#ccc"/>
    <path id="Path_2542" data-name="Path 2542" d="M305.868,369.935a.557.557,0,0,1-.557-.557V337.1a.557.557,0,1,1,1.113,0v32.282A.557.557,0,0,1,305.868,369.935Z" transform="translate(-227.142 -107.778)" fill="#ccc"/>
    <path id="Path_2543" data-name="Path 2543" d="M312.868,368.633a.557.557,0,0,1-.557-.557V348.6a.557.557,0,0,1,1.113,0v19.481A.557.557,0,0,1,312.868,368.633Z" transform="translate(-230.246 -112.877)" fill="#ccc"/>
    <path id="Path_2544" data-name="Path 2544" d="M318.868,368.633a.557.557,0,0,1-.557-.557V348.6a.557.557,0,0,1,1.113,0v19.481A.557.557,0,0,1,318.868,368.633Z" transform="translate(-232.907 -112.877)" fill="#ccc"/>
    <path id="Path_2545" data-name="Path 2545" d="M325.868,369.256a.557.557,0,0,1-.557-.557V343.1a.557.557,0,1,1,1.113,0v25.6A.557.557,0,0,1,325.868,369.256Z" transform="translate(-236.01 -110.438)" fill="#ccc"/>
    <path id="Path_2546" data-name="Path 2546" d="M332.868,369.652a.557.557,0,0,1-.557-.557V339.6a.557.557,0,1,1,1.113,0v29.5A.557.557,0,0,1,332.868,369.652Z" transform="translate(-239.114 -108.887)" fill="#ccc"/>
    <path id="Path_2547" data-name="Path 2547" d="M339.868,370.671a.557.557,0,0,1-.557-.557V330.6a.557.557,0,0,1,1.113,0v39.518A.557.557,0,0,1,339.868,370.671Z" transform="translate(-242.218 -104.896)" fill="#ccc"/>
    <path id="Path_2548" data-name="Path 2548" d="M346.869,374.01a.557.557,0,0,1-.557-.557V301.1a.557.557,0,0,1,1.113,0v72.357A.557.557,0,0,1,346.869,374.01Z" transform="translate(-245.322 -91.816)" fill="#ccc"/>
    <path id="Path_2549" data-name="Path 2549" d="M353.868,370.671a.557.557,0,0,1-.557-.557V330.6a.557.557,0,0,1,1.113,0v39.518A.557.557,0,0,1,353.868,370.671Z" transform="translate(-248.426 -104.896)" fill="#ccc"/>
    <path id="Path_2550" data-name="Path 2550" d="M360.868,371.406a.557.557,0,0,1-.557-.557V324.1a.557.557,0,1,1,1.113,0V370.85A.557.557,0,0,1,360.868,371.406Z" transform="translate(-251.53 -102.014)" fill="#ccc"/>
    <path id="Path_2551" data-name="Path 2551" d="M367.868,369.482a.557.557,0,0,1-.557-.557V341.1a.557.557,0,1,1,1.113,0v27.83A.557.557,0,0,1,367.868,369.482Z" transform="translate(-254.634 -109.552)" fill="#ccc"/>
    <path id="Path_2552" data-name="Path 2552" d="M374.868,369.935a.557.557,0,0,1-.557-.557V337.1a.557.557,0,1,1,1.113,0v32.282A.557.557,0,0,1,374.868,369.935Z" transform="translate(-257.737 -107.778)" fill="#ccc"/>
    <path id="Path_2553" data-name="Path 2553" d="M381.868,368.633a.557.557,0,0,1-.557-.557V348.6a.557.557,0,0,1,1.113,0v19.481A.557.557,0,0,1,381.868,368.633Z" transform="translate(-260.841 -112.877)" fill="#ccc"/>
    <path id="Path_2554" data-name="Path 2554" d="M387.868,368.633a.557.557,0,0,1-.557-.557V348.6a.557.557,0,0,1,1.113,0v19.481A.557.557,0,0,1,387.868,368.633Z" transform="translate(-263.502 -112.877)" fill="#ccc"/>
    <path id="Path_2555" data-name="Path 2555" d="M394.868,369.256a.557.557,0,0,1-.557-.557V343.1a.557.557,0,1,1,1.113,0v25.6A.557.557,0,0,1,394.868,369.256Z" transform="translate(-266.605 -110.438)" fill="#ccc"/>
    <path id="Path_2556" data-name="Path 2556" d="M401.868,369.652a.557.557,0,0,1-.557-.557V339.6a.557.557,0,1,1,1.113,0v29.5A.557.557,0,0,1,401.868,369.652Z" transform="translate(-269.709 -108.887)" fill="#ccc"/>
    <path id="Path_2557" data-name="Path 2557" d="M408.869,370.671a.557.557,0,0,1-.557-.557V330.6a.557.557,0,0,1,1.113,0v39.518A.557.557,0,0,1,408.869,370.671Z" transform="translate(-272.813 -104.896)" fill="#ccc"/>
    <path id="Path_2558" data-name="Path 2558" d="M415.868,372.2a.557.557,0,0,1-.557-.557V317.1a.557.557,0,0,1,1.113,0v54.546A.557.557,0,0,1,415.868,372.2Z" transform="translate(-275.917 -98.91)" fill="#ccc"/>
    <path id="Path_2559" data-name="Path 2559" d="M420.868,377.208a.557.557,0,0,1-.557-.557v-103.8a.557.557,0,1,1,1.113,0v103.8A.557.557,0,0,1,420.868,377.208Z" transform="translate(-278.134 -79.289)" fill="#6dd179"/>
    <path id="Path_2560" data-name="Path 2560" d="M422.868,370.671a.557.557,0,0,1-.557-.557V330.6a.557.557,0,0,1,1.113,0v39.518A.557.557,0,0,1,422.868,370.671Z" transform="translate(-277.021 -104.896)" fill="#ccc"/>
    <path id="Path_2561" data-name="Path 2561" d="M429.868,371.406a.557.557,0,0,1-.557-.557V324.1a.557.557,0,1,1,1.113,0V370.85A.557.557,0,0,1,429.868,371.406Z" transform="translate(-280.125 -102.014)" fill="#ccc"/>
    <path id="Path_2562" data-name="Path 2562" d="M436.868,369.482a.557.557,0,0,1-.557-.557V341.1a.557.557,0,1,1,1.113,0v27.83A.557.557,0,0,1,436.868,369.482Z" transform="translate(-283.229 -109.552)" fill="#ccc"/>
    <path id="Path_2563" data-name="Path 2563" d="M443.869,369.935a.557.557,0,0,1-.557-.557V337.1a.557.557,0,1,1,1.113,0v32.282A.557.557,0,0,1,443.869,369.935Z" transform="translate(-286.332 -107.778)" fill="#ccc"/>
    <path id="Path_2564" data-name="Path 2564" d="M450.868,368.633a.557.557,0,0,1-.557-.557V348.6a.557.557,0,0,1,1.113,0v19.481A.557.557,0,0,1,450.868,368.633Z" transform="translate(-289.436 -112.877)" fill="#ccc"/>
    <path id="Path_2565" data-name="Path 2565" d="M456.869,368.633a.557.557,0,0,1-.557-.557V348.6a.557.557,0,0,1,1.113,0v19.481A.557.557,0,0,1,456.869,368.633Z" transform="translate(-292.097 -112.877)" fill="#ccc"/>
    <path id="Path_2566" data-name="Path 2566" d="M463.868,369.256a.557.557,0,0,1-.557-.557V343.1a.557.557,0,1,1,1.113,0v25.6A.557.557,0,0,1,463.868,369.256Z" transform="translate(-295.2 -110.438)" fill="#ccc"/>
    <path id="Path_2567" data-name="Path 2567" d="M470.868,369.652a.557.557,0,0,1-.557-.557V339.6a.557.557,0,1,1,1.113,0v29.5A.557.557,0,0,1,470.868,369.652Z" transform="translate(-298.304 -108.887)" fill="#ccc"/>
    <path id="Path_2568" data-name="Path 2568" d="M477.868,370.671a.557.557,0,0,1-.557-.557V330.6a.557.557,0,0,1,1.113,0v39.518A.557.557,0,0,1,477.868,370.671Z" transform="translate(-301.408 -104.896)" fill="#ccc"/>
    <path id="Path_2569" data-name="Path 2569" d="M484.869,374.01a.557.557,0,0,1-.557-.557V301.1a.557.557,0,1,1,1.113,0v72.357A.557.557,0,0,1,484.869,374.01Z" transform="translate(-304.512 -91.816)" fill="#ccc"/>
    <path id="Path_2570" data-name="Path 2570" d="M491.868,370.671a.557.557,0,0,1-.557-.557V330.6a.557.557,0,1,1,1.113,0v39.518A.557.557,0,0,1,491.868,370.671Z" transform="translate(-307.616 -104.896)" fill="#ccc"/>
    <path id="Path_2571" data-name="Path 2571" d="M498.868,371.406a.557.557,0,0,1-.557-.557V324.1a.557.557,0,0,1,1.113,0V370.85A.557.557,0,0,1,498.868,371.406Z" transform="translate(-310.719 -102.014)" fill="#ccc"/>
    <path id="Path_2572" data-name="Path 2572" d="M505.868,369.482a.557.557,0,0,1-.557-.557V341.1a.557.557,0,1,1,1.113,0v27.83A.557.557,0,0,1,505.868,369.482Z" transform="translate(-313.823 -109.552)" fill="#ccc"/>
    <path id="Path_2573" data-name="Path 2573" d="M512.868,369.935a.557.557,0,0,1-.557-.557V337.1a.557.557,0,0,1,1.113,0v32.282A.557.557,0,0,1,512.868,369.935Z" transform="translate(-316.927 -107.778)" fill="#ccc"/>
    <path id="Path_2574" data-name="Path 2574" d="M519.868,368.633a.557.557,0,0,1-.557-.557V348.6a.557.557,0,0,1,1.113,0v19.481A.557.557,0,0,1,519.868,368.633Z" transform="translate(-320.031 -112.877)" fill="#ccc"/>
    <path id="Path_2534-2" data-name="Path 2534" d="M249.868,368.633a.557.557,0,0,1-.557-.557V348.6a.557.557,0,0,1,1.113,0v19.481A.557.557,0,0,1,249.868,368.633Z" transform="translate(-46.312 -112.877)" fill="#ccc"/>
    <path id="Path_2535-2" data-name="Path 2535" d="M256.869,369.256a.557.557,0,0,1-.557-.557V343.1a.557.557,0,1,1,1.113,0v25.6A.557.557,0,0,1,256.869,369.256Z" transform="translate(-49.416 -110.438)" fill="#ccc"/>
    <path id="Path_2536-2" data-name="Path 2536" d="M263.868,369.652a.557.557,0,0,1-.557-.557V339.6a.557.557,0,0,1,1.113,0v29.5A.557.557,0,0,1,263.868,369.652Z" transform="translate(-52.519 -108.887)" fill="#ccc"/>
    <path id="Path_2537-2" data-name="Path 2537" d="M270.868,370.671a.557.557,0,0,1-.557-.557V330.6a.557.557,0,0,1,1.113,0v39.518A.557.557,0,0,1,270.868,370.671Z" transform="translate(-55.623 -104.896)" fill="#ccc"/>
    <path id="Path_2538-2" data-name="Path 2538" d="M277.868,372.2a.557.557,0,0,1-.557-.557V317.1a.557.557,0,0,1,1.113,0v54.546A.557.557,0,0,1,277.868,372.2Z" transform="translate(-58.727 -98.91)" fill="#ccc"/>
    <path id="Path_2539-2" data-name="Path 2539" d="M284.869,370.671a.557.557,0,0,1-.557-.557V330.6a.557.557,0,0,1,1.113,0v39.518A.557.557,0,0,1,284.869,370.671Z" transform="translate(-61.831 -104.896)" fill="#ccc"/>
    <path id="Path_2540-2" data-name="Path 2540" d="M291.868,371.406a.557.557,0,0,1-.557-.557V324.1a.557.557,0,0,1,1.113,0V370.85A.557.557,0,0,1,291.868,371.406Z" transform="translate(-64.935 -102.014)" fill="#ccc"/>
    <path id="Path_2541-2" data-name="Path 2541" d="M298.868,369.482a.557.557,0,0,1-.557-.557V341.1a.557.557,0,1,1,1.113,0v27.83A.557.557,0,0,1,298.868,369.482Z" transform="translate(-68.039 -109.552)" fill="#ccc"/>
    <path id="Path_2542-2" data-name="Path 2542" d="M305.868,369.935a.557.557,0,0,1-.557-.557V337.1a.557.557,0,1,1,1.113,0v32.282A.557.557,0,0,1,305.868,369.935Z" transform="translate(-71.142 -107.778)" fill="#ccc"/>
    <path id="Path_2543-2" data-name="Path 2543" d="M312.868,368.633a.557.557,0,0,1-.557-.557V348.6a.557.557,0,0,1,1.113,0v19.481A.557.557,0,0,1,312.868,368.633Z" transform="translate(-74.246 -112.877)" fill="#ccc"/>
    <path id="Path_2544-2" data-name="Path 2544" d="M318.868,368.633a.557.557,0,0,1-.557-.557V348.6a.557.557,0,0,1,1.113,0v19.481A.557.557,0,0,1,318.868,368.633Z" transform="translate(-76.907 -112.877)" fill="#ccc"/>
    <path id="Path_2545-2" data-name="Path 2545" d="M325.868,369.256a.557.557,0,0,1-.557-.557V343.1a.557.557,0,1,1,1.113,0v25.6A.557.557,0,0,1,325.868,369.256Z" transform="translate(-80.01 -110.438)" fill="#ccc"/>
    <path id="Path_2546-2" data-name="Path 2546" d="M332.868,369.652a.557.557,0,0,1-.557-.557V339.6a.557.557,0,1,1,1.113,0v29.5A.557.557,0,0,1,332.868,369.652Z" transform="translate(-83.114 -108.887)" fill="#ccc"/>
    <path id="Path_2547-2" data-name="Path 2547" d="M339.868,370.671a.557.557,0,0,1-.557-.557V330.6a.557.557,0,0,1,1.113,0v39.518A.557.557,0,0,1,339.868,370.671Z" transform="translate(-86.218 -104.896)" fill="#ccc"/>
    <path id="Path_2548-2" data-name="Path 2548" d="M346.869,374.01a.557.557,0,0,1-.557-.557V301.1a.557.557,0,0,1,1.113,0v72.357A.557.557,0,0,1,346.869,374.01Z" transform="translate(-89.322 -91.816)" fill="#ccc"/>
    <path id="Path_2549-2" data-name="Path 2549" d="M353.868,370.671a.557.557,0,0,1-.557-.557V330.6a.557.557,0,0,1,1.113,0v39.518A.557.557,0,0,1,353.868,370.671Z" transform="translate(-92.426 -104.896)" fill="#ccc"/>
    <path id="Path_2550-2" data-name="Path 2550" d="M360.868,371.406a.557.557,0,0,1-.557-.557V324.1a.557.557,0,1,1,1.113,0V370.85A.557.557,0,0,1,360.868,371.406Z" transform="translate(-95.53 -102.014)" fill="#ccc"/>
    <path id="Path_2551-2" data-name="Path 2551" d="M367.868,369.482a.557.557,0,0,1-.557-.557V341.1a.557.557,0,1,1,1.113,0v27.83A.557.557,0,0,1,367.868,369.482Z" transform="translate(-98.634 -109.552)" fill="#ccc"/>
    <path id="Path_2552-2" data-name="Path 2552" d="M374.868,369.935a.557.557,0,0,1-.557-.557V337.1a.557.557,0,1,1,1.113,0v32.282A.557.557,0,0,1,374.868,369.935Z" transform="translate(-101.737 -107.778)" fill="#ccc"/>
    <path id="Path_2553-2" data-name="Path 2553" d="M381.868,368.633a.557.557,0,0,1-.557-.557V348.6a.557.557,0,0,1,1.113,0v19.481A.557.557,0,0,1,381.868,368.633Z" transform="translate(-104.841 -112.877)" fill="#ccc"/>
    <path id="Path_2554-2" data-name="Path 2554" d="M387.868,368.633a.557.557,0,0,1-.557-.557V348.6a.557.557,0,0,1,1.113,0v19.481A.557.557,0,0,1,387.868,368.633Z" transform="translate(-107.502 -112.877)" fill="#ccc"/>
    <path id="Path_2555-2" data-name="Path 2555" d="M394.868,369.256a.557.557,0,0,1-.557-.557V343.1a.557.557,0,1,1,1.113,0v25.6A.557.557,0,0,1,394.868,369.256Z" transform="translate(-110.605 -110.438)" fill="#ccc"/>
    <path id="Path_2556-2" data-name="Path 2556" d="M401.868,369.652a.557.557,0,0,1-.557-.557V339.6a.557.557,0,1,1,1.113,0v29.5A.557.557,0,0,1,401.868,369.652Z" transform="translate(-113.709 -108.887)" fill="#ccc"/>
    <path id="Path_2557-2" data-name="Path 2557" d="M408.869,370.671a.557.557,0,0,1-.557-.557V330.6a.557.557,0,0,1,1.113,0v39.518A.557.557,0,0,1,408.869,370.671Z" transform="translate(-116.813 -104.896)" fill="#ccc"/>
    <path id="Path_2558-2" data-name="Path 2558" d="M415.868,372.2a.557.557,0,0,1-.557-.557V317.1a.557.557,0,0,1,1.113,0v54.546A.557.557,0,0,1,415.868,372.2Z" transform="translate(-119.917 -98.91)" fill="#ccc"/>
    <path id="Path_2559-2" data-name="Path 2559" d="M420.868,377.208a.557.557,0,0,1-.557-.557v-103.8a.557.557,0,1,1,1.113,0v103.8A.557.557,0,0,1,420.868,377.208Z" transform="translate(-122.134 -79.289)" fill="#6dd179"/>
    <path id="Path_2560-2" data-name="Path 2560" d="M422.868,370.671a.557.557,0,0,1-.557-.557V330.6a.557.557,0,0,1,1.113,0v39.518A.557.557,0,0,1,422.868,370.671Z" transform="translate(-121.021 -104.896)" fill="#ccc"/>
    <path id="Path_2561-2" data-name="Path 2561" d="M429.868,371.406a.557.557,0,0,1-.557-.557V324.1a.557.557,0,1,1,1.113,0V370.85A.557.557,0,0,1,429.868,371.406Z" transform="translate(-124.125 -102.014)" fill="#ccc"/>
    <path id="Path_2562-2" data-name="Path 2562" d="M436.868,369.482a.557.557,0,0,1-.557-.557V341.1a.557.557,0,1,1,1.113,0v27.83A.557.557,0,0,1,436.868,369.482Z" transform="translate(-127.229 -109.552)" fill="#ccc"/>
    <path id="Path_2563-2" data-name="Path 2563" d="M443.869,369.935a.557.557,0,0,1-.557-.557V337.1a.557.557,0,1,1,1.113,0v32.282A.557.557,0,0,1,443.869,369.935Z" transform="translate(-130.332 -107.778)" fill="#ccc"/>
    <path id="Path_2564-2" data-name="Path 2564" d="M450.868,368.633a.557.557,0,0,1-.557-.557V348.6a.557.557,0,0,1,1.113,0v19.481A.557.557,0,0,1,450.868,368.633Z" transform="translate(-133.436 -112.877)" fill="#ccc"/>
    <path id="Path_2565-2" data-name="Path 2565" d="M456.869,368.633a.557.557,0,0,1-.557-.557V348.6a.557.557,0,0,1,1.113,0v19.481A.557.557,0,0,1,456.869,368.633Z" transform="translate(-136.097 -112.877)" fill="#ccc"/>
    <path id="Path_2566-2" data-name="Path 2566" d="M463.868,369.256a.557.557,0,0,1-.557-.557V343.1a.557.557,0,1,1,1.113,0v25.6A.557.557,0,0,1,463.868,369.256Z" transform="translate(-139.2 -110.438)" fill="#ccc"/>
    <path id="Path_2567-2" data-name="Path 2567" d="M470.868,369.652a.557.557,0,0,1-.557-.557V339.6a.557.557,0,1,1,1.113,0v29.5A.557.557,0,0,1,470.868,369.652Z" transform="translate(-142.304 -108.887)" fill="#ccc"/>
    <path id="Path_2568-2" data-name="Path 2568" d="M477.868,370.671a.557.557,0,0,1-.557-.557V330.6a.557.557,0,0,1,1.113,0v39.518A.557.557,0,0,1,477.868,370.671Z" transform="translate(-145.408 -104.896)" fill="#ccc"/>
    <path id="Path_2569-2" data-name="Path 2569" d="M484.869,374.01a.557.557,0,0,1-.557-.557V301.1a.557.557,0,1,1,1.113,0v72.357A.557.557,0,0,1,484.869,374.01Z" transform="translate(-148.512 -91.816)" fill="#ccc"/>
    <path id="Path_2570-2" data-name="Path 2570" d="M491.868,370.671a.557.557,0,0,1-.557-.557V330.6a.557.557,0,1,1,1.113,0v39.518A.557.557,0,0,1,491.868,370.671Z" transform="translate(-151.616 -104.896)" fill="#ccc"/>
    <path id="Path_2571-2" data-name="Path 2571" d="M498.868,371.406a.557.557,0,0,1-.557-.557V324.1a.557.557,0,0,1,1.113,0V370.85A.557.557,0,0,1,498.868,371.406Z" transform="translate(-154.719 -102.014)" fill="#ccc"/>
    <path id="Path_2572-2" data-name="Path 2572" d="M505.868,369.482a.557.557,0,0,1-.557-.557V341.1a.557.557,0,1,1,1.113,0v27.83A.557.557,0,0,1,505.868,369.482Z" transform="translate(-157.823 -109.552)" fill="#ccc"/>
    <path id="Path_2573-2" data-name="Path 2573" d="M512.868,369.935a.557.557,0,0,1-.557-.557V337.1a.557.557,0,0,1,1.113,0v32.282A.557.557,0,0,1,512.868,369.935Z" transform="translate(-160.927 -107.778)" fill="#ccc"/>
    <path id="Path_2574-2" data-name="Path 2574" d="M519.868,368.633a.557.557,0,0,1-.557-.557V348.6a.557.557,0,0,1,1.113,0v19.481A.557.557,0,0,1,519.868,368.633Z" transform="translate(-164.031 -112.877)" fill="#ccc"/>
  </g>
</svg>
