<svg xmlns="http://www.w3.org/2000/svg" width="16" height="16" viewBox="0 0 16 16">
  <path id="Icon_awesome-cookie-bite" data-name="Icon awesome-cookie-bite" d="M15.954,7.994A4,4,0,0,1,12,4a4,4,0,0,1-4-3.951,4.124,4.124,0,0,0-2.491.4l-2.16,1.1A4.132,4.132,0,0,0,1.548,3.355L.451,5.508a4.145,4.145,0,0,0-.4,2.53l.377,2.383A4.141,4.141,0,0,0,1.59,12.7L3.3,14.412A4.126,4.126,0,0,0,5.573,15.57l2.4.38a4.122,4.122,0,0,0,2.517-.4l2.16-1.1a4.133,4.133,0,0,0,1.806-1.807l1.1-2.152A4.143,4.143,0,0,0,15.954,7.994ZM5.5,11.5a1,1,0,1,1,1-1A1,1,0,0,1,5.5,11.5Zm1-5a1,1,0,1,1,1-1A1,1,0,0,1,6.5,6.5Zm5,4a1,1,0,1,1,1-1A1,1,0,0,1,11.5,10.5Z" transform="translate(0 0)" fill="#6dd179"/>
</svg>
