<svg xmlns="http://www.w3.org/2000/svg" width="18" height="16" viewBox="0 0 18 16">
  <g id="id" transform="translate(-30.659 -311.5)">
    <path id="Icon_awesome-id-card-alt" data-name="Icon awesome-id-card-alt" d="M16.5,2H12V5H6V2H1.5A1.5,1.5,0,0,0,0,3.5v11A1.5,1.5,0,0,0,1.5,16h15A1.5,1.5,0,0,0,18,14.5V3.5A1.5,1.5,0,0,0,16.5,2ZM11,1a1,1,0,0,0-1-1H8A1,1,0,0,0,7,1V4h4Z" transform="translate(30.659 311.5)" fill="#7e7e7e"/>
    <line id="Line_424" data-name="Line 424" x2="8" transform="translate(35.534 323.542)" fill="none" stroke="#fff" stroke-width="1"/>
    <line id="Line_425" data-name="Line 425" x2="5" transform="translate(37.534 320.542)" fill="none" stroke="#fff" stroke-width="1"/>
  </g>
</svg>
