<svg xmlns="http://www.w3.org/2000/svg" width="12" height="12" viewBox="0 0 12 12">
  <g id="noun_help_817954" opacity="0.7">
    <path id="Path_2035" data-name="Path 2035" d="M11,4.8a6,6,0,1,0,6,6A5.992,5.992,0,0,0,11,4.8Zm.68,8.36v.293a2.133,2.133,0,0,1-.253.147c-.093.04-.2.08-.307.12a1.407,1.407,0,0,1-.32.08,2.6,2.6,0,0,1-.307.027.583.583,0,0,1-.427-.12.346.346,0,0,1-.133-.267,2.589,2.589,0,0,1,.027-.32c.013-.107.04-.213.067-.347l.56-2.547-.52-.12v-.28c.08-.027.187-.067.333-.107a3.628,3.628,0,0,1,.44-.093c.16-.027.307-.053.453-.067s.28-.027.4-.027l.147.093-.747,3.533Zm.253-4.48a.732.732,0,0,1-.493.16.745.745,0,0,1-.48-.16.527.527,0,0,1-.187-.413.563.563,0,0,1,.187-.44.7.7,0,0,1,.48-.16.709.709,0,0,1,.493.16.563.563,0,0,1,.187.44A.573.573,0,0,1,11.933,8.68Z" transform="translate(-5 -4.8)" fill="#6dd179"/>
  </g>
</svg>
