<svg xmlns="http://www.w3.org/2000/svg" width="25" height="16.667" viewBox="0 0 25 16.667">
  <path id="keyboard" d="M22.917,21.167H2.083A2.083,2.083,0,0,1,0,19.083V6.583A2.083,2.083,0,0,1,2.083,4.5H22.917A2.083,2.083,0,0,1,25,6.583v12.5A2.083,2.083,0,0,1,22.917,21.167ZM5.556,9.535V7.8a.521.521,0,0,0-.521-.521H3.3a.521.521,0,0,0-.521.521V9.535a.521.521,0,0,0,.521.521H5.035A.521.521,0,0,0,5.556,9.535Zm4.167,0V7.8A.521.521,0,0,0,9.2,7.278H7.465a.521.521,0,0,0-.521.521V9.535a.521.521,0,0,0,.521.521H9.2A.521.521,0,0,0,9.722,9.535Zm4.167,0V7.8a.521.521,0,0,0-.521-.521H11.632a.521.521,0,0,0-.521.521V9.535a.521.521,0,0,0,.521.521h1.736A.521.521,0,0,0,13.889,9.535Zm4.167,0V7.8a.521.521,0,0,0-.521-.521H15.8a.521.521,0,0,0-.521.521V9.535a.521.521,0,0,0,.521.521h1.736A.521.521,0,0,0,18.056,9.535Zm4.167,0V7.8a.521.521,0,0,0-.521-.521H19.965a.521.521,0,0,0-.521.521V9.535a.521.521,0,0,0,.521.521H21.7A.521.521,0,0,0,22.222,9.535ZM7.639,13.7V11.965a.521.521,0,0,0-.521-.521H5.382a.521.521,0,0,0-.521.521V13.7a.521.521,0,0,0,.521.521H7.118A.521.521,0,0,0,7.639,13.7Zm4.167,0V11.965a.521.521,0,0,0-.521-.521H9.549a.521.521,0,0,0-.521.521V13.7a.521.521,0,0,0,.521.521h1.736A.521.521,0,0,0,11.806,13.7Zm4.167,0V11.965a.521.521,0,0,0-.521-.521H13.715a.521.521,0,0,0-.521.521V13.7a.521.521,0,0,0,.521.521h1.736A.521.521,0,0,0,15.972,13.7Zm4.167,0V11.965a.521.521,0,0,0-.521-.521H17.882a.521.521,0,0,0-.521.521V13.7a.521.521,0,0,0,.521.521h1.736A.521.521,0,0,0,20.139,13.7ZM5.556,17.868V16.132a.521.521,0,0,0-.521-.521H3.3a.521.521,0,0,0-.521.521v1.736a.521.521,0,0,0,.521.521H5.035A.521.521,0,0,0,5.556,17.868Zm12.5,0V16.132a.521.521,0,0,0-.521-.521H7.465a.521.521,0,0,0-.521.521v1.736a.521.521,0,0,0,.521.521H17.535A.521.521,0,0,0,18.056,17.868Zm4.167,0V16.132a.521.521,0,0,0-.521-.521H19.965a.521.521,0,0,0-.521.521v1.736a.521.521,0,0,0,.521.521H21.7A.521.521,0,0,0,22.222,17.868Z" transform="translate(0 -4.5)" opacity="0.5"/>
</svg>
