<svg xmlns="http://www.w3.org/2000/svg" width="70.387" height="70.387" viewBox="0 0 70.387 70.387">
  <g id="left-arrow" transform="translate(0)" opacity="0.2">
    <g id="Group_1728" data-name="Group 1728" transform="translate(0)">
      <g id="Group_1727" data-name="Group 1727" transform="translate(0 0)">
        <path id="Path_2275" data-name="Path 2275" d="M11.937,37.835,5.782,3.448A4.5,4.5,0,0,0,2.4.046,1.9,1.9,0,0,0,.047,2.422L6.711,39.654l0,.011,0,.011a4.211,4.211,0,0,0,1.2,2.175A4.236,4.236,0,0,0,10.1,43.056l.011,0,.011,0L47.35,49.725a1.9,1.9,0,0,0,2.376-2.35,4.492,4.492,0,0,0-3.4-3.384Z" transform="translate(35.194 0) rotate(45)" fill-rule="evenodd"/>
      </g>
    </g>
  </g>
</svg>
