<svg xmlns="http://www.w3.org/2000/svg" width="266.777" height="208.12" viewBox="0 0 266.777 208.12">
  <g id="logout" transform="translate(-94.417 -73.416)">
    <g id="undraw_monitor_iqpq" transform="translate(94.417 137.737)">
      <ellipse id="Ellipse_290" data-name="Ellipse 290" cx="133.388" cy="10.357" rx="133.388" ry="10.357" transform="translate(0 123.085)" fill="#6dd179" opacity="0.1"/>
      <path id="Path_2707" data-name="Path 2707" d="M389.492,664.6H361.581l-27.961-.358.163-1.434h55.433Z" transform="translate(-228.912 -531.207)" opacity="0.1"/>
    </g>
    <g id="Group_2070" data-name="Group 2070" transform="translate(182.604 73.416)">
      <path id="Path_133" data-name="Path 133" d="M835.115,565.177a74.934,74.934,0,0,0,16.35,13.191c.139.085.279.165.421.248l9.782-8.658c-.1-.1-.216-.2-.339-.32-7.289-6.921-43.473-55.311-45.884-67.095C815.611,503.525,813.269,542.024,835.115,565.177Z" transform="translate(-840.536 -391.902)" fill="#6dd179"/>
      <path id="Path_134" data-name="Path 134" d="M863.9,672.908c.185.044.373.085.562.123l7.339-6.5-.5-.175c-3.149-1.115-12.527-4.481-21.86-8.314-10.028-4.121-20.008-8.777-22.155-11.76C827.739,646.979,841.922,667.994,863.9,672.908Z" transform="translate(-854.854 -484.771)" fill="#6dd179"/>
      <path id="Path_2745" data-name="Path 2745" d="M716.949,235.134H715.9V206.5a16.57,16.57,0,0,0-16.57-16.57H638.677a16.57,16.57,0,0,0-16.57,16.57V363.571a16.57,16.57,0,0,0,16.57,16.57h60.656a16.57,16.57,0,0,0,16.57-16.57V255.513h1.045Z" transform="translate(-622.107 -189.934)" fill="#3f3d56"/>
      <path id="Path_2746" data-name="Path 2746" d="M720.724,214.49V371.328A12.372,12.372,0,0,1,708.348,383.7H647.4a12.371,12.371,0,0,1-12.372-12.373V214.49A12.371,12.371,0,0,1,647.4,202.118h7.4a5.882,5.882,0,0,0,5.445,8.1h34.749a5.876,5.876,0,0,0,5.445-8.1h7.914A12.372,12.372,0,0,1,720.724,214.49Z" transform="translate(-630.454 -197.806)" fill="#fff"/>
      <path id="Path_4468" data-name="Path 4468" d="M747.28,223.831V202.985a27.48,27.48,0,0,1,23.33,4.611,26.148,26.148,0,0,1,10.512,20.864q0,1.079-.089,2.136h-24.4C755.195,230.6,747.28,228.747,747.28,223.831Z" transform="translate(-742.979 -44.683)" fill="#f0f0f0"/>
      <path id="Path_2751" data-name="Path 2751" d="M793.249,214.49V248.6a36.645,36.645,0,0,1-45.968-35.419q0-1.5.121-2.97h20.112a5.875,5.875,0,0,0,5.445-8.1h7.915A12.372,12.372,0,0,1,793.249,214.49Z" transform="translate(-702.979 -197.806)" fill="#f0f0f0"/>
      <path id="Path_2818" data-name="Path 2818" d="M793.249,214.49V248.6a36.645,36.645,0,0,1-45.968-35.419q0-1.5.121-2.97h20.112a5.875,5.875,0,0,0,5.445-8.1h7.915A12.372,12.372,0,0,1,793.249,214.49Z" transform="translate(-702.979 -197.806)" fill="rgba(109,209,121,0.3)"/>
    </g>
    <circle id="Ellipse_345" data-name="Ellipse 345" cx="2.5" cy="2.5" r="2.5" transform="translate(228.208 248.348)" fill="#3f3d56"/>
    <path id="Icon_open-account-logout" data-name="Icon open-account-logout" d="M14.584,0V5.556H34.03v27.78H14.584v5.556H38.891V0ZM9.723,11.112,0,19.446,9.723,27.78V22.224H29.169V16.668H9.723Z" transform="translate(210.208 151.348)" fill="#6dd179"/>
  </g>
</svg>
