<svg xmlns="http://www.w3.org/2000/svg" width="20.326" height="16.542" viewBox="0 0 20.326 16.542">
  <g id="lunch" transform="translate(-162.409 -465.999)">
    <path id="Path_2410" data-name="Path 2410" d="M-853,10413.183h19.129s-.55,2.844-1.748,2.835-14.395.067-15.655,0S-853,10413.183-853,10413.183Z" transform="translate(1016 -9934.001)" fill="#6dd179" stroke="#6dd179" stroke-width="1"/>
    <path id="Path_2411" data-name="Path 2411" d="M-850.177,10407.624h15.027s-1.224-8.164-7.312-8.134S-850.177,10407.624-850.177,10407.624Z" transform="translate(1015.224 -9930.366)" fill="#6dd179" stroke="#6dd179" stroke-linecap="round" stroke-width="1"/>
    <path id="Subtraction_1" data-name="Subtraction 1" d="M3.588,2.176H.036A1.834,1.834,0,0,1,0,1.813a1.812,1.812,0,1,1,3.588.362Z" transform="translate(171.19 465.999)" fill="#6dd179"/>
    <path id="Path_2412" data-name="Path 2412" d="M-846.267,10406.11a13.078,13.078,0,0,1,2.3-2.944,10.073,10.073,0,0,1,2.97-1.753" transform="translate(1013.269 -9930.812)" fill="none" stroke="#fff" stroke-linecap="round" stroke-width="1"/>
  </g>
</svg>
