<svg xmlns="http://www.w3.org/2000/svg" width="292.43" height="64.245" viewBox="0 0 292.43 64.245">
  <g id="F-lying" transform="translate(0 -100.529)">
    <ellipse id="Ellipse_495" data-name="Ellipse 495" cx="7.746" cy="1.291" rx="7.746" ry="1.291" transform="translate(261.696 161.869)" fill="#f2f2f2"/>
    <circle id="Ellipse_497" data-name="Ellipse 497" cx="2.236" cy="2.236" r="2.236" transform="translate(73.014 159.796)" fill="#ccc"/>
    <circle id="Ellipse_498" data-name="Ellipse 498" cx="2.236" cy="2.236" r="2.236" transform="translate(214.279 159.796)" fill="#ccc"/>
    <rect id="Rectangle_2459" data-name="Rectangle 2459" width="154.311" height="32.241" transform="translate(69.659 129.605)" fill="#7c7c7c"/>
    <path id="Path_3479" data-name="Path 3479" d="M353.157,611.511h-6.709c-3.391,0-6.15-3.133-6.15-6.983V570.883h12.859Z" transform="translate(-277.907 -449.479)" fill="#aaa"/>
    <path id="Path_3480" data-name="Path 3480" d="M824.511,600.562H817.8V554.716h12.859v37.966C830.661,597.027,827.9,600.562,824.511,600.562Z" transform="translate(-601.287 -438.53)" fill="#aaa"/>
    <path id="Path_3481" data-name="Path 3481" d="M427.475,581.716H380.138V571.652q23.669-13.577,47.337,0Z" transform="translate(-304.888 -445.402)" fill="#6f6f6f"/>
    <path id="Path_3482" data-name="Path 3482" d="M573.555,582.294H526.218V572.23q23.669-13.577,47.337,0Z" transform="translate(-403.818 -445.793)" fill="#6f6f6f"/>
    <path id="Path_3483" data-name="Path 3483" d="M719.636,582.871H672.3V572.807q23.668-13.577,47.337,0Z" transform="translate(-502.748 -446.184)" fill="#6f6f6f"/>
    <circle id="Ellipse_499" data-name="Ellipse 499" cx="10.996" cy="10.996" r="10.996" transform="translate(55.123 107.986)" fill="#acacac"/>
    <circle id="Ellipse_500" data-name="Ellipse 500" cx="10.996" cy="10.996" r="10.996" transform="translate(216.142 107.614)" fill="#acacac"/>
    <path id="Path_3484" data-name="Path 3484" d="M6.738,2.881a3.4,3.4,0,0,1,.035.534L19.953,12.5l.783,6.863a2.582,2.582,0,0,1-3.082-.323L4.306,6.65A3.388,3.388,0,1,1,6.738,2.881Z" transform="translate(149.149 113.781) rotate(-16)" fill="#ffb8b8"/>
    <path id="Path_3488" data-name="Path 3488" d="M1.274,8.07,0,4.324,13.99,0l1.735,3.158Z" transform="translate(90.974 114.103) rotate(20)" fill="#ffb8b8"/>
    <path id="Path_3489" data-name="Path 3489" d="M4.107,12.4,0,.318.153.266a4.966,4.966,0,0,1,6.3,3.1h0l2.508,7.378Z" transform="translate(85.935 109.994) rotate(20)" fill="#ffb8b8"/>
    <path id="Path_3490" data-name="Path 3490" d="M653.049,551.75a18.3,18.3,0,0,1-8.961-1.8l-16.962-4.592-19.881.556a2.229,2.229,0,0,1-2.734-1.179l-.973-2.241a2.054,2.054,0,0,1,1.125-2.719l20.278-2.331c2.276-.976,7.2-.587,9.615,0h22.638l6.958,7.914-.077.1A14.745,14.745,0,0,1,653.049,551.75Z" transform="translate(-506.066 -422.263)" fill="#323232"/>
    <circle id="Ellipse_501" data-name="Ellipse 501" cx="7.928" cy="7.928" r="7.928" transform="matrix(0.174, 0.985, -0.985, 0.174, 203.534, 109.465)" fill="#ffb8b8"/>
    <path id="Path_3492" data-name="Path 3492" d="M1.274,8.52,0,4.773,15.725,0V3.607Z" transform="translate(91.893 117.492) rotate(20)" fill="#ffb8b8"/>
    <path id="Path_3493" data-name="Path 3493" d="M4.107,12.4,0,.318.153.266a4.966,4.966,0,0,1,6.3,3.1h0l2.508,7.378Z" transform="translate(86.701 112.806) rotate(20)" fill="#ffb8b8"/>
    <path id="Path_3494" data-name="Path 3494" d="M657.223,562.036a16.9,16.9,0,0,1-8.583-1.8l-16.353-1.689L613.35,556.2a2.1,2.1,0,0,1-2.619-1.179l-.932-2.241a2.087,2.087,0,0,1,1.078-2.719h18.351c2.18-.976,8.533-.587,10.849,0l21.116-2.331,6.664,7.914-.074.1C664.512,560.262,660.631,561.789,657.223,562.036Z" transform="translate(-510.31 -429.229)" fill="#323232"/>
    <path id="Path_3501" data-name="Path 3501" d="M439.107,703.9H147.323a.323.323,0,1,1,0-.646H439.107a.323.323,0,1,1,0,.646Z" transform="translate(-147 -539.121)" fill="#3f3d56"/>
    <path id="Path_3508" data-name="Path 3508" d="M1.274,10.442,0,6.7,13.845,0l1.88,5.529Z" transform="translate(183.653 113.149) rotate(25)" fill="#ffb8b8"/>
    <path id="Path_3497" data-name="Path 3497" d="M6.929,20.459a17.3,17.3,0,0,0,3.64-10.349,10.683,10.683,0,0,1-3.617,1.747,6.316,6.316,0,0,1-4.213-.151A4.988,4.988,0,0,1,.025,6.73a6.138,6.138,0,0,1,3.4-4.7,8.023,8.023,0,0,1,5.9-.357A7.01,7.01,0,0,1,16.854.668c2.806,1.377,4.358,4.567,4.627,7.681s-.531,6.211-1.324,9.234l-.09.342c-.247.941-.965,2.747-.965,2.747s-4.169-.823-5.825-1.35A29.539,29.539,0,0,1,6.929,20.459Z" transform="matrix(0.174, 0.985, -0.985, 0.174, 207.083, 107.701)" fill="#2f2e41"/>
    <path id="Path_3491" data-name="Path 3491" d="M11.84,32.411-.8,22.735l9.849-7.952c-.187-.9-.916-6.053,5.805-10.226a30.858,30.858,0,0,0,4.6-3.3A7.515,7.515,0,0,1,23.965-.868a5.207,5.207,0,0,1,4.92,2.431,7.073,7.073,0,0,1,.429,6.122c-1.735,4.826-4.393,11.254-7.2,14.468A107.025,107.025,0,0,1,11.95,32.318Z" transform="matrix(0.545, 0.839, -0.839, 0.545, 170.653, 101.682)" fill="#ccc"/>
    <path id="Path_3495" data-name="Path 3495" d="M6.2,1.5a3.4,3.4,0,0,1,.26.468L36,7.2c3.008,6.821,1.817,7.239.722,6.894L5.614,5.943A3.388,3.388,0,1,1,6.2,1.5Z" transform="translate(137.233 123.663) rotate(-11)" fill="#ffb8b8"/>
    <path id="Path_3496" data-name="Path 3496" d="M.019,9.069A1.564,1.564,0,0,1,.34,7.851L5.029,2.018a3.936,3.936,0,0,1,5.545-1.4,4.325,4.325,0,0,1,1.339,5.794L9.037,13.439a1.478,1.478,0,0,1-.9.849,1.4,1.4,0,0,1-1.2-.154L.692,10.119A1.52,1.52,0,0,1,.019,9.069Z" transform="matrix(0.545, 0.839, -0.839, 0.545, 179.862, 116.376)" fill="#ccc"/>
  </g>
</svg>
