<svg xmlns="http://www.w3.org/2000/svg" width="271.216" height="220.954" viewBox="0 0 271.216 220.954">
  <g id="M-refund" transform="translate(-39.916 -162)">
    <path id="Path_4256" data-name="Path 4256" d="M104.591,0c57.764,0,104.591,46.653,104.591,104.2S162.355,208.4,104.591,208.4,0,161.752,0,104.2,46.827,0,104.591,0Z" transform="translate(86.538 162)" fill="#b5e8bb"/>
    <path id="Path_2606" data-name="Path 2606" d="M16.692,14.282c0,6.285-3.736,8.48-8.346,8.48q-.16,0-.32,0c-.214,0-.425-.015-.634-.029C3.232,22.435,0,20.127,0,14.282,0,8.232,7.731.6,8.311.034h0L8.346,0S16.692,8,16.692,14.282Z" transform="translate(54.784 359.441)" fill="#6dd179"/>
    <path id="Path_2607" data-name="Path 2607" d="M3.355,21.8l3.052-4.265-3.06,4.734-.008.49c-.214,0-.425-.015-.634-.029l.329-6.289,0-.049.006-.009.031-.594L0,11.043l3.077,4.3.007.126.249-4.751L.707,5.815,3.365,9.884,3.624.034v0L3.582,7.8,6.2,4.721,3.571,8.469,3.5,12.723,5.943,8.641,3.492,13.349l-.039,2.365L7,10.032,3.44,16.54Z" transform="translate(59.791 359.445)" fill="#3f3d56"/>
    <path id="Path_2608" data-name="Path 2608" d="M219.546,788.035l1.785-1.326s1.182,6.6-.137,7.59-6.264,2.637-6.264,4.615-11.209,4.615-11.538,1.648a6.538,6.538,0,0,1,.989-4.615s5.275-5.275,5.934-6.264,2.308-2.967,2.308-2.967Z" transform="translate(-101.263 -418.941)" fill="#2f2e41"/>
    <path id="Path_2609" data-name="Path 2609" d="M167,488.677s.049.29.135.821c.079.471.188,1.137.32,1.958,1.385,8.45,5.423,33.323,5.149,34.144-.33.989-2.637,4.615,0,5.6a2.046,2.046,0,0,1,.821.893,19.167,19.167,0,0,1,1.395,3.29,144.563,144.563,0,0,1,4.226,16.922c.425,2.222.715,4.009.8,4.945a2.688,2.688,0,0,1,.01.653c-.33,1.319,1.978,5.934,2.967,7.253s2.637,2.637,2.308,3.956,8.242,4.945,9.231,2.637a42.089,42.089,0,0,0,1.319-4.286c.33-.659.659-5.275-.989-5.934s-.659-12.2-2.308-14.506a31.679,31.679,0,0,1-2.271-6.5c-.346-1.226-.7-2.532-1.038-3.841-1.391-5.364-2.624-10.76-2.624-10.76l.33-38.572-18.132-2.308-.465,1.025-.926,2.034Z" transform="translate(-75.086 -201.671)" fill="#2f2e41"/>
    <path id="Path_2610" data-name="Path 2610" d="M131.673,721.26s-2.637-2.637-3.956,0-2.637,12.857-4.945,15.165-5.275,13.846-1.978,14.506,6.923-.989,7.253-2.967,7.253-12.2,7.253-13.187-4.615-4.615-4.615-4.615Z" transform="translate(-40.752 -370.957)" fill="#2f2e41"/>
    <path id="Path_2611" data-name="Path 2611" d="M197.838,430.867s-4.286,38.572-5.275,42.2-6.264,17.473-7.912,19.78-12.2,21.1-13.517,22.088-3.956,3.626-3.956,3.626-4.945,4.945-5.6,5.934-6.264-1.978-6.593-3.956a20.326,20.326,0,0,1,.659-6.593c.33-1.319-.659-3.3.33-4.286s5.934-5.934,5.934-8.242,8.571-15.824,11.868-18.791,2.637-7.912,2.637-7.912V454.6L158.277,449s.989-15.824,3.3-15.824S194.211,427.9,197.838,430.867Z" transform="translate(-66.367 -161.993)" fill="#2f2e41"/>
    <circle id="Ellipse_276" data-name="Ellipse 276" cx="10.879" cy="10.879" r="10.879" transform="translate(93.888 192.06)" fill="#feb8b8"/>
    <path id="Path_2612" data-name="Path 2612" d="M188.573,213.694s1.319,4.945,2.967,6.264-4.286,6.923-4.286,6.923l-11.209.659-1.978-6.264s3.626-7.253,2.637-11.868S188.573,213.694,188.573,213.694Z" transform="translate(-80.179 -2.182)" fill="#feb8b8"/>
    <path id="Path_2613" data-name="Path 2613" d="M188.1,248.18s-2.967.33-3.626,1.319-5.275,3.956-8.9,3.3-5.934-1.648-6.593-1.319S167,258.729,167,258.729l3.626,10.549-.659,29.011-.989,7.912s-1.978-2.637,5.934-.989,18.132-1.319,21.429-1.648,8.9-1.319,9.231-3.3-.989-9.231-.989-9.231L199.3,268.949l-3.3-11.868Z" transform="translate(-75.086 -31.064)" fill="#ccc"/>
    <path id="Path_2614" data-name="Path 2614" d="M231.271,241.039s2.789-1.479,3.778-.16,13.517,3.3,13.517,4.286,2.637,27.692,1.978,30,1.319,4.945,1.319,4.945L254.17,290s6.264,18.791,3.626,19.451-4.945,0-5.934,0-.659-12.527-3.3-15.824-6.264-11.538-6.923-13.187-8.9-24.4-8.571-27.033S231.271,241.039,231.271,241.039Z" transform="translate(-121.38 -25.411)" fill="#2f2e41"/>
    <path id="Path_2615" data-name="Path 2615" d="M146.667,248.18s-2.637,0-2.967.659a36.08,36.08,0,0,1-4.945,5.934c-1.319.989-5.934,5.275-5.934,6.264s9.56,8.242,9.56,8.242,3.956,19.451,1.978,26.044-4.945,22.418-3.626,23.407,4.286,1.319,4.286,0,1.978-15.495,3.626-18.462,6.593-21.758,4.615-27.033S146.667,248.18,146.667,248.18Z" transform="translate(-50.471 -31.064)" fill="#2f2e41"/>
    <path id="Path_2616" data-name="Path 2616" d="M277.609,364.847s.33,10.22-3.3,15.495a62.648,62.648,0,0,0-5.934,11.209s-5.934-1.648-6.923-3.626-7.253-.33-7.253-.989,7.582-3.956,8.242-4.615,2.967-.659,4.286-1.978,1.648-4.286,1.648-4.286l1.319-8.571Z" transform="translate(-137.897 -115.095)" fill="#feb8b8"/>
    <path id="Path_2617" data-name="Path 2617" d="M183.543,147.334a6.27,6.27,0,0,0,2.44-.559,3.267,3.267,0,0,0,.835-4.837,6.25,6.25,0,0,0-1.159-.932l-2.506-1.706a12.258,12.258,0,0,0-3.536-1.877,11.037,11.037,0,0,0-3.614-.213,24.423,24.423,0,0,0-6.923,1.259,11.587,11.587,0,0,0-5.61,4.1c-2.122,3.07-2.151,7.21-.982,10.755s3.388,6.63,5.576,9.654l1.135-5.538a2.044,2.044,0,0,1,.642-1.326c1.02-.726,2.267.764,3.518.754a2.107,2.107,0,0,0,1.784-1.412,8.045,8.045,0,0,0,.4-2.369c.149-1.7.742-4.057,2.349-4.993C179.384,147.229,181.86,147.487,183.543,147.334Z" transform="translate(-71.283 48.899)" fill="#2f2e41"/>
    <path id="Path_2618" data-name="Path 2618" d="M232.241,498.7s-1.113,32.207-1.773,33.2,0-33.3,0-33.3Z" transform="translate(-120.591 -211.432)" opacity="0.1"/>
    <path id="Path_2619" data-name="Path 2619" d="M283.664,257.607H286.3s11.209,15.165,9.89,16.154,0,3.626,0,3.626l2.637,4.945s3.3,2.967,2.308,3.626-2.308,3.3-2.308,3.3-6.593-.989-8.571,2.967l-4.276-5.4Z" transform="translate(-159.116 -37.854)" fill="#2f2e41"/>
    <rect id="Rectangle_2296" data-name="Rectangle 2296" width="9.791" height="18.246" transform="translate(116.429 228.368) rotate(-22.438)" fill="#2f2e41"/>
    <path id="Path_2950" data-name="Path 2950" d="M1.958,0A1.884,1.884,0,0,1,3.916,1.8,1.884,1.884,0,0,1,1.958,3.6,1.884,1.884,0,0,1,0,1.8,1.884,1.884,0,0,1,1.958,0Z" transform="translate(121.235 231.944) rotate(-22.438)" fill="#6dd179"/>
    <path id="Path_2620" data-name="Path 2620" d="M186.03,315.391s-23.736,19.78-27.692,13.517,4.286-11.539,4.286-11.539,7.253.33,15.495-4.945l8.242-3.626s7.524-10.742,10.088-6.652S192.071,313.356,186.03,315.391Z" transform="translate(-68.076 -69.264)" fill="#feb8b8"/>
    <path id="Path_2621" data-name="Path 2621" d="M133.052,289.426l-3.626,1.319v9.89l-1.319,1.978s.33,3.956,1.319,4.945,2.967.659,2.308,2.967a12.5,12.5,0,0,0-.33,4.615s5.934,7.582,6.264,6.593,4.945-13.187,5.6-13.187-6.593-19.121-6.593-19.121Z" transform="translate(-47.076 -60.771)" fill="#2f2e41"/>
    <path id="Path_2622" data-name="Path 2622" d="M282.707,453.2s3.409-3.3,1.7-3.462-7.638-3.462-8.627-1.813S282.707,453.2,282.707,453.2Z" transform="translate(-153.379 -174.598)" fill="#2f2e41"/>
    <ellipse id="Ellipse_278" data-name="Ellipse 278" cx="6.254" cy="2.886" rx="6.254" ry="2.886" transform="translate(249.713 220.558)" fill="#57b894"/>
    <path id="Path_2623" data-name="Path 2623" d="M522.3,227.879a54.573,54.573,0,0,0-39.8,0V211.611a68.889,68.889,0,0,1,39.8,0Z" transform="translate(-245.939 6.788)" fill="none" stroke="#3f3d56" stroke-width="1.5"/>
    <path id="Path_2624" data-name="Path 2624" d="M527.228,228.255a39.388,39.388,0,0,0-28.728,0V216.513a49.721,49.721,0,0,1,28.728,0Z" transform="translate(-256.401 3.048)" fill="none" stroke="#3f3d56" stroke-width="1.5"/>
    <ellipse id="Ellipse_279" data-name="Ellipse 279" cx="6.254" cy="3.367" rx="6.254" ry="3.367" transform="translate(249.637 219.634)" fill="none" stroke="#3f3d56" stroke-width="1.5"/>
    <ellipse id="Ellipse_280" data-name="Ellipse 280" cx="5.884" cy="3.115" rx="5.884" ry="3.115" transform="matrix(0.98, -0.2, 0.2, 0.98, 253.182, 240.979)" fill="#57b894"/>
    <path id="Path_2625" data-name="Path 2625" d="M533.063,276.442a54.574,54.574,0,0,0-39,7.96l-3.253-15.939a68.891,68.891,0,0,1,39-7.96Z" transform="translate(-251.373 -26.911)" fill="none" stroke="#3f3d56" stroke-width="1.5"/>
    <path id="Path_2626" data-name="Path 2626" d="M537.654,278.65a39.388,39.388,0,0,0-28.148,5.745l-2.348-11.5a49.721,49.721,0,0,1,28.148-5.745Z" transform="translate(-262.063 -31.308)" fill="none" stroke="#3f3d56" stroke-width="1.5"/>
    <ellipse id="Ellipse_281" data-name="Ellipse 281" cx="5.884" cy="3.115" rx="5.884" ry="3.115" transform="matrix(0.98, -0.2, 0.2, 0.98, 252.94, 240.208)" fill="none" stroke="#3f3d56" stroke-width="1.5"/>
    <ellipse id="Ellipse_282" data-name="Ellipse 282" cx="3.115" cy="5.884" rx="3.115" ry="5.884" transform="translate(252.265 264.915) rotate(-86.019)" fill="#57b894"/>
    <path id="Path_2627" data-name="Path 2627" d="M527.42,341.967a54.573,54.573,0,0,0-39.708-2.763l1.129-16.229a68.89,68.89,0,0,1,39.707,2.763Z" transform="translate(-249.347 -66.83)" fill="none" stroke="#3f3d56" stroke-width="1.5"/>
    <path id="Path_2628" data-name="Path 2628" d="M533.008,342.045a39.388,39.388,0,0,0-28.659-1.994l.815-11.713a49.72,49.72,0,0,1,28.658,1.994Z" transform="translate(-260.225 -70.649)" fill="none" stroke="#3f3d56" stroke-width="1.5"/>
    <ellipse id="Ellipse_283" data-name="Ellipse 283" cx="3.115" cy="5.884" rx="3.115" ry="5.884" transform="translate(252.433 264.68) rotate(-86.019)" fill="none" stroke="#3f3d56" stroke-width="1.5"/>
    <path id="Path_2629" data-name="Path 2629" d="M421.64,264.12s-47.954-2.813-82.2,5.792" transform="translate(-199.289 -42.228)" fill="none" stroke="#3f3d56" stroke-width="2"/>
    <path id="Path_2630" data-name="Path 2630" d="M288.093,224.459h1.065l-.787,2.572,3.045.867-1.07.545-3.268-.781Z" transform="translate(-150.267 2.213)" fill="#3f3d56"/>
    <path id="Path_1" data-name="Path 1" d="M194.117,657.952h45.246s.917-13.452-4.509-13.6-4.815,5.962-11.617-2.446-15.056-7.949-16.126-2.981,2.063,8.942-3.669,7.719S189.455,648.627,194.117,657.952Z" transform="translate(55.993 -275.824)" fill="#6dd179"/>
    <path id="Path_2" data-name="Path 2" d="M267.231,657.79l.153-.006c-.356-8.856-2.211-14.546-3.7-17.761a16.115,16.115,0,0,0-3.2-4.916l-.1.114a16.012,16.012,0,0,1,3.168,4.879C265.032,643.3,266.876,648.966,267.231,657.79Z" transform="translate(6.265 -275.66)" fill="#fff"/>
    <path id="Path_3" data-name="Path 3" d="M317.21,684.627l.147-.043a23.712,23.712,0,0,0-5.97-9.932l-.1.113a23.551,23.551,0,0,1,5.926,9.862Z" transform="translate(-60.089 -302.48)" fill="#fff"/>
    <path id="Path_4" data-name="Path 4" d="M202.791,677.564l.152-.021a16.649,16.649,0,0,1,1.5-9.731,13.4,13.4,0,0,1,2.362-3.449l-.106-.11a13.565,13.565,0,0,0-2.395,3.491A16.8,16.8,0,0,0,202.791,677.564Z" transform="translate(85.437 -295.427)" fill="#fff"/>
    <path id="Path_5" data-name="Path 5" d="M179.252,646.475h56.266l.013-.19c.032-.474.75-11.659-2.874-15.649a3.969,3.969,0,0,0-2.9-1.392,8.635,8.635,0,0,0-5.044,1.528c-2.257,1.339-3.747,2.223-9.168-4.476-5.872-7.258-12.208-8.82-15.85-7.951a5.653,5.653,0,0,0-4.45,4.351,19.265,19.265,0,0,0-.191,5.624c.123,1.686.22,3.017-.472,3.621-.579.5-1.732.549-3.63.144-3.862-.824-9.251-.119-11.956,3.376-1.455,1.88-2.6,5.3.2,10.9Zm55.882-.409H179.5c-2.088-4.237-2.154-7.816-.187-10.357,2.481-3.206,7.687-4.05,11.547-3.227,2.063.44,3.292.368,3.984-.235.847-.738.743-2.159.611-3.958a18.971,18.971,0,0,1,.183-5.508,5.258,5.258,0,0,1,4.145-4.039c3.526-.841,9.686.7,15.437,7.81,5.643,6.974,7.343,5.966,9.695,4.57a8.2,8.2,0,0,1,4.824-1.471,3.575,3.575,0,0,1,2.609,1.258c3.256,3.587,2.859,13.644,2.779,15.156Z" transform="translate(64.717 -264.145)" fill="#2f2e41"/>
    <rect id="Rectangle_21" data-name="Rectangle 21" width="271.216" height="0.597" transform="translate(39.916 382.137)" fill="#3f3d56"/>
  </g>
</svg>
