<svg xmlns="http://www.w3.org/2000/svg" width="40" height="40" viewBox="0 0 40 40">
  <g id="NUTRITIONIST" transform="translate(-37 -702)">
    <g id="Path_3049" data-name="Path 3049" transform="translate(37 702)" fill="none">
      <path d="M10,0H30A10,10,0,0,1,40,10V30A10,10,0,0,1,30,40H10A10,10,0,0,1,0,30V10A10,10,0,0,1,10,0Z" stroke="none"/>
      <path d="M 10 1 C 5.037380218505859 1 1 5.037380218505859 1 10 L 1 30 C 1 34.96261978149414 5.037380218505859 39 10 39 L 30 39 C 34.96261978149414 39 39 34.96261978149414 39 30 L 39 10 C 39 5.037380218505859 34.96261978149414 1 30 1 L 10 1 M 10 0 L 30 0 C 35.52285003662109 0 40 4.477149963378906 40 10 L 40 30 C 40 35.52285003662109 35.52285003662109 40 30 40 L 10 40 C 4.477149963378906 40 0 35.52285003662109 0 30 L 0 10 C 0 4.477149963378906 4.477149963378906 0 10 0 Z" stroke="none" fill="#6dd179"/>
    </g>
    <g id="noun_dinner_4308887" transform="translate(28.589 701.546)">
      <path id="Icon_metro-spoon-fork" data-name="Icon metro-spoon-fork" d="M7.979,1.928c-2.455,0-4.444,2.338-4.444,5.221a5.121,5.121,0,0,0,3.419,5.081l-.736,8.208a1.385,1.385,0,0,0,1.391,1.489H8.35A1.385,1.385,0,0,0,9.74,20.439L9,12.231a5.121,5.121,0,0,0,3.419-5.081C12.424,4.266,10.434,1.928,7.979,1.928Zm14.555,0-.851,7.459h-.926l-.223-7.459H19.522l-.617,7.459h-.926l-.945-7.459h-.907v9.7a.743.743,0,0,0,.741.746H18.8l-.727,8.068a1.385,1.385,0,0,0,1.391,1.489H20.2a1.385,1.385,0,0,0,1.391-1.489l-.727-8.068h1.929a.743.743,0,0,0,.741-.746v-9.7Z" transform="translate(14.877 8.526)" fill="#6dd179"/>
    </g>
  </g>
</svg>
