<svg xmlns="http://www.w3.org/2000/svg" width="40" height="40" viewBox="0 0 40 40">
  <g id="TEST" transform="translate(-37 -802)">
    <path id="Icon_awesome-file-alt" data-name="Icon awesome-file-alt" d="M9.333,5.313V0H1A.968.968,0,0,0,0,.938V19.063A.968.968,0,0,0,1,20H15a.968.968,0,0,0,1-.937V6.25H10.333A.973.973,0,0,1,9.333,5.313ZM12,14.531a.487.487,0,0,1-.5.469h-7a.487.487,0,0,1-.5-.469v-.312a.487.487,0,0,1,.5-.469h7a.487.487,0,0,1,.5.469Zm0-2.5a.487.487,0,0,1-.5.469h-7a.487.487,0,0,1-.5-.469v-.312a.487.487,0,0,1,.5-.469h7a.487.487,0,0,1,.5.469Zm0-2.812v.313a.487.487,0,0,1-.5.469h-7A.487.487,0,0,1,4,9.531V9.219a.487.487,0,0,1,.5-.469h7A.487.487,0,0,1,12,9.219Zm4-4.457V5H10.667V0h.254a1.034,1.034,0,0,1,.708.273L15.708,4.1A.906.906,0,0,1,16,4.762Z" transform="translate(49 812)" fill="#6dd179"/>
    <g id="Path_3050" data-name="Path 3050" transform="translate(37 802)" fill="none">
      <path d="M10,0H30A10,10,0,0,1,40,10V30A10,10,0,0,1,30,40H10A10,10,0,0,1,0,30V10A10,10,0,0,1,10,0Z" stroke="none"/>
      <path d="M 10 1 C 5.037380218505859 1 1 5.037380218505859 1 10 L 1 30 C 1 34.96261978149414 5.037380218505859 39 10 39 L 30 39 C 34.96261978149414 39 39 34.96261978149414 39 30 L 39 10 C 39 5.037380218505859 34.96261978149414 1 30 1 L 10 1 M 10 0 L 30 0 C 35.52285003662109 0 40 4.477149963378906 40 10 L 40 30 C 40 35.52285003662109 35.52285003662109 40 30 40 L 10 40 C 4.477149963378906 40 0 35.52285003662109 0 30 L 0 10 C 0 4.477149963378906 4.477149963378906 0 10 0 Z" stroke="none" fill="#6dd179"/>
    </g>
  </g>
</svg>
