<svg xmlns="http://www.w3.org/2000/svg" width="202.717" height="191.845" viewBox="0 0 202.717 191.845">
  <g id="QRT-card" transform="translate(0.001 -0.001)">
    <circle id="Ellipse_346" data-name="Ellipse 346" cx="2.684" cy="2.684" r="2.684" transform="translate(-0.001 0.001)" fill="#e6e6e6"/>
    <circle id="Ellipse_347" data-name="Ellipse 347" cx="2.684" cy="2.684" r="2.684" transform="translate(13.585 0.001)" fill="#e6e6e6"/>
    <circle id="Ellipse_348" data-name="Ellipse 348" cx="2.684" cy="2.684" r="2.684" transform="translate(27.17 0.001)" fill="#e6e6e6"/>
    <circle id="Ellipse_349" data-name="Ellipse 349" cx="2.684" cy="2.684" r="2.684" transform="translate(40.755 0.001)" fill="#e6e6e6"/>
    <circle id="Ellipse_350" data-name="Ellipse 350" cx="2.684" cy="2.684" r="2.684" transform="translate(54.34 0.001)" fill="#e6e6e6"/>
    <circle id="Ellipse_351" data-name="Ellipse 351" cx="2.684" cy="2.684" r="2.684" transform="translate(67.926 0.001)" fill="#e6e6e6"/>
    <circle id="Ellipse_352" data-name="Ellipse 352" cx="2.684" cy="2.684" r="2.684" transform="translate(81.511 0.001)" fill="#e6e6e6"/>
    <circle id="Ellipse_353" data-name="Ellipse 353" cx="2.684" cy="2.684" r="2.684" transform="translate(95.096 0.001)" fill="#e6e6e6"/>
    <circle id="Ellipse_354" data-name="Ellipse 354" cx="2.684" cy="2.684" r="2.684" transform="translate(108.681 0.001)" fill="#e6e6e6"/>
    <circle id="Ellipse_355" data-name="Ellipse 355" cx="2.684" cy="2.684" r="2.684" transform="translate(122.267 0.001)" fill="#e6e6e6"/>
    <circle id="Ellipse_356" data-name="Ellipse 356" cx="2.684" cy="2.684" r="2.684" transform="translate(-0.001 13.756)" fill="#e6e6e6"/>
    <circle id="Ellipse_357" data-name="Ellipse 357" cx="2.684" cy="2.684" r="2.684" transform="translate(13.585 13.756)" fill="#e6e6e6"/>
    <circle id="Ellipse_358" data-name="Ellipse 358" cx="2.684" cy="2.684" r="2.684" transform="translate(27.17 13.756)" fill="#e6e6e6"/>
    <circle id="Ellipse_359" data-name="Ellipse 359" cx="2.684" cy="2.684" r="2.684" transform="translate(40.755 13.756)" fill="#ff2929"/>
    <circle id="Ellipse_360" data-name="Ellipse 360" cx="2.684" cy="2.684" r="2.684" transform="translate(54.34 13.756)" fill="#e6e6e6"/>
    <circle id="Ellipse_361" data-name="Ellipse 361" cx="2.684" cy="2.684" r="2.684" transform="translate(67.926 13.756)" fill="#e6e6e6"/>
    <circle id="Ellipse_362" data-name="Ellipse 362" cx="2.684" cy="2.684" r="2.684" transform="translate(81.511 13.756)" fill="#e6e6e6"/>
    <circle id="Ellipse_363" data-name="Ellipse 363" cx="2.684" cy="2.684" r="2.684" transform="translate(95.096 13.756)" fill="#e6e6e6"/>
    <circle id="Ellipse_364" data-name="Ellipse 364" cx="2.684" cy="2.684" r="2.684" transform="translate(108.681 13.756)" fill="#e6e6e6"/>
    <circle id="Ellipse_365" data-name="Ellipse 365" cx="2.684" cy="2.684" r="2.684" transform="translate(122.267 13.756)" fill="#e6e6e6"/>
    <circle id="Ellipse_366" data-name="Ellipse 366" cx="2.684" cy="2.684" r="2.684" transform="translate(-0.001 27.512)" fill="#e6e6e6"/>
    <circle id="Ellipse_367" data-name="Ellipse 367" cx="2.684" cy="2.684" r="2.684" transform="translate(13.585 27.512)" fill="#e6e6e6"/>
    <circle id="Ellipse_368" data-name="Ellipse 368" cx="2.684" cy="2.684" r="2.684" transform="translate(27.17 27.512)" fill="#e6e6e6"/>
    <circle id="Ellipse_369" data-name="Ellipse 369" cx="2.684" cy="2.684" r="2.684" transform="translate(40.755 27.512)" fill="#e6e6e6"/>
    <circle id="Ellipse_370" data-name="Ellipse 370" cx="2.684" cy="2.684" r="2.684" transform="translate(54.34 27.512)" fill="#e6e6e6"/>
    <circle id="Ellipse_371" data-name="Ellipse 371" cx="2.684" cy="2.684" r="2.684" transform="translate(67.926 27.512)" fill="#e6e6e6"/>
    <circle id="Ellipse_372" data-name="Ellipse 372" cx="2.684" cy="2.684" r="2.684" transform="translate(81.511 27.512)" fill="#e6e6e6"/>
    <circle id="Ellipse_373" data-name="Ellipse 373" cx="2.684" cy="2.684" r="2.684" transform="translate(95.096 27.512)" fill="#e6e6e6"/>
    <circle id="Ellipse_374" data-name="Ellipse 374" cx="2.684" cy="2.684" r="2.684" transform="translate(108.681 27.512)" fill="#e6e6e6"/>
    <circle id="Ellipse_375" data-name="Ellipse 375" cx="2.684" cy="2.684" r="2.684" transform="translate(122.267 27.512)" fill="#e6e6e6"/>
    <circle id="Ellipse_376" data-name="Ellipse 376" cx="2.684" cy="2.684" r="2.684" transform="translate(-0.001 41.268)" fill="#e6e6e6"/>
    <circle id="Ellipse_377" data-name="Ellipse 377" cx="2.684" cy="2.684" r="2.684" transform="translate(13.585 41.268)" fill="#e6e6e6"/>
    <circle id="Ellipse_378" data-name="Ellipse 378" cx="2.684" cy="2.684" r="2.684" transform="translate(27.17 41.268)" fill="#e6e6e6"/>
    <circle id="Ellipse_379" data-name="Ellipse 379" cx="2.684" cy="2.684" r="2.684" transform="translate(40.755 41.268)" fill="#e6e6e6"/>
    <circle id="Ellipse_380" data-name="Ellipse 380" cx="2.684" cy="2.684" r="2.684" transform="translate(54.34 41.268)" fill="#e6e6e6"/>
    <circle id="Ellipse_381" data-name="Ellipse 381" cx="2.684" cy="2.684" r="2.684" transform="translate(67.926 41.268)" fill="#e6e6e6"/>
    <circle id="Ellipse_382" data-name="Ellipse 382" cx="2.684" cy="2.684" r="2.684" transform="translate(81.511 41.268)" fill="#e6e6e6"/>
    <circle id="Ellipse_383" data-name="Ellipse 383" cx="2.684" cy="2.684" r="2.684" transform="translate(95.096 41.268)" fill="#e6e6e6"/>
    <circle id="Ellipse_384" data-name="Ellipse 384" cx="2.684" cy="2.684" r="2.684" transform="translate(108.681 41.268)" fill="#e6e6e6"/>
    <circle id="Ellipse_385" data-name="Ellipse 385" cx="2.684" cy="2.684" r="2.684" transform="translate(122.267 41.268)" fill="#e6e6e6"/>
    <circle id="Ellipse_386" data-name="Ellipse 386" cx="2.684" cy="2.684" r="2.684" transform="translate(-0.001 55.024)" fill="#e6e6e6"/>
    <circle id="Ellipse_387" data-name="Ellipse 387" cx="2.684" cy="2.684" r="2.684" transform="translate(13.585 55.024)" fill="#ff2929"/>
    <circle id="Ellipse_388" data-name="Ellipse 388" cx="2.684" cy="2.684" r="2.684" transform="translate(27.17 55.024)" fill="#e6e6e6"/>
    <circle id="Ellipse_389" data-name="Ellipse 389" cx="2.684" cy="2.684" r="2.684" transform="translate(40.755 55.024)" fill="#e6e6e6"/>
    <circle id="Ellipse_390" data-name="Ellipse 390" cx="2.684" cy="2.684" r="2.684" transform="translate(54.34 55.024)" fill="#e6e6e6"/>
    <circle id="Ellipse_391" data-name="Ellipse 391" cx="2.684" cy="2.684" r="2.684" transform="translate(67.926 55.024)" fill="#e6e6e6"/>
    <circle id="Ellipse_392" data-name="Ellipse 392" cx="2.684" cy="2.684" r="2.684" transform="translate(81.511 55.024)" fill="#e6e6e6"/>
    <circle id="Ellipse_393" data-name="Ellipse 393" cx="2.684" cy="2.684" r="2.684" transform="translate(95.096 55.024)" fill="#e6e6e6"/>
    <circle id="Ellipse_394" data-name="Ellipse 394" cx="2.684" cy="2.684" r="2.684" transform="translate(108.681 55.024)" fill="#e6e6e6"/>
    <circle id="Ellipse_395" data-name="Ellipse 395" cx="2.684" cy="2.684" r="2.684" transform="translate(122.267 55.024)" fill="#e6e6e6"/>
    <circle id="Ellipse_396" data-name="Ellipse 396" cx="2.684" cy="2.684" r="2.684" transform="translate(-0.001 68.78)" fill="#e6e6e6"/>
    <circle id="Ellipse_397" data-name="Ellipse 397" cx="2.684" cy="2.684" r="2.684" transform="translate(13.585 68.78)" fill="#e6e6e6"/>
    <circle id="Ellipse_398" data-name="Ellipse 398" cx="2.684" cy="2.684" r="2.684" transform="translate(27.17 68.78)" fill="#e6e6e6"/>
    <circle id="Ellipse_399" data-name="Ellipse 399" cx="2.684" cy="2.684" r="2.684" transform="translate(40.755 68.78)" fill="#e6e6e6"/>
    <circle id="Ellipse_400" data-name="Ellipse 400" cx="2.684" cy="2.684" r="2.684" transform="translate(54.34 68.78)" fill="#e6e6e6"/>
    <circle id="Ellipse_401" data-name="Ellipse 401" cx="2.684" cy="2.684" r="2.684" transform="translate(67.926 68.78)" fill="#e6e6e6"/>
    <circle id="Ellipse_402" data-name="Ellipse 402" cx="2.684" cy="2.684" r="2.684" transform="translate(81.511 68.78)" fill="#e6e6e6"/>
    <circle id="Ellipse_403" data-name="Ellipse 403" cx="2.684" cy="2.684" r="2.684" transform="translate(95.096 68.78)" fill="#e6e6e6"/>
    <circle id="Ellipse_404" data-name="Ellipse 404" cx="2.684" cy="2.684" r="2.684" transform="translate(108.681 68.78)" fill="#e6e6e6"/>
    <circle id="Ellipse_405" data-name="Ellipse 405" cx="2.684" cy="2.684" r="2.684" transform="translate(122.267 68.78)" fill="#e6e6e6"/>
    <circle id="Ellipse_406" data-name="Ellipse 406" cx="2.684" cy="2.684" r="2.684" transform="translate(-0.001 82.535)" fill="#e6e6e6"/>
    <circle id="Ellipse_407" data-name="Ellipse 407" cx="2.684" cy="2.684" r="2.684" transform="translate(13.585 82.535)" fill="#e6e6e6"/>
    <circle id="Ellipse_408" data-name="Ellipse 408" cx="2.684" cy="2.684" r="2.684" transform="translate(27.17 82.535)" fill="#ff2929"/>
    <circle id="Ellipse_409" data-name="Ellipse 409" cx="2.684" cy="2.684" r="2.684" transform="translate(40.755 82.535)" fill="#e6e6e6"/>
    <circle id="Ellipse_410" data-name="Ellipse 410" cx="2.684" cy="2.684" r="2.684" transform="translate(54.34 82.535)" fill="#e6e6e6"/>
    <circle id="Ellipse_411" data-name="Ellipse 411" cx="2.684" cy="2.684" r="2.684" transform="translate(67.926 82.535)" fill="#e6e6e6"/>
    <circle id="Ellipse_412" data-name="Ellipse 412" cx="2.684" cy="2.684" r="2.684" transform="translate(81.511 82.535)" fill="#e6e6e6"/>
    <circle id="Ellipse_413" data-name="Ellipse 413" cx="2.684" cy="2.684" r="2.684" transform="translate(95.096 82.535)" fill="#e6e6e6"/>
    <circle id="Ellipse_414" data-name="Ellipse 414" cx="2.684" cy="2.684" r="2.684" transform="translate(108.681 82.535)" fill="#e6e6e6"/>
    <circle id="Ellipse_415" data-name="Ellipse 415" cx="2.684" cy="2.684" r="2.684" transform="translate(122.267 82.535)" fill="#e6e6e6"/>
    <circle id="Ellipse_416" data-name="Ellipse 416" cx="2.684" cy="2.684" r="2.684" transform="translate(-0.001 96.291)" fill="#e6e6e6"/>
    <circle id="Ellipse_417" data-name="Ellipse 417" cx="2.684" cy="2.684" r="2.684" transform="translate(13.585 96.291)" fill="#e6e6e6"/>
    <circle id="Ellipse_418" data-name="Ellipse 418" cx="2.684" cy="2.684" r="2.684" transform="translate(27.17 96.291)" fill="#e6e6e6"/>
    <circle id="Ellipse_419" data-name="Ellipse 419" cx="2.684" cy="2.684" r="2.684" transform="translate(40.755 96.291)" fill="#e6e6e6"/>
    <circle id="Ellipse_420" data-name="Ellipse 420" cx="2.684" cy="2.684" r="2.684" transform="translate(54.34 96.291)" fill="#e6e6e6"/>
    <circle id="Ellipse_421" data-name="Ellipse 421" cx="2.684" cy="2.684" r="2.684" transform="translate(67.926 96.291)" fill="#e6e6e6"/>
    <circle id="Ellipse_422" data-name="Ellipse 422" cx="2.684" cy="2.684" r="2.684" transform="translate(81.511 96.291)" fill="#e6e6e6"/>
    <circle id="Ellipse_423" data-name="Ellipse 423" cx="2.684" cy="2.684" r="2.684" transform="translate(95.096 96.291)" fill="#e6e6e6"/>
    <circle id="Ellipse_424" data-name="Ellipse 424" cx="2.684" cy="2.684" r="2.684" transform="translate(108.681 96.291)" fill="#e6e6e6"/>
    <circle id="Ellipse_425" data-name="Ellipse 425" cx="2.684" cy="2.684" r="2.684" transform="translate(122.267 96.291)" fill="#e6e6e6"/>
    <circle id="Ellipse_426" data-name="Ellipse 426" cx="2.684" cy="2.684" r="2.684" transform="translate(-0.001 110.047)" fill="#e6e6e6"/>
    <circle id="Ellipse_427" data-name="Ellipse 427" cx="2.684" cy="2.684" r="2.684" transform="translate(13.585 110.047)" fill="#e6e6e6"/>
    <circle id="Ellipse_428" data-name="Ellipse 428" cx="2.684" cy="2.684" r="2.684" transform="translate(27.17 110.047)" fill="#e6e6e6"/>
    <circle id="Ellipse_429" data-name="Ellipse 429" cx="2.684" cy="2.684" r="2.684" transform="translate(40.755 110.047)" fill="#e6e6e6"/>
    <circle id="Ellipse_430" data-name="Ellipse 430" cx="2.684" cy="2.684" r="2.684" transform="translate(54.34 110.047)" fill="#e6e6e6"/>
    <circle id="Ellipse_431" data-name="Ellipse 431" cx="2.684" cy="2.684" r="2.684" transform="translate(67.926 110.047)" fill="#e6e6e6"/>
    <circle id="Ellipse_432" data-name="Ellipse 432" cx="2.684" cy="2.684" r="2.684" transform="translate(81.511 110.047)" fill="#e6e6e6"/>
    <circle id="Ellipse_433" data-name="Ellipse 433" cx="2.684" cy="2.684" r="2.684" transform="translate(95.096 110.047)" fill="#e6e6e6"/>
    <circle id="Ellipse_434" data-name="Ellipse 434" cx="2.684" cy="2.684" r="2.684" transform="translate(108.681 110.047)" fill="#e6e6e6"/>
    <circle id="Ellipse_435" data-name="Ellipse 435" cx="2.684" cy="2.684" r="2.684" transform="translate(122.267 110.047)" fill="#e6e6e6"/>
    <circle id="Ellipse_436" data-name="Ellipse 436" cx="2.684" cy="2.684" r="2.684" transform="translate(-0.001 123.803)" fill="#e6e6e6"/>
    <circle id="Ellipse_437" data-name="Ellipse 437" cx="2.684" cy="2.684" r="2.684" transform="translate(13.585 123.803)" fill="#e6e6e6"/>
    <circle id="Ellipse_438" data-name="Ellipse 438" cx="2.684" cy="2.684" r="2.684" transform="translate(27.17 123.803)" fill="#e6e6e6"/>
    <circle id="Ellipse_439" data-name="Ellipse 439" cx="2.684" cy="2.684" r="2.684" transform="translate(40.755 123.803)" fill="#e6e6e6"/>
    <circle id="Ellipse_440" data-name="Ellipse 440" cx="2.684" cy="2.684" r="2.684" transform="translate(54.34 123.803)" fill="#e6e6e6"/>
    <circle id="Ellipse_441" data-name="Ellipse 441" cx="2.684" cy="2.684" r="2.684" transform="translate(67.926 123.803)" fill="#e6e6e6"/>
    <circle id="Ellipse_442" data-name="Ellipse 442" cx="2.684" cy="2.684" r="2.684" transform="translate(81.511 123.803)" fill="#e6e6e6"/>
    <circle id="Ellipse_443" data-name="Ellipse 443" cx="2.684" cy="2.684" r="2.684" transform="translate(95.096 123.803)" fill="#e6e6e6"/>
    <circle id="Ellipse_444" data-name="Ellipse 444" cx="2.684" cy="2.684" r="2.684" transform="translate(108.681 123.803)" fill="#e6e6e6"/>
    <circle id="Ellipse_445" data-name="Ellipse 445" cx="2.684" cy="2.684" r="2.684" transform="translate(122.267 123.803)" fill="#e6e6e6"/>
    <path id="Path_4695" data-name="Path 4695" d="M10,0H99a10,10,0,0,1,10,10V135a10,10,0,0,1-10,10H10A10,10,0,0,1,0,135V10A10,10,0,0,1,10,0Z" transform="translate(54.358 22.357)" fill="rgba(237,30,30,0.1)"/>
    <rect id="Rectangle_2815" data-name="Rectangle 2815" width="97" height="135" rx="10" transform="translate(60.358 27.357)" fill="#fff"/>
    <path id="Path_2956" data-name="Path 2956" d="M470.114,257.643a.678.678,0,0,1,.678.679v1.357a.678.678,0,0,1-.678.679H416.5a.679.679,0,0,1-.679-.679v-1.357a.679.679,0,0,1,.679-.679h53.61" transform="translate(-334.28 -169.191)" fill="#e6e6e6"/>
    <path id="Path_2957" data-name="Path 2957" d="M470.114,274.009a.678.678,0,0,1,.678.679v1.357a.678.678,0,0,1-.678.679H416.5a.679.679,0,0,1-.679-.679v-1.357a.679.679,0,0,1,.679-.679h53.61" transform="translate(-334.28 -179.111)" fill="#e6e6e6"/>
    <path id="Path_2958" data-name="Path 2958" d="M470.114,290.376a.679.679,0,0,1,.678.679v1.357a.678.678,0,0,1-.678.679H416.5a.679.679,0,0,1-.679-.679v-1.357a.678.678,0,0,1,.679-.679h53.61" transform="translate(-334.28 -189.031)" fill="#ff2929"/>
    <path id="Path_2959" data-name="Path 2959" d="M470.114,307.1a.679.679,0,0,1,.678.679v1.357a.678.678,0,0,1-.678.679H416.5a.678.678,0,0,1-.679-.679v-1.357a.679.679,0,0,1,.679-.679h53.61" transform="translate(-334.28 -199.168)" fill="#e6e6e6"/>
    <path id="Path_2960" data-name="Path 2960" d="M470.114,323.467a.678.678,0,0,1,.678.679V325.5a.678.678,0,0,1-.678.679H416.5a.679.679,0,0,1-.679-.679v-1.357a.678.678,0,0,1,.679-.679h53.61" transform="translate(-334.28 -209.087)" fill="#e6e6e6"/>
    <path id="Path_2961" data-name="Path 2961" d="M470.114,339.834a.679.679,0,0,1,.679.679v1.357a.679.679,0,0,1-.679.679H416.5a.679.679,0,0,1-.679-.679v-1.357a.679.679,0,0,1,.679-.679h53.61" transform="translate(-334.28 -219.007)" fill="#e6e6e6"/>
    <path id="Path_2962" data-name="Path 2962" d="M417.2,394.89c-.435,0-.787.1-.788.222v10.307c0,.122.353.222.788.222h52.834c.435,0,.787-.1.788-.222V395.112c0-.123-.353-.222-.788-.222Z" transform="translate(-334.639 -264.282)" fill="#ff2929"/>
    <path id="Path_2963" data-name="Path 2963" d="M282.388,61.4l-.555-.147.3-16.032h70.2v.574H282.578Z" transform="translate(-161.383 -27.408)" fill="#3f3d56"/>
    <path id="Path_2964" data-name="Path 2964" d="M698.885,175.644a6.023,6.023,0,1,1,6.023-6.023A6.023,6.023,0,0,1,698.885,175.644Zm0-11.473a5.449,5.449,0,1,0,5.449,5.449A5.449,5.449,0,0,0,698.885,164.171Z" transform="translate(-502.192 -151.52)" fill="#3f3d56"/>
    <circle id="Ellipse_446" data-name="Ellipse 446" cx="2.295" cy="2.295" r="2.295" transform="translate(194.399 15.805)" fill="#ff2929"/>
    <path id="Path_2965" data-name="Path 2965" d="M146.551,356.941l.554.148L134.915,402.6l-70.2-.134v-.574l69.762.134Z" transform="translate(-39.222 -216.341)" fill="#3f3d56"/>
    <path id="Path_2966" data-name="Path 2966" d="M249.7,589.4a6.023,6.023,0,1,1-6.035,6.011A6.023,6.023,0,0,1,249.7,589.4Zm-.022,11.473a5.449,5.449,0,1,0-5.439-5.46A5.449,5.449,0,0,0,249.677,600.868Z" transform="translate(-229.934 -409.596)" fill="#3f3d56"/>
    <circle id="Ellipse_447" data-name="Ellipse 447" cx="2.295" cy="2.295" r="2.295" transform="translate(17.459 183.528)" fill="#ff2929"/>
    <text id="QRT" transform="translate(80.716 66.357)" fill="#ff2929" font-size="29" font-family="Roboto-Medium, Roboto" font-weight="500"><tspan x="0" y="0">QRT</tspan></text>
  </g>
</svg>
