<svg xmlns="http://www.w3.org/2000/svg" width="253.837" height="229.866" viewBox="0 0 253.837 229.866">
  <g id="Group_2090" data-name="Group 2090" transform="translate(6 0)">
    <path id="Path_438" data-name="Path 438" d="M309.082,655.32a8.3,8.3,0,0,0,8.512-1.62c2.981-2.7,3.916-7.159,4.676-11.285l2.25-12.2-4.71,3.505c-3.387,2.521-6.85,5.122-9.2,8.773s-3.368,8.635-1.484,12.586" transform="translate(-290.471 -444.374)" fill="#6dd179"/>
    <path id="Path_439" data-name="Path 439" d="M311.09,686.989a66.082,66.082,0,0,1-.786-14.114,23.326,23.326,0,0,1,3.96-11.638,18.492,18.492,0,0,1,4.6-4.5c.459-.313.882.474.425.786a18.152,18.152,0,0,0-6.736,8.784,31.731,31.731,0,0,0-1.449,12.709c.153,2.59.477,5.163.8,7.732a.477.477,0,0,1-.294.56.421.421,0,0,1-.518-.318Z" transform="translate(-291.753 -460.418)" fill="#f2f2f2"/>
    <path id="Path_442" data-name="Path 442" d="M324.424,703a6.36,6.36,0,0,0,5.654,3.155c2.863-.147,5.248-2.306,7.4-4.356l6.353-6.063-4.2-.218c-3.024-.156-6.125-.3-9.005.706a8.969,8.969,0,0,0-6.062,6.655" transform="translate(-300.82 -483.917)" fill="#6dd179"/>
    <path id="Path_442-2" data-name="Path 442" d="M343.827,703a6.36,6.36,0,0,1-5.654,3.155c-2.863-.147-5.248-2.306-7.4-4.356l-6.353-6.063,4.2-.218c3.024-.156,6.125-.3,9.005.706a8.969,8.969,0,0,1,6.062,6.655" transform="translate(-330.424 -494.405)" fill="#6dd179"/>
    <path id="Path_443" data-name="Path 443" d="M308,718.845c2.854-5.458,6.164-11.523,12.078-13.462a12.521,12.521,0,0,1,5.08-.567c.539.05.4.949-.134.9a11.825,11.825,0,0,0-8.107,2.318,22.2,22.2,0,0,0-5.572,6.5c-.923,1.519-1.749,3.1-2.576,4.683A.427.427,0,1,1,308,718.845Z" transform="translate(-290.342 -489.591)" fill="#f2f2f2"/>
    <path id="Path_443-2" data-name="Path 443" d="M325.45,718.845c-2.854-5.458-6.164-11.523-12.078-13.462a12.521,12.521,0,0,0-5.08-.567c-.539.05-.4.949.134.9a11.825,11.825,0,0,1,8.107,2.318,22.2,22.2,0,0,1,5.572,6.5c.923,1.519,1.749,3.1,2.576,4.683A.427.427,0,1,0,325.45,718.845Z" transform="translate(-306.106 -500.079)" fill="#f2f2f2"/>
    <path id="Path_141" data-name="Path 141" d="M657.319,319.762H499.986a1.909,1.909,0,0,1-1.829-1.977V159.861a1.909,1.909,0,0,1,1.829-1.977H657.319a1.909,1.909,0,0,1,1.829,1.977V317.785a1.909,1.909,0,0,1-1.829,1.977Z" transform="translate(-411.311 -157.884)" fill="#fff"/>
    <path id="Path_141-2" data-name="Path 141" d="M657.319,319.762H499.986a1.909,1.909,0,0,1-1.829-1.977V159.861a1.909,1.909,0,0,1,1.829-1.977H657.319a1.909,1.909,0,0,1,1.829,1.977V317.785a1.909,1.909,0,0,1-1.829,1.977ZM499.986,158.673a1.146,1.146,0,0,0-1.1,1.185V317.785a1.146,1.146,0,0,0,1.1,1.185H657.319a1.145,1.145,0,0,0,1.1-1.185V159.861a1.146,1.146,0,0,0-1.1-1.185Z" transform="translate(-411.311 -157.884)" fill="#cacaca"/>
    <path id="Path_142" data-name="Path 142" d="M705.241,262.185a1.346,1.346,0,0,0,0,2.684h68.123a1.346,1.346,0,0,0,0-2.684Z" transform="translate(-542.224 -221.148)" fill="#e4e4e4"/>
    <path id="Path_143" data-name="Path 143" d="M705.241,282.65a1.346,1.346,0,0,0,0,2.684h34.778a1.346,1.346,0,0,0,0-2.684Z" transform="translate(-542.224 -233.561)" fill="#e4e4e4"/>
    <path id="Path_142-2" data-name="Path 142" d="M541.672,392.7a1.346,1.346,0,0,0,0,2.684H669.4a1.346,1.346,0,0,0,0-2.684Z" transform="translate(-438.197 -300.314)" fill="#e4e4e4"/>
    <path id="Path_143-2" data-name="Path 143" d="M541.672,413.17a1.346,1.346,0,0,0,0,2.684h94.386a1.346,1.346,0,0,0,0-2.684Z" transform="translate(-438.197 -312.727)" fill="#e4e4e4"/>
    <path id="Path_142-3" data-name="Path 142" d="M541.672,433.172a1.346,1.346,0,0,0,0,2.684H669.4a1.346,1.346,0,0,0,0-2.684Z" transform="translate(-438.197 -324.86)" fill="#e4e4e4"/>
    <path id="Path_143-3" data-name="Path 143" d="M541.672,453.637a1.346,1.346,0,0,0,0,2.684h94.386a1.346,1.346,0,0,0,0-2.684Z" transform="translate(-438.197 -337.273)" fill="#e4e4e4"/>
    <path id="Path_142-4" data-name="Path 142" d="M541.672,474.172a1.346,1.346,0,0,0,0,2.684H669.4a1.346,1.346,0,0,0,0-2.684Z" transform="translate(-438.197 -349.728)" fill="#e4e4e4"/>
    <path id="Path_143-4" data-name="Path 143" d="M541.672,494.637a1.346,1.346,0,0,0,0,2.684h94.386a1.346,1.346,0,0,0,0-2.684Z" transform="translate(-438.197 -362.141)" fill="#e4e4e4"/>
    <path id="Path_2862" data-name="Path 2862" d="M568.256,265.386c-9.851,0-17.837-8.632-17.837-19.279s7.986-19.279,17.837-19.279,17.837,8.632,17.837,19.279S578.1,265.374,568.256,265.386Z" transform="translate(-444.549 -199.702)" fill="#6dd179"/>
    <path id="Path_2863" data-name="Path 2863" d="M420.52,489.364a4.945,4.945,0,0,0-1.756-3.609,4.2,4.2,0,0,0-3.687-.862l-5.9-8.981-5.923,2.542,8.491,12.556a4.476,4.476,0,0,0,5.062,3.388A4.777,4.777,0,0,0,420.52,489.364Z" transform="translate(-350.957 -350.784)" fill="#a0616a"/>
    <path id="Path_2864" data-name="Path 2864" d="M387.944,423.329,370.1,398.315l6.684-22.706c.49-5.709,3.795-7.3,3.936-7.368l.215-.1,5.817,16.766-4.271,12.31,10.482,19.056Z" transform="translate(-329.872 -285.415)" fill="#3f3d56"/>
    <path id="Path_2865" data-name="Path 2865" d="M569.162,312.355a4.436,4.436,0,0,0-3.193,2.171,5.154,5.154,0,0,0-.51,4.04l-7.828,7.048,2.8,6.186,10.925-10.121a4.942,4.942,0,0,0,2.734-5.717,4.509,4.509,0,0,0-4.93-3.608Z" transform="translate(-449.136 -251.553)" fill="#a0616a"/>
    <path id="Path_2866" data-name="Path 2866" d="M502.067,336.519l-21.695,21.158-21.462-5.448c-5.3-.086-7.03-3.525-7.1-3.671l-.108-.224,15.015-7.564,11.685,3.651,16.767-12.769Z" transform="translate(-381.766 -263.283)" fill="#3f3d56"/>
    <path id="Path_2867" data-name="Path 2867" d="M227.246,530.973h5.829l2.773-24.3h-8.6Z" transform="translate(-144.524 -307.322)" fill="#a0616a"/>
    <path id="Path_2868" data-name="Path 2868" d="M0,0H18.32V7.65H5.14A5.359,5.359,0,0,1,0,2.1V0Z" transform="translate(99.792 229.502) rotate(179.997)" fill="#2f2e41"/>
    <path id="Path_2869" data-name="Path 2869" d="M163.246,530.973h5.829l2.773-24.3h-8.6Z" transform="translate(-103.821 -307.322)" fill="#a0616a"/>
    <path id="Path_2870" data-name="Path 2870" d="M0,0H18.32V7.65H5.14A5.359,5.359,0,0,1,0,2.1Z" transform="translate(76.494 229.502) rotate(179.997)" fill="#2f2e41"/>
    <path id="Path_2871" data-name="Path 2871" d="M157.552,342.991l.475,35.973.476,47.279,10.46-1.028,5.23-65.265,6.656,65.265h10.8l1.088-65.779-3.8-14.389Z" transform="translate(-100.2 -208.041)" fill="#2f2e41"/>
    <path id="Path_2872" data-name="Path 2872" d="M421.359,403.108c-11.381,0-21.857-5.567-22-5.643l-.117-.063-.955-24.774c-.277-.875-5.731-18.15-6.654-23.641-.936-5.563,12.627-10.445,14.274-11.016l.374-4.475,15.2-1.77,1.926,5.726,5.453,2.21a2.97,2.97,0,0,1,1.672,3.425L427.5,356.406l7.4,44.071-1.594.075A27.071,27.071,0,0,1,421.359,403.108Z" transform="translate(-343.535 -263.327)" fill="#3f3d56"/>
    <path id="Path_2876" data-name="Path 2876" d="M11.147-.372C17.3-.578,22.127,4.46,21.922,10.88s-5.363,11.791-11.519,12S-.578,18.045-.372,11.625,4.991-.167,11.147-.372Z" transform="translate(56.09 49.03) rotate(-28.663)" fill="#a0616a"/>
    <path id="Path_2873" data-name="Path 2873" d="M420.786,281.953a3.551,3.551,0,0,0,6.23-2.168,4.285,4.285,0,0,0,0-.765c-.14-1.453-.917-2.772-.731-4.306a2.367,2.367,0,0,1,.382-1.057c1.662-2.405,5.563,1.076,7.132-1.1.962-1.335-.169-3.437.569-4.93.974-1.97,3.859-1,5.669-2.077,2.013-1.2,1.893-4.538.568-6.569a9.349,9.349,0,0,0-7.248-3.988,18.186,18.186,0,0,0-8.189,1.728c-2.968,1.25-5.912,2.978-7.738,5.8-2.221,3.431-2.435,8.043-1.324,12.054C416.777,277.011,419.083,279.992,420.786,281.953Z" transform="translate(-358.708 -216.767)" fill="#2f2e41"/>
    <path id="Path_2874" data-name="Path 2874" d="M468.454,740.749H260.128c-.3,0-.547-.176-.547-.393s.245-.393.547-.393H468.454c.3,0,.547.176.547.393S468.756,740.749,468.454,740.749Z" transform="translate(-259.581 -510.944)" fill="#cacaca"/>
    <path id="Path_2875" data-name="Path 2875" d="M584.089,272.22a1.22,1.22,0,0,1-.867-.368l-5.882-5.9a1.457,1.457,0,0,1-.066-1.946,1.208,1.208,0,0,1,1.8-.072l4.982,5,9.856-10.653a1.208,1.208,0,0,1,1.8,0,1.457,1.457,0,0,1,0,1.948L584.99,271.817A1.225,1.225,0,0,1,584.089,272.22Z" transform="translate(-461.412 -218.533)" fill="#fff"/>
    <path id="Path_2037" data-name="Path 2037" d="M9.676,0S14.514,11.909,0,20.841Z" transform="translate(199.349 227.75) rotate(-166)"/>
    <path id="Path_2842" data-name="Path 2842" d="M9.676,0S14.514,11.909,0,20.841Z" transform="translate(175.458 226.174) rotate(-166)"/>
    <path id="Path_2843" data-name="Path 2843" d="M9.676,0S14.514,11.909,0,20.841Z" transform="matrix(-0.999, 0.035, -0.035, -0.999, 173.102, 220.436)"/>
    <path id="Path_2038" data-name="Path 2038" d="M814.158,655.529s-2.2-12.664-19.244-12.556Z" transform="translate(-626.885 -431.192)"/>
    <path id="Path_2844" data-name="Path 2844" d="M814.158,655.529s-2.2-12.664-19.244-12.556Z" transform="translate(-650.776 -432.768)"/>
    <ellipse id="Ellipse_159" data-name="Ellipse 159" cx="3.387" cy="3.387" rx="3.387" ry="3.387" transform="translate(177.113 202.542)" fill="#6dd179"/>
    <ellipse id="Ellipse_313" data-name="Ellipse 313" cx="3.387" cy="3.387" rx="3.387" ry="3.387" transform="translate(183.886 209.315)" fill="#6dd179"/>
    <ellipse id="Ellipse_314" data-name="Ellipse 314" cx="3.387" cy="3.387" rx="3.387" ry="3.387" transform="translate(159.995 207.739)" fill="#6dd179"/>
  </g>
</svg>
