<svg xmlns="http://www.w3.org/2000/svg" width="100" height="74" viewBox="0 0 100 74">
  <g id="Recovery-illustration" transform="translate(2.59)">
    <path id="Path_2251" data-name="Path 2251" d="M319.262,88.263c-4.2,3.271-4.563,9.695-3.841,15.128.242,1.819.546,3.756-.187,5.424-.9,2.039-3.121,3.083-5.247,3.368a12.239,12.239,0,0,1-10.608-4.026c-2.3-2.591-3.518-6.086-5.886-8.608-3.965-4.22-10.234-4.839-15.859-4.309-3.98.374-8.407,1.074-11.621-1.416-2.261-1.753-3.355-4.762-3.619-7.7a11.987,11.987,0,0,0-.712-4.172,6.712,6.712,0,0,0-1.538-1.94c-5.514-5.125-18.942.1-24.179-5.336-3.537-3.67-.08-14.854,0-20.069s32.835-9.143,36.9-6.721c2.774,1.654,6.014,2.1,9.124,2.826a95.334,95.334,0,0,1,15.13,5.305,69.964,69.964,0,0,1,13.709,7.031c2.989,2.117,5.075,5.007,7.8,7.389,1.775,1.552,3.916,2.45,5.514,4.238,1.968,2.2,3.447,5.479,2.033,8.416C324.834,85.885,321.49,86.527,319.262,88.263Z" transform="translate(-229.326 -42.224)" fill="#6dd179" opacity="0.1"/>
    <path id="Path_2252" data-name="Path 2252" d="M163.476,532.594a10.291,10.291,0,0,0-4.589.674c-2.357,1.163-2.04,3.523-3.577,5.16-1.3,1.382-3.779,2.1-6.185,2.558-3.92.747-8.03,1.026-11.923,1.828a15.889,15.889,0,0,0-6.145,2.338c-1.573,1.177-2.278,2.932-1.215,4.324.983,1.287,3.149,1.976,5.122,2.643s4.062,1.541,4.611,2.931c.306.774.078,1.608.435,2.371.7,1.507,3.34,2.218,5.708,2.6,1.892.307,3.814.534,5.752.673a21.568,21.568,0,0,0,4.651-.048c1.316-.192,2.534-.589,3.8-.895,8.018-1.952,17.239-.263,25.417-1.917a12.856,12.856,0,0,0,4.08-1.408,7.469,7.469,0,0,0,1.989-1.815,9.266,9.266,0,0,0,2.123-5.465,13.96,13.96,0,0,1,.142-3.4,35.859,35.859,0,0,1,1.658-3.378,5.583,5.583,0,0,0-1.58-6.177,5.892,5.892,0,0,0-2.34-1.455,12.586,12.586,0,0,0-2.385-.421,40.913,40.913,0,0,0-6.869-.355c-1.632.1-3.228.393-4.865.446a21.867,21.867,0,0,1-6.177-.952A37.547,37.547,0,0,0,163.476,532.594Z" transform="translate(-131.926 -486.8)" fill="#6dd179" opacity="0.1"/>
    <path id="Path_164" data-name="Path 164" d="M573.491,650.649s.994-1.63,2.269-.666,3.638,2.59,3.638,2.59.484,1.04-.768.649-5.34-1.019-5.34-1.019Z" transform="translate(-528.844 -587.462)" fill="#feb8b8"/>
    <path id="Path_2049" data-name="Path 2049" d="M283.759,495.615a7.043,7.043,0,0,1,4.323-5.883,11.821,11.821,0,0,0,0,8.116c.373,1.009.893,2.093.542,3.11a2.642,2.642,0,0,1-1.35,1.42,7.844,7.844,0,0,1-1.914.589l-.129.107A14.33,14.33,0,0,1,283.759,495.615Z" transform="translate(-274.84 -446.766)" fill="rgba(109,209,121,0.5)"/>
    <path id="Path_2050" data-name="Path 2050" d="M302.21,489.269a10.1,10.1,0,0,0-2.512,5.686,4.352,4.352,0,0,0,.049,1.362,2.5,2.5,0,0,0,.621,1.157,5.166,5.166,0,0,1,.8.959,1.528,1.528,0,0,1,.075,1.247,3.97,3.97,0,0,1-.88,1.312,3.9,3.9,0,0,0-.977,1.459c-.02.07-.128.034-.107-.035.291-1,1.266-1.575,1.731-2.479a1.547,1.547,0,0,0,.1-1.358,4.008,4.008,0,0,0-.8-.989,2.662,2.662,0,0,1-.649-1.109,4.022,4.022,0,0,1-.1-1.355,9.8,9.8,0,0,1,.716-2.979,10.282,10.282,0,0,1,1.849-2.963C302.183,489.13,302.258,489.215,302.21,489.269Z" transform="translate(-288.944 -446.273)" fill="#fff"/>
    <path id="Path_2051" data-name="Path 2051" d="M293.021,527.109a1.516,1.516,0,0,1-1.154-1.588c.006-.073.119-.067.113.006A1.4,1.4,0,0,0,293.057,527C293.127,527.018,293.091,527.126,293.021,527.109Z" transform="translate(-282.237 -479.227)" fill="#fff"/>
    <path id="Path_2052" data-name="Path 2052" d="M308.731,558.478a2.921,2.921,0,0,0,1.3-1.683c.021-.07.128-.034.107.035a3.039,3.039,0,0,1-1.361,1.748C308.72,558.616,308.669,558.515,308.731,558.478Z" transform="translate(-297.47 -507.805)" fill="#fff"/>
    <path id="Path_2053" data-name="Path 2053" d="M314.881,509.67a.858.858,0,0,0,.813-.041c.062-.038.113.063.051.1a.962.962,0,0,1-.9.048.058.058,0,0,1-.036-.071A.057.057,0,0,1,314.881,509.67Z" transform="translate(-302.992 -464.433)" fill="#fff"/>
    <path id="Path_2054" data-name="Path 2054" d="M309.607,534.817l-.115.075a11.307,11.307,0,0,0-1.445,1.128l-.1.1a11.912,11.912,0,0,0-2.587,3.542,11.57,11.57,0,0,0-.634,1.64,7.532,7.532,0,0,1-.888,2.27,1.983,1.983,0,0,1-.155.191H299.5l-.029-.013-.167.008.021-.09c0-.017.009-.034.012-.052s.006-.023.008-.033l0-.011c0-.01,0-.02.007-.03q.063-.256.13-.512v0a17.007,17.007,0,0,1,1.432-3.758c.019-.035.038-.072.059-.107a11.038,11.038,0,0,1,.992-1.5,9.764,9.764,0,0,1,.65-.743,8.114,8.114,0,0,1,2.031-1.521,6.444,6.444,0,0,1,4.84-.612Z" transform="translate(-286.185 -486.941)" fill="rgba(109,209,121,0.5)"/>
    <path id="Path_2055" data-name="Path 2055" d="M309.782,536.859a10.1,10.1,0,0,0-5.429,3.028,4.35,4.35,0,0,0-.781,1.117,2.5,2.5,0,0,0-.2,1.3,5.165,5.165,0,0,1,.063,1.249,1.528,1.528,0,0,1-.691,1.041,3.969,3.969,0,0,1-1.492.518,3.9,3.9,0,0,0-1.658.576c-.058.044-.123-.049-.064-.093.837-.627,1.959-.5,2.875-.937a1.548,1.548,0,0,0,.9-1.021,4.007,4.007,0,0,0-.039-1.269,2.663,2.663,0,0,1,.15-1.276,4.022,4.022,0,0,1,.735-1.143A9.8,9.8,0,0,1,306.513,538a10.284,10.284,0,0,1,3.26-1.253C309.845,536.732,309.853,536.845,309.782,536.859Z" transform="translate(-286.364 -488.925)" fill="#fff"/>
    <path id="Path_2056" data-name="Path 2056" d="M351.631,545.349a1.516,1.516,0,0,1,.035-1.963c.048-.054.135.018.087.073a1.4,1.4,0,0,0-.029,1.826C351.771,545.341,351.677,545.4,351.631,545.349Z" transform="translate(-334.596 -493.964)" fill="#fff"/>
    <path id="Path_2057" data-name="Path 2057" d="M338.912,587.409a2.922,2.922,0,0,0,2.055-.558c.058-.043.123.05.064.093a3.039,3.039,0,0,1-2.139.576C338.819,587.512,338.84,587.4,338.912,587.409Z" transform="translate(-321.5 -534.534)" fill="#fff"/>
    <path id="Path_2058" data-name="Path 2058" d="M382.737,544.92a.858.858,0,0,0,.674.457c.073.007.052.118-.02.111a.962.962,0,0,1-.747-.5.059.059,0,0,1,.014-.079A.057.057,0,0,1,382.737,544.92Z" transform="translate(-362.366 -495.526)" fill="#fff"/>
    <path id="Path_2059" data-name="Path 2059" d="M637.676,706.582a2.73,2.73,0,0,1,1.675-2.28,4.581,4.581,0,0,0,0,3.145,1.852,1.852,0,0,1,.21,1.205,1.024,1.024,0,0,1-.523.55,3.043,3.043,0,0,1-.742.228l-.05.041A5.554,5.554,0,0,1,637.676,706.582Z" transform="translate(-586.286 -636.873)" fill="#6dd179" opacity="0.5"/>
    <path id="Path_2060" data-name="Path 2060" d="M644.827,704.122a3.915,3.915,0,0,0-.973,2.2,1.688,1.688,0,0,0,.019.528.968.968,0,0,0,.241.448,2,2,0,0,1,.311.372.592.592,0,0,1,.029.483,1.537,1.537,0,0,1-.341.509,1.51,1.51,0,0,0-.379.565c-.008.027-.049.013-.042-.014.113-.389.491-.61.671-.961a.6.6,0,0,0,.041-.526,1.553,1.553,0,0,0-.308-.383,1.033,1.033,0,0,1-.252-.43,1.558,1.558,0,0,1-.039-.525,3.8,3.8,0,0,1,.277-1.155,3.985,3.985,0,0,1,.717-1.148C644.817,704.068,644.846,704.1,644.827,704.122Z" transform="translate(-591.727 -636.675)" fill="#fff"/>
    <path id="Path_2061" data-name="Path 2061" d="M641.266,718.787a.587.587,0,0,1-.447-.615.022.022,0,0,1,.044,0,.544.544,0,0,0,.417.572C641.307,718.752,641.293,718.794,641.266,718.787Z" transform="translate(-589.25 -649.401)" fill="#fff"/>
    <path id="Path_2062" data-name="Path 2062" d="M647.354,730.945a1.133,1.133,0,0,0,.506-.652c.008-.027.05-.013.042.014a1.178,1.178,0,0,1-.528.677C647.35,731,647.33,730.959,647.354,730.945Z" transform="translate(-595.026 -660.37)" fill="#fff"/>
    <path id="Path_2063" data-name="Path 2063" d="M649.738,712.029a.333.333,0,0,0,.315-.016c.024-.015.044.025.02.039a.373.373,0,0,1-.349.018.023.023,0,0,1-.014-.028A.022.022,0,0,1,649.738,712.029Z" transform="translate(-597.143 -643.845)" fill="#fff"/>
    <path id="Path_2064" data-name="Path 2064" d="M647.694,721.774l-.044.029a4.387,4.387,0,0,0-.56.437l-.041.037a4.619,4.619,0,0,0-1,1.373,4.5,4.5,0,0,0-.246.635,2.92,2.92,0,0,1-.344.88.766.766,0,0,1-.06.074h-1.621l-.011-.005-.065,0,.008-.035,0-.02,0-.013v0s0-.008,0-.011q.024-.1.05-.2h0a6.593,6.593,0,0,1,.555-1.456c.007-.014.015-.028.023-.041a4.277,4.277,0,0,1,.384-.583,3.764,3.764,0,0,1,.252-.288,3.144,3.144,0,0,1,.787-.59,2.5,2.5,0,0,1,1.876-.237Z" transform="translate(-591.423 -652.583)" fill="#6dd179" opacity="0.5"/>
    <path id="Path_2065" data-name="Path 2065" d="M647.762,722.566a3.916,3.916,0,0,0-2.1,1.173,1.687,1.687,0,0,0-.3.433.967.967,0,0,0-.078.5,2,2,0,0,1,.024.484.592.592,0,0,1-.268.4,1.539,1.539,0,0,1-.578.2,1.51,1.51,0,0,0-.643.223c-.023.017-.047-.019-.025-.036.324-.243.759-.192,1.114-.363a.6.6,0,0,0,.349-.4,1.555,1.555,0,0,0-.015-.492,1.031,1.031,0,0,1,.058-.495,1.56,1.56,0,0,1,.285-.443,3.8,3.8,0,0,1,.917-.755,3.985,3.985,0,0,1,1.264-.485C647.786,722.517,647.789,722.56,647.762,722.566Z" transform="translate(-591.492 -653.354)" fill="#fff"/>
    <path id="Path_2066" data-name="Path 2066" d="M663.981,725.856a.587.587,0,0,1,.013-.76c.019-.021.052.007.034.028a.544.544,0,0,0-.011.708C664.035,725.853,664,725.878,663.981,725.856Z" transform="translate(-609.696 -655.676)" fill="#fff"/>
    <path id="Path_2067" data-name="Path 2067" d="M659.051,742.157a1.132,1.132,0,0,0,.8-.216c.023-.017.048.019.025.036a1.178,1.178,0,0,1-.829.223C659.015,742.2,659.023,742.154,659.051,742.157Z" transform="translate(-605.35 -670.916)" fill="#fff"/>
    <path id="Path_2068" data-name="Path 2068" d="M676.036,725.69a.333.333,0,0,0,.261.177c.028,0,.02.046-.008.043a.372.372,0,0,1-.289-.2.023.023,0,0,1,.005-.031A.022.022,0,0,1,676.036,725.69Z" transform="translate(-620.451 -656.212)" fill="#fff"/>
    <path id="Path_2069" data-name="Path 2069" d="M857.21,422.863c-.487-3.913-2.912-7.769-6.644-9.042a18.168,18.168,0,0,1,0,12.474c-.573,1.551-1.373,3.217-.833,4.78a4.061,4.061,0,0,0,2.074,2.182,12.062,12.062,0,0,0,2.942.9l.2.164C856.543,430.72,857.7,426.776,857.21,422.863Z" transform="translate(-770.828 -378.843)" fill="rgba(109,209,121,0.5)"/>
    <path id="Path_2070" data-name="Path 2070" d="M859.555,413.108a15.53,15.53,0,0,1,3.861,8.74,6.686,6.686,0,0,1-.076,2.094,3.835,3.835,0,0,1-.954,1.779,7.941,7.941,0,0,0-1.232,1.475,2.349,2.349,0,0,0-.115,1.917,6.1,6.1,0,0,0,1.352,2.017,5.991,5.991,0,0,1,1.5,2.242c.031.108.2.053.165-.054-.448-1.544-1.946-2.421-2.661-3.811a2.378,2.378,0,0,1-.161-2.087,6.158,6.158,0,0,1,1.222-1.521,4.093,4.093,0,0,0,1-1.7,6.182,6.182,0,0,0,.156-2.083,15.067,15.067,0,0,0-1.1-4.579,15.805,15.805,0,0,0-2.842-4.554C859.6,412.894,859.481,413.025,859.555,413.108Z" transform="translate(-779.487 -378.09)" fill="#fff"/>
    <path id="Path_2071" data-name="Path 2071" d="M898.668,471.27a2.33,2.33,0,0,0,1.773-2.441c-.009-.111-.182-.1-.174.009a2.157,2.157,0,0,1-1.654,2.267c-.109.026-.054.191.055.165Z" transform="translate(-814.152 -426.07)" fill="#fff"/>
    <path id="Path_2072" data-name="Path 2072" d="M871.446,519.486a4.491,4.491,0,0,1-2.005-2.586c-.032-.107-.2-.053-.165.054a4.671,4.671,0,0,0,2.092,2.687C871.464,519.7,871.542,519.543,871.446,519.486Z" transform="translate(-788.665 -472.444)" fill="#fff"/>
    <path id="Path_2073" data-name="Path 2073" d="M868.946,444.465a1.319,1.319,0,0,1-1.25-.063c-.1-.058-.173.1-.078.155a1.478,1.478,0,0,0,1.382.073.09.09,0,0,0,.055-.11A.087.087,0,0,0,868.946,444.465Z" transform="translate(-787.2 -405.828)" fill="#fff"/>
    <path id="Path_2074" data-name="Path 2074" d="M740.966,483.118l.176.116a17.362,17.362,0,0,1,2.221,1.734c.054.048.109.1.161.148a18.31,18.31,0,0,1,3.977,5.444,17.781,17.781,0,0,1,.974,2.52,11.576,11.576,0,0,0,1.366,3.49,3.051,3.051,0,0,0,.238.293h6.429l.044-.021.257.012c-.01-.045-.022-.092-.032-.138-.006-.026-.013-.053-.019-.079s-.009-.035-.012-.051l0-.016c0-.016-.007-.031-.01-.045q-.1-.394-.2-.788s0,0,0,0a26.143,26.143,0,0,0-2.2-5.776c-.029-.054-.059-.11-.091-.164a16.974,16.974,0,0,0-1.524-2.312,15.015,15.015,0,0,0-1-1.143A12.473,12.473,0,0,0,748.593,484a9.9,9.9,0,0,0-7.44-.94Z" transform="translate(-675.674 -440.433)" fill="rgba(109,209,121,0.5)"/>
    <path id="Path_2075" data-name="Path 2075" d="M740.4,486.256a15.529,15.529,0,0,1,8.344,4.654,6.688,6.688,0,0,1,1.2,1.718,3.836,3.836,0,0,1,.309,1.995,7.939,7.939,0,0,0-.1,1.919,2.348,2.348,0,0,0,1.063,1.6,6.1,6.1,0,0,0,2.294.8,5.991,5.991,0,0,1,2.549.886c.09.067.188-.076.1-.143-1.287-.963-3.011-.761-4.419-1.441a2.378,2.378,0,0,1-1.385-1.569,6.158,6.158,0,0,1,.06-1.95,4.093,4.093,0,0,0-.23-1.962,6.182,6.182,0,0,0-1.13-1.758,15.065,15.065,0,0,0-3.635-2.993,15.8,15.8,0,0,0-5.011-1.925C740.306,486.061,740.294,486.234,740.4,486.256Z" transform="translate(-675.105 -443.478)" fill="#fff"/>
    <path id="Path_2076" data-name="Path 2076" d="M819.552,499.306a2.33,2.33,0,0,0-.053-3.017c-.074-.084-.208.028-.133.111a2.157,2.157,0,0,1,.044,2.806C819.338,499.293,819.481,499.392,819.552,499.306Z" transform="translate(-745.468 -452.256)" fill="#fff"/>
    <path id="Path_2077" data-name="Path 2077" d="M813.921,563.954a4.491,4.491,0,0,1-3.158-.858c-.09-.067-.189.076-.1.143a4.671,4.671,0,0,0,3.288.886C814.063,564.113,814.031,563.942,813.921,563.954Z" transform="translate(-739.356 -513.502)" fill="#fff"/>
    <path id="Path_2078" data-name="Path 2078" d="M766.752,498.647a1.319,1.319,0,0,1-1.036.7c-.111.011-.08.182.031.171a1.478,1.478,0,0,0,1.148-.774.09.09,0,0,0-.022-.121A.087.087,0,0,0,766.752,498.647Z" transform="translate(-697.802 -454.625)" fill="#fff"/>
    <path id="Path_2079" data-name="Path 2079" d="M284.864,630.274H191.115a.1.1,0,1,1,0-.191h93.712a.106.106,0,0,1,.115.1C284.942,630.231,284.928,630.274,284.864,630.274Z" transform="translate(-191 -572.795)" fill="#cacaca"/>
    <path id="Path_2080" data-name="Path 2080" d="M313.3,718.274H296.1a.1.1,0,1,1,0-.191h17.178a.1.1,0,0,1,.1.1C313.369,718.231,313.357,718.274,313.3,718.274Z" transform="translate(-285.98 -649.339)" fill="#cacaca"/>
    <path id="Path_2081" data-name="Path 2081" d="M596.3,757.274H579.1a.1.1,0,0,1,0-.191h17.178a.1.1,0,0,1,.1.1C596.369,757.231,596.357,757.274,596.3,757.274Z" transform="translate(-532.549 -684.617)" fill="#cacaca"/>
    <path id="Path_2082" data-name="Path 2082" d="M766.3,717.274H749.1a.1.1,0,0,1,0-.191h17.178a.1.1,0,0,1,.1.1C766.369,717.231,766.357,717.274,766.3,717.274Z" transform="translate(-679.871 -648.434)" fill="#cacaca"/>
    <path id="Path_161" data-name="Path 161" d="M480.087,593.129a9.8,9.8,0,0,1-2.825-.345,2.409,2.409,0,0,1-1.725-1.384,1.63,1.63,0,0,1,.255-1.616c1.367-1.782,6.112-2.284,6.749-2.344l1.292-2.446c.083-.584-.308-1.025.367-1.036l7.991-.109c.663-.014.475.4.589.966L494,586.989l-5.24,2.211.792,1.93-.052.03C487.964,592.051,483.554,593.129,480.087,593.129Z" transform="translate(-441.082 -527.916)" fill="#2f2e41"/>
    <path id="Path_162" data-name="Path 162" d="M590.035,616.239s7.318-.837,6.841,2.512-6.045,5.722-14.477,0l.955-1.675a17.881,17.881,0,0,0,5.051-.994Z" transform="translate(-535.938 -557.073)" fill="#2f2e41"/>
    <path id="Path_166" data-name="Path 166" d="M503.152,458.613s-1.391-.253-1.77,1.9-.987,7.241-.987,7.241l-1.887,6.54a1.328,1.328,0,1,0,1.891.781l2.524-6.942.481-5.977v-3.132A.458.458,0,0,0,503.152,458.613Z" transform="translate(-461.079 -412.458)" fill="#feb8b8"/>
    <path id="Path_166-2" data-name="Path 166" d="M654.041,458.613s1.391-.253,1.77,1.9.987,7.241.987,7.241l1.887,6.54a1.328,1.328,0,1,1-1.891.781l-2.524-6.942-.481-5.977v-3.132A.457.457,0,0,1,654.041,458.613Z" transform="translate(-601.168 -412.458)" fill="#feb8b8"/>
    <path id="Path_2083" data-name="Path 2083" d="M561.252,430.133l-2.631-.984-5.1-.066-2.195,1.05.616,3.543a4.2,4.2,0,0,0,.126,4.215l.307,7.511s4.916,2.851,9.066-.573l-.938-6.983s1.569-3.24.353-4.444Z" transform="translate(-509.007 -387.824)" fill="#6dd179"/>
    <path id="Path_2084" data-name="Path 2084" d="M644.1,441.184l1.072-1.1s2.339,1.23,2.29,5.344l-2.95-.909Z" transform="translate(-592.848 -398.439)" fill="#6dd179"/>
    <path id="Path_2085" data-name="Path 2085" d="M534.418,440.829l-1.138-1.138s-2.009,1.554-1.961,5.668l2.687-1.2Z" transform="translate(-490.968 -398.051)" fill="#6dd179"/>
    <path id="Path_163" data-name="Path 163" d="M582.711,640.691s-.819-1.724-2.188-.9-3.886,2.2-3.886,2.2-.589.984.7.726,5.417-.461,5.417-.461Z" transform="translate(-531.683 -580.603)" fill="#feb8b8"/>
    <path id="Path_2086" data-name="Path 2086" d="M556.02,302.707l.035-.033a1.692,1.692,0,0,0,.331-2.32,1.643,1.643,0,0,0-2.2.217,1.572,1.572,0,0,0-1.985-.347,1.692,1.692,0,0,0,.011,2.344c.043.057.088.11.134.161a4.324,4.324,0,0,0-2.838,4.06v4.115a.919.919,0,0,0,.919.919h7.606a.888.888,0,0,0,.888-.888V306.79a4.323,4.323,0,0,0-2.9-4.083Z" transform="translate(-507.476 -270.542)" fill="#2f2e41"/>
    <circle id="Ellipse_163" data-name="Ellipse 163" cx="3.609" cy="3.609" r="3.609" transform="translate(41.783 37.86) rotate(-45)" fill="#ffb6b6"/>
    <path id="Path_2087" data-name="Path 2087" d="M560.348,339.671a4.909,4.909,0,0,0,2.805.867,3.008,3.008,0,0,1-1.192.49,9.9,9.9,0,0,0,4.043.023,2.617,2.617,0,0,0,.846-.291,1.071,1.071,0,0,0,.522-.7,1.444,1.444,0,0,0-.716-1.277,5.285,5.285,0,0,0-4.441-.887,2.432,2.432,0,0,0-1.315.743,1.2,1.2,0,0,0-.111,1.423Z" transform="translate(-517.306 -306.439)" fill="#2f2e41"/>
    <path id="Path_2088" data-name="Path 2088" d="M200.519,165.172Z" transform="translate(-177.282 -145.84)" fill="#fff"/>
    <path id="Path_2089" data-name="Path 2089" d="M346.854,272.044l.114-.153,3.03,2.247a5.768,5.768,0,0,0-1.7-2.728c-1.141-.758-1.944-.522-2.382.136s-.344,1.49.8,2.249a5.8,5.8,0,0,0,3.194.511Z" transform="translate(-327.458 -255.552)" fill="#6dd179"/>
    <path id="Path_2090" data-name="Path 2090" d="M617.85,43.489Z" transform="translate(-547.269 -39.339)" fill="#fff"/>
    <path id="Path_2091" data-name="Path 2091" d="M811.43,142.127l.141.129-2.55,2.78a5.769,5.769,0,0,0,2.89-1.41c.873-1.056.722-1.88.112-2.383s-1.446-.5-2.319.559a5.8,5.8,0,0,0-.841,3.123Z" transform="translate(-737.752 -140.917)" fill="#6dd179"/>
    <path id="Path_2092" data-name="Path 2092" d="M186.85,354.489Z" transform="translate(-165.164 -312.998)" fill="#fff"/>
    <path id="Path_2093" data-name="Path 2093" d="M380.43,453.127l.141.129-2.55,2.78a5.769,5.769,0,0,0,2.89-1.41c.873-1.056.722-1.88.112-2.383s-1.446-.5-2.319.559a5.8,5.8,0,0,0-.841,3.123Z" transform="translate(-356 -415.024)" fill="#6dd179"/>
    <path id="Path_2094" data-name="Path 2094" d="M420.124,81.956Z" transform="translate(-371.974 -74.135)" fill="#fff"/>
    <path id="Path_2095" data-name="Path 2095" d="M611.149,176.022l.165.1-1.889,3.265a5.768,5.768,0,0,0,2.517-2c.624-1.22.3-1.991-.405-2.351s-1.52-.173-2.144,1.047a5.8,5.8,0,0,0-.146,3.231Z" transform="translate(-560.847 -171.627)" fill="#6dd179"/>
    <path id="Path_2096" data-name="Path 2096" d="M605.124,295.956Z" transform="translate(-535.987 -261.316)" fill="#fff"/>
    <path id="Path_2097" data-name="Path 2097" d="M796.149,390.022l.165.1-1.889,3.265a5.768,5.768,0,0,0,2.517-2c.624-1.22.3-1.991-.405-2.351s-1.52-.173-2.144,1.047a5.8,5.8,0,0,0-.146,3.231Z" transform="translate(-724.728 -359.412)" fill="#6dd179"/>
  </g>
</svg>
