<svg xmlns="http://www.w3.org/2000/svg" width="70.387" height="70.387" viewBox="0 0 70.387 70.387">
  <g id="right-arrow" transform="translate(10.196 -15.639)" opacity="0.2">
    <g id="Group_1728" data-name="Group 1728" transform="translate(9.349 2.649)">
      <g id="Group_1727" data-name="Group 1727" transform="translate(0 0)">
        <path id="Path_2275" data-name="Path 2275" d="M4.293,4.292-1.862,38.679a4.5,4.5,0,0,1-3.384,3.4A1.9,1.9,0,0,1-7.6,39.705L-.932,2.473l0-.011,0-.011A4.212,4.212,0,0,1,.273.277,4.236,4.236,0,0,1,2.452-.929l.011,0,.011,0L39.706-7.6a1.9,1.9,0,0,1,2.376,2.35,4.492,4.492,0,0,1-3.4,3.384Z" transform="translate(40.033 48.184) rotate(135)" fill-rule="evenodd"/>
      </g>
    </g>
  </g>
</svg>
