<svg xmlns="http://www.w3.org/2000/svg" width="10" height="20" viewBox="0 0 10 20">
  <path id="rupee" d="M9.625,5.107c.207,0,.375-.24.375-.536V2.786c0-.3-.168-.536-.375-.536H.375C.168,2.25,0,2.49,0,2.786v2c0,.3.168.536.375.536H3.04A2.069,2.069,0,0,1,4.945,6.536H.375c-.207,0-.375.24-.375.536V8.857c0,.3.168.536.375.536H5.336C5.142,11,4.306,12.01,3,12.01H.375c-.207,0-.375.24-.375.536v2.367a.66.66,0,0,0,.121.394l5.158,6.8a.324.324,0,0,0,.254.142h2.58c.341,0,.505-.6.254-.929L3.652,15.1c2.391-.1,4.1-2.384,4.322-5.71h1.65c.207,0,.375-.24.375-.536V7.071c0-.3-.168-.536-.375-.536H7.791a7.636,7.636,0,0,0-.445-1.429Z" transform="translate(0 -2.25)" fill="#464647"/>
</svg>
