<svg xmlns="http://www.w3.org/2000/svg" width="40" height="40" viewBox="0 0 40 40">
  <g id="Group_2535" data-name="Group 2535" transform="translate(-55 -404)">
    <path id="device" d="M16,8a5.453,5.453,0,0,0-1.9-4.18L13.5,0h-5L7.906,3.82A5.427,5.427,0,0,0,6,8a5.427,5.427,0,0,0,1.906,4.18L8.5,16h5l.6-3.82A5.453,5.453,0,0,0,16,8ZM7.25,8A3.884,3.884,0,0,1,11,4a3.884,3.884,0,0,1,3.75,4A3.884,3.884,0,0,1,11,12,3.884,3.884,0,0,1,7.25,8Z" transform="translate(83 413) rotate(90)" fill="#33373e"/>
    <g id="Rectangle_2512" data-name="Rectangle 2512" transform="translate(55 404)" fill="none" stroke="#33373e" stroke-width="1">
      <rect width="40" height="40" rx="10" stroke="none"/>
      <rect x="0.5" y="0.5" width="39" height="39" rx="9.5" fill="none"/>
    </g>
  </g>
</svg>
