<svg xmlns="http://www.w3.org/2000/svg" width="40" height="40" viewBox="0 0 40 40">
  <g id="Group_2536" data-name="Group 2536" transform="translate(-55 -474)">
    <path id="Icon_material-settings" data-name="Icon material-settings" d="M17.133,11.784a5.516,5.516,0,0,0,0-1.568L18.821,8.9a.4.4,0,0,0,.1-.512l-1.6-2.768a.4.4,0,0,0-.488-.176l-1.992.8a5.845,5.845,0,0,0-1.352-.784l-.3-2.12A.39.39,0,0,0,12.789,3h-3.2a.39.39,0,0,0-.392.336l-.3,2.12a6.146,6.146,0,0,0-1.352.784l-1.992-.8a.39.39,0,0,0-.488.176l-1.6,2.768a.394.394,0,0,0,.1.512l1.688,1.32A6.344,6.344,0,0,0,5.189,11a6.344,6.344,0,0,0,.056.784L3.557,13.1a.4.4,0,0,0-.1.512l1.6,2.768a.4.4,0,0,0,.488.176l1.992-.8a5.845,5.845,0,0,0,1.352.784l.3,2.12A.39.39,0,0,0,9.589,19h3.2a.39.39,0,0,0,.392-.336l.3-2.12a6.146,6.146,0,0,0,1.352-.784l1.992.8a.39.39,0,0,0,.488-.176l1.6-2.768a.4.4,0,0,0-.1-.512l-1.688-1.32ZM11.189,13.8a2.8,2.8,0,1,1,2.8-2.8A2.8,2.8,0,0,1,11.189,13.8Z" transform="translate(63.594 483)" fill="#33373e"/>
    <g id="Rectangle_2513" data-name="Rectangle 2513" transform="translate(55 474)" fill="none" stroke="#33373e" stroke-width="1">
      <rect width="40" height="40" rx="10" stroke="none"/>
      <rect x="0.5" y="0.5" width="39" height="39" rx="9.5" fill="none"/>
    </g>
  </g>
</svg>
