<svg xmlns="http://www.w3.org/2000/svg" width="18.691" height="15.169" viewBox="0 0 18.691 15.169">
  <g id="sleep" transform="translate(-0.499 -3.515)">
    <path id="Path_2293" data-name="Path 2293" d="M18.022,16.435H2.251V13.027a.876.876,0,0,0-1.752,0V21.4a.876.876,0,0,0,1.752,0V20.036H17.438V21.4a.876.876,0,0,0,1.752,0V17.6A1.168,1.168,0,0,0,18.022,16.435Z" transform="translate(0 -3.592)"/>
    <path id="Path_2294" data-name="Path 2294" d="M4.9,16.347H7.167a1.857,1.857,0,1,0-2.267,0Z" transform="translate(-1.529 -3.954)"/>
    <path id="Path_2295" data-name="Path 2295" d="M11.5,16.782H22.6V15.528a1.46,1.46,0,0,0-1.46-1.46H11.5v2.714Z" transform="translate(-4.575 -4.389)"/>
    <path id="Path_2296" data-name="Path 2296" d="M8.929,8.029c.107-.04.224-.077.329-.1l-.041.068a1.613,1.613,0,0,0-.366.922.347.347,0,0,0,.139.225A.357.357,0,0,0,9.2,9.2a1.748,1.748,0,0,0,.425-.086,2.493,2.493,0,0,1,.523-.107h.009a.3.3,0,0,0,.3-.285.291.291,0,0,0-.285-.3,2.4,2.4,0,0,0-.582.1c.047-.081.095-.159.131-.219.21-.343.349-.57.26-.787a.345.345,0,0,0-.239-.205,2.15,2.15,0,0,0-1.012.175.292.292,0,1,0,.2.547Z" transform="translate(-3.342 -1.569)"/>
    <path id="Path_2297" data-name="Path 2297" d="M12.589,5.441a4.53,4.53,0,0,1,.612-.423c-.022.117-.051.251-.075.357a2.179,2.179,0,0,0-.072,1.291.329.329,0,0,0,.211.173.349.349,0,0,0,.09.012,1.312,1.312,0,0,0,.627-.313,3.362,3.362,0,0,1,.674-.391.292.292,0,0,0-.177-.557,3.543,3.543,0,0,0-.826.466l-.075.051c.027-.2.082-.442.117-.6.117-.525.188-.843.012-1.044a.359.359,0,0,0-.31-.123,2.983,2.983,0,0,0-1.179.655.292.292,0,1,0,.371.45Z" transform="translate(-4.829 -0.341)"/>
    <path id="Path_2298" data-name="Path 2298" d="M18.192,4.249a3.846,3.846,0,0,1,.438-.119l-.086.133a1.758,1.758,0,0,0-.426.984.351.351,0,0,0,.134.231.367.367,0,0,0,.224.066,2.1,2.1,0,0,0,.446-.08,2.842,2.842,0,0,1,.6-.1.287.287,0,0,0,.307-.276.291.291,0,0,0-.275-.307,2.516,2.516,0,0,0-.7.1c.064-.107.136-.218.188-.3.237-.363.394-.6.308-.83a.348.348,0,0,0-.236-.215A2.443,2.443,0,0,0,18,3.7a.292.292,0,1,0,.188.552Z" transform="translate(-7.198)"/>
  </g>
</svg>
