<svg xmlns="http://www.w3.org/2000/svg" width="40" height="40" viewBox="0 0 40 40">
  <g id="Group_2251" data-name="Group 2251" transform="translate(-37 -508)">
    <g id="Icon_ionic-ios-stats" data-name="Icon ionic-ios-stats" transform="translate(41.375 504.967)">
      <path id="Path_3042" data-name="Path 3042" d="M12.75,24.5H15a.4.4,0,0,0,.375-.417V4.917A.4.4,0,0,0,15,4.5H12.75a.4.4,0,0,0-.375.417V24.083A.4.4,0,0,0,12.75,24.5Z" transform="translate(-1.083 8.533)" fill="#6dd179"/>
      <path id="Path_3043" data-name="Path 3043" d="M6,28.125H8.25a.386.386,0,0,0,.375-.394V20.644a.386.386,0,0,0-.375-.394H6a.386.386,0,0,0-.375.394v7.088A.386.386,0,0,0,6,28.125Z" transform="translate(0 4.908)" fill="#6dd179"/>
      <path id="Path_3044" data-name="Path 3044" d="M19.5,27h2.241a.392.392,0,0,0,.38-.407V16.157a.392.392,0,0,0-.38-.407H19.5a.392.392,0,0,0-.38.407V26.593A.392.392,0,0,0,19.5,27Z" transform="translate(-2.167 6.033)" fill="#6dd179"/>
      <path id="Path_3045" data-name="Path 3045" d="M25.875,9.465V26.919a.427.427,0,0,0,.38.465H28.5a.427.427,0,0,0,.38-.465V9.465A.427.427,0,0,0,28.5,9H26.255A.427.427,0,0,0,25.875,9.465Z" transform="translate(-3.25 5.648)" fill="#6dd179"/>
    </g>
    <g id="Path_3047" data-name="Path 3047" transform="translate(37 508)" fill="none">
      <path d="M10,0H30A10,10,0,0,1,40,10V30A10,10,0,0,1,30,40H10A10,10,0,0,1,0,30V10A10,10,0,0,1,10,0Z" stroke="none"/>
      <path d="M 10 1 C 5.037380218505859 1 1 5.037380218505859 1 10 L 1 30 C 1 34.96261978149414 5.037380218505859 39 10 39 L 30 39 C 34.96261978149414 39 39 34.96261978149414 39 30 L 39 10 C 39 5.037380218505859 34.96261978149414 1 30 1 L 10 1 M 10 0 L 30 0 C 35.52285003662109 0 40 4.477149963378906 40 10 L 40 30 C 40 35.52285003662109 35.52285003662109 40 30 40 L 10 40 C 4.477149963378906 40 0 35.52285003662109 0 30 L 0 10 C 0 4.477149963378906 4.477149963378906 0 10 0 Z" stroke="none" fill="#6dd179"/>
    </g>
  </g>
</svg>
