<svg xmlns="http://www.w3.org/2000/svg" xmlns:xlink="http://www.w3.org/1999/xlink" width="102.351" height="70.085" viewBox="0 0 102.351 70.085">
  <defs>
    <linearGradient id="linear-gradient" x1="0.5" y1="1" x2="0.5" gradientUnits="objectBoundingBox">
      <stop offset="0" stop-color="gray" stop-opacity="0.251"/>
      <stop offset="0.54" stop-color="gray" stop-opacity="0.122"/>
      <stop offset="1" stop-color="gray" stop-opacity="0.102"/>
    </linearGradient>
  </defs>
  <g id="M-stress" transform="translate(-1702.932 -2607)">
    <path id="Path_2150" data-name="Path 2150" d="M61.83,433.31c1.5,5.788,4.658,10.792,9.656,13.217,10.39,5.041,33.822,2.441,51.31-.543a41.186,41.186,0,0,0,22.774-11.8Z" transform="translate(1649.765 2207.309)" fill="#6dd179" opacity="0.1"/>
    <path id="Path_2151" data-name="Path 2151" d="M179.2,50.591h-9.6a.755.755,0,1,1,0-1.5h1.66a.755.755,0,1,1,0-1.5h-1.185a.755.755,0,1,1,0-1.5h5.009a14.336,14.336,0,0,0-3.908-.976c-13.658-1.589-18.535-.538-20.255.542a20.173,20.173,0,0,1-7.02,2.788c-8.427,1.575-24.186,3.47-38.469-.6-7.1-2.029-12.376,1.4-15.538,7.119h90.969a12.383,12.383,0,0,0-1.127-4.544A.875.875,0,0,1,179.2,50.591Z" transform="translate(1624.115 2562.706)" fill="#6dd179" opacity="0.1"/>
    <path id="Path_2152" data-name="Path 2152" d="M50.188,293.19a34.76,34.76,0,0,0,.372,10.1l84.256,2.793a35.8,35.8,0,0,0,5.854-8.089Zm33.324,7.2H81.853a.755.755,0,1,1,0,1.5h-9.6a.755.755,0,1,1,0-1.5h1.66a.755.755,0,1,1,0-1.5H72.731a.755.755,0,1,1,0-1.5h9.6a.755.755,0,1,1,0,1.5h1.185a.755.755,0,1,1,0,1.5Z" transform="translate(1660.592 2335.317)" fill="#6dd179" opacity="0.1"/>
    <path id="Path_2153" data-name="Path 2153" d="M146.716,168.5l-91.993,2.026a30.6,30.6,0,0,0-2.2,8.608H145.1a32.741,32.741,0,0,0,1.336-5.486A23.519,23.519,0,0,0,146.716,168.5ZM71.2,175.143H69.539a.756.756,0,1,1,0,1.5h-9.6a.755.755,0,1,1,0-1.5H61.6a.755.755,0,1,1,0-1.5H60.416a.755.755,0,1,1,0-1.5h9.6a.755.755,0,1,1,0,1.5H71.2a.755.755,0,1,1,0,1.5Z" transform="translate(1658.272 2449.231)" fill="#6dd179" opacity="0.1"/>
    <ellipse id="Ellipse_169" data-name="Ellipse 169" cx="46.521" cy="3.545" rx="46.521" ry="3.545" transform="translate(1702.932 2667.379)" fill="#6dd179" opacity="0.1"/>
    <path id="Path_2202" data-name="Path 2202" d="M808.75,113.42s-7.26-.437-6.4,4.65a1.236,1.236,0,0,0,.645,1.307s.013-.377.744-.249a3.364,3.364,0,0,0,.789.038,1.638,1.638,0,0,0,.964-.4h0s2.041-.842,2.835-4.178c0,0,.587-.728.564-.914l-1.225.523a2.19,2.19,0,0,1,.086,1.618s-.04-1.586-.275-1.552c-.047.008-.636.306-.636.306a3.608,3.608,0,0,1,.172,2.658s.206-1.9-.4-2.547l-.862.5a3.807,3.807,0,0,1,.271,2.888s.147-1.99-.452-2.765l-.782.61a3.727,3.727,0,0,1,.309,2.644s-.063-2.317-.478-2.492a4.783,4.783,0,0,0-.788.851s.542,1.137.206,1.737c0,0-.206-1.543-.375-1.552a5.136,5.136,0,0,0-.753,1.724,3.728,3.728,0,0,1,.587-1.822,2.045,2.045,0,0,0-1.042.541s.106-.723,1.207-.786a4.715,4.715,0,0,1,.714-.823,4.473,4.473,0,0,0-1.766.2,1.983,1.983,0,0,1,1.967-.372l.776-.629a6.361,6.361,0,0,0-2.061.021,2.506,2.506,0,0,1,2.269-.164l.841-.5a7.71,7.71,0,0,0-1.969-.172,3.019,3.019,0,0,1,2.215.035l.6-.27s-.9-.178-1.169-.205-.279-.1-.279-.1a3.135,3.135,0,0,1,1.7.2A7.665,7.665,0,0,0,808.75,113.42Z" transform="translate(973.06 2499.548)" fill="#6dd179"/>
    <path id="Path_2203" data-name="Path 2203" d="M760,87.244s-3.276-.2-2.894,2.1a.561.561,0,0,0,.292.591s.005-.172.336-.112a1.558,1.558,0,0,0,.356.017.749.749,0,0,0,.436-.18h0a2.6,2.6,0,0,0,1.28-1.888s.266-.329.259-.413l-.553.236a.99.99,0,0,1,.04.731s-.018-.717-.124-.7c-.021,0-.288.138-.288.138a1.635,1.635,0,0,1,.08,1.2s.093-.857-.181-1.151l-.39.228a1.723,1.723,0,0,1,.123,1.305,2.455,2.455,0,0,0-.2-1.249l-.353.275a1.686,1.686,0,0,1,.14,1.194s-.028-1.047-.216-1.126a2.16,2.16,0,0,0-.356.385s.245.517.093.785c0,0-.093-.7-.172-.7a2.312,2.312,0,0,0-.34.776,1.678,1.678,0,0,1,.265-.823.923.923,0,0,0-.471.244s.047-.327.547-.355a2.152,2.152,0,0,1,.323-.372,2.022,2.022,0,0,0-.8.092.9.9,0,0,1,.889-.172l.345-.284a2.994,2.994,0,0,0-.931.009,1.132,1.132,0,0,1,1.025-.073l.38-.228a3.451,3.451,0,0,0-.89-.077,1.365,1.365,0,0,1,1,.016l.271-.122s-.409-.08-.528-.092-.127-.046-.127-.046a1.413,1.413,0,0,1,.767.086A3.465,3.465,0,0,0,760,87.244Z" transform="translate(1014.37 2523.463)" fill="#6dd179"/>
    <ellipse id="Ellipse_174" data-name="Ellipse 174" cx="2.322" cy="0.392" rx="2.322" ry="0.392" transform="translate(1800.639 2669.282)" fill="#6dd179" opacity="0.1"/>
    <ellipse id="Ellipse_175" data-name="Ellipse 175" cx="2.322" cy="0.392" rx="2.322" ry="0.392" transform="translate(1712.284 2675.808)" fill="#6dd179" opacity="0.1"/>
    <ellipse id="Ellipse_176" data-name="Ellipse 176" cx="2.322" cy="0.392" rx="2.322" ry="0.392" transform="translate(1725.74 2676.3)" fill="#6dd179" opacity="0.1"/>
    <ellipse id="Ellipse_177" data-name="Ellipse 177" cx="3.467" cy="0.586" rx="3.467" ry="0.586" transform="translate(1794.412 2673.292)" fill="#6dd179"/>
    <path id="Path_2204" data-name="Path 2204" d="M1046.782,790.464a1.01,1.01,0,0,0,.331-.5.445.445,0,0,0-.231-.508c-.212-.081-.439.066-.611.215a.818.818,0,0,1-.594.286.9.9,0,0,0,.28-.846.353.353,0,0,0-.078-.172c-.118-.126-.331-.073-.472.027a1.76,1.76,0,0,0-.576,1.473,2.77,2.77,0,0,1-.008-.6.624.624,0,0,0-.227-.537.691.691,0,0,0-.345-.081.718.718,0,0,0-.564.16.555.555,0,0,0,.023.69,2.234,2.234,0,0,0,.583.467,1.294,1.294,0,0,1,.417.4.432.432,0,0,1,.031.072H1046a3.522,3.522,0,0,0,.779-.539Z" transform="translate(752.53 1882.456)" fill="#6dd179"/>
    <g id="Group_2233" data-name="Group 2233" transform="translate(1761.692 2637.766)">
      <ellipse id="Ellipse_173" data-name="Ellipse 173" cx="15.859" cy="16.173" rx="15.859" ry="16.173" fill="#6dd179" opacity="0.5"/>
      <path id="Path_2199" data-name="Path 2199" d="M426.062,529.31c0,2.851-4.482.244-9.287.244s-9.665,2.5-9.665-.351c0-1.626,1.549-3.886,3.771-5.529h0a10.037,10.037,0,0,1,5.8-2.124,9.711,9.711,0,0,1,5.864,2.277C424.635,525.487,426.062,527.719,426.062,529.31Z" transform="translate(-400.585 -504.255)" fill="#444053"/>
      <path id="Path_2200" data-name="Path 2200" d="M483.189,523.807a40.4,40.4,0,0,0-11.659-.153,10.038,10.038,0,0,1,5.8-2.124A9.71,9.71,0,0,1,483.189,523.807Z" transform="translate(-461.234 -504.245)" fill="#f6f8fb"/>
      <path id="Path_2201" data-name="Path 2201" d="M320.331,281.31s-5.44,3.478-5.4,8.918S320.331,281.31,320.331,281.31Z" transform="translate(-313.788 -278.108)" opacity="0.05"/>
      <path id="Path_2215" data-name="Path 2215" d="M391.383,440.492a7.877,7.877,0,0,0,2.989-.727,1.164,1.164,0,0,1,.543-.16c.327-.009.7.127.462.89-.39,1.249-2.654,2.654-4.059,2.576a4.655,4.655,0,0,1-4.012-2.534,1.171,1.171,0,0,1-.145-.6c.012-.386.153-.871.878-.331a6.991,6.991,0,0,0,3.212.888A1.211,1.211,0,0,0,391.383,440.492Z" transform="translate(-381.792 -426.896)" fill="#444053"/>
      <path id="Path_2216" data-name="Path 2216" d="M613.383,440.492a7.877,7.877,0,0,0,2.989-.727,1.164,1.164,0,0,1,.543-.16c.327-.009.7.127.462.89-.39,1.249-2.654,2.654-4.059,2.576a4.655,4.655,0,0,1-4.012-2.534,1.17,1.17,0,0,1-.145-.6c.012-.386.153-.871.878-.331a6.99,6.99,0,0,0,3.212.888A1.21,1.21,0,0,0,613.383,440.492Z" transform="translate(-590.818 -426.896)" fill="#444053"/>
    </g>
    <g id="Group_2229" data-name="Group 2229" transform="translate(1702.932 2613.398)">
      <g id="Group_2220" data-name="Group 2220" transform="translate(8.933 0.856)" opacity="0.05">
        <path id="Path_4034" data-name="Path 4034" d="M557.1,690.233c-.627.279-6.891-1.67-6.891-1.67a6.651,6.651,0,0,1,.02-1.823,5.549,5.549,0,0,0-.16,2.311s6.264,1.948,6.891,1.67c.207-.092.407-.627.582-1.3C557.4,689.851,557.254,690.17,557.1,690.233Z" transform="translate(-550.013 -648.697)"/>
        <path id="Path_4035" data-name="Path 4035" d="M556.632,622.63a4.06,4.06,0,0,0-.13.431s-1.51,9.02-2.412,12.362C554.924,632.71,556.5,623.432,556.632,622.63Z" transform="translate(-553.174 -598.996)"/>
        <path id="Path_4036" data-name="Path 4036" d="M590.782,691.709s-4.664-6.743-4.455-9.889c0,0-.049.391-.137.944.211,3.29,4.452,9.435,4.452,9.435,3.243,0,4.693-2.3,5.32-4.709C595.27,689.711,593.807,691.709,590.782,691.709Z" transform="translate(-578.059 -644.882)"/>
        <path id="Path_4031" data-name="Path 4031" d="M642.518,523.953a13.9,13.9,0,0,1,1.526-.423,2.541,2.541,0,0,1,1.758.843,4.2,4.2,0,0,0,1.587,1.146,3.92,3.92,0,0,0,1.272.085,1.182,1.182,0,0,0,.674-.171.848.848,0,0,0,.225-.344,3.27,3.27,0,0,0-.02-2.65.45.45,0,0,1-.063-.288.434.434,0,0,1,.1-.16,4.865,4.865,0,0,0,1.106-1.7,1.426,1.426,0,0,0-.7-1.719,1.324,1.324,0,0,0-1.047,0,4.241,4.241,0,0,1-.9.474c-.564.117-1.047-.337-1.488-.674a4.465,4.465,0,0,0-2.362-.881,2.287,2.287,0,0,0-1.1.146,4.4,4.4,0,0,0-.9.674,12.031,12.031,0,0,1-3.67,1.481c-.24.085-.508.211-.553.449s.225.479.494.582a1.807,1.807,0,0,1,.76.38c.225.27.153.652.193.991.083.674.674,1.041,1.328,1.236C641.27,523.6,641.981,524.043,642.518,523.953Z" transform="translate(-618.184 -517.474)" opacity="0.1"/>
      </g>
      <path id="Path_4005" data-name="Path 4005" d="M523.176,730.177s-4.664.279-5.36,0-5.149-.973-3.749,2.23,6.682,4.524,6.682,4.524l3.821-.975Z" transform="translate(-513.002 -681.312)" fill="#7679b4"/>
      <path id="Path_4007" data-name="Path 4007" d="M613.214,670.08l9.361,3.8,5.324,11.31s.07,3.967-3.41,4.873-8.352.488-9.606-.418-6.4-6.264-6.4-6.264Z" transform="translate(-586.406 -634.925)" fill="#7679b4"/>
      <path id="Path_4009" data-name="Path 4009" d="M569.7,729.962s-2.436.836-3.409,0-2.715.209-2.715.209l.769,4.524a22.551,22.551,0,0,1,5.36-.557Z" transform="translate(-551.597 -681.096)" fill="#ffbdc6"/>
      <path id="Path_4011" data-name="Path 4011" d="M573.769,657.546l-2.223-.766s-2.436,2.158-4.046.348,1.461-9.327,1.461-9.327l3.27-5.291,2.367,7.448,2.158,3.619Z" transform="translate(-554.275 -613.551)" fill="#565388"/>
      <path id="Path_4012" data-name="Path 4012" d="M573.769,657.546l-2.223-.766s-2.436,2.158-4.046.348,1.461-9.327,1.461-9.327l3.27-5.291,2.367,7.448,2.158,3.619Z" transform="translate(-554.275 -613.551)" opacity="0.05"/>
      <path id="Path_4013" data-name="Path 4013" d="M585.917,621.07l5.012.694.976,4.594-6.194-.348Z" transform="translate(-545.19 -577.493)" fill="#565388"/>
      <path id="Path_4014" data-name="Path 4014" d="M585.917,621.07l5.012.694.976,4.594-6.194-.348Z" transform="translate(-545.19 -577.493)" opacity="0.05"/>
      <path id="Path_4015" data-name="Path 4015" d="M628.376,595.45s2.088,8,8.766,2.227l1.809,22.968a19.288,19.288,0,0,0-2.576,6.743c-.348,3.194-6.4-9.889-10.022-9.952s-7.2-5.115-7.2-5.115l4.073-8.388Z" transform="translate(-594.678 -577.068)" opacity="0.1"/>
      <path id="Path_4017" data-name="Path 4017" d="M584.243,570.582a18.513,18.513,0,0,0-4.594-.209c-1.672.279-1.879,3.34-1.879,3.34s-4.733,1.67-6.334,1.124c0,0-7.866-.557-7.866,1.809s2.508,3.466,2.508,3.466,10.921.369,11,.348c2.506-.7-.07,0-.07,0l-4.524,6.821,4.176,5.776,4.455-3.27s.557-3.063,2.023-4.594c1.043-1.095,2.407-6.021,3.1-8.747a4.473,4.473,0,0,0-.506-3.414Z" transform="translate(-551.589 -557.561)" opacity="0.1"/>
      <path id="Path_4018" data-name="Path 4018" d="M582.576,575.736a10.251,10.251,0,0,0-.65,1.047c-1.461,2.785-4.859-1.742-3.684-3.306l.811-.758C578.758,576.312,581.682,575.93,582.576,575.736Z" transform="translate(-562.776 -559.447)" opacity="0.1"/>
      <path id="Path_4019" data-name="Path 4019" d="M623.079,613.272H623S625.585,612.575,623.079,613.272Z" transform="translate(-597.662 -590.644)" opacity="0.1"/>
      <path id="Path_4021" data-name="Path 4021" d="M718.343,672.25v.382A.828.828,0,0,1,718.343,672.25Z" transform="translate(-671.559 -636.607)" opacity="0.1"/>
      <path id="Path_4022" data-name="Path 4022" d="M732.94,693.364a7.954,7.954,0,0,1-4.547.041l-.373-.989,4.524-.976S732.708,692.24,732.94,693.364Z" transform="translate(-679.078 -651.484)" opacity="0.1"/>
      <path id="Path_4023" data-name="Path 4023" d="M689.62,579.34a33.966,33.966,0,0,0,5.291,2.785c1.393.349,5.012,1.6,5.012,1.6l1.461,4.945a19.072,19.072,0,0,1,0,5.844c-.557,2.086-5.776,6.055-5.5,5.428l-.139,5.5s0,8,1.124,9.665-2.124-1.636-2.124-1.636-3.933-5.812-4.419-9.5.276-17.875.276-17.875l-.7-.975S691.36,581.358,689.62,579.34Z" transform="translate(-649.309 -564.579)" opacity="0.1"/>
      <path id="Path_4027" data-name="Path 4027" d="M529.024,733.938s-.7-1.74-2.576-.348c0,0-1.67,3.9-4.594,4.455s-.418,2.227-.279,2.3,4.873.836,5.985.488,5.637-1.182,5.637-1.182-.209-4.594-.9-4.945S531.948,736.786,529.024,733.938Z" transform="translate(-518.156 -683.742)" opacity="0.05"/>
      <path id="Path_4030" data-name="Path 4030" d="M664.651,569.178a3.291,3.291,0,0,1-.728-2.268l-5.922.984a19.094,19.094,0,0,1,1.011,2.839A5.565,5.565,0,0,0,664.651,569.178Z" transform="translate(-624.796 -554.943)" opacity="0.1"/>
      <path id="Path_4001" data-name="Path 4001" d="M567.13,564.627s-.784.427-1.142-1.991c-.225-1.573-.879-4.816-1.308-6.922l-.054-.267a3.678,3.678,0,0,0,.362-.135s-2.5-9.664-1.928-11.8a19.462,19.462,0,0,0,0-5.974l-1.5-5.048s-3.713-1.281-5.14-1.636A34.894,34.894,0,0,1,550.995,528a3.094,3.094,0,0,1,.193.249l-.16-.1a5.956,5.956,0,0,1-.787-.9,5.659,5.659,0,0,0,1.479-3.075,6.383,6.383,0,0,0-.319-6.493,3.18,3.18,0,0,0,.546-1.02,1.673,1.673,0,0,0,.061-.521,1.387,1.387,0,0,0-.782-1.378,1.365,1.365,0,0,0-1.074.011,4.62,4.62,0,0,1-.913.486c-.578.119-1.072-.344-1.526-.688a4.59,4.59,0,0,0-2.425-.9,2.354,2.354,0,0,0-1.124.148,4.524,4.524,0,0,0-.931.7,12.316,12.316,0,0,1-3.765,1.513c-.247.085-.521.225-.566.45a.326.326,0,0,0,0,.135h0a.333.333,0,0,0,.014.171,12.652,12.652,0,0,0-4.767,2.234l-.4.366a.755.755,0,0,0-.825.07l-.8.625a.748.748,0,0,0-.18.975l-5.819,5.394-.126.117v-.02s-4.5,3.414-4.5,5.83a4.051,4.051,0,0,0,2.083,3.288,5.573,5.573,0,0,0-1.452,2.248h0v.546h0v.076l-.018.1v.04l-.011.068v.139l-.016.09h0l-.02.112v.023l-.016.094v.045l-.018.1v.027l-.02.117v.052l-.052.294h0l-.027.16v.027l-.029.164v.022l-.029.166v.013l-.031.175v.038l-.031.173v.038L521.8,541v.02l-.034.193v.036l-.076.432h0l-.038.225v.034l-.038.225v.016l-.083.45v.038l-.04.225v.032l-.088.474v.02l-.045.24v.02l-.09.49v.032l-.045.243v.018l-.094.5v.027l-.047.247v.018l-.1.508v.02l-.047.247v.02l-.411.508v.022l-.049.245v.014l-.1.5v.013l-.049.243v.014l-.1.476v.02l-.047.225v.02l-.1.45v.016l-.047.225v.022l-.094.425v.011l-.045.2v.02q-.047.2-.092.391h0l-.045.184v.016q-.045.184-.088.353h0l-.043.162v.018l-.04.155a3.91,3.91,0,0,1-.45,1.229,1.266,1.266,0,0,0-.263.414h0l-.018.045-.018.049-.016.049-.074.067-.016.052-.013.047L518.7,553v.049l-.011.054v.049a.342.342,0,0,1-.018.108v1.769l.674.2s.339.186.863.429a32.874,32.874,0,0,1-.852,7.217,27.487,27.487,0,0,1-4.965-.029c-.715-.286-5.284-1-3.855,2.274a7.285,7.285,0,0,0,3.207,3.146,3.955,3.955,0,0,1-.494.128c-1.164.225-1.488.614-1.443,1.014-.083.674,1.063,1.427,1.157,1.474.144.072,5,.854,6.14.5s5.783-1.209,5.783-1.209v-.142h0s-.063-1.4-.238-2.724c.526-.076,1.1-.146,1.656-.189a2.261,2.261,0,0,0,1.223,1.562c3.07,1.573,4.07-.569,4.07-.569s4.151.8,6.471.225a6.792,6.792,0,0,0,.6.492c.753.542,2.78.913,5.048.94a7.159,7.159,0,0,0,1.812-.052,16.788,16.788,0,0,0,2.967-.465,4.836,4.836,0,0,0,3.461-4.4c.108-.032.184-.144.225-.355a1.024,1.024,0,0,0,.094-.366,10.784,10.784,0,0,1,.292-1.546l3.371.189c1.506,2.733,2.836,4.906,2.836,4.906l2.284-.285a13.193,13.193,0,0,1-2.641-2.845c-1.142-1.706-1.142-9.889-1.142-9.889l.128-4.983v-.189a27.461,27.461,0,0,0,2.075,5.824c.137.045.272.085.4.124l.121.319c.953,2.526,3.371,8.99,3.542,10.01.225,1.281,9.138,1.778,11.136,1.137S567.13,564.627,567.13,564.627Zm-31.841-28.3-3.268,4.909a32.588,32.588,0,0,0-3.5-5.115C531.418,536.216,534.76,536.319,535.289,536.326Zm-.5-12.586a.757.757,0,0,0,.789-.088l.279-.225a.749.749,0,0,0,.191-.962l.166-.164a24.868,24.868,0,0,0,3.4-.825,6.344,6.344,0,0,0,.832,2.886A5.632,5.632,0,0,0,541,525.98c-.512-.043-1.07-.072-1.6-.067A8.375,8.375,0,0,0,538,526c-1.713.286-1.928,3.414-1.928,3.414a23.781,23.781,0,0,1-5.509,1.252,2.591,2.591,0,0,1-.773-.115l-.209-.014.281-.769s-.121.038-.321.079q.1-.146.2-.3a54.217,54.217,0,0,1,5.048-5.808Zm-7.071,37.973a13.272,13.272,0,0,0-.708,1.394,3.235,3.235,0,0,1-2.5-.256,1.461,1.461,0,0,0-.939-.33l.013-.027a17.455,17.455,0,0,0,1.018-4.311,4.573,4.573,0,0,0,2.551-1.094l1.648.564.061.115.041.074.065.121.04.076.065.119.043.076.065.117.043.076.063.115.043.076.065.115.043.074.065.112.04.072.065.112.04.07.063.11.041.07.065.11.038.063.065.108.038.063.065.108.034.056.068.11.025.04c.117.191.225.373.335.544l.016.025.063.1.027.043.056.09.031.047.052.081.031.052.047.074.034.052.045.07.031.049.04.063.031.049.038.059.031.049.036.054.032.047h0A14.477,14.477,0,0,1,527.721,561.712Z" transform="translate(-510.266 -513.665)" fill="url(#linear-gradient)"/>
      <path id="Path_4037" data-name="Path 4037" d="M552.72,685.576s4.252,2.342,5.785,1.227a2.209,2.209,0,0,0,.557-2.854L557.879,682h-3.967l-1.322,2.3Z" transform="translate(-543.077 -644.166)" fill="#7679b4"/>
      <path id="Path_4002" data-name="Path 4002" d="M742.706,704.288c-1.949.627-10.649.139-10.858-1.124-.166-1-2.524-7.327-3.454-9.8l-.373-.989,4.524-.976s.167.794.4,1.924c.418,2.063,1.049,5.248,1.274,6.776.348,2.367,1.124,1.949,1.124,1.949S744.647,703.661,742.706,704.288Z" transform="translate(-679.078 -651.453)" fill="#ffbdc6"/>
      <path id="Path_4003" data-name="Path 4003" d="M663.588,566s-.348,2.088,2.645,4.046.418,8.979.418,8.979l-2.214.124a5.441,5.441,0,0,1-5.722-4.927h0s1.252-2.023-1.045-7.24Z" transform="translate(-624.54 -554.237)" fill="#ffbdc6"/>
      <path id="Path_4004" data-name="Path 4004" d="M588.887,535.717a65.037,65.037,0,0,0-6.311,7.1,10.252,10.252,0,0,0-.65,1.047c-1.461,2.785-4.859-1.742-3.684-3.306l.811-.758,7.812-7.282s5.361-4.176,8.073-1.182S588.887,535.717,588.887,535.717Z" transform="translate(-562.776 -526.523)" fill="#ffbdc6"/>
      <circle id="Ellipse_839" data-name="Ellipse 839" cx="6.264" cy="6.264" r="6.264" transform="translate(29.417 1.851)" fill="#a66477"/>
      <path id="Path_4006" data-name="Path 4006" d="M523.176,730.177s-4.664.279-5.36,0-5.149-.973-3.749,2.23,6.682,4.524,6.682,4.524l3.821-.975Z" transform="translate(-513.002 -681.312)" fill="#453939"/>
      <path id="Path_4008" data-name="Path 4008" d="M612.577,670.08l8.1,3.036,4.61,9.051a3.981,3.981,0,0,1-2.951,3.9c-3.012.724-7.231.389-8.316-.335s-5.542-5.014-5.542-5.014Z" transform="translate(-586.406 -634.925)" fill="#404040"/>
      <path id="Path_4010" data-name="Path 4010" d="M569.7,729.962s-2.436.836-3.409,0-2.715.209-2.715.209l.769,4.524a22.551,22.551,0,0,1,5.36-.557Z" transform="translate(-551.597 -681.096)" opacity="0.05"/>
      <path id="Path_4016" data-name="Path 4016" d="M628.686,594.52s2.088,8,8.766,2.227l1.809,22.968a19.3,19.3,0,0,0-2.576,6.743c-.348,3.194-6.4-9.889-10.022-9.952s-7.2-5.115-7.2-5.115L623.533,603Z" transform="translate(-594.918 -576.347)" fill="#f2f1f2"/>
      <path id="Path_4020" data-name="Path 4020" d="M583.321,570.582a18.511,18.511,0,0,0-4.594-.209c-1.672.279-1.879,3.34-1.879,3.34s-4.733,1.67-6.334,1.124l.279-.766s-4.243,1.322-3.758-3.14c0,0-4.385,3.34-4.385,5.707s2.506,3.475,2.506,3.475,10.921.369,11,.348c2.506-.7-.07,0-.07,0l-4.524,6.821,4.176,5.776,4.455-3.27s.557-3.063,2.023-4.594c1.043-1.095,2.407-6.021,3.1-8.747a4.473,4.473,0,0,0-.506-3.414Z" transform="translate(-550.876 -557.561)" fill="#404040"/>
      <path id="Path_4024" data-name="Path 4024" d="M690.55,579.34a33.952,33.952,0,0,0,5.291,2.785c1.393.349,5.012,1.6,5.012,1.6l1.461,4.945a19.08,19.08,0,0,1,0,5.844c-.557,2.086,1.879,11.555,1.879,11.555a7.759,7.759,0,0,1-5.36,0c-.209-.07-2.3-5.5-2.023-6.125l-.14,5.5s0,8,1.124,9.664a12.89,12.89,0,0,0,2.576,2.785l-2.227.279s-6.41-10.5-6.9-14.182.279-17.888.279-17.888l-.7-.975S692.29,581.358,690.55,579.34Z" transform="translate(-650.03 -564.579)" fill="#404040"/>
      <path id="Path_4025" data-name="Path 4025" d="M562.6,635.057s-4.664-6.743-4.455-9.889c0,0-.557,4.315-1.182,4.594s-6.891-1.672-6.891-1.672-.279-2.023.418-2.715,2.854-13.573,2.854-13.573.766-3.479,4.106-3.688,10.858,16.774,10.858,16.774S569.419,635.057,562.6,635.057Z" transform="translate(-541.081 -586.884)" fill="#404040"/>
      <path id="Path_4026" data-name="Path 4026" d="M550.581,687.11s.139,9.743-1.6,11.346,5.082,2.436,5.082,2.436-1.182-2.367-.209-4.246,1.6-9.536,1.6-9.536Z" transform="translate(-540.059 -648.127)" fill="#ffbdc6"/>
      <path id="Path_4028" data-name="Path 4028" d="M529.024,734.528s-.7-1.74-2.576-.348c0,0-1.67,3.9-4.594,4.455s-.418,2.227-.279,2.3,4.873.836,5.985.488,5.639-1.18,5.639-1.18-.209-4.594-.9-4.945S531.948,737.38,529.024,734.528Z" transform="translate(-518.156 -684.2)" fill="#453939"/>
      <path id="Path_4029" data-name="Path 4029" d="M609.611,541.866a32.4,32.4,0,0,0,1.9,2.645.735.735,0,0,1-.106,1.056l-.272.214a.735.735,0,0,1-1.047-.146,8.3,8.3,0,0,0-2.248-2.128.735.735,0,0,1-.067-1.2l.775-.611a.735.735,0,0,1,1.067.171Z" transform="translate(-585.637 -535.273)" fill="#343434"/>
      <circle id="Ellipse_840" data-name="Ellipse 840" cx="5.567" cy="5.567" r="5.567" transform="translate(30.15 4.669)" fill="#ffbdc6"/>
      <path id="Path_4032" data-name="Path 4032" d="M642.626,523.395a13.868,13.868,0,0,1,1.526-.423,2.541,2.541,0,0,1,1.758.843,4.2,4.2,0,0,0,1.587,1.146,3.927,3.927,0,0,0,1.272.085,1.184,1.184,0,0,0,.674-.171.85.85,0,0,0,.225-.344,3.271,3.271,0,0,0-.02-2.65.449.449,0,0,1-.063-.288.435.435,0,0,1,.1-.16,4.864,4.864,0,0,0,1.106-1.7,1.426,1.426,0,0,0-.7-1.719,1.325,1.325,0,0,0-1.047,0,4.234,4.234,0,0,1-.9.474c-.564.117-1.047-.337-1.488-.674a4.465,4.465,0,0,0-2.331-.863,2.287,2.287,0,0,0-1.1.146,4.409,4.409,0,0,0-.9.674,12.034,12.034,0,0,1-3.67,1.481c-.24.085-.508.211-.553.449s.225.479.495.582a1.809,1.809,0,0,1,.76.38c.225.27.153.652.193.991.083.674.674,1.041,1.328,1.236C641.379,523.044,642.089,523.485,642.626,523.395Z" transform="translate(-609.359 -516.199)" fill="#a66477"/>
      <path id="Path_4033" data-name="Path 4033" d="M638.29,664.84s3.976.674,4.969,2.821,6.967,7.954,6.967,7.954" transform="translate(-609.516 -630.863)" opacity="0.05"/>
      <path id="Path_4038" data-name="Path 4038" d="M605.272,719.256s.279-5.567-6.821-5.5-.279,0-.279,0a8.605,8.605,0,0,0-6.264,1.124,13.884,13.884,0,0,1-7.448,1.531s-3.2,5.291-.209,6.821,3.967-.569,3.967-.569,6.124,1.182,7.518-.418a7.145,7.145,0,0,0,7.725,1.542S606.942,722.248,605.272,719.256Z" transform="translate(-566.631 -668.649)" fill="#404040"/>
    </g>
  </g>
</svg>
