<svg xmlns="http://www.w3.org/2000/svg" width="25" height="25" viewBox="0 0 25 25">
  <path id="stress" d="M15.875,3.375a12.5,12.5,0,1,0,12.5,12.5A12.5,12.5,0,0,0,15.875,3.375Zm-4.441,7.141a1.444,1.444,0,1,1-1.322,1.322A1.446,1.446,0,0,1,11.434,10.516Zm-.042,11.129a.963.963,0,0,1-.883-1.346,5.85,5.85,0,0,1,10.733,0,.961.961,0,0,1-.883,1.346,43.309,43.309,0,0,0-4.393-.24C13.651,21.4,11.392,21.644,11.392,21.644Zm8.924-8.256a1.444,1.444,0,1,1,1.322-1.322A1.446,1.446,0,0,1,20.316,13.388Z" transform="translate(-3.375 -3.375)" fill="#6dd179"/>
</svg>
