<svg xmlns="http://www.w3.org/2000/svg" width="20" height="20" viewBox="0 0 20 20">
  <path id="sun" d="M10,6.25A3.75,3.75,0,1,0,13.751,10,3.756,3.756,0,0,0,10,6.25Zm9.625,3.145-3.7-1.848,1.309-3.922a.675.675,0,0,0-.856-.855L12.458,4.078,10.606.375a.676.676,0,0,0-1.211,0l-1.848,3.7L3.621,2.766a.675.675,0,0,0-.856.855L4.074,7.543.375,9.395a.676.676,0,0,0,0,1.211l3.7,1.848L2.766,16.379a.675.675,0,0,0,.856.855l3.922-1.309,1.848,3.7a.676.676,0,0,0,1.211,0l1.848-3.7,3.922,1.309a.675.675,0,0,0,.856-.855l-1.309-3.922,3.7-1.848a.677.677,0,0,0,.008-1.215Zm-6.09,4.141a5,5,0,1,1,0-7.07A5.006,5.006,0,0,1,13.536,13.535Z" fill="#6dd179" opacity="0.8"/>
</svg>
