<svg id="Group_2115" data-name="Group 2115" xmlns="http://www.w3.org/2000/svg" width="39.112" height="45.458" viewBox="0 0 39.112 45.458">
  <path id="Path_3599" data-name="Path 3599" d="M19.556,0A19.556,19.556,0,1,1,0,19.556,19.556,19.556,0,0,1,19.556,0Z" transform="translate(0 6.346)" fill="#8d8d8f"/>
  <path id="Path_2276" data-name="Path 2276" d="M17.937,0A17.937,17.937,0,1,1,0,17.937,17.937,17.937,0,0,1,17.937,0Z" transform="translate(1.619 7.964)" fill="#ececef"/>
  <ellipse id="Ellipse_214" data-name="Ellipse 214" cx="2.396" cy="2.396" rx="2.396" ry="2.396" transform="translate(17.095 23.571)" fill="#8d8d8f"/>
  <rect id="Rectangle_2047" data-name="Rectangle 2047" width="1.036" height="1.943" transform="translate(18.973 8.871)" fill="#8d8d8f"/>
  <rect id="Rectangle_2048" data-name="Rectangle 2048" width="1.036" height="1.943" transform="translate(18.973 41.119)" fill="#8d8d8f"/>
  <rect id="Rectangle_2049" data-name="Rectangle 2049" width="1.036" height="1.943" transform="translate(4.339 25.449) rotate(90)" fill="#8d8d8f"/>
  <rect id="Rectangle_2051" data-name="Rectangle 2051" width="1.036" height="1.943" transform="translate(36.271 25.449) rotate(90)" fill="#8d8d8f"/>
  <path id="Path_2277" data-name="Path 2277" d="M450.924,306.518l.885-2.025,11.095,6.145Z" transform="translate(-432.124 -279.51)" fill="#8d8d8f"/>
  <rect id="Rectangle_2050" data-name="Rectangle 2050" width="5.051" height="5.828" transform="translate(17.031 1.619)" fill="#8d8d8f"/>
  <ellipse id="Ellipse_215" data-name="Ellipse 215" cx="5.828" cy="1.619" rx="5.828" ry="1.619" transform="translate(13.728)" fill="#8d8d8f"/>
</svg>
