<svg xmlns="http://www.w3.org/2000/svg" width="40" height="40" viewBox="0 0 40 40">
  <g id="WORKOUT" transform="translate(-37 -605)">
    <path id="Icon_material-fitness-center" data-name="Icon material-fitness-center" d="M21.57,15.86,23,14.43,21.57,13,18,16.57,9.43,8,13,4.43,11.57,3,10.14,4.43,8.71,3,6.57,5.14,5.14,3.71,3.71,5.14,5.14,6.57,3,8.71l1.43,1.43L3,11.57,4.43,13,8,9.43,16.57,18,13,21.57,14.43,23l1.43-1.43L17.29,23l2.14-2.14,1.43,1.43,1.43-1.43-1.43-1.43L23,17.29Z" transform="translate(44 612)" fill="#6dd179"/>
    <g id="Path_3048" data-name="Path 3048" transform="translate(37 605)" fill="none">
      <path d="M10,0H30A10,10,0,0,1,40,10V30A10,10,0,0,1,30,40H10A10,10,0,0,1,0,30V10A10,10,0,0,1,10,0Z" stroke="none"/>
      <path d="M 10 1 C 5.037380218505859 1 1 5.037380218505859 1 10 L 1 30 C 1 34.96261978149414 5.037380218505859 39 10 39 L 30 39 C 34.96261978149414 39 39 34.96261978149414 39 30 L 39 10 C 39 5.037380218505859 34.96261978149414 1 30 1 L 10 1 M 10 0 L 30 0 C 35.52285003662109 0 40 4.477149963378906 40 10 L 40 30 C 40 35.52285003662109 35.52285003662109 40 30 40 L 10 40 C 4.477149963378906 40 0 35.52285003662109 0 30 L 0 10 C 0 4.477149963378906 4.477149963378906 0 10 0 Z" stroke="none" fill="#6dd179"/>
    </g>
  </g>
</svg>
